<?plantuml 1.2026.2?><svg xmlns="http://www.w3.org/2000/svg" xmlns:xlink="http://www.w3.org/1999/xlink" contentStyleType="text/css" data-diagram-type="CLASS" height="442px" preserveAspectRatio="none" style="width:746px;height:442px;background:#FFFFFF;" version="1.1" viewBox="0 0 746 442" width="746px" zoomAndPan="magnify"><defs/><g><!--class AdvancePaymentStatus--><g class="entity" data-qualified-name="AdvancePaymentStatus" data-source-line="10" id="ent0002"><rect fill="#FAFAFA" height="105.9531" rx="2.5" ry="2.5" style="stroke:#888888;stroke-width:0.5;" width="177.0947" x="7" y="113.66"/><ellipse cx="22" cy="129.66" fill="#EB937F" rx="11" ry="11" style="stroke:#181818;stroke-width:1;"/><path d="M25.6143,136.16 L17.8945,136.16 L17.8945,123.7669 L25.6143,123.7669 L25.6143,125.9251 L20.3433,125.9251 L20.3433,128.598 L25.1162,128.598 L25.1162,130.7562 L20.3433,130.7562 L20.3433,134.0018 L25.6143,134.0018 Z " fill="#000000"/><text fill="#000000" font-family="sans-serif" font-size="13" lengthAdjust="spacing" textLength="145.0947" x="36" y="134.5731">AdvancePaymentStatus</text><line style="stroke:#888888;stroke-width:0.5;" x1="8" x2="183.0947" y1="145.66" y2="145.66"/><text fill="#000000" font-family="sans-serif" font-size="14" lengthAdjust="spacing" textLength="55.5762" x="13" y="163.1952">pending</text><text fill="#000000" font-family="sans-serif" font-size="14" lengthAdjust="spacing" textLength="29.4014" x="13" y="179.6834">paid</text><text fill="#000000" font-family="sans-serif" font-size="14" lengthAdjust="spacing" textLength="43.333" x="13" y="196.1717">partial</text><text fill="#000000" font-family="sans-serif" font-size="14" lengthAdjust="spacing" textLength="54.6738" x="13" y="212.66">overdue</text></g><!--class PaymentMethod--><g class="entity" data-qualified-name="PaymentMethod" data-source-line="17" id="ent0003"><rect fill="#FAFAFA" height="138.9297" rx="2.5" ry="2.5" style="stroke:#888888;stroke-width:0.5;" width="133.0039" x="219.05" y="97.17"/><ellipse cx="234.05" cy="113.17" fill="#EB937F" rx="11" ry="11" style="stroke:#181818;stroke-width:1;"/><path d="M237.6643,119.67 L229.9445,119.67 L229.9445,107.2769 L237.6643,107.2769 L237.6643,109.4351 L232.3933,109.4351 L232.3933,112.108 L237.1662,112.108 L237.1662,114.2662 L232.3933,114.2662 L232.3933,117.5118 L237.6643,117.5118 Z " fill="#000000"/><text fill="#000000" font-family="sans-serif" font-size="13" lengthAdjust="spacing" textLength="101.0039" x="248.05" y="118.0831">PaymentMethod</text><line style="stroke:#888888;stroke-width:0.5;" x1="220.05" x2="351.0539" y1="129.17" y2="129.17"/><text fill="#000000" font-family="sans-serif" font-size="14" lengthAdjust="spacing" textLength="93.6113" x="225.05" y="146.7052">bank_transfer</text><text fill="#000000" font-family="sans-serif" font-size="14" lengthAdjust="spacing" textLength="75.2363" x="225.05" y="163.1934">credit_card</text><text fill="#000000" font-family="sans-serif" font-size="14" lengthAdjust="spacing" textLength="39.0127" x="225.05" y="179.6817">check</text><text fill="#000000" font-family="sans-serif" font-size="14" lengthAdjust="spacing" textLength="80.5" x="225.05" y="196.17">direct_debit</text><text fill="#000000" font-family="sans-serif" font-size="14" lengthAdjust="spacing" textLength="30.7275" x="225.05" y="212.6583">cash</text><text fill="#000000" font-family="sans-serif" font-size="14" lengthAdjust="spacing" textLength="36.0527" x="225.05" y="229.1466">other</text></g><!--class AdvancePayment--><g class="entity" data-qualified-name="AdvancePayment" data-source-line="26" id="ent0004"><rect fill="#FAFAFA" height="319.2559" rx="2.5" ry="2.5" style="stroke:#888888;stroke-width:0.5;" width="325.9951" x="386.55" y="7"/><ellipse cx="486.1667" cy="26.7217" fill="#ADD1B2" rx="11" ry="11" style="stroke:#181818;stroke-width:1;"/><path d="M488.6398,32.8647 Q488.0588,33.1636 487.4196,33.313 Q486.7805,33.4624 486.0749,33.4624 Q483.5681,33.4624 482.2482,31.8105 Q480.9284,30.1587 480.9284,27.0376 Q480.9284,23.9082 482.2482,22.2563 Q483.5681,20.6045 486.0749,20.6045 Q486.7805,20.6045 487.4279,20.7539 Q488.0754,20.9033 488.6398,21.2021 L488.6398,23.9248 Q488.009,23.3438 487.4155,23.074 Q486.822,22.8042 486.1911,22.8042 Q484.8464,22.8042 484.1616,23.8708 Q483.4768,24.9375 483.4768,27.0376 Q483.4768,29.1294 484.1616,30.196 Q484.8464,31.2627 486.1911,31.2627 Q486.822,31.2627 487.4155,30.9929 Q488.009,30.7231 488.6398,30.1421 Z " fill="#000000"/><text fill="#000000" font-family="sans-serif" font-size="12" font-style="italic" lengthAdjust="spacing" textLength="122.2617" x="504.6667" y="23.6016">&#171;advance_payments&#187;</text><text fill="#000000" font-family="sans-serif" font-size="13" lengthAdjust="spacing" textLength="106.4946" x="512.5502" y="38.7012">AdvancePayment</text><line style="stroke:#888888;stroke-width:0.5;" x1="387.55" x2="711.5451" y1="46.4434" y2="46.4434"/><text fill="#000000" font-family="sans-serif" font-size="14" lengthAdjust="spacing" textLength="91.2256" x="392.55" y="63.9785">+id : int &#171;PK&#187;</text><text fill="#000000" font-family="sans-serif" font-size="14" lengthAdjust="spacing" textLength="193.1084" x="392.55" y="80.4668">+client_id : int &#171;FK&#8594;clients&#187;</text><text fill="#000000" font-family="sans-serif" font-size="14" lengthAdjust="spacing" textLength="189.9912" x="392.55" y="96.9551">+period_months_count : int</text><text fill="#000000" font-family="sans-serif" font-size="14" lengthAdjust="spacing" textLength="115.876" x="392.55" y="113.4434">+due_date : date</text><text fill="#000000" font-family="sans-serif" font-size="14" lengthAdjust="spacing" textLength="221.8398" x="392.55" y="129.9316">+status : AdvancePaymentStatus</text><text fill="#000000" font-family="sans-serif" font-size="14" lengthAdjust="spacing" textLength="139.4258" x="392.55" y="146.4199">+paid_at : datetime?</text><text fill="#000000" font-family="sans-serif" font-size="14" lengthAdjust="spacing" textLength="256.9561" x="392.55" y="162.9082">+payment_method : PaymentMethod?</text><text fill="#000000" font-family="sans-serif" font-size="14" lengthAdjust="spacing" textLength="313.9951" x="392.55" y="179.3965">+annual_report_id : int? &#171;FK&#8594;annual_reports&#187;</text><text fill="#000000" font-family="sans-serif" font-size="14" lengthAdjust="spacing" textLength="154.3965" x="392.55" y="195.8848">+created_at : datetime</text><text fill="#000000" font-family="sans-serif" font-size="14" lengthAdjust="spacing" textLength="165.915" x="392.55" y="212.373">+updated_at : datetime?</text><text fill="#000000" font-family="sans-serif" font-size="14" lengthAdjust="spacing" textLength="160.3301" x="392.55" y="228.8613">+deleted_at : datetime?</text><text fill="#000000" font-family="sans-serif" font-size="14" lengthAdjust="spacing" textLength="207.9629" x="392.55" y="245.3496">+deleted_by : int? &#171;FK&#8594;users&#187;</text><line style="stroke:#888888;stroke-width:0.5;" x1="387.55" x2="711.5451" y1="252.3027" y2="252.3027"/><text fill="#000000" font-family="sans-serif" font-size="14" lengthAdjust="spacing" textLength="104.2754" x="392.55" y="269.8379">+period : str(7)</text><text fill="#000000" font-family="sans-serif" font-size="14" lengthAdjust="spacing" textLength="244.125" x="392.55" y="286.3262">+expected_amount : decimal(10,2)?</text><text fill="#000000" font-family="sans-serif" font-size="14" lengthAdjust="spacing" textLength="205.6045" x="392.55" y="302.8145">+paid_amount : decimal(10,2)</text><text fill="#000000" font-family="sans-serif" font-size="14" lengthAdjust="spacing" textLength="121.5498" x="392.55" y="319.3027">+notes : str(500)?</text></g><!--class Client--><g class="entity" data-qualified-name="Client" data-source-line="46" id="ent0005"><rect fill="#FAFAFA" height="32" rx="2.5" ry="2.5" style="stroke:#888888;stroke-width:0.5;" width="68.6831" x="387.21" y="403.26"/><ellipse cx="402.21" cy="419.26" fill="#ADD1B2" rx="11" ry="11" style="stroke:#181818;stroke-width:1;"/><path d="M404.6831,425.4031 Q404.1021,425.7019 403.4629,425.8513 Q402.8238,426.0007 402.1182,426.0007 Q399.6114,426.0007 398.2915,424.3489 Q396.9717,422.697 396.9717,419.5759 Q396.9717,416.4465 398.2915,414.7947 Q399.6114,413.1428 402.1182,413.1428 Q402.8238,413.1428 403.4712,413.2922 Q404.1187,413.4416 404.6831,413.7405 L404.6831,416.4631 Q404.0523,415.8821 403.4588,415.6123 Q402.8653,415.3425 402.2344,415.3425 Q400.8897,415.3425 400.2049,416.4092 Q399.5201,417.4758 399.5201,419.5759 Q399.5201,421.6677 400.2049,422.7344 Q400.8897,423.801 402.2344,423.801 Q402.8653,423.801 403.4588,423.5312 Q404.0523,423.2615 404.6831,422.6804 Z " fill="#000000"/><text fill="#000000" font-family="sans-serif" font-size="13" lengthAdjust="spacing" textLength="36.6831" x="416.21" y="424.1731">Client</text></g><!--class AnnualReport--><g class="entity" data-qualified-name="AnnualReport" data-source-line="47" id="ent0007"><rect fill="#FAFAFA" height="32" rx="2.5" ry="2.5" style="stroke:#888888;stroke-width:0.5;" width="117.9219" x="490.59" y="403.26"/><ellipse cx="505.59" cy="419.26" fill="#ADD1B2" rx="11" ry="11" style="stroke:#181818;stroke-width:1;"/><path d="M508.0631,425.4031 Q507.4821,425.7019 506.8429,425.8513 Q506.2038,426.0007 505.4982,426.0007 Q502.9914,426.0007 501.6715,424.3489 Q500.3517,422.697 500.3517,419.5759 Q500.3517,416.4465 501.6715,414.7947 Q502.9914,413.1428 505.4982,413.1428 Q506.2038,413.1428 506.8512,413.2922 Q507.4987,413.4416 508.0631,413.7405 L508.0631,416.4631 Q507.4323,415.8821 506.8388,415.6123 Q506.2453,415.3425 505.6144,415.3425 Q504.2697,415.3425 503.5849,416.4092 Q502.9001,417.4758 502.9001,419.5759 Q502.9001,421.6677 503.5849,422.7344 Q504.2697,423.801 505.6144,423.801 Q506.2453,423.801 506.8388,423.5312 Q507.4323,423.2615 508.0631,422.6804 Z " fill="#000000"/><text fill="#000000" font-family="sans-serif" font-size="13" lengthAdjust="spacing" textLength="85.9219" x="519.59" y="424.1731">AnnualReport</text></g><!--class User--><g class="entity" data-qualified-name="User" data-source-line="48" id="ent0009"><rect fill="#FAFAFA" height="32" rx="2.5" ry="2.5" style="stroke:#888888;stroke-width:0.5;" width="60.1963" x="667.45" y="403.26"/><ellipse cx="682.45" cy="419.26" fill="#ADD1B2" rx="11" ry="11" style="stroke:#181818;stroke-width:1;"/><path d="M684.9231,425.4031 Q684.3421,425.7019 683.7029,425.8513 Q683.0638,426.0007 682.3582,426.0007 Q679.8514,426.0007 678.5315,424.3489 Q677.2117,422.697 677.2117,419.5759 Q677.2117,416.4465 678.5315,414.7947 Q679.8514,413.1428 682.3582,413.1428 Q683.0638,413.1428 683.7112,413.2922 Q684.3587,413.4416 684.9231,413.7405 L684.9231,416.4631 Q684.2923,415.8821 683.6988,415.6123 Q683.1053,415.3425 682.4744,415.3425 Q681.1297,415.3425 680.4449,416.4092 Q679.7601,417.4758 679.7601,419.5759 Q679.7601,421.6677 680.4449,422.7344 Q681.1297,423.801 682.4744,423.801 Q683.1053,423.801 683.6988,423.5312 Q684.2923,423.2615 684.9231,422.6804 Z " fill="#000000"/><text fill="#000000" font-family="sans-serif" font-size="13" lengthAdjust="spacing" textLength="28.1963" x="696.45" y="424.1731">User</text></g><!--link AdvancePayment to Client--><g class="link" data-entity-1="ent0004" data-entity-2="ent0005" data-link-type="dependency" data-source-line="46" id="lnk6"><path codeLine="46" d="M468.3,326.71 C452.28,358.09 440.5383,381.0762 432.0783,397.6462" fill="none" id="AdvancePayment-to-Client" style="stroke:#555555;stroke-width:1;stroke-dasharray:7,7;"/><polygon fill="#555555" points="429.35,402.99,437.005,396.7932,431.6236,398.5368,429.88,393.1554,429.35,402.99" style="stroke:#555555;stroke-width:1;"/><text fill="#000000" font-family="sans-serif" font-size="13" lengthAdjust="spacing" textLength="52.7871" x="453.48" y="369.8284">client_id</text></g><!--link AdvancePayment to AnnualReport--><g class="link" data-entity-1="ent0004" data-entity-2="ent0007" data-link-type="dependency" data-source-line="47" id="lnk8"><path codeLine="47" d="M545.71,326.5 C545.79,342.3 546.04,358.09 546.55,373.26 C546.88,383.12 547.1551,388.1973 547.8151,396.8773" fill="none" id="AdvancePayment-to-AnnualReport" style="stroke:#555555;stroke-width:1;stroke-dasharray:7,7;"/><polygon fill="#555555" points="548.27,402.86,551.5761,393.5826,547.8909,397.8744,543.5992,394.1892,548.27,402.86" style="stroke:#555555;stroke-width:1;"/><text fill="#000000" font-family="sans-serif" font-size="13" lengthAdjust="spacing" textLength="106.1709" x="547.55" y="369.8284">annual_report_id</text></g><!--link AdvancePayment to User--><g class="link" data-entity-1="ent0004" data-entity-2="ent0009" data-link-type="dependency" data-source-line="48" id="lnk10"><path codeLine="48" d="M643.49,326.71 C662.02,358.09 675.6879,381.2543 685.4779,397.8243" fill="none" id="AdvancePayment-to-User" style="stroke:#555555;stroke-width:1;stroke-dasharray:7,7;"/><polygon fill="#555555" points="688.53,402.99,687.3957,393.2067,685.9866,398.6852,680.5081,397.2761,688.53,402.99" style="stroke:#555555;stroke-width:1;"/><text fill="#000000" font-family="sans-serif" font-size="13" lengthAdjust="spacing" textLength="68.1865" x="670.24" y="369.8284">deleted_by</text></g><?plantuml-src VLFRRjim37ttLn3OGn9iAT8DnGQZS95b2p0KnOeMUnOOYOs5w698ShViyjeFs2VkIoR9RfEusUG7oJo757aeZk23rIXD2IZkqN1Y3MurcU01VW9eAwY4krQfOWGVnPf0qPgCA64whU3ppHKuKXYaDRwMpNW202Sd5ImlfzQeBOoDFI1CYbeA0j9Ds88clIBd2x-Hfa676hX2x-SXEBbg0ttYrjpAxmIp8MLfJSZ8wPizQEwS_RgmoZfuSPRN7hX8Vk-j4-Hwohkydb6GRzREjaRqjEKyVKL1ferNT1fTTnBT1WojXny5G1CraMQTJYX5tboGgEB9tfCJBHM_-XYzynM5sehil4ApOS6XyNVauZzt96HW75sAn6lYcxWBwOW79cWbGpAZhrFqK4UV63iBCqWGpi-7NQsgVELBAQ04cIdNbrMLJ5p9o61xoFBopyFlpkmxJaDEsaJmmOtVJdOcfcDFQizub2vq0H8O2sS20qLBsfA9lZMn3X8CTSyLnAL6DJwTlNezkSWneuZ_m1FiE-7Be_tO-OV-rY0rzM4pZ-bE-_Am5vc2nhIecAF6kfqM5uzY7C2z9iO6yhqaPxDPLq7i8UOYzvD8GDk8vq1s4QJe_yXgEqYdzN60OXQn_wEdeLFIR7mUlU5y9YKLnjSrAOl1IqbJkyYTZbSylOHZh7cMu2Oh4Bb3mOwvV8bfvZu-bb7y1G00?></g></svg>