<?plantuml 1.2026.2?><svg xmlns="http://www.w3.org/2000/svg" xmlns:xlink="http://www.w3.org/1999/xlink" contentStyleType="text/css" data-diagram-type="CLASS" height="318px" preserveAspectRatio="none" style="width:249px;height:318px;background:#FFFFFF;" version="1.1" viewBox="0 0 249 318" width="249px" zoomAndPan="magnify"><defs/><g><!--class EntityAuditLog--><g class="entity" data-qualified-name="EntityAuditLog" data-source-line="10" id="ent0002"><rect fill="#FAFAFA" height="195.8379" rx="2.5" ry="2.5" style="stroke:#888888;stroke-width:0.5;" width="235.248" x="7" y="7"/><ellipse cx="66.6514" cy="26.7217" fill="#ADD1B2" rx="11" ry="11" style="stroke:#181818;stroke-width:1;"/><path d="M69.1245,32.8647 Q68.5435,33.1636 67.9043,33.313 Q67.2651,33.4624 66.5596,33.4624 Q64.0527,33.4624 62.7329,31.8105 Q61.4131,30.1587 61.4131,27.0376 Q61.4131,23.9082 62.7329,22.2563 Q64.0527,20.6045 66.5596,20.6045 Q67.2651,20.6045 67.9126,20.7539 Q68.5601,20.9033 69.1245,21.2021 L69.1245,23.9248 Q68.4937,23.3438 67.9001,23.074 Q67.3066,22.8042 66.6758,22.8042 Q65.3311,22.8042 64.6462,23.8708 Q63.9614,24.9375 63.9614,27.0376 Q63.9614,29.1294 64.6462,30.196 Q65.3311,31.2627 66.6758,31.2627 Q67.3066,31.2627 67.9001,30.9929 Q68.4937,30.7231 69.1245,30.1421 Z " fill="#000000"/><text fill="#000000" font-family="sans-serif" font-size="12" font-style="italic" lengthAdjust="spacing" textLength="111.4453" x="85.1514" y="23.6016">&#171;entity_audit_logs&#187;</text><text fill="#000000" font-family="sans-serif" font-size="13" lengthAdjust="spacing" textLength="92.2505" x="94.7488" y="38.7012">EntityAuditLog</text><line style="stroke:#888888;stroke-width:0.5;" x1="8" x2="241.248" y1="46.4434" y2="46.4434"/><text fill="#000000" font-family="sans-serif" font-size="14" lengthAdjust="spacing" textLength="91.2256" x="13" y="63.9785">+id : int &#171;PK&#187;</text><text fill="#000000" font-family="sans-serif" font-size="14" lengthAdjust="spacing" textLength="117.0039" x="13" y="80.4668">+entity_type : str</text><text fill="#000000" font-family="sans-serif" font-size="14" lengthAdjust="spacing" textLength="100.5703" x="13" y="96.9551">+entity_id : int</text><text fill="#000000" font-family="sans-serif" font-size="14" lengthAdjust="spacing" textLength="223.248" x="13" y="113.4434">+performed_by : int &#171;FK&#8594;users&#187;</text><text fill="#000000" font-family="sans-serif" font-size="14" lengthAdjust="spacing" textLength="83.9932" x="13" y="129.9316">+action : str</text><text fill="#000000" font-family="sans-serif" font-size="14" lengthAdjust="spacing" textLength="121.1533" x="13" y="146.4199">+old_value : text?</text><text fill="#000000" font-family="sans-serif" font-size="14" lengthAdjust="spacing" textLength="126.9707" x="13" y="162.9082">+new_value : text?</text><text fill="#000000" font-family="sans-serif" font-size="14" lengthAdjust="spacing" textLength="87.5068" x="13" y="179.3965">+note : text?</text><text fill="#000000" font-family="sans-serif" font-size="14" lengthAdjust="spacing" textLength="175.6152" x="13" y="195.8848">+performed_at : datetime</text></g><!--class User--><g class="entity" data-qualified-name="User" data-source-line="23" id="ent0003"><rect fill="#FAFAFA" height="32" rx="2.5" ry="2.5" style="stroke:#888888;stroke-width:0.5;" width="60.1963" x="94.53" y="279.84"/><ellipse cx="109.53" cy="295.84" fill="#ADD1B2" rx="11" ry="11" style="stroke:#181818;stroke-width:1;"/><path d="M112.0031,301.9831 Q111.4221,302.2819 110.7829,302.4313 Q110.1438,302.5807 109.4382,302.5807 Q106.9314,302.5807 105.6115,300.9289 Q104.2917,299.277 104.2917,296.1559 Q104.2917,293.0265 105.6115,291.3747 Q106.9314,289.7228 109.4382,289.7228 Q110.1438,289.7228 110.7912,289.8722 Q111.4387,290.0216 112.0031,290.3205 L112.0031,293.0431 Q111.3723,292.4621 110.7788,292.1923 Q110.1853,291.9225 109.5544,291.9225 Q108.2097,291.9225 107.5249,292.9892 Q106.8401,294.0558 106.8401,296.1559 Q106.8401,298.2477 107.5249,299.3144 Q108.2097,300.381 109.5544,300.381 Q110.1853,300.381 110.7788,300.1112 Q111.3723,299.8415 112.0031,299.2604 Z " fill="#000000"/><text fill="#000000" font-family="sans-serif" font-size="13" lengthAdjust="spacing" textLength="28.1963" x="123.53" y="300.7531">User</text></g><!--link EntityAuditLog to User--><g class="link" data-entity-1="ent0002" data-entity-2="ent0003" data-link-type="dependency" data-source-line="23" id="lnk4"><path codeLine="23" d="M124.62,203.15 C124.62,232.98 124.62,256.45 124.62,273.63" fill="none" id="EntityAuditLog-to-User" style="stroke:#555555;stroke-width:1;stroke-dasharray:7,7;"/><polygon fill="#555555" points="124.62,279.63,128.62,270.63,124.62,274.63,120.62,270.63,124.62,279.63" style="stroke:#555555;stroke-width:1;"/><text fill="#000000" font-family="sans-serif" font-size="13" lengthAdjust="spacing" textLength="87.8643" x="125.62" y="246.4084">performed_by</text></g><?plantuml-src RLBRIWCn47tFLmpuq1PfKKIGfQoijGjIHL5yBcaptOPcCqioQrqlhtw0d-YNk5bRUz79KyuvEPESIGikAPVQHY1BfHdW3I0dXH7CIcD42uOgGp2OeLKHTBintDxVW4CZMPFrSrsqEm3GwyMGZhfaJGLjIpk2ZfXhXO1vmHNac4_GUU4NsXRIoHocHdgVC3izAHclfcGVz0l2qRua9SiDStooHINEqN90XXmSd3QrHGx2kGjo2jrASjRK7ucSBZ97fLKhMPg49KJJ68QMDLT9oEUQCkZtiG76JM9ZGvcFOtWL08TQGGJQSgsv6yLnW5PQhWgiESzk2rpB0rIWcv7BKOqdrQz9Elhw-2nz7TYFcPo6K3S-PDJuIPeoM3C-yta0BIx_0ObtzfjsacjSIKRMEOftKSzyFKcZxS8tyzmVEYYiit6eEf7OYoTyXSVwohNhzfl4Dm00?></g></svg>