<?plantuml 1.2026.2?><svg xmlns="http://www.w3.org/2000/svg" xmlns:xlink="http://www.w3.org/1999/xlink" contentStyleType="text/css" data-diagram-type="CLASS" height="368px" preserveAspectRatio="none" style="width:408px;height:368px;background:#FFFFFF;" version="1.1" viewBox="0 0 408 368" width="408px" zoomAndPan="magnify"><defs/><g><!--class ContactType--><g class="entity" data-qualified-name="ContactType" data-source-line="10" id="ent0002"><rect fill="#FAFAFA" height="105.9531" rx="2.5" ry="2.5" style="stroke:#888888;stroke-width:0.5;" width="139.4492" x="7" y="76.67"/><ellipse cx="34.7808" cy="92.67" fill="#EB937F" rx="11" ry="11" style="stroke:#181818;stroke-width:1;"/><path d="M38.3951,99.17 L30.6754,99.17 L30.6754,86.7769 L38.3951,86.7769 L38.3951,88.9351 L33.1241,88.9351 L33.1241,91.608 L37.897,91.608 L37.897,93.7662 L33.1241,93.7662 L33.1241,97.0118 L38.3951,97.0118 Z " fill="#000000"/><text fill="#000000" font-family="sans-serif" font-size="13" lengthAdjust="spacing" textLength="79.0474" x="51.621" y="97.5831">ContactType</text><line style="stroke:#888888;stroke-width:0.5;" x1="8" x2="145.4492" y1="108.67" y2="108.67"/><text fill="#000000" font-family="sans-serif" font-size="14" lengthAdjust="spacing" textLength="116.1836" x="13" y="126.2052">assessing_officer</text><text fill="#000000" font-family="sans-serif" font-size="14" lengthAdjust="spacing" textLength="74.0332" x="13" y="142.6934">vat_branch</text><text fill="#000000" font-family="sans-serif" font-size="14" lengthAdjust="spacing" textLength="127.4492" x="13" y="159.1817">national_insurance</text><text fill="#000000" font-family="sans-serif" font-size="14" lengthAdjust="spacing" textLength="36.0527" x="13" y="175.67">other</text></g><!--class AuthorityContact--><g class="entity" data-qualified-name="AuthorityContact" data-source-line="17" id="ent0003"><rect fill="#FAFAFA" height="245.3027" rx="2.5" ry="2.5" style="stroke:#888888;stroke-width:0.5;" width="219.9629" x="181.74" y="7"/><ellipse cx="229.5095" cy="26.7217" fill="#ADD1B2" rx="11" ry="11" style="stroke:#181818;stroke-width:1;"/><path d="M231.9827,32.8647 Q231.4016,33.1636 230.7625,33.313 Q230.1233,33.4624 229.4177,33.4624 Q226.9109,33.4624 225.5911,31.8105 Q224.2713,30.1587 224.2713,27.0376 Q224.2713,23.9082 225.5911,22.2563 Q226.9109,20.6045 229.4177,20.6045 Q230.1233,20.6045 230.7708,20.7539 Q231.4182,20.9033 231.9827,21.2021 L231.9827,23.9248 Q231.3518,23.3438 230.7583,23.074 Q230.1648,22.8042 229.5339,22.8042 Q228.1892,22.8042 227.5044,23.8708 Q226.8196,24.9375 226.8196,27.0376 Q226.8196,29.1294 227.5044,30.196 Q228.1892,31.2627 229.5339,31.2627 Q230.1648,31.2627 230.7583,30.9929 Q231.3518,30.7231 231.9827,30.1421 Z " fill="#000000"/><text fill="#000000" font-family="sans-serif" font-size="12" font-style="italic" lengthAdjust="spacing" textLength="119.9238" x="248.0095" y="23.6016">&#171;authority_contacts&#187;</text><text fill="#000000" font-family="sans-serif" font-size="13" lengthAdjust="spacing" textLength="107.2944" x="254.3242" y="38.7012">AuthorityContact</text><line style="stroke:#888888;stroke-width:0.5;" x1="182.74" x2="400.7029" y1="46.4434" y2="46.4434"/><text fill="#000000" font-family="sans-serif" font-size="14" lengthAdjust="spacing" textLength="91.2256" x="187.74" y="63.9785">+id : int &#171;PK&#187;</text><text fill="#000000" font-family="sans-serif" font-size="14" lengthAdjust="spacing" textLength="193.1084" x="187.74" y="80.4668">+client_id : int &#171;FK&#8594;clients&#187;</text><text fill="#000000" font-family="sans-serif" font-size="14" lengthAdjust="spacing" textLength="195.542" x="187.74" y="96.9551">+contact_type : ContactType</text><text fill="#000000" font-family="sans-serif" font-size="14" lengthAdjust="spacing" textLength="79.8096" x="187.74" y="113.4434">+name : str</text><text fill="#000000" font-family="sans-serif" font-size="14" lengthAdjust="spacing" textLength="86.3379" x="187.74" y="129.9316">+office : str?</text><text fill="#000000" font-family="sans-serif" font-size="14" lengthAdjust="spacing" textLength="91.0137" x="187.74" y="146.4199">+phone : str?</text><text fill="#000000" font-family="sans-serif" font-size="14" lengthAdjust="spacing" textLength="85.1211" x="187.74" y="162.9082">+email : str?</text><text fill="#000000" font-family="sans-serif" font-size="14" lengthAdjust="spacing" textLength="94.6436" x="187.74" y="179.3965">+notes : text?</text><text fill="#000000" font-family="sans-serif" font-size="14" lengthAdjust="spacing" textLength="154.3965" x="187.74" y="195.8848">+created_at : datetime</text><text fill="#000000" font-family="sans-serif" font-size="14" lengthAdjust="spacing" textLength="165.915" x="187.74" y="212.373">+updated_at : datetime?</text><text fill="#000000" font-family="sans-serif" font-size="14" lengthAdjust="spacing" textLength="160.3301" x="187.74" y="228.8613">+deleted_at : datetime?</text><text fill="#000000" font-family="sans-serif" font-size="14" lengthAdjust="spacing" textLength="207.9629" x="187.74" y="245.3496">+deleted_by : int? &#171;FK&#8594;users&#187;</text></g><!--class Client--><g class="entity" data-qualified-name="Client" data-source-line="33" id="ent0004"><rect fill="#FAFAFA" height="32" rx="2.5" ry="2.5" style="stroke:#888888;stroke-width:0.5;" width="68.6831" x="207.38" y="329.3"/><ellipse cx="222.38" cy="345.3" fill="#ADD1B2" rx="11" ry="11" style="stroke:#181818;stroke-width:1;"/><path d="M224.8531,351.4431 Q224.2721,351.7419 223.6329,351.8913 Q222.9938,352.0407 222.2882,352.0407 Q219.7814,352.0407 218.4615,350.3889 Q217.1417,348.737 217.1417,345.6159 Q217.1417,342.4865 218.4615,340.8347 Q219.7814,339.1828 222.2882,339.1828 Q222.9938,339.1828 223.6412,339.3322 Q224.2887,339.4816 224.8531,339.7805 L224.8531,342.5031 Q224.2223,341.9221 223.6288,341.6523 Q223.0353,341.3825 222.4044,341.3825 Q221.0597,341.3825 220.3749,342.4492 Q219.6901,343.5158 219.6901,345.6159 Q219.6901,347.7077 220.3749,348.7744 Q221.0597,349.841 222.4044,349.841 Q223.0353,349.841 223.6288,349.5712 Q224.2223,349.3015 224.8531,348.7204 Z " fill="#000000"/><text fill="#000000" font-family="sans-serif" font-size="13" lengthAdjust="spacing" textLength="36.6831" x="236.38" y="350.2131">Client</text></g><!--class User--><g class="entity" data-qualified-name="User" data-source-line="34" id="ent0006"><rect fill="#FAFAFA" height="32" rx="2.5" ry="2.5" style="stroke:#888888;stroke-width:0.5;" width="60.1963" x="310.63" y="329.3"/><ellipse cx="325.63" cy="345.3" fill="#ADD1B2" rx="11" ry="11" style="stroke:#181818;stroke-width:1;"/><path d="M328.1031,351.4431 Q327.5221,351.7419 326.8829,351.8913 Q326.2438,352.0407 325.5382,352.0407 Q323.0314,352.0407 321.7115,350.3889 Q320.3917,348.737 320.3917,345.6159 Q320.3917,342.4865 321.7115,340.8347 Q323.0314,339.1828 325.5382,339.1828 Q326.2438,339.1828 326.8912,339.3322 Q327.5387,339.4816 328.1031,339.7805 L328.1031,342.5031 Q327.4723,341.9221 326.8788,341.6523 Q326.2853,341.3825 325.6544,341.3825 Q324.3097,341.3825 323.6249,342.4492 Q322.9401,343.5158 322.9401,345.6159 Q322.9401,347.7077 323.6249,348.7744 Q324.3097,349.841 325.6544,349.841 Q326.2853,349.841 326.8788,349.5712 Q327.4723,349.3015 328.1031,348.7204 Z " fill="#000000"/><text fill="#000000" font-family="sans-serif" font-size="13" lengthAdjust="spacing" textLength="28.1963" x="339.63" y="350.2131">User</text></g><!--link AuthorityContact to Client--><g class="link" data-entity-1="ent0003" data-entity-2="ent0004" data-link-type="dependency" data-source-line="33" id="lnk5"><path codeLine="33" d="M263.15,252.76 C256.02,283.24 250.6463,306.1676 246.6963,323.0576" fill="none" id="AuthorityContact-to-Client" style="stroke:#555555;stroke-width:1;stroke-dasharray:7,7;"/><polygon fill="#555555" points="245.33,328.9,251.2744,321.0474,246.4686,324.0314,243.4846,319.2256,245.33,328.9" style="stroke:#555555;stroke-width:1;"/><text fill="#000000" font-family="sans-serif" font-size="13" lengthAdjust="spacing" textLength="52.7871" x="256.13" y="295.8684">client_id</text></g><!--link AuthorityContact to User--><g class="link" data-entity-1="ent0003" data-entity-2="ent0006" data-link-type="dependency" data-source-line="34" id="lnk7"><path codeLine="34" d="M319.73,252.76 C326.72,283.24 331.9799,306.1616 335.8499,323.0516" fill="none" id="AuthorityContact-to-User" style="stroke:#555555;stroke-width:1;stroke-dasharray:7,7;"/><polygon fill="#555555" points="337.19,328.9,339.0789,319.234,336.0733,324.0263,331.281,321.0207,337.19,328.9" style="stroke:#555555;stroke-width:1;"/><text fill="#000000" font-family="sans-serif" font-size="13" lengthAdjust="spacing" textLength="68.1865" x="331.14" y="295.8684">deleted_by</text></g><?plantuml-src VLBRYjim47tNLmpq8HkMB2sbKCpY9KqRAA6qzF9i56iIYyWZ8utRkfVNVa0_SR-a8paRtCsozeldd2FDdEEPmMlVQai5w9uR7omFLUs9TSq0lm1QRx20NU-Sci4RiqTmk4So1ImM9Rp_-0u2EitMKsniTp47WAkh4jQRXIStm0Nv_mHprLY3W6t70xJORZ545G-MEXrq2xNJCIwPWztsZ6zba4_s1yBJ-vArJ9YPPyydr384_stbdG_mv4L-9kGgdNlbWy5mbBpCpvb4ruTzy3sPesozJAzIIBr8ncW-3nt2JmKW1p16I_lAxtQsnY3OLytLDcYg6oaeMzUkiXJx1AA0dXjH_bOgcu7bNVB7s-7w-kndnBBC3I-jWG8i9T67JLacg7OMYQi9izxS_laxml6e6Q-fE4rUJ7qabdIRqCXf_ilHobZV9A1hF4rhb8rnaveyOvIQyJjde0we6KsbML0ZdspRtAZlp3cHZnXq-3Yp7KP_DtS6-oZR8_OaoDbfuvobGynxTtyvmQ3a7T3C2tKMULhQLGvCcfm2VLZtHVgc8KzpgNy0?></g></svg>