<?plantuml 1.2026.2?><svg xmlns="http://www.w3.org/2000/svg" xmlns:xlink="http://www.w3.org/1999/xlink" contentStyleType="text/css" data-diagram-type="CLASS" height="923px" preserveAspectRatio="none" style="width:1085px;height:923px;background:#FFFFFF;" version="1.1" viewBox="0 0 1085 923" width="1085px" zoomAndPan="magnify"><defs/><g><!--class BinderStatus--><g class="entity" data-qualified-name="BinderStatus" data-source-line="10" id="ent0002"><rect fill="#FAFAFA" height="89.4648" rx="2.5" ry="2.5" style="stroke:#888888;stroke-width:0.5;" width="128.5732" x="291.05" y="72.95"/><ellipse cx="314.1166" cy="88.95" fill="#EB937F" rx="11" ry="11" style="stroke:#181818;stroke-width:1;"/><path d="M317.7309,95.45 L310.0111,95.45 L310.0111,83.0569 L317.7309,83.0569 L317.7309,85.2151 L312.4599,85.2151 L312.4599,87.888 L317.2328,87.888 L317.2328,90.0462 L312.4599,90.0462 L312.4599,93.2918 L317.7309,93.2918 Z " fill="#000000"/><text fill="#000000" font-family="sans-serif" font-size="13" lengthAdjust="spacing" textLength="78.6475" x="329.9092" y="93.8631">BinderStatus</text><line style="stroke:#888888;stroke-width:0.5;" x1="292.05" x2="418.6232" y1="104.95" y2="104.95"/><text fill="#000000" font-family="sans-serif" font-size="14" lengthAdjust="spacing" textLength="57.6475" x="297.05" y="122.4852">in_office</text><text fill="#000000" font-family="sans-serif" font-size="14" lengthAdjust="spacing" textLength="116.5732" x="297.05" y="138.9734">ready_for_pickup</text><text fill="#000000" font-family="sans-serif" font-size="14" lengthAdjust="spacing" textLength="58.4814" x="297.05" y="155.4617">returned</text></g><!--class Binder--><g class="entity" data-qualified-name="Binder" data-source-line="16" id="ent0003"><rect fill="#FAFAFA" height="278.2793" rx="2.5" ry="2.5" style="stroke:#888888;stroke-width:0.5;" width="219.9629" x="192.36" y="305.37"/><ellipse cx="271.9371" cy="325.0917" fill="#ADD1B2" rx="11" ry="11" style="stroke:#181818;stroke-width:1;"/><path d="M274.4103,331.2347 Q273.8292,331.5336 273.1901,331.683 Q272.5509,331.8324 271.8454,331.8324 Q269.3385,331.8324 268.0187,330.1805 Q266.6989,328.5287 266.6989,325.4076 Q266.6989,322.2782 268.0187,320.6263 Q269.3385,318.9745 271.8454,318.9745 Q272.5509,318.9745 273.1984,319.1239 Q273.8458,319.2733 274.4103,319.5721 L274.4103,322.2948 Q273.7794,321.7138 273.1859,321.444 Q272.5924,321.1742 271.9616,321.1742 Q270.6168,321.1742 269.932,322.2408 Q269.2472,323.3075 269.2472,325.4076 Q269.2472,327.4994 269.932,328.566 Q270.6168,329.6327 271.9616,329.6327 Q272.5924,329.6327 273.1859,329.3629 Q273.7794,329.0931 274.4103,328.5121 Z " fill="#000000"/><text fill="#000000" font-family="sans-serif" font-size="12" font-style="italic" lengthAdjust="spacing" textLength="56.3086" x="290.4371" y="321.9716">&#171;binders&#187;</text><text fill="#000000" font-family="sans-serif" font-size="13" lengthAdjust="spacing" textLength="40.0474" x="298.5678" y="337.0712">Binder</text><line style="stroke:#888888;stroke-width:0.5;" x1="193.36" x2="411.3229" y1="344.8134" y2="344.8134"/><text fill="#000000" font-family="sans-serif" font-size="14" lengthAdjust="spacing" textLength="91.2256" x="198.36" y="362.3485">+id : int &#171;PK&#187;</text><text fill="#000000" font-family="sans-serif" font-size="14" lengthAdjust="spacing" textLength="193.1084" x="198.36" y="378.8368">+client_id : int &#171;FK&#8594;clients&#187;</text><text fill="#000000" font-family="sans-serif" font-size="14" lengthAdjust="spacing" textLength="146.1934" x="198.36" y="395.3251">+binder_number : str</text><text fill="#000000" font-family="sans-serif" font-size="14" lengthAdjust="spacing" textLength="135.8643" x="198.36" y="411.8134">+period_start : date</text><text fill="#000000" font-family="sans-serif" font-size="14" lengthAdjust="spacing" textLength="136.001" x="198.36" y="428.3016">+period_end : date?</text><text fill="#000000" font-family="sans-serif" font-size="14" lengthAdjust="spacing" textLength="150.2813" x="198.36" y="444.7899">+status : BinderStatus</text><text fill="#000000" font-family="sans-serif" font-size="14" lengthAdjust="spacing" textLength="138.3525" x="198.36" y="461.2782">+returned_at : date?</text><text fill="#000000" font-family="sans-serif" font-size="14" lengthAdjust="spacing" textLength="192.1924" x="198.36" y="477.7665">+pickup_person_name : str?</text><text fill="#000000" font-family="sans-serif" font-size="14" lengthAdjust="spacing" textLength="94.5889" x="198.36" y="494.2548">+is_full : bool</text><text fill="#000000" font-family="sans-serif" font-size="14" lengthAdjust="spacing" textLength="94.6436" x="198.36" y="510.743">+notes : text?</text><text fill="#000000" font-family="sans-serif" font-size="14" lengthAdjust="spacing" textLength="154.3965" x="198.36" y="527.2313">+created_at : datetime</text><text fill="#000000" font-family="sans-serif" font-size="14" lengthAdjust="spacing" textLength="202.0293" x="198.36" y="543.7196">+created_by : int &#171;FK&#8594;users&#187;</text><text fill="#000000" font-family="sans-serif" font-size="14" lengthAdjust="spacing" textLength="160.3301" x="198.36" y="560.2079">+deleted_at : datetime?</text><text fill="#000000" font-family="sans-serif" font-size="14" lengthAdjust="spacing" textLength="207.9629" x="198.36" y="576.6962">+deleted_by : int? &#171;FK&#8594;users&#187;</text></g><!--class BinderIntake--><g class="entity" data-qualified-name="BinderIntake" data-source-line="33" id="ent0004"><rect fill="#FAFAFA" height="146.373" rx="2.5" ry="2.5" style="stroke:#888888;stroke-width:0.5;" width="220.1543" x="390.26" y="660.65"/><ellipse cx="449.0676" cy="680.3717" fill="#ADD1B2" rx="11" ry="11" style="stroke:#181818;stroke-width:1;"/><path d="M451.5408,686.5147 Q450.9597,686.8136 450.3205,686.963 Q449.6814,687.1124 448.9758,687.1124 Q446.469,687.1124 445.1492,685.4605 Q443.8293,683.8087 443.8293,680.6876 Q443.8293,677.5582 445.1492,675.9063 Q446.469,674.2545 448.9758,674.2545 Q449.6814,674.2545 450.3288,674.4039 Q450.9763,674.5533 451.5408,674.8521 L451.5408,677.5748 Q450.9099,676.9938 450.3164,676.724 Q449.7229,676.4542 449.092,676.4542 Q447.7473,676.4542 447.0625,677.5208 Q446.3777,678.5875 446.3777,680.6876 Q446.3777,682.7794 447.0625,683.846 Q447.7473,684.9127 449.092,684.9127 Q449.7229,684.9127 450.3164,684.6429 Q450.9099,684.3731 451.5408,683.7921 Z " fill="#000000"/><text fill="#000000" font-family="sans-serif" font-size="12" font-style="italic" lengthAdjust="spacing" textLength="98.0391" x="467.5676" y="677.2516">&#171;binder_intakes&#187;</text><text fill="#000000" font-family="sans-serif" font-size="13" lengthAdjust="spacing" textLength="78.7427" x="477.2158" y="692.3512">BinderIntake</text><line style="stroke:#888888;stroke-width:0.5;" x1="391.26" x2="609.4143" y1="700.0934" y2="700.0934"/><text fill="#000000" font-family="sans-serif" font-size="14" lengthAdjust="spacing" textLength="91.2256" x="396.26" y="717.6285">+id : int &#171;PK&#187;</text><text fill="#000000" font-family="sans-serif" font-size="14" lengthAdjust="spacing" textLength="206.9033" x="396.26" y="734.1168">+binder_id : int &#171;FK&#8594;binders&#187;</text><text fill="#000000" font-family="sans-serif" font-size="14" lengthAdjust="spacing" textLength="130.3682" x="396.26" y="750.6051">+received_at : date</text><text fill="#000000" font-family="sans-serif" font-size="14" lengthAdjust="spacing" textLength="208.1543" x="396.26" y="767.0934">+received_by : int &#171;FK&#8594;users&#187;</text><text fill="#000000" font-family="sans-serif" font-size="14" lengthAdjust="spacing" textLength="94.6436" x="396.26" y="783.5816">+notes : text?</text><text fill="#000000" font-family="sans-serif" font-size="14" lengthAdjust="spacing" textLength="154.3965" x="396.26" y="800.0699">+created_at : datetime</text></g><!--class MaterialType--><g class="entity" data-qualified-name="MaterialType" data-source-line="42" id="ent0005"><rect fill="#FAFAFA" height="221.3711" rx="2.5" ry="2.5" style="stroke:#888888;stroke-width:0.5;" width="170.6826" x="711" y="7"/><ellipse cx="751.9875" cy="23" fill="#EB937F" rx="11" ry="11" style="stroke:#181818;stroke-width:1;"/><path d="M755.6018,29.5 L747.882,29.5 L747.882,17.1069 L755.6018,17.1069 L755.6018,19.2651 L750.3308,19.2651 L750.3308,21.938 L755.1037,21.938 L755.1037,24.0962 L750.3308,24.0962 L750.3308,27.3418 L755.6018,27.3418 Z " fill="#000000"/><text fill="#000000" font-family="sans-serif" font-size="13" lengthAdjust="spacing" textLength="80.9326" x="771.7625" y="27.9131">MaterialType</text><line style="stroke:#888888;stroke-width:0.5;" x1="712" x2="880.6826" y1="39" y2="39"/><text fill="#000000" font-family="sans-serif" font-size="14" lengthAdjust="spacing" textLength="20.2139" x="717" y="56.5352">vat</text><text fill="#000000" font-family="sans-serif" font-size="14" lengthAdjust="spacing" textLength="77.9297" x="717" y="73.0234">income_tax</text><text fill="#000000" font-family="sans-serif" font-size="14" lengthAdjust="spacing" textLength="94.4795" x="717" y="89.5117">annual_report</text><text fill="#000000" font-family="sans-serif" font-size="14" lengthAdjust="spacing" textLength="39.6895" x="717" y="106">salary</text><text fill="#000000" font-family="sans-serif" font-size="14" lengthAdjust="spacing" textLength="88.252" x="717" y="122.4883">bookkeeping</text><text fill="#000000" font-family="sans-serif" font-size="14" lengthAdjust="spacing" textLength="127.4492" x="717" y="138.9766">national_insurance</text><text fill="#000000" font-family="sans-serif" font-size="14" lengthAdjust="spacing" textLength="127.3672" x="717" y="155.4648">capital_declaration</text><text fill="#000000" font-family="sans-serif" font-size="14" lengthAdjust="spacing" textLength="158.6826" x="717" y="171.9531">pension_and_insurance</text><text fill="#000000" font-family="sans-serif" font-size="14" lengthAdjust="spacing" textLength="104.125" x="717" y="188.4414">corporate_docs</text><text fill="#000000" font-family="sans-serif" font-size="14" lengthAdjust="spacing" textLength="107.4268" x="717" y="204.9297">tax_assessment</text><text fill="#000000" font-family="sans-serif" font-size="14" lengthAdjust="spacing" textLength="36.0527" x="717" y="221.418">other</text></g><!--class BinderIntakeMaterial--><g class="entity" data-qualified-name="BinderIntakeMaterial" data-source-line="56" id="ent0006"><rect fill="#FAFAFA" height="162.8613" rx="2.5" ry="2.5" style="stroke:#888888;stroke-width:0.5;" width="325.9951" x="716.34" y="363.08"/><ellipse cx="801.3288" cy="382.8017" fill="#ADD1B2" rx="11" ry="11" style="stroke:#181818;stroke-width:1;"/><path d="M803.8019,388.9447 Q803.2209,389.2436 802.5817,389.393 Q801.9425,389.5424 801.237,389.5424 Q798.7301,389.5424 797.4103,387.8905 Q796.0905,386.2387 796.0905,383.1176 Q796.0905,379.9882 797.4103,378.3363 Q798.7301,376.6845 801.237,376.6845 Q801.9425,376.6845 802.59,376.8339 Q803.2375,376.9833 803.8019,377.2821 L803.8019,380.0048 Q803.1711,379.4237 802.5775,379.154 Q801.984,378.8842 801.3532,378.8842 Q800.0085,378.8842 799.3236,379.9508 Q798.6388,381.0175 798.6388,383.1176 Q798.6388,385.2094 799.3236,386.276 Q800.0085,387.3427 801.3532,387.3427 Q801.984,387.3427 802.5775,387.0729 Q803.1711,386.8031 803.8019,386.2221 Z " fill="#000000"/><text fill="#000000" font-family="sans-serif" font-size="12" font-style="italic" lengthAdjust="spacing" textLength="151.5176" x="819.8288" y="379.6816">&#171;binder_intake_materials&#187;</text><text fill="#000000" font-family="sans-serif" font-size="13" lengthAdjust="spacing" textLength="129.2383" x="830.9684" y="394.7812">BinderIntakeMaterial</text><line style="stroke:#888888;stroke-width:0.5;" x1="717.34" x2="1041.3351" y1="402.5234" y2="402.5234"/><text fill="#000000" font-family="sans-serif" font-size="14" lengthAdjust="spacing" textLength="91.2256" x="722.34" y="420.0585">+id : int &#171;PK&#187;</text><text fill="#000000" font-family="sans-serif" font-size="14" lengthAdjust="spacing" textLength="253.3877" x="722.34" y="436.5468">+intake_id : int &#171;FK&#8594;binder_intakes&#187;</text><text fill="#000000" font-family="sans-serif" font-size="14" lengthAdjust="spacing" textLength="251.7266" x="722.34" y="453.0351">+business_id : int? &#171;FK&#8594;businesses&#187;</text><text fill="#000000" font-family="sans-serif" font-size="14" lengthAdjust="spacing" textLength="203.1299" x="722.34" y="469.5234">+material_type : MaterialType</text><text fill="#000000" font-family="sans-serif" font-size="14" lengthAdjust="spacing" textLength="313.9951" x="722.34" y="486.0116">+annual_report_id : int? &#171;FK&#8594;annual_reports&#187;</text><text fill="#000000" font-family="sans-serif" font-size="14" lengthAdjust="spacing" textLength="133.2598" x="722.34" y="502.4999">+description : text?</text><text fill="#000000" font-family="sans-serif" font-size="14" lengthAdjust="spacing" textLength="154.3965" x="722.34" y="518.9882">+created_at : datetime</text></g><!--class BinderStatusLog--><g class="entity" data-qualified-name="BinderStatusLog" data-source-line="66" id="ent0007"><rect fill="#FAFAFA" height="162.8613" rx="2.5" ry="2.5" style="stroke:#888888;stroke-width:0.5;" width="221.3711" x="454.66" y="36.25"/><ellipse cx="502.1375" cy="55.9717" fill="#ADD1B2" rx="11" ry="11" style="stroke:#181818;stroke-width:1;"/><path d="M504.6107,62.1147 Q504.0296,62.4136 503.3905,62.563 Q502.7513,62.7124 502.0457,62.7124 Q499.5389,62.7124 498.2191,61.0605 Q496.8993,59.4087 496.8993,56.2876 Q496.8993,53.1582 498.2191,51.5063 Q499.5389,49.8545 502.0457,49.8545 Q502.7513,49.8545 503.3988,50.0039 Q504.0462,50.1533 504.6107,50.4521 L504.6107,53.1748 Q503.9798,52.5938 503.3863,52.324 Q502.7928,52.0542 502.162,52.0542 Q500.8172,52.0542 500.1324,53.1208 Q499.4476,54.1875 499.4476,56.2876 Q499.4476,58.3794 500.1324,59.446 Q500.8172,60.5127 502.162,60.5127 Q502.7928,60.5127 503.3863,60.2429 Q503.9798,59.9731 504.6107,59.3921 Z " fill="#000000"/><text fill="#000000" font-family="sans-serif" font-size="12" font-style="italic" lengthAdjust="spacing" textLength="121.916" x="520.6375" y="52.8516">&#171;binder_status_logs&#187;</text><text fill="#000000" font-family="sans-serif" font-size="13" lengthAdjust="spacing" textLength="101.6704" x="530.7603" y="67.9512">BinderStatusLog</text><line style="stroke:#888888;stroke-width:0.5;" x1="455.66" x2="675.0311" y1="75.6934" y2="75.6934"/><text fill="#000000" font-family="sans-serif" font-size="14" lengthAdjust="spacing" textLength="91.2256" x="460.66" y="93.2285">+id : int &#171;PK&#187;</text><text fill="#000000" font-family="sans-serif" font-size="14" lengthAdjust="spacing" textLength="206.9033" x="460.66" y="109.7168">+binder_id : int &#171;FK&#8594;binders&#187;</text><text fill="#000000" font-family="sans-serif" font-size="14" lengthAdjust="spacing" textLength="112.1436" x="460.66" y="126.2051">+old_status : str</text><text fill="#000000" font-family="sans-serif" font-size="14" lengthAdjust="spacing" textLength="117.9609" x="460.66" y="142.6934">+new_status : str</text><text fill="#000000" font-family="sans-serif" font-size="14" lengthAdjust="spacing" textLength="209.3711" x="460.66" y="159.1816">+changed_by : int &#171;FK&#8594;users&#187;</text><text fill="#000000" font-family="sans-serif" font-size="14" lengthAdjust="spacing" textLength="161.7383" x="460.66" y="175.6699">+changed_at : datetime</text><text fill="#000000" font-family="sans-serif" font-size="14" lengthAdjust="spacing" textLength="94.6436" x="460.66" y="192.1582">+notes : text?</text></g><!--class Client--><g class="entity" data-qualified-name="Client" data-source-line="79" id="ent0010"><rect fill="#FAFAFA" height="32" rx="2.5" ry="2.5" style="stroke:#888888;stroke-width:0.5;" width="68.6831" x="7" y="717.83"/><ellipse cx="22" cy="733.83" fill="#ADD1B2" rx="11" ry="11" style="stroke:#181818;stroke-width:1;"/><path d="M24.4731,739.9731 Q23.8921,740.2719 23.2529,740.4213 Q22.6138,740.5707 21.9082,740.5707 Q19.4014,740.5707 18.0815,738.9189 Q16.7617,737.267 16.7617,734.1459 Q16.7617,731.0165 18.0815,729.3647 Q19.4014,727.7128 21.9082,727.7128 Q22.6138,727.7128 23.2612,727.8622 Q23.9087,728.0116 24.4731,728.3105 L24.4731,731.0331 Q23.8423,730.4521 23.2488,730.1823 Q22.6553,729.9125 22.0244,729.9125 Q20.6797,729.9125 19.9949,730.9792 Q19.3101,732.0458 19.3101,734.1459 Q19.3101,736.2377 19.9949,737.3044 Q20.6797,738.371 22.0244,738.371 Q22.6553,738.371 23.2488,738.1012 Q23.8423,737.8315 24.4731,737.2504 Z " fill="#000000"/><text fill="#000000" font-family="sans-serif" font-size="13" lengthAdjust="spacing" textLength="36.6831" x="36" y="738.7431">Client</text></g><!--class User--><g class="entity" data-qualified-name="User" data-source-line="80" id="ent0012"><rect fill="#FAFAFA" height="32" rx="2.5" ry="2.5" style="stroke:#888888;stroke-width:0.5;" width="60.1963" x="323.24" y="884.02"/><ellipse cx="338.24" cy="900.02" fill="#ADD1B2" rx="11" ry="11" style="stroke:#181818;stroke-width:1;"/><path d="M340.7131,906.1631 Q340.1321,906.4619 339.4929,906.6113 Q338.8538,906.7607 338.1482,906.7607 Q335.6414,906.7607 334.3215,905.1089 Q333.0017,903.457 333.0017,900.3359 Q333.0017,897.2065 334.3215,895.5547 Q335.6414,893.9028 338.1482,893.9028 Q338.8538,893.9028 339.5012,894.0522 Q340.1487,894.2016 340.7131,894.5005 L340.7131,897.2231 Q340.0823,896.6421 339.4888,896.3723 Q338.8953,896.1025 338.2644,896.1025 Q336.9197,896.1025 336.2349,897.1692 Q335.5501,898.2358 335.5501,900.3359 Q335.5501,902.4277 336.2349,903.4944 Q336.9197,904.561 338.2644,904.561 Q338.8953,904.561 339.4888,904.2912 Q340.0823,904.0215 340.7131,903.4404 Z " fill="#000000"/><text fill="#000000" font-family="sans-serif" font-size="13" lengthAdjust="spacing" textLength="28.1963" x="352.24" y="904.9331">User</text></g><!--class Business--><g class="entity" data-qualified-name="Business" data-source-line="84" id="ent0017"><rect fill="#FAFAFA" height="32" rx="2.5" ry="2.5" style="stroke:#888888;stroke-width:0.5;" width="86.4946" x="836.09" y="717.83"/><ellipse cx="851.09" cy="733.83" fill="#ADD1B2" rx="11" ry="11" style="stroke:#181818;stroke-width:1;"/><path d="M853.5631,739.9731 Q852.9821,740.2719 852.3429,740.4213 Q851.7038,740.5707 850.9982,740.5707 Q848.4914,740.5707 847.1715,738.9189 Q845.8517,737.267 845.8517,734.1459 Q845.8517,731.0165 847.1715,729.3647 Q848.4914,727.7128 850.9982,727.7128 Q851.7038,727.7128 852.3512,727.8622 Q852.9987,728.0116 853.5631,728.3105 L853.5631,731.0331 Q852.9323,730.4521 852.3388,730.1823 Q851.7453,729.9125 851.1144,729.9125 Q849.7697,729.9125 849.0849,730.9792 Q848.4001,732.0458 848.4001,734.1459 Q848.4001,736.2377 849.0849,737.3044 Q849.7697,738.371 851.1144,738.371 Q851.7453,738.371 852.3388,738.1012 Q852.9323,737.8315 853.5631,737.2504 Z " fill="#000000"/><text fill="#000000" font-family="sans-serif" font-size="13" lengthAdjust="spacing" textLength="54.4946" x="865.09" y="738.7431">Business</text></g><!--class AnnualReport--><g class="entity" data-qualified-name="AnnualReport" data-source-line="85" id="ent0019"><rect fill="#FAFAFA" height="32" rx="2.5" ry="2.5" style="stroke:#888888;stroke-width:0.5;" width="117.9219" x="957.38" y="717.83"/><ellipse cx="972.38" cy="733.83" fill="#ADD1B2" rx="11" ry="11" style="stroke:#181818;stroke-width:1;"/><path d="M974.8531,739.9731 Q974.2721,740.2719 973.6329,740.4213 Q972.9938,740.5707 972.2882,740.5707 Q969.7814,740.5707 968.4615,738.9189 Q967.1417,737.267 967.1417,734.1459 Q967.1417,731.0165 968.4615,729.3647 Q969.7814,727.7128 972.2882,727.7128 Q972.9938,727.7128 973.6412,727.8622 Q974.2887,728.0116 974.8531,728.3105 L974.8531,731.0331 Q974.2223,730.4521 973.6288,730.1823 Q973.0353,729.9125 972.4044,729.9125 Q971.0597,729.9125 970.3749,730.9792 Q969.6901,732.0458 969.6901,734.1459 Q969.6901,736.2377 970.3749,737.3044 Q971.0597,738.371 972.4044,738.371 Q973.0353,738.371 973.6288,738.1012 Q974.2223,737.8315 974.8531,737.2504 Z " fill="#000000"/><text fill="#000000" font-family="sans-serif" font-size="13" lengthAdjust="spacing" textLength="85.9219" x="986.38" y="738.7431">AnnualReport</text></g><!--link Binder to BinderIntake--><g class="link" data-entity-1="ent0003" data-entity-2="ent0004" data-link-type="dependency" data-source-line="76" id="lnk8"><path codeLine="76" d="M397.94,584.05 C404.85,594.06 411.7,604.01 418.34,613.65 C428.74,628.75 436.4789,639.9771 447.0889,655.3971" fill="none" id="Binder-to-BinderIntake" style="stroke:#555555;stroke-width:1;"/><polygon fill="#555555" points="450.49,660.34,448.6837,650.6582,447.6558,656.2209,442.0931,655.193,450.49,660.34" style="stroke:#555555;stroke-width:1;"/><text fill="#000000" font-family="sans-serif" font-size="13" lengthAdjust="spacing" textLength="45.335" x="430.5" y="627.2184">intakes</text><text fill="#000000" font-family="sans-serif" font-size="13" lengthAdjust="spacing" textLength="22.7119" x="422.5354" y="649.9505">0..*</text></g><!--link BinderIntake to Binder--><g class="link" data-entity-1="ent0004" data-entity-2="ent0003" data-link-type="dependency" data-source-line="77" id="lnk9"><path codeLine="77" d="M394.42,660.22 C384.84,650.99 375.91,641.09 368.34,630.65 C358.03,616.42 351.6835,605.8773 344.1535,589.3973" fill="none" id="BinderIntake-to-Binder" style="stroke:#555555;stroke-width:1;"/><polygon fill="#555555" points="341.66,583.94,341.7621,593.7883,343.738,588.4878,349.0385,590.4636,341.66,583.94" style="stroke:#555555;stroke-width:1;"/><text fill="#000000" font-family="sans-serif" font-size="13" lengthAdjust="spacing" textLength="40.752" x="369.34" y="627.2184">binder</text><text fill="#000000" font-family="sans-serif" font-size="13" lengthAdjust="spacing" textLength="24.667" x="319.0858" y="604.0925">0..1</text></g><!--link Binder to Client--><g class="link" data-entity-1="ent0003" data-entity-2="ent0010" data-link-type="dependency" data-source-line="79" id="lnk11"><path codeLine="79" d="M191.88,499.73 C146,527.65 96.33,565.95 65.34,613.65 C44.18,646.21 41.0625,687.54 40.9725,711.58" fill="none" id="Binder-to-Client" style="stroke:#555555;stroke-width:1;stroke-dasharray:7,7;"/><polygon fill="#555555" points="40.95,717.58,44.9837,708.595,40.9687,712.58,36.9837,708.5651,40.95,717.58" style="stroke:#555555;stroke-width:1;"/><text fill="#000000" font-family="sans-serif" font-size="13" lengthAdjust="spacing" textLength="52.7871" x="66.34" y="627.2184">client_id</text></g><!--link Binder to User--><g class="link" data-entity-1="ent0003" data-entity-2="ent0012" data-link-type="dependency" data-source-line="80" id="lnk13"><path codeLine="80" d="M197.04,584.12 C157.57,653.85 131.18,737.99 172.34,807.02 C204.66,861.21 274.4146,883.3362 316.9746,892.5062" fill="none" id="Binder-to-User" style="stroke:#555555;stroke-width:1;stroke-dasharray:7,7;"/><polygon fill="#555555" points="322.84,893.77,314.8844,887.9641,317.9522,892.7169,313.1994,895.7846,322.84,893.77" style="stroke:#555555;stroke-width:1;"/><text fill="#000000" font-family="sans-serif" font-size="13" lengthAdjust="spacing" textLength="68.1611" x="173.34" y="738.8984">created_by</text></g><!--link Binder to User--><g class="link" data-entity-1="ent0003" data-entity-2="ent0012" data-link-type="dependency" data-source-line="81" id="lnk14"><path codeLine="81" d="M286.22,584.03 C282.34,652.21 283.72,735.02 302.34,807.02 C309.93,836.37 325.6149,861.4703 338.1749,878.9203" fill="none" id="Binder-to-User-1" style="stroke:#555555;stroke-width:1;stroke-dasharray:7,7;"/><polygon fill="#555555" points="341.68,883.79,339.6689,874.1487,338.7591,879.7319,333.1759,878.8221,341.68,883.79" style="stroke:#555555;stroke-width:1;"/><text fill="#000000" font-family="sans-serif" font-size="13" lengthAdjust="spacing" textLength="68.1865" x="303.34" y="738.8984">deleted_by</text></g><!--link BinderIntake to User--><g class="link" data-entity-1="ent0004" data-entity-2="ent0012" data-link-type="dependency" data-source-line="82" id="lnk15"><path codeLine="82" d="M435.44,807.33 C409.9,835.85 386.9616,861.4593 371.1816,879.0893" fill="none" id="BinderIntake-to-User" style="stroke:#555555;stroke-width:1;stroke-dasharray:7,7;"/><polygon fill="#555555" points="367.18,883.56,376.1629,879.5216,370.5147,879.8344,370.2019,874.1862,367.18,883.56" style="stroke:#555555;stroke-width:1;"/><text fill="#000000" font-family="sans-serif" font-size="13" lengthAdjust="spacing" textLength="73.8486" x="406.09" y="850.5884">received_by</text></g><!--link BinderIntakeMaterial to BinderIntake--><g class="link" data-entity-1="ent0006" data-entity-2="ent0004" data-link-type="dependency" data-source-line="83" id="lnk16"><path codeLine="83" d="M832.87,526.22 C809.13,561.92 777.6,602.18 741.34,630.65 C702.92,660.82 659.8863,681.5587 616.3663,697.9187" fill="none" id="BinderIntakeMaterial-to-BinderIntake" style="stroke:#555555;stroke-width:1;stroke-dasharray:7,7;"/><polygon fill="#555555" points="610.75,700.03,620.5819,700.6073,615.4302,698.2706,617.7669,693.1189,610.75,700.03" style="stroke:#555555;stroke-width:1;"/><text fill="#000000" font-family="sans-serif" font-size="13" lengthAdjust="spacing" textLength="57.1479" x="761.25" y="627.2184">intake_id</text></g><!--link BinderIntakeMaterial to Business--><g class="link" data-entity-1="ent0006" data-entity-2="ent0017" data-link-type="dependency" data-source-line="84" id="lnk18"><path codeLine="84" d="M879.34,526.31 C879.34,593.03 879.34,676.3 879.34,711.57" fill="none" id="BinderIntakeMaterial-to-Business" style="stroke:#555555;stroke-width:1;stroke-dasharray:7,7;"/><polygon fill="#555555" points="879.34,717.57,883.34,708.57,879.34,712.57,875.34,708.57,879.34,717.57" style="stroke:#555555;stroke-width:1;"/><text fill="#000000" font-family="sans-serif" font-size="13" lengthAdjust="spacing" textLength="73.6392" x="880.34" y="627.2184">business_id</text></g><!--link BinderIntakeMaterial to AnnualReport--><g class="link" data-entity-1="ent0006" data-entity-2="ent0019" data-link-type="dependency" data-source-line="85" id="lnk20"><path codeLine="85" d="M919.78,526.06 C933.49,553.73 948.77,584.96 962.34,613.65 C979.93,650.81 997.2139,689.5124 1007.2539,712.2224" fill="none" id="BinderIntakeMaterial-to-AnnualReport" style="stroke:#555555;stroke-width:1;stroke-dasharray:7,7;"/><polygon fill="#555555" points="1009.68,717.71,1009.6993,707.8612,1007.6583,713.137,1002.3825,711.0959,1009.68,717.71" style="stroke:#555555;stroke-width:1;"/><text fill="#000000" font-family="sans-serif" font-size="13" lengthAdjust="spacing" textLength="106.1709" x="970.9" y="627.2184">annual_report_id</text></g><!--link BinderStatusLog to Binder--><g class="link" data-entity-1="ent0007" data-entity-2="ent0003" data-link-type="dependency" data-source-line="86" id="lnk21"><path codeLine="86" d="M499.99,199.39 C473.6,231.99 446.1761,265.8673 416.4461,302.5773" fill="none" id="BinderStatusLog-to-Binder" style="stroke:#555555;stroke-width:1;stroke-dasharray:7,7;"/><polygon fill="#555555" points="412.67,307.24,421.4427,302.7634,415.8168,303.3544,415.2257,297.7285,412.67,307.24" style="stroke:#555555;stroke-width:1;"/><text fill="#000000" font-family="sans-serif" font-size="13" lengthAdjust="spacing" textLength="59.1919" x="450.59" y="271.9384">binder_id</text></g><!--link BinderStatusLog to User--><g class="link" data-entity-1="ent0007" data-entity-2="ent0012" data-link-type="dependency" data-source-line="87" id="lnk22"><path codeLine="87" d="M585.64,199.58 C623.88,360.12 696.87,711.72 628.34,807.02 C571.32,886.31 448.7889,898.1439 389.8789,899.2839" fill="none" id="BinderStatusLog-to-User" style="stroke:#555555;stroke-width:1;stroke-dasharray:7,7;"/><polygon fill="#555555" points="383.88,899.4,392.9557,903.2251,388.8791,899.3033,392.8009,895.2266,383.88,899.4" style="stroke:#555555;stroke-width:1;"/><text fill="#000000" font-family="sans-serif" font-size="13" lengthAdjust="spacing" textLength="74.9785" x="656.78" y="627.2184">changed_by</text></g><?plantuml-src fLLTRzCm57tFhxY2XssWLPiG4egcJjsWqZGcq0RFbXlVjbOTExATRGNsoW_W9_9Bk7O-cgHTDOda9Jdt-Fhwt6Fx03wQd4kTmangWTO1_0B8ZS0KvgLIoG5y4Wi4XGlK8eNZup5ykRq1YufxQRHRokBm2016ep5Chu-DLciurAP7E4gMKY1WNlWrv9ZFQ9x4hQGkkEKvP8exD_7UobdfyIep-ax-G3WPKgP6-nWvVTS9JQmr3vT66GkltyUd4xmCuowCfPNLb0_nsQBmRBMmfjIYfaqduKqIr6KE5r6QEyzzwU1d0Y0rC_Evp92-BNAnPdDZMI6pLLb4o9TMeqYUaYHMNcU0ixDQvV4uvdah1QIKpLFaw_Lu7A1CITIUTIBJwx-__rImgpXL5aQraPJ4Szu6k40hZM3ES-i95TnZ1wR-rU1vG5srdBItkX1egcVST_dLwXWbSqOppNEi9ev1wLXm2o4pOrH0jF4Oidjyz96IaL2-czNB7Bk1sRg_uj95eG95eCAjiUVTI3FuV3Xwq88hxVaAsqOm6V_tzQCX3lhHDhAIB4DvtosmX-vPsGjbUggTU4E0bLnzMnSOAxxdFlenCpaopn_fXsjTSiKi5iQ6eEEAspLzK6jMAyH2wWNzwRWzYIYrAotNqSmPBwGdJ229PYE3q0Areo_6jUYpZQKvg2GcJ1QyGmKmqXgToyci11Y_HBkx1yrIXhrWUHtOrvIQkhifcwR6_fLEQgge9RSMQI8DivcO-Q1ksXCxn7l2RgVhXLlZkipA8kZueYPtPQfsv6Ups2XKxLccpE9_7MkKOEq9K1yV6X-si6p9zMA_XHlAriRkUvjMLv-2uGvvTJ8QlNdLtvHnWj2uf0StzDE63irbHPTJS-KegLSkNZp3smagBwCuIfi2mbrr6SzJIjMUjzteTnUdsHnDEuARewTVRuVIEG6IdTuFt9qQREhPDQ8sRX1Yu-xd-PFepDjeJ1epz74ozDkcgbRgvsYDKArDady0?></g></svg>