<?plantuml 1.2026.2?><svg xmlns="http://www.w3.org/2000/svg" xmlns:xlink="http://www.w3.org/1999/xlink" contentStyleType="text/css" data-diagram-type="CLASS" height="442px" preserveAspectRatio="none" style="width:584px;height:442px;background:#FFFFFF;" version="1.1" viewBox="0 0 584 442" width="584px" zoomAndPan="magnify"><defs/><g><!--class BusinessStatus--><g class="entity" data-qualified-name="BusinessStatus" data-source-line="10" id="ent0002"><rect fill="#FAFAFA" height="89.4648" rx="2.5" ry="2.5" style="stroke:#888888;stroke-width:0.5;" width="125.0947" x="7" y="121.9"/><ellipse cx="22" cy="137.9" fill="#EB937F" rx="11" ry="11" style="stroke:#181818;stroke-width:1;"/><path d="M25.6143,144.4 L17.8945,144.4 L17.8945,132.0069 L25.6143,132.0069 L25.6143,134.1651 L20.3433,134.1651 L20.3433,136.838 L25.1162,136.838 L25.1162,138.9962 L20.3433,138.9962 L20.3433,142.2418 L25.6143,142.2418 Z " fill="#000000"/><text fill="#000000" font-family="sans-serif" font-size="13" lengthAdjust="spacing" textLength="93.0947" x="36" y="142.8131">BusinessStatus</text><line style="stroke:#888888;stroke-width:0.5;" x1="8" x2="131.0947" y1="153.9" y2="153.9"/><text fill="#000000" font-family="sans-serif" font-size="14" lengthAdjust="spacing" textLength="39.2314" x="13" y="171.4352">active</text><text fill="#000000" font-family="sans-serif" font-size="14" lengthAdjust="spacing" textLength="43.9893" x="13" y="187.9234">frozen</text><text fill="#000000" font-family="sans-serif" font-size="14" lengthAdjust="spacing" textLength="43.5654" x="13" y="204.4117">closed</text></g><!--class Business--><g class="entity" data-qualified-name="Business" data-source-line="16" id="ent0003"><rect fill="#FAFAFA" height="319.2559" rx="2.5" ry="2.5" style="stroke:#888888;stroke-width:0.5;" width="226.498" x="167.3" y="7"/><ellipse cx="240.134" cy="26.7217" fill="#ADD1B2" rx="11" ry="11" style="stroke:#181818;stroke-width:1;"/><path d="M242.6071,32.8647 Q242.0261,33.1636 241.3869,33.313 Q240.7478,33.4624 240.0422,33.4624 Q237.5354,33.4624 236.2155,31.8105 Q234.8957,30.1587 234.8957,27.0376 Q234.8957,23.9082 236.2155,22.2563 Q237.5354,20.6045 240.0422,20.6045 Q240.7478,20.6045 241.3952,20.7539 Q242.0427,20.9033 242.6071,21.2021 L242.6071,23.9248 Q241.9763,23.3438 241.3828,23.074 Q240.7893,22.8042 240.1584,22.8042 Q238.8137,22.8042 238.1289,23.8708 Q237.444,24.9375 237.444,27.0376 Q237.444,29.1294 238.1289,30.196 Q238.8137,31.2627 240.1584,31.2627 Q240.7893,31.2627 241.3828,30.9929 Q241.9763,30.7231 242.6071,30.1421 Z " fill="#000000"/><text fill="#000000" font-family="sans-serif" font-size="12" font-style="italic" lengthAdjust="spacing" textLength="76.3301" x="258.634" y="23.6016">&#171;businesses&#187;</text><text fill="#000000" font-family="sans-serif" font-size="13" lengthAdjust="spacing" textLength="54.4946" x="269.5517" y="38.7012">Business</text><line style="stroke:#888888;stroke-width:0.5;" x1="168.3" x2="392.798" y1="46.4434" y2="46.4434"/><text fill="#000000" font-family="sans-serif" font-size="14" lengthAdjust="spacing" textLength="91.2256" x="173.3" y="63.9785">+id : int &#171;PK&#187;</text><text fill="#000000" font-family="sans-serif" font-size="14" lengthAdjust="spacing" textLength="193.1084" x="173.3" y="80.4668">+client_id : int &#171;FK&#8594;clients&#187;</text><text fill="#000000" font-family="sans-serif" font-size="14" lengthAdjust="spacing" textLength="146.2549" x="173.3" y="96.9551">+business_name : str</text><text fill="#000000" font-family="sans-serif" font-size="14" lengthAdjust="spacing" textLength="165.8398" x="173.3" y="113.4434">+status : BusinessStatus</text><text fill="#000000" font-family="sans-serif" font-size="14" lengthAdjust="spacing" textLength="124.4756" x="173.3" y="129.9316">+opened_at : date</text><text fill="#000000" font-family="sans-serif" font-size="14" lengthAdjust="spacing" textLength="123.4365" x="173.3" y="146.4199">+closed_at : date?</text><text fill="#000000" font-family="sans-serif" font-size="14" lengthAdjust="spacing" textLength="94.6436" x="173.3" y="162.9082">+notes : text?</text><text fill="#000000" font-family="sans-serif" font-size="14" lengthAdjust="spacing" textLength="207.9355" x="173.3" y="179.3965">+created_by : int? &#171;FK&#8594;users&#187;</text><text fill="#000000" font-family="sans-serif" font-size="14" lengthAdjust="spacing" textLength="154.3965" x="173.3" y="195.8848">+created_at : datetime</text><text fill="#000000" font-family="sans-serif" font-size="14" lengthAdjust="spacing" textLength="165.915" x="173.3" y="212.373">+updated_at : datetime?</text><text fill="#000000" font-family="sans-serif" font-size="14" lengthAdjust="spacing" textLength="160.3301" x="173.3" y="228.8613">+deleted_at : datetime?</text><text fill="#000000" font-family="sans-serif" font-size="14" lengthAdjust="spacing" textLength="207.9629" x="173.3" y="245.3496">+deleted_by : int? &#171;FK&#8594;users&#187;</text><text fill="#000000" font-family="sans-serif" font-size="14" lengthAdjust="spacing" textLength="166.8652" x="173.3" y="261.8379">+restored_at : datetime?</text><text fill="#000000" font-family="sans-serif" font-size="14" lengthAdjust="spacing" textLength="214.498" x="173.3" y="278.3262">+restored_by : int? &#171;FK&#8594;users&#187;</text><line style="stroke:#888888;stroke-width:0.5;" x1="168.3" x2="392.798" y1="285.2793" y2="285.2793"/><text fill="#000000" font-family="sans-serif" font-size="14" lengthAdjust="spacing" textLength="180.585" x="173.3" y="302.8145">+phone_override : str(20)?</text><text fill="#000000" font-family="sans-serif" font-size="14" lengthAdjust="spacing" textLength="183.5449" x="173.3" y="319.3027">+email_override : str(254)?</text></g><!--class Client--><g class="entity" data-qualified-name="Client" data-source-line="35" id="ent0004"><rect fill="#FAFAFA" height="32" rx="2.5" ry="2.5" style="stroke:#888888;stroke-width:0.5;" width="68.6831" x="43.21" y="403.26"/><ellipse cx="58.21" cy="419.26" fill="#ADD1B2" rx="11" ry="11" style="stroke:#181818;stroke-width:1;"/><path d="M60.6831,425.4031 Q60.1021,425.7019 59.4629,425.8513 Q58.8238,426.0007 58.1182,426.0007 Q55.6114,426.0007 54.2915,424.3489 Q52.9717,422.697 52.9717,419.5759 Q52.9717,416.4465 54.2915,414.7947 Q55.6114,413.1428 58.1182,413.1428 Q58.8238,413.1428 59.4712,413.2922 Q60.1187,413.4416 60.6831,413.7405 L60.6831,416.4631 Q60.0523,415.8821 59.4588,415.6123 Q58.8653,415.3425 58.2344,415.3425 Q56.8897,415.3425 56.2049,416.4092 Q55.5201,417.4758 55.5201,419.5759 Q55.5201,421.6677 56.2049,422.7344 Q56.8897,423.801 58.2344,423.801 Q58.8653,423.801 59.4588,423.5312 Q60.0523,423.2615 60.6831,422.6804 Z " fill="#000000"/><text fill="#000000" font-family="sans-serif" font-size="13" lengthAdjust="spacing" textLength="36.6831" x="72.21" y="424.1731">Client</text></g><!--class EntityNote--><g class="entity" data-qualified-name="EntityNote" data-source-line="36" id="ent0006"><rect fill="#FAFAFA" height="32" rx="2.5" ry="2.5" style="stroke:#888888;stroke-width:0.5;" width="97.0825" x="173.01" y="403.26"/><ellipse cx="188.01" cy="419.26" fill="#ADD1B2" rx="11" ry="11" style="stroke:#181818;stroke-width:1;"/><path d="M190.4831,425.4031 Q189.9021,425.7019 189.2629,425.8513 Q188.6238,426.0007 187.9182,426.0007 Q185.4114,426.0007 184.0915,424.3489 Q182.7717,422.697 182.7717,419.5759 Q182.7717,416.4465 184.0915,414.7947 Q185.4114,413.1428 187.9182,413.1428 Q188.6238,413.1428 189.2712,413.2922 Q189.9187,413.4416 190.4831,413.7405 L190.4831,416.4631 Q189.8523,415.8821 189.2588,415.6123 Q188.6653,415.3425 188.0344,415.3425 Q186.6897,415.3425 186.0049,416.4092 Q185.3201,417.4758 185.3201,419.5759 Q185.3201,421.6677 186.0049,422.7344 Q186.6897,423.801 188.0344,423.801 Q188.6653,423.801 189.2588,423.5312 Q189.8523,423.2615 190.4831,422.6804 Z " fill="#000000"/><text fill="#000000" font-family="sans-serif" font-size="13" lengthAdjust="spacing" textLength="65.0825" x="202.01" y="424.1731">EntityNote</text></g><!--class User--><g class="entity" data-qualified-name="User" data-source-line="39" id="ent0009"><rect fill="#FAFAFA" height="32" rx="2.5" ry="2.5" style="stroke:#888888;stroke-width:0.5;" width="60.1963" x="419.45" y="403.26"/><ellipse cx="434.45" cy="419.26" fill="#ADD1B2" rx="11" ry="11" style="stroke:#181818;stroke-width:1;"/><path d="M436.9231,425.4031 Q436.3421,425.7019 435.7029,425.8513 Q435.0638,426.0007 434.3582,426.0007 Q431.8514,426.0007 430.5315,424.3489 Q429.2117,422.697 429.2117,419.5759 Q429.2117,416.4465 430.5315,414.7947 Q431.8514,413.1428 434.3582,413.1428 Q435.0638,413.1428 435.7112,413.2922 Q436.3587,413.4416 436.9231,413.7405 L436.9231,416.4631 Q436.2923,415.8821 435.6988,415.6123 Q435.1053,415.3425 434.4744,415.3425 Q433.1297,415.3425 432.4449,416.4092 Q431.7601,417.4758 431.7601,419.5759 Q431.7601,421.6677 432.4449,422.7344 Q433.1297,423.801 434.4744,423.801 Q435.1053,423.801 435.6988,423.5312 Q436.2923,423.2615 436.9231,422.6804 Z " fill="#000000"/><text fill="#000000" font-family="sans-serif" font-size="13" lengthAdjust="spacing" textLength="28.1963" x="448.45" y="424.1731">User</text></g><!--link Business to Client--><g class="link" data-entity-1="ent0003" data-entity-2="ent0004" data-link-type="dependency" data-source-line="35" id="lnk5"><path codeLine="35" d="M167.01,313.46 C161.33,318.02 155.5,322.32 149.55,326.26 C110.5,352.1 76.55,318.73 48.55,356.26 C37.82,370.64 45.8474,385.1423 57.5174,398.2923" fill="none" id="Business-to-Client" style="stroke:#555555;stroke-width:1;stroke-dasharray:7,7;"/><polygon fill="#555555" points="61.5,402.78,58.5179,393.3935,58.1812,399.0403,52.5344,398.7036,61.5,402.78" style="stroke:#555555;stroke-width:1;"/><text fill="#000000" font-family="sans-serif" font-size="13" lengthAdjust="spacing" textLength="34.3472" x="49.55" y="369.8284">client</text><text fill="#000000" font-family="sans-serif" font-size="13" lengthAdjust="spacing" textLength="24.667" x="28.3184" y="392.4564">0..1</text></g><!--link Business to Client--><g class="link" data-entity-1="ent0003" data-entity-2="ent0004" data-link-type="dependency" data-source-line="38" id="lnk8"><path codeLine="38" d="M166.88,307.97 C135.72,346.44 109.8767,378.3478 93.7967,398.1978" fill="none" id="Business-to-Client-1" style="stroke:#555555;stroke-width:1;stroke-dasharray:7,7;"/><polygon fill="#555555" points="90.02,402.86,98.7933,398.3845,93.1673,398.9748,92.577,393.3489,90.02,402.86" style="stroke:#555555;stroke-width:1;"/><text fill="#000000" font-family="sans-serif" font-size="13" lengthAdjust="spacing" textLength="52.7871" x="127.61" y="369.8284">client_id</text></g><!--link Business to EntityNote--><g class="link" data-entity-1="ent0003" data-entity-2="ent0006" data-link-type="dependency" data-source-line="36" id="lnk7"><path codeLine="36" d="M224.42,326.52 C222.11,336.51 220.11,346.47 218.55,356.26 C216.03,372.01 216.6508,384.3195 218.2808,396.9295" fill="none" id="Business-to-EntityNote" style="stroke:#555555;stroke-width:1;stroke-dasharray:7,7;"/><polygon fill="#555555" points="219.05,402.88,221.8632,393.4415,218.409,397.9213,213.9292,394.467,219.05,402.88" style="stroke:#555555;stroke-width:1;"/><text fill="#000000" font-family="sans-serif" font-size="13" lengthAdjust="spacing" textLength="76.8701" x="219.55" y="369.8284">entity_notes</text><text fill="#000000" font-family="sans-serif" font-size="13" lengthAdjust="spacing" textLength="22.7119" x="192.6956" y="392.5895">0..*</text></g><!--link Business to User--><g class="link" data-entity-1="ent0003" data-entity-2="ent0009" data-link-type="dependency" data-source-line="39" id="lnk10"><path codeLine="39" d="M307.38,326.76 C314.87,343.69 324.41,359.67 336.55,373.26 C357.85,397.12 387.6459,407.2774 413.2059,412.5974" fill="none" id="Business-to-User" style="stroke:#555555;stroke-width:1;stroke-dasharray:7,7;"/><polygon fill="#555555" points="419.08,413.82,411.0839,408.07,414.1849,412.8011,409.4537,415.9021,419.08,413.82" style="stroke:#555555;stroke-width:1;"/><text fill="#000000" font-family="sans-serif" font-size="13" lengthAdjust="spacing" textLength="68.1611" x="337.55" y="369.8284">created_by</text></g><!--link Business to User--><g class="link" data-entity-1="ent0003" data-entity-2="ent0009" data-link-type="dependency" data-source-line="40" id="lnk11"><path codeLine="40" d="M390.78,326.57 C397.51,336.59 404.15,346.54 410.55,356.26 C420.9,371.98 429.1684,385.1344 436.9584,397.7544" fill="none" id="Business-to-User-1" style="stroke:#555555;stroke-width:1;stroke-dasharray:7,7;"/><polygon fill="#555555" points="440.11,402.86,438.7864,393.1005,437.4837,398.6053,431.9789,397.3026,440.11,402.86" style="stroke:#555555;stroke-width:1;"/><text fill="#000000" font-family="sans-serif" font-size="13" lengthAdjust="spacing" textLength="68.1865" x="422.48" y="369.8284">deleted_by</text></g><!--link Business to User--><g class="link" data-entity-1="ent0003" data-entity-2="ent0009" data-link-type="dependency" data-source-line="41" id="lnk12"><path codeLine="41" d="M394.01,235.35 C435.24,266.49 477.17,307.45 499.55,356.26 C507.73,374.11 496.3044,387.7037 480.1844,399.4137" fill="none" id="Business-to-User-2" style="stroke:#555555;stroke-width:1;stroke-dasharray:7,7;"/><polygon fill="#555555" points="475.33,402.94,484.9624,400.8867,479.3753,400.0014,480.2607,394.4142,475.33,402.94" style="stroke:#555555;stroke-width:1;"/><text fill="#000000" font-family="sans-serif" font-size="13" lengthAdjust="spacing" textLength="74.2549" x="502.73" y="369.8284">restored_by</text></g><?plantuml-src VPFDRjim3CVlVWeYEpJPa23TLc0m2XTfrm13i0-isDbGB3OH8bE6H7TBrrtt07l4FSaasN4-L_aYy_SdHP7K6RmtfL2KmhnsYj0vT01F0AMHcC9zhNLo1hToWQ1nWIHJ60up-Fpr8rZKWfKXjrHLVm00er46qzdGa5v3dyoUO90ibKJ0ik8rb5ZEqRh4hHHLmeeI2YsScp1RDQyPFnI6xjGZmlXGCZN4aPo_sK4JQytt6wEDXHSNSUt0c-1tRQn4sqhUnNKa4SLgOKrDifLD9-5B4gIwXEksEdSik7RmCm4G1Qi7z9jxQnwH_ARGng5CVYL9JBPpWilBRNMpB7g_KX9IKCGUVfbbMJ0LMY5nlaEcix-__pHcrsWsWN8I9NgTOnlChiahFKWq85CXeSm5Uoe5OtDIo7Hhkmh6Qca8S_E0rePUnTZzr-D1XEYdH1_1YxSD9SCOJcVymT5GMFHXPJvVDtUvsbocThxpxNLRJPS5gp9cLrVo6CIm4ZK-JvuxqA9ZOq-wT-Y__hwhNJ_3fFV6ez5vpyzEQ8xtQRfqh7dPWrjYnUjFlaPUX_4dZnNpJslpOBIYbOlFvl1jWKG_JZwtGReV_U1eFpVx_9lFFD2k5IVnjd0dyKvXady0?></g></svg>