<?plantuml 1.2026.2?><svg xmlns="http://www.w3.org/2000/svg" xmlns:xlink="http://www.w3.org/1999/xlink" contentStyleType="text/css" data-diagram-type="CLASS" height="524px" preserveAspectRatio="none" style="width:1094px;height:524px;background:#FFFFFF;" version="1.1" viewBox="0 0 1094 524" width="1094px" zoomAndPan="magnify"><defs/><g><!--class ChargeStatus--><g class="entity" data-qualified-name="ChargeStatus" data-source-line="10" id="ent0002"><rect fill="#FAFAFA" height="105.9531" rx="2.5" ry="2.5" style="stroke:#888888;stroke-width:0.5;" width="115.5098" x="77.9123" y="154.87"/><ellipse cx="92.9123" cy="170.87" fill="#EB937F" rx="11" ry="11" style="stroke:#181818;stroke-width:1;"/><path d="M96.5266,177.37 L88.8068,177.37 L88.8068,164.9769 L96.5266,164.9769 L96.5266,167.1351 L91.2556,167.1351 L91.2556,169.808 L96.0285,169.808 L96.0285,171.9662 L91.2556,171.9662 L91.2556,175.2118 L96.5266,175.2118 Z " fill="#000000"/><text fill="#000000" font-family="sans-serif" font-size="13" lengthAdjust="spacing" textLength="83.5098" x="106.9123" y="175.7831">ChargeStatus</text><line style="stroke:#888888;stroke-width:0.5;" x1="78.9123" x2="192.4221" y1="186.87" y2="186.87"/><text fill="#000000" font-family="sans-serif" font-size="14" lengthAdjust="spacing" textLength="32.6553" x="83.9123" y="204.4052">draft</text><text fill="#000000" font-family="sans-serif" font-size="14" lengthAdjust="spacing" textLength="43.6201" x="83.9123" y="220.8934">issued</text><text fill="#000000" font-family="sans-serif" font-size="14" lengthAdjust="spacing" textLength="29.4014" x="83.9123" y="237.3817">paid</text><text fill="#000000" font-family="sans-serif" font-size="14" lengthAdjust="spacing" textLength="59.2197" x="83.9123" y="253.87">canceled</text></g><!--class ChargeType--><g class="entity" data-qualified-name="ChargeType" data-source-line="17" id="ent0003"><rect fill="#FAFAFA" height="138.9297" rx="2.5" ry="2.5" style="stroke:#888888;stroke-width:0.5;" width="138.7793" x="228.2723" y="138.39"/><ellipse cx="257.417" cy="154.39" fill="#EB937F" rx="11" ry="11" style="stroke:#181818;stroke-width:1;"/><path d="M261.0312,160.89 L253.3115,160.89 L253.3115,148.4969 L261.0312,148.4969 L261.0312,150.6551 L255.7602,150.6551 L255.7602,153.328 L260.5332,153.328 L260.5332,155.4862 L255.7602,155.4862 L255.7602,158.7318 L261.0312,158.7318 Z " fill="#000000"/><text fill="#000000" font-family="sans-serif" font-size="13" lengthAdjust="spacing" textLength="75.3467" x="274.5602" y="159.3031">ChargeType</text><line style="stroke:#888888;stroke-width:0.5;" x1="229.2723" x2="366.0516" y1="170.39" y2="170.39"/><text fill="#000000" font-family="sans-serif" font-size="14" lengthAdjust="spacing" textLength="115.4043" x="234.2723" y="187.9252">monthly_retainer</text><text fill="#000000" font-family="sans-serif" font-size="14" lengthAdjust="spacing" textLength="122.2266" x="234.2723" y="204.4134">annual_report_fee</text><text fill="#000000" font-family="sans-serif" font-size="14" lengthAdjust="spacing" textLength="89.667" x="234.2723" y="220.9017">vat_filing_fee</text><text fill="#000000" font-family="sans-serif" font-size="14" lengthAdjust="spacing" textLength="126.7793" x="234.2723" y="237.39">representation_fee</text><text fill="#000000" font-family="sans-serif" font-size="14" lengthAdjust="spacing" textLength="111.6172" x="234.2723" y="253.8783">consultation_fee</text><text fill="#000000" font-family="sans-serif" font-size="14" lengthAdjust="spacing" textLength="36.0527" x="234.2723" y="270.3666">other</text></g><!--class Charge--><g class="entity" data-qualified-name="Charge" data-source-line="26" id="ent0004"><rect fill="#FAFAFA" height="401.6973" rx="2.5" ry="2.5" style="stroke:#888888;stroke-width:0.5;" width="325.9951" x="401.6723" y="7"/><ellipse cx="533.4247" cy="26.7217" fill="#ADD1B2" rx="11" ry="11" style="stroke:#181818;stroke-width:1;"/><path d="M535.8979,32.8647 Q535.3168,33.1636 534.6777,33.313 Q534.0385,33.4624 533.3329,33.4624 Q530.8261,33.4624 529.5063,31.8105 Q528.1865,30.1587 528.1865,27.0376 Q528.1865,23.9082 529.5063,22.2563 Q530.8261,20.6045 533.3329,20.6045 Q534.0385,20.6045 534.686,20.7539 Q535.3334,20.9033 535.8979,21.2021 L535.8979,23.9248 Q535.267,23.3438 534.6735,23.074 Q534.08,22.8042 533.4491,22.8042 Q532.1044,22.8042 531.4196,23.8708 Q530.7348,24.9375 530.7348,27.0376 Q530.7348,29.1294 531.4196,30.196 Q532.1044,31.2627 533.4491,31.2627 Q534.08,31.2627 534.6735,30.9929 Q535.267,30.7231 535.8979,30.1421 Z " fill="#000000"/><text fill="#000000" font-family="sans-serif" font-size="12" font-style="italic" lengthAdjust="spacing" textLength="57.9902" x="551.9247" y="23.6016">&#171;charges&#187;</text><text fill="#000000" font-family="sans-serif" font-size="13" lengthAdjust="spacing" textLength="44.9097" x="558.465" y="38.7012">Charge</text><line style="stroke:#888888;stroke-width:0.5;" x1="402.6723" x2="726.6674" y1="46.4434" y2="46.4434"/><text fill="#000000" font-family="sans-serif" font-size="14" lengthAdjust="spacing" textLength="91.2256" x="407.6723" y="63.9785">+id : int &#171;PK&#187;</text><text fill="#000000" font-family="sans-serif" font-size="14" lengthAdjust="spacing" textLength="193.1084" x="407.6723" y="80.4668">+client_id : int &#171;FK&#8594;clients&#187;</text><text fill="#000000" font-family="sans-serif" font-size="14" lengthAdjust="spacing" textLength="251.7266" x="407.6723" y="96.9551">+business_id : int? &#171;FK&#8594;businesses&#187;</text><text fill="#000000" font-family="sans-serif" font-size="14" lengthAdjust="spacing" textLength="313.9951" x="407.6723" y="113.4434">+annual_report_id : int? &#171;FK&#8594;annual_reports&#187;</text><text fill="#000000" font-family="sans-serif" font-size="14" lengthAdjust="spacing" textLength="187.5713" x="407.6723" y="129.9316">+charge_type : ChargeType</text><text fill="#000000" font-family="sans-serif" font-size="14" lengthAdjust="spacing" textLength="155.5176" x="407.6723" y="146.4199">+status : ChargeStatus</text><text fill="#000000" font-family="sans-serif" font-size="14" lengthAdjust="spacing" textLength="153.9658" x="407.6723" y="162.9082">+months_covered : int</text><text fill="#000000" font-family="sans-serif" font-size="14" lengthAdjust="spacing" textLength="133.2598" x="407.6723" y="179.3965">+description : text?</text><text fill="#000000" font-family="sans-serif" font-size="14" lengthAdjust="spacing" textLength="154.3965" x="407.6723" y="195.8848">+created_at : datetime</text><text fill="#000000" font-family="sans-serif" font-size="14" lengthAdjust="spacing" textLength="207.9355" x="407.6723" y="212.373">+created_by : int? &#171;FK&#8594;users&#187;</text><text fill="#000000" font-family="sans-serif" font-size="14" lengthAdjust="spacing" textLength="153.6445" x="407.6723" y="228.8613">+issued_at : datetime?</text><text fill="#000000" font-family="sans-serif" font-size="14" lengthAdjust="spacing" textLength="201.2773" x="407.6723" y="245.3496">+issued_by : int? &#171;FK&#8594;users&#187;</text><text fill="#000000" font-family="sans-serif" font-size="14" lengthAdjust="spacing" textLength="139.4258" x="407.6723" y="261.8379">+paid_at : datetime?</text><text fill="#000000" font-family="sans-serif" font-size="14" lengthAdjust="spacing" textLength="187.0586" x="407.6723" y="278.3262">+paid_by : int? &#171;FK&#8594;users&#187;</text><text fill="#000000" font-family="sans-serif" font-size="14" lengthAdjust="spacing" textLength="169.2441" x="407.6723" y="294.8145">+canceled_at : datetime?</text><text fill="#000000" font-family="sans-serif" font-size="14" lengthAdjust="spacing" textLength="216.877" x="407.6723" y="311.3027">+canceled_by : int? &#171;FK&#8594;users&#187;</text><text fill="#000000" font-family="sans-serif" font-size="14" lengthAdjust="spacing" textLength="190.8252" x="407.6723" y="327.791">+cancellation_reason : text?</text><text fill="#000000" font-family="sans-serif" font-size="14" lengthAdjust="spacing" textLength="160.3301" x="407.6723" y="344.2793">+deleted_at : datetime?</text><text fill="#000000" font-family="sans-serif" font-size="14" lengthAdjust="spacing" textLength="207.9629" x="407.6723" y="360.7676">+deleted_by : int? &#171;FK&#8594;users&#187;</text><line style="stroke:#888888;stroke-width:0.5;" x1="402.6723" x2="726.6674" y1="367.7207" y2="367.7207"/><text fill="#000000" font-family="sans-serif" font-size="14" lengthAdjust="spacing" textLength="169.2031" x="407.6723" y="385.2559">+amount : decimal(10,2)</text><text fill="#000000" font-family="sans-serif" font-size="14" lengthAdjust="spacing" textLength="110.1816" x="407.6723" y="401.7441">+period : str(7)?</text></g><!--class Client--><g class="entity" data-qualified-name="Client" data-source-line="50" id="ent0005"><rect fill="#FAFAFA" height="32" rx="2.5" ry="2.5" style="stroke:#888888;stroke-width:0.5;" width="68.6831" x="18.3223" y="485.7"/><ellipse cx="33.3223" cy="501.7" fill="#ADD1B2" rx="11" ry="11" style="stroke:#181818;stroke-width:1;"/><path d="M35.7954,507.8431 Q35.2144,508.1419 34.5752,508.2913 Q33.9361,508.4407 33.2305,508.4407 Q30.7237,508.4407 29.4038,506.7889 Q28.084,505.137 28.084,502.0159 Q28.084,498.8865 29.4038,497.2347 Q30.7237,495.5828 33.2305,495.5828 Q33.9361,495.5828 34.5835,495.7322 Q35.231,495.8816 35.7954,496.1805 L35.7954,498.9031 Q35.1646,498.3221 34.5711,498.0523 Q33.9776,497.7825 33.3467,497.7825 Q32.002,497.7825 31.3172,498.8492 Q30.6324,499.9158 30.6324,502.0159 Q30.6324,504.1077 31.3172,505.1744 Q32.002,506.241 33.3467,506.241 Q33.9776,506.241 34.5711,505.9712 Q35.1646,505.7015 35.7954,505.1204 Z " fill="#000000"/><text fill="#000000" font-family="sans-serif" font-size="13" lengthAdjust="spacing" textLength="36.6831" x="47.3223" y="506.6131">Client</text></g><!--class AnnualReport--><g class="entity" data-qualified-name="AnnualReport" data-source-line="51" id="ent0007"><rect fill="#FAFAFA" height="32" rx="2.5" ry="2.5" style="stroke:#888888;stroke-width:0.5;" width="117.9219" x="199.7023" y="485.7"/><ellipse cx="214.7023" cy="501.7" fill="#ADD1B2" rx="11" ry="11" style="stroke:#181818;stroke-width:1;"/><path d="M217.1754,507.8431 Q216.5944,508.1419 215.9552,508.2913 Q215.3161,508.4407 214.6105,508.4407 Q212.1037,508.4407 210.7838,506.7889 Q209.464,505.137 209.464,502.0159 Q209.464,498.8865 210.7838,497.2347 Q212.1037,495.5828 214.6105,495.5828 Q215.3161,495.5828 215.9635,495.7322 Q216.611,495.8816 217.1754,496.1805 L217.1754,498.9031 Q216.5446,498.3221 215.9511,498.0523 Q215.3576,497.7825 214.7267,497.7825 Q213.382,497.7825 212.6972,498.8492 Q212.0124,499.9158 212.0124,502.0159 Q212.0124,504.1077 212.6972,505.1744 Q213.382,506.241 214.7267,506.241 Q215.3576,506.241 215.9511,505.9712 Q216.5446,505.7015 217.1754,505.1204 Z " fill="#000000"/><text fill="#000000" font-family="sans-serif" font-size="13" lengthAdjust="spacing" textLength="85.9219" x="228.7023" y="506.6131">AnnualReport</text></g><!--class Invoice--><g class="entity" data-qualified-name="Invoice" data-source-line="52" id="ent0009"><rect fill="#FAFAFA" height="32" rx="2.5" ry="2.5" style="stroke:#888888;stroke-width:0.5;" width="76.186" x="425.5723" y="485.7"/><ellipse cx="440.5723" cy="501.7" fill="#ADD1B2" rx="11" ry="11" style="stroke:#181818;stroke-width:1;"/><path d="M443.0454,507.8431 Q442.4644,508.1419 441.8252,508.2913 Q441.1861,508.4407 440.4805,508.4407 Q437.9737,508.4407 436.6538,506.7889 Q435.334,505.137 435.334,502.0159 Q435.334,498.8865 436.6538,497.2347 Q437.9737,495.5828 440.4805,495.5828 Q441.1861,495.5828 441.8335,495.7322 Q442.481,495.8816 443.0454,496.1805 L443.0454,498.9031 Q442.4146,498.3221 441.8211,498.0523 Q441.2276,497.7825 440.5967,497.7825 Q439.252,497.7825 438.5672,498.8492 Q437.8824,499.9158 437.8824,502.0159 Q437.8824,504.1077 438.5672,505.1744 Q439.252,506.241 440.5967,506.241 Q441.2276,506.241 441.8211,505.9712 Q442.4146,505.7015 443.0454,505.1204 Z " fill="#000000"/><text fill="#000000" font-family="sans-serif" font-size="13" lengthAdjust="spacing" textLength="44.186" x="454.5723" y="506.6131">Invoice</text></g><!--class Business--><g class="entity" data-qualified-name="Business" data-source-line="55" id="ent0012"><rect fill="#FAFAFA" height="32" rx="2.5" ry="2.5" style="stroke:#888888;stroke-width:0.5;" width="86.4946" x="536.4223" y="485.7"/><ellipse cx="551.4223" cy="501.7" fill="#ADD1B2" rx="11" ry="11" style="stroke:#181818;stroke-width:1;"/><path d="M553.8954,507.8431 Q553.3144,508.1419 552.6752,508.2913 Q552.0361,508.4407 551.3305,508.4407 Q548.8237,508.4407 547.5038,506.7889 Q546.184,505.137 546.184,502.0159 Q546.184,498.8865 547.5038,497.2347 Q548.8237,495.5828 551.3305,495.5828 Q552.0361,495.5828 552.6835,495.7322 Q553.331,495.8816 553.8954,496.1805 L553.8954,498.9031 Q553.2646,498.3221 552.6711,498.0523 Q552.0776,497.7825 551.4467,497.7825 Q550.102,497.7825 549.4172,498.8492 Q548.7324,499.9158 548.7324,502.0159 Q548.7324,504.1077 549.4172,505.1744 Q550.102,506.241 551.4467,506.241 Q552.0776,506.241 552.6711,505.9712 Q553.2646,505.7015 553.8954,505.1204 Z " fill="#000000"/><text fill="#000000" font-family="sans-serif" font-size="13" lengthAdjust="spacing" textLength="54.4946" x="565.4223" y="506.6131">Business</text></g><!--class User--><g class="entity" data-qualified-name="User" data-source-line="57" id="ent0015"><rect fill="#FAFAFA" height="32" rx="2.5" ry="2.5" style="stroke:#888888;stroke-width:0.5;" width="60.1963" x="862.5723" y="485.7"/><ellipse cx="877.5723" cy="501.7" fill="#ADD1B2" rx="11" ry="11" style="stroke:#181818;stroke-width:1;"/><path d="M880.0454,507.8431 Q879.4644,508.1419 878.8252,508.2913 Q878.1861,508.4407 877.4805,508.4407 Q874.9737,508.4407 873.6538,506.7889 Q872.334,505.137 872.334,502.0159 Q872.334,498.8865 873.6538,497.2347 Q874.9737,495.5828 877.4805,495.5828 Q878.1861,495.5828 878.8335,495.7322 Q879.481,495.8816 880.0454,496.1805 L880.0454,498.9031 Q879.4146,498.3221 878.8211,498.0523 Q878.2276,497.7825 877.5967,497.7825 Q876.252,497.7825 875.5672,498.8492 Q874.8824,499.9158 874.8824,502.0159 Q874.8824,504.1077 875.5672,505.1744 Q876.252,506.241 877.5967,506.241 Q878.2276,506.241 878.8211,505.9712 Q879.4146,505.7015 880.0454,505.1204 Z " fill="#000000"/><text fill="#000000" font-family="sans-serif" font-size="13" lengthAdjust="spacing" textLength="28.1963" x="891.5723" y="506.6131">User</text></g><!--link Charge to Client--><g class="link" data-entity-1="ent0004" data-entity-2="ent0005" data-link-type="dependency" data-source-line="50" id="lnk6"><path codeLine="50" d="M401.3123,399.55 C395.8623,402.83 390.3123,405.9 384.6623,408.7 C313.5523,444.01 82.3923,380.25 28.6623,438.7 C16.6323,451.79 24.0503,466.846 34.8303,480.536" fill="none" id="Charge-to-Client" style="stroke:#555555;stroke-width:1;stroke-dasharray:7,7;"/><polygon fill="#555555" points="38.5423,485.25,36.117,475.7044,35.449,481.3217,29.8317,480.6537,38.5423,485.25" style="stroke:#555555;stroke-width:1;"/><text fill="#000000" font-family="sans-serif" font-size="13" lengthAdjust="spacing" textLength="34.3472" x="29.6623" y="452.2684">client</text><text fill="#000000" font-family="sans-serif" font-size="13" lengthAdjust="spacing" textLength="24.667" x="6" y="474.9364">0..1</text></g><!--link Charge to Client--><g class="link" data-entity-1="ent0004" data-entity-2="ent0005" data-link-type="dependency" data-source-line="54" id="lnk11"><path codeLine="54" d="M401.1823,399.29 C395.7723,402.65 390.2623,405.8 384.6623,408.7 C284.1123,460.77 236.3223,395.47 131.6623,438.7 C106.0423,449.28 86.0222,466.4046 71.3122,481.0646" fill="none" id="Charge-to-Client-1" style="stroke:#555555;stroke-width:1;stroke-dasharray:7,7;"/><polygon fill="#555555" points="67.0623,485.3,76.2607,481.7801,70.6038,481.7705,70.6135,476.1136,67.0623,485.3" style="stroke:#555555;stroke-width:1;"/><text fill="#000000" font-family="sans-serif" font-size="13" lengthAdjust="spacing" textLength="52.7871" x="132.6623" y="452.2684">client_id</text></g><!--link Charge to AnnualReport--><g class="link" data-entity-1="ent0004" data-entity-2="ent0007" data-link-type="dependency" data-source-line="51" id="lnk8"><path codeLine="51" d="M401.3123,398.78 C395.8523,402.31 390.3023,405.63 384.6623,408.7 C311.1323,448.75 252.9523,374.95 198.6623,438.7 C184.4823,455.35 200.8028,470.1586 221.9128,482.4086" fill="none" id="Charge-to-AnnualReport" style="stroke:#555555;stroke-width:1;stroke-dasharray:7,7;"/><polygon fill="#555555" points="227.1023,485.42,221.3256,477.4431,222.7777,482.9105,217.3104,484.3625,227.1023,485.42" style="stroke:#555555;stroke-width:1;"/><text fill="#000000" font-family="sans-serif" font-size="13" lengthAdjust="spacing" textLength="87.731" x="199.6623" y="452.2684">annual_report</text><text fill="#000000" font-family="sans-serif" font-size="13" lengthAdjust="spacing" textLength="24.667" x="188.2429" y="474.8674">0..1</text></g><!--link Charge to AnnualReport--><g class="link" data-entity-1="ent0004" data-entity-2="ent0007" data-link-type="dependency" data-source-line="56" id="lnk14"><path codeLine="56" d="M401.3123,393.26 C395.7723,398.53 390.2123,403.69 384.6623,408.7 C351.4823,438.64 313.7445,464.9019 287.5445,482.1419" fill="none" id="Charge-to-AnnualReport-1" style="stroke:#555555;stroke-width:1;stroke-dasharray:7,7;"/><polygon fill="#555555" points="282.5323,485.44,292.2494,483.8343,286.7091,482.6916,287.8519,477.1513,282.5323,485.44" style="stroke:#555555;stroke-width:1;"/><text fill="#000000" font-family="sans-serif" font-size="13" lengthAdjust="spacing" textLength="106.1709" x="349.3823" y="452.2684">annual_report_id</text></g><!--link Charge to Invoice--><g class="link" data-entity-1="ent0004" data-entity-2="ent0009" data-link-type="dependency" data-source-line="52" id="lnk10"><path codeLine="52" d="M495.3423,409.16 C484.2623,441.19 476.5572,463.4709 470.8972,479.8009" fill="none" id="Charge-to-Invoice" style="stroke:#555555;stroke-width:1;"/><polygon fill="#555555" points="468.9323,485.47,475.6591,478.2763,470.5697,480.7457,468.1003,475.6563,468.9323,485.47" style="stroke:#555555;stroke-width:1;"/><text fill="#000000" font-family="sans-serif" font-size="13" lengthAdjust="spacing" textLength="44.1987" x="483.9823" y="452.2684">invoice</text><text fill="#000000" font-family="sans-serif" font-size="13" lengthAdjust="spacing" textLength="24.667" x="442.7325" y="474.9345">0..1</text></g><!--link Charge to Business--><g class="link" data-entity-1="ent0004" data-entity-2="ent0012" data-link-type="dependency" data-source-line="55" id="lnk13"><path codeLine="55" d="M561.8923,409.11 C561.8023,419.12 561.7323,429.02 561.6623,438.7 C561.6123,446.26 560.2323,448.28 561.6623,455.7 C563.6423,465.95 565.4202,471.3666 569.3202,479.8666" fill="none" id="Charge-to-Business" style="stroke:#555555;stroke-width:1;stroke-dasharray:7,7;"/><polygon fill="#555555" points="571.8223,485.32,571.7047,475.4718,569.7372,480.7755,564.4335,478.808,571.8223,485.32" style="stroke:#555555;stroke-width:1;"/><text fill="#000000" font-family="sans-serif" font-size="13" lengthAdjust="spacing" textLength="73.6392" x="562.6623" y="452.2684">business_id</text></g><!--link Charge to User--><g class="link" data-entity-1="ent0004" data-entity-2="ent0015" data-link-type="dependency" data-source-line="57" id="lnk16"><path codeLine="57" d="M634.2123,409.12 C646.2723,426.61 660.3223,442.61 676.6623,455.7 C705.0023,478.38 803.7764,491.5015 856.2864,497.1215" fill="none" id="Charge-to-User" style="stroke:#555555;stroke-width:1;stroke-dasharray:7,7;"/><polygon fill="#555555" points="862.2523,497.76,853.7291,492.8249,857.2807,497.2279,852.8777,500.7795,862.2523,497.76" style="stroke:#555555;stroke-width:1;"/><text fill="#000000" font-family="sans-serif" font-size="13" lengthAdjust="spacing" textLength="68.1611" x="677.6623" y="452.2684">created_by</text></g><!--link Charge to User--><g class="link" data-entity-1="ent0004" data-entity-2="ent0015" data-link-type="dependency" data-source-line="58" id="lnk17"><path codeLine="58" d="M728.0823,407.24 C746.8323,424.78 766.4923,441.3 786.6623,455.7 C809.7723,472.19 834.1746,482.3196 856.3846,489.7796" fill="none" id="Charge-to-User-1" style="stroke:#555555;stroke-width:1;stroke-dasharray:7,7;"/><polygon fill="#555555" points="862.0723,491.69,854.8143,485.0325,857.3325,490.098,852.2671,492.6162,862.0723,491.69" style="stroke:#555555;stroke-width:1;"/><text fill="#000000" font-family="sans-serif" font-size="13" lengthAdjust="spacing" textLength="61.9785" x="787.6623" y="452.2684">issued_by</text></g><!--link Charge to User--><g class="link" data-entity-1="ent0004" data-entity-2="ent0015" data-link-type="dependency" data-source-line="59" id="lnk18"><path codeLine="59" d="M727.9523,323.07 C771.4323,357.52 816.5723,397.27 853.6623,438.7 C866.5623,453.1 875.0546,466.9734 882.1346,480.1634" fill="none" id="Charge-to-User-2" style="stroke:#555555;stroke-width:1;stroke-dasharray:7,7;"/><polygon fill="#555555" points="884.9723,485.45,884.2402,475.6284,882.6076,481.0445,877.1914,479.4119,884.9723,485.45" style="stroke:#555555;stroke-width:1;"/><text fill="#000000" font-family="sans-serif" font-size="13" lengthAdjust="spacing" textLength="48.7754" x="867.0623" y="452.2684">paid_by</text></g><!--link Charge to User--><g class="link" data-entity-1="ent0004" data-entity-2="ent0015" data-link-type="dependency" data-source-line="60" id="lnk19"><path codeLine="60" d="M728.1523,270.2 C801.8623,307.04 881.6623,361.93 923.6623,438.7 C932.2123,454.32 924.5408,468.1544 913.1408,480.7944" fill="none" id="Charge-to-User-3" style="stroke:#555555;stroke-width:1;stroke-dasharray:7,7;"/><polygon fill="#555555" points="909.1223,485.25,918.1204,481.2456,912.471,481.537,912.1796,475.8877,909.1223,485.25" style="stroke:#555555;stroke-width:1;"/><text fill="#000000" font-family="sans-serif" font-size="13" lengthAdjust="spacing" textLength="76.4639" x="927.6023" y="452.2684">canceled_by</text></g><!--link Charge to User--><g class="link" data-entity-1="ent0004" data-entity-2="ent0015" data-link-type="dependency" data-source-line="61" id="lnk20"><path codeLine="61" d="M727.9523,246.5 C829.0223,279.15 950.9123,337.62 1012.6623,438.7 C1034.7923,474.92 971.578,490.0441 929.158,496.3041" fill="none" id="Charge-to-User-4" style="stroke:#555555;stroke-width:1;stroke-dasharray:7,7;"/><polygon fill="#555555" points="923.2223,497.18,932.7098,499.8232,928.1687,496.45,931.5419,491.9089,923.2223,497.18" style="stroke:#555555;stroke-width:1;"/><text fill="#000000" font-family="sans-serif" font-size="13" lengthAdjust="spacing" textLength="68.1865" x="1017.9123" y="452.2684">deleted_by</text></g><?plantuml-src XLJ1ZjCm4BtdAqRBOLj1gnQ4GD4gLNUXqgf2e5quHsuyRQqwTcGxXS9ovGFuHBw4iPDqasuewQ7MUs_iySppNC8xdJEXOiYsp6mGu04WrnnZM9TIHfVmdXCgSOEAnp0Q9V3nxWCObCm9hUnM58CX08p72IoM8wta0GPATmJ3Q2iu0kQ5Eq2E-GgDZUnEg88PbaCccRLpvunObGvlCwtknNU4oQbaePKBpFHLYveRex_UQAaDF7iTlXPvu-EkjU5eQidRy3sHi6otCRfKl9OjvluNHQXAaeJAt3lcIWi_8W1ksDhHlx2sH4wBWWd_bp6LeIJaPoVoyw7049VJ3RRoa1fqL78q136bIYO9ARHnwHgHi3sZbP12RMg0M8CMbGibhK6gaorb1z9kIvlIuQ5UzUbmTLMrrYP9oEAvu123K8wOJyiayL0c1MsVjfZ5yi-ltnLiAysgj9IqjKVLh94r3DRAxgMUo3jq7LAbc3fVghXLDy_Pgl9nfn7Xd9nQveZWc8cSoS5qykBbq3C56g7zkTQPmPlXp6EX-ZRDz1uDrZbvdAFDZ2Xy7Gbq-Cq5UMQGEUGf2mVGqeaSsyJgS7AlqfAng-jKpkZ6pbh4kLXlffx809-BQzpN4tka_XzVFLjg3hFTUd3QmFNktZ3_t9mSMNlHZucBoNWylQ27vxr54PN9UXJpu9ExO1FITMpJoFr0gkMtQgz5XY67iABXrOmaUamx6mRJwVJotf6C336CsocSP4ScRhFNjU69RxsAjk9SxYVIBrGbVz3HLZtaqJOzN6sClYqVszx3FhOj-Wi0?></g></svg>