<?plantuml 1.2026.2?><svg xmlns="http://www.w3.org/2000/svg" xmlns:xlink="http://www.w3.org/1999/xlink" contentStyleType="text/css" data-diagram-type="CLASS" height="607px" preserveAspectRatio="none" style="width:651px;height:607px;background:#FFFFFF;" version="1.1" viewBox="0 0 651 607" width="651px" zoomAndPan="magnify"><defs/><g><!--class ClientStatus--><g class="entity" data-qualified-name="ClientStatus" data-source-line="10" id="ent0002"><rect fill="#FAFAFA" height="89.4648" rx="2.5" ry="2.5" style="stroke:#888888;stroke-width:0.5;" width="107.2832" x="7" y="204.34"/><ellipse cx="22" cy="220.34" fill="#EB937F" rx="11" ry="11" style="stroke:#181818;stroke-width:1;"/><path d="M25.6143,226.84 L17.8945,226.84 L17.8945,214.4469 L25.6143,214.4469 L25.6143,216.6051 L20.3433,216.6051 L20.3433,219.278 L25.1162,219.278 L25.1162,221.4362 L20.3433,221.4362 L20.3433,224.6818 L25.6143,224.6818 Z " fill="#000000"/><text fill="#000000" font-family="sans-serif" font-size="13" lengthAdjust="spacing" textLength="75.2832" x="36" y="225.2531">ClientStatus</text><line style="stroke:#888888;stroke-width:0.5;" x1="8" x2="113.2832" y1="236.34" y2="236.34"/><text fill="#000000" font-family="sans-serif" font-size="14" lengthAdjust="spacing" textLength="39.2314" x="13" y="253.8752">active</text><text fill="#000000" font-family="sans-serif" font-size="14" lengthAdjust="spacing" textLength="43.9893" x="13" y="270.3634">frozen</text><text fill="#000000" font-family="sans-serif" font-size="14" lengthAdjust="spacing" textLength="43.5654" x="13" y="286.8517">closed</text></g><!--class IdNumberType--><g class="entity" data-qualified-name="IdNumberType" data-source-line="16" id="ent0003"><rect fill="#FAFAFA" height="105.9531" rx="2.5" ry="2.5" style="stroke:#888888;stroke-width:0.5;" width="124.917" x="149.18" y="196.09"/><ellipse cx="164.18" cy="212.09" fill="#EB937F" rx="11" ry="11" style="stroke:#181818;stroke-width:1;"/><path d="M167.7943,218.59 L160.0745,218.59 L160.0745,206.1969 L167.7943,206.1969 L167.7943,208.3551 L162.5233,208.3551 L162.5233,211.028 L167.2962,211.028 L167.2962,213.1862 L162.5233,213.1862 L162.5233,216.4318 L167.7943,216.4318 Z " fill="#000000"/><text fill="#000000" font-family="sans-serif" font-size="13" lengthAdjust="spacing" textLength="92.917" x="178.18" y="217.0031">IdNumberType</text><line style="stroke:#888888;stroke-width:0.5;" x1="150.18" x2="273.097" y1="228.09" y2="228.09"/><text fill="#000000" font-family="sans-serif" font-size="14" lengthAdjust="spacing" textLength="66.165" x="155.18" y="245.6252">individual</text><text fill="#000000" font-family="sans-serif" font-size="14" lengthAdjust="spacing" textLength="78.9414" x="155.18" y="262.1134">corporation</text><text fill="#000000" font-family="sans-serif" font-size="14" lengthAdjust="spacing" textLength="59.1924" x="155.18" y="278.6017">passport</text><text fill="#000000" font-family="sans-serif" font-size="14" lengthAdjust="spacing" textLength="36.0527" x="155.18" y="295.09">other</text></g><!--class Client--><g class="entity" data-qualified-name="Client" data-source-line="23" id="ent0004"><rect fill="#FAFAFA" height="484.1387" rx="2.5" ry="2.5" style="stroke:#888888;stroke-width:0.5;" width="265.1416" x="309.07" y="7"/><ellipse cx="414.1926" cy="26.7217" fill="#ADD1B2" rx="11" ry="11" style="stroke:#181818;stroke-width:1;"/><path d="M416.6657,32.8647 Q416.0846,33.1636 415.4455,33.313 Q414.8063,33.4624 414.1008,33.4624 Q411.5939,33.4624 410.2741,31.8105 Q408.9543,30.1587 408.9543,27.0376 Q408.9543,23.9082 410.2741,22.2563 Q411.5939,20.6045 414.1008,20.6045 Q414.8063,20.6045 415.4538,20.7539 Q416.1013,20.9033 416.6657,21.2021 L416.6657,23.9248 Q416.0348,23.3438 415.4413,23.074 Q414.8478,22.8042 414.217,22.8042 Q412.8722,22.8042 412.1874,23.8708 Q411.5026,24.9375 411.5026,27.0376 Q411.5026,29.1294 412.1874,30.196 Q412.8722,31.2627 414.217,31.2627 Q414.8478,31.2627 415.4413,30.9929 Q416.0348,30.7231 416.6657,30.1421 Z " fill="#000000"/><text fill="#000000" font-family="sans-serif" font-size="12" font-style="italic" lengthAdjust="spacing" textLength="50.3965" x="432.6926" y="23.6016">&#171;clients&#187;</text><text fill="#000000" font-family="sans-serif" font-size="13" lengthAdjust="spacing" textLength="36.6831" x="439.5492" y="38.7012">Client</text><line style="stroke:#888888;stroke-width:0.5;" x1="310.07" x2="573.2116" y1="46.4434" y2="46.4434"/><text fill="#000000" font-family="sans-serif" font-size="14" lengthAdjust="spacing" textLength="91.2256" x="315.07" y="63.9785">+id : int &#171;PK&#187;</text><text fill="#000000" font-family="sans-serif" font-size="14" lengthAdjust="spacing" textLength="108.7393" x="315.07" y="80.4668">+full_name : str</text><text fill="#000000" font-family="sans-serif" font-size="14" lengthAdjust="spacing" textLength="115.165" x="315.07" y="96.9551">+id_number : str</text><text fill="#000000" font-family="sans-serif" font-size="14" lengthAdjust="spacing" textLength="233.29" x="315.07" y="113.4434">+id_number_type : IdNumberType</text><text fill="#000000" font-family="sans-serif" font-size="14" lengthAdjust="spacing" textLength="91.0137" x="315.07" y="129.9316">+phone : str?</text><text fill="#000000" font-family="sans-serif" font-size="14" lengthAdjust="spacing" textLength="85.1211" x="315.07" y="146.4199">+email : str?</text><text fill="#000000" font-family="sans-serif" font-size="14" lengthAdjust="spacing" textLength="147.5195" x="315.07" y="162.9082">+address_street : str?</text><text fill="#000000" font-family="sans-serif" font-size="14" lengthAdjust="spacing" textLength="224.2393" x="315.07" y="179.3965">+address_building_number : str?</text><text fill="#000000" font-family="sans-serif" font-size="14" lengthAdjust="spacing" textLength="178.6162" x="315.07" y="195.8848">+address_apartment : str?</text><text fill="#000000" font-family="sans-serif" font-size="14" lengthAdjust="spacing" textLength="132.3506" x="315.07" y="212.373">+address_city : str?</text><text fill="#000000" font-family="sans-serif" font-size="14" lengthAdjust="spacing" textLength="168.8477" x="315.07" y="228.8613">+address_zip_code : str?</text><text fill="#000000" font-family="sans-serif" font-size="14" lengthAdjust="spacing" textLength="175.6973" x="315.07" y="245.3496">+entity_type : EntityType?</text><text fill="#000000" font-family="sans-serif" font-size="14" lengthAdjust="spacing" textLength="249.9561" x="315.07" y="261.8379">+vat_reporting_frequency : VatType?</text><text fill="#000000" font-family="sans-serif" font-size="14" lengthAdjust="spacing" textLength="231.4375" x="315.07" y="278.3262">+advance_rate_updated_at : date?</text><text fill="#000000" font-family="sans-serif" font-size="14" lengthAdjust="spacing" textLength="146.6582" x="315.07" y="294.8145">+status : ClientStatus</text><text fill="#000000" font-family="sans-serif" font-size="14" lengthAdjust="spacing" textLength="94.6436" x="315.07" y="311.3027">+notes : text?</text><text fill="#000000" font-family="sans-serif" font-size="14" lengthAdjust="spacing" textLength="207.9355" x="315.07" y="327.791">+created_by : int? &#171;FK&#8594;users&#187;</text><text fill="#000000" font-family="sans-serif" font-size="14" lengthAdjust="spacing" textLength="154.3965" x="315.07" y="344.2793">+created_at : datetime</text><text fill="#000000" font-family="sans-serif" font-size="14" lengthAdjust="spacing" textLength="165.915" x="315.07" y="360.7676">+updated_at : datetime?</text><text fill="#000000" font-family="sans-serif" font-size="14" lengthAdjust="spacing" textLength="160.3301" x="315.07" y="377.2559">+deleted_at : datetime?</text><text fill="#000000" font-family="sans-serif" font-size="14" lengthAdjust="spacing" textLength="207.9629" x="315.07" y="393.7441">+deleted_by : int? &#171;FK&#8594;users&#187;</text><text fill="#000000" font-family="sans-serif" font-size="14" lengthAdjust="spacing" textLength="166.8652" x="315.07" y="410.2324">+restored_at : datetime?</text><text fill="#000000" font-family="sans-serif" font-size="14" lengthAdjust="spacing" textLength="214.498" x="315.07" y="426.7207">+restored_by : int? &#171;FK&#8594;users&#187;</text><line style="stroke:#888888;stroke-width:0.5;" x1="310.07" x2="573.2116" y1="433.6738" y2="433.6738"/><text fill="#000000" font-family="sans-serif" font-size="14" lengthAdjust="spacing" textLength="253.1416" x="315.07" y="451.209">+vat_exempt_ceiling : decimal(12,0)?</text><text fill="#000000" font-family="sans-serif" font-size="14" lengthAdjust="spacing" textLength="202.918" x="315.07" y="467.6973">+advance_rate : decimal(5,2)?</text><text fill="#000000" font-family="sans-serif" font-size="14" lengthAdjust="spacing" textLength="203.3213" x="315.07" y="484.1855">+accountant_name : str(100)?</text></g><!--class EntityNote--><g class="entity" data-qualified-name="EntityNote" data-source-line="52" id="ent0005"><rect fill="#FAFAFA" height="32" rx="2.5" ry="2.5" style="stroke:#888888;stroke-width:0.5;" width="97.0825" x="220.1" y="568.14"/><ellipse cx="235.1" cy="584.14" fill="#ADD1B2" rx="11" ry="11" style="stroke:#181818;stroke-width:1;"/><path d="M237.5731,590.2831 Q236.9921,590.5819 236.3529,590.7313 Q235.7138,590.8807 235.0082,590.8807 Q232.5014,590.8807 231.1815,589.2289 Q229.8617,587.577 229.8617,584.4559 Q229.8617,581.3265 231.1815,579.6747 Q232.5014,578.0228 235.0082,578.0228 Q235.7138,578.0228 236.3612,578.1722 Q237.0087,578.3216 237.5731,578.6205 L237.5731,581.3431 Q236.9423,580.7621 236.3488,580.4923 Q235.7553,580.2225 235.1244,580.2225 Q233.7797,580.2225 233.0949,581.2892 Q232.4101,582.3558 232.4101,584.4559 Q232.4101,586.5477 233.0949,587.6144 Q233.7797,588.681 235.1244,588.681 Q235.7553,588.681 236.3488,588.4112 Q236.9423,588.1415 237.5731,587.5604 Z " fill="#000000"/><text fill="#000000" font-family="sans-serif" font-size="13" lengthAdjust="spacing" textLength="65.0825" x="249.1" y="589.0531">EntityNote</text></g><!--class User--><g class="entity" data-qualified-name="User" data-source-line="54" id="ent0007"><rect fill="#FAFAFA" height="32" rx="2.5" ry="2.5" style="stroke:#888888;stroke-width:0.5;" width="60.1963" x="466.54" y="568.14"/><ellipse cx="481.54" cy="584.14" fill="#ADD1B2" rx="11" ry="11" style="stroke:#181818;stroke-width:1;"/><path d="M484.0131,590.2831 Q483.4321,590.5819 482.7929,590.7313 Q482.1538,590.8807 481.4482,590.8807 Q478.9414,590.8807 477.6215,589.2289 Q476.3017,587.577 476.3017,584.4559 Q476.3017,581.3265 477.6215,579.6747 Q478.9414,578.0228 481.4482,578.0228 Q482.1538,578.0228 482.8012,578.1722 Q483.4487,578.3216 484.0131,578.6205 L484.0131,581.3431 Q483.3823,580.7621 482.7888,580.4923 Q482.1953,580.2225 481.5644,580.2225 Q480.2197,580.2225 479.5349,581.2892 Q478.8501,582.3558 478.8501,584.4559 Q478.8501,586.5477 479.5349,587.6144 Q480.2197,588.681 481.5644,588.681 Q482.1953,588.681 482.7888,588.4112 Q483.3823,588.1415 484.0131,587.5604 Z " fill="#000000"/><text fill="#000000" font-family="sans-serif" font-size="13" lengthAdjust="spacing" textLength="28.1963" x="495.54" y="589.0531">User</text></g><!--link Client to EntityNote--><g class="link" data-entity-1="ent0004" data-entity-2="ent0005" data-link-type="dependency" data-source-line="52" id="lnk6"><path codeLine="52" d="M308.58,480.78 C301.93,494.31 295.57,507.83 289.64,521.14 C282.76,536.61 278.485,549.3203 274.685,562.0603" fill="none" id="Client-to-EntityNote" style="stroke:#555555;stroke-width:1;stroke-dasharray:7,7;"/><polygon fill="#555555" points="272.97,567.81,279.3756,560.3288,274.3991,563.0186,271.7093,558.0422,272.97,567.81" style="stroke:#555555;stroke-width:1;"/><text fill="#000000" font-family="sans-serif" font-size="13" lengthAdjust="spacing" textLength="76.8701" x="290.64" y="534.7084">entity_notes</text><text fill="#000000" font-family="sans-serif" font-size="13" lengthAdjust="spacing" textLength="22.7119" x="248.8781" y="557.5361">0..*</text></g><!--link Client to User--><g class="link" data-entity-1="ent0004" data-entity-2="ent0007" data-link-type="dependency" data-source-line="54" id="lnk8"><path codeLine="54" d="M364.4,491.5 C367.69,507.93 373.83,523.68 383.64,538.14 C401.95,565.14 433.3967,574.9834 460.1467,579.3034" fill="none" id="Client-to-User" style="stroke:#555555;stroke-width:1;stroke-dasharray:7,7;"/><polygon fill="#555555" points="466.07,580.26,457.8228,574.8763,461.134,579.4629,456.5474,582.774,466.07,580.26" style="stroke:#555555;stroke-width:1;"/><text fill="#000000" font-family="sans-serif" font-size="13" lengthAdjust="spacing" textLength="68.1611" x="384.64" y="534.7084">created_by</text></g><!--link Client to User--><g class="link" data-entity-1="ent0004" data-entity-2="ent0007" data-link-type="dependency" data-source-line="55" id="lnk9"><path codeLine="55" d="M481.47,491.25 C486.84,523.8 490.4531,545.6401 493.1331,561.8801" fill="none" id="Client-to-User-1" style="stroke:#555555;stroke-width:1;stroke-dasharray:7,7;"/><polygon fill="#555555" points="494.11,567.8,496.5912,558.2688,493.2959,562.8667,488.698,559.5714,494.11,567.8" style="stroke:#555555;stroke-width:1;"/><text fill="#000000" font-family="sans-serif" font-size="13" lengthAdjust="spacing" textLength="68.1865" x="489.66" y="534.7084">deleted_by</text></g><!--link Client to User--><g class="link" data-entity-1="ent0004" data-entity-2="ent0007" data-link-type="dependency" data-source-line="56" id="lnk10"><path codeLine="56" d="M559.03,491.39 C561.91,501.33 564.48,511.27 566.64,521.14 C568.26,528.52 570.26,531.51 566.64,538.14 C558.2,553.61 547.2883,561.9207 532.5483,569.1407" fill="none" id="Client-to-User-2" style="stroke:#555555;stroke-width:1;stroke-dasharray:7,7;"/><polygon fill="#555555" points="527.16,571.78,537.002,571.4132,531.6503,569.5806,533.4829,564.2288,527.16,571.78" style="stroke:#555555;stroke-width:1;"/><text fill="#000000" font-family="sans-serif" font-size="13" lengthAdjust="spacing" textLength="74.2549" x="569.67" y="534.7084">restored_by</text></g><?plantuml-src VLJTRjCm5BxFKrZZOYriLJiq2KLJfZ5MQPeOY06taMkVjLOTEzWdPHrmomFmY3m9vxZfbgvboKLy_7q-lr-yBzxvIXgN2sKDE8n2_1IYyXfoSTjOc-sB2pq5OM4AJkVYyB0G7pwz5m6iHEDTd9cwrnT230Q565yTUcUNekVy1g6VpOm60LMDIr51DO4GipWthfP1LXHPndY66CoaGRXKtjsOUn33fvInTvYGqUiET1Q2_txkhG_YnN5wEk0vdtlhWuRGKjwaPuiYrNmQVEDqInkVyPjbu1gcS6jkK68JnOzC2AdGB80Mjy7VWwE5iZw2pdwr9oxrTSDbVbxMa4uOfyt2w4PQ9ljG-v3QGrPDySb4MdgSGM0dgTushZWvQMTJ5CdNAwD5JXuP-NXL5Bp5iogTh82GY675AbrAOiTMYPnOlf4d4-gPTwsBKxQ1j64xjjGwG8mbsG2u0vWqnchZfXkXDnYIseuLrxMDAKC2sTw-DtMfI9BTn1mITrt6HRAuY0Gk99O1kAUSoMs0RmqunPw_IjnWmHsBibHWB569e46PIjhUwEXWs6-JM4YdeAHvGOTmV72qZPTDhUcZIydLyN95KOgaXT9XPqIzqR2D45V2oZTqne3p2BoFS8U9gG8azvFbIW2df83nrT_VVvf8lzHA2MlEGmfegZJRhTmOI6urM7WUUIuWZGXzs7dy0VhlUT9wgtA-GFQ6Wy7BlNQSrpurl9rqwWNTHkixXkOrZ-ccUNeTyOYifAZzlElxIqnoV6pX3l2nt1rWfvZi7m00?></g></svg>