<?plantuml 1.2026.2?><svg xmlns="http://www.w3.org/2000/svg" xmlns:xlink="http://www.w3.org/1999/xlink" contentStyleType="text/css" data-diagram-type="CLASS" height="368px" preserveAspectRatio="none" style="width:742px;height:368px;background:#FFFFFF;" version="1.1" viewBox="0 0 742 368" width="742px" zoomAndPan="magnify"><defs/><g><!--class CorrespondenceType--><g class="entity" data-qualified-name="CorrespondenceType" data-source-line="10" id="ent0002"><rect fill="#FAFAFA" height="122.4414" rx="2.5" ry="2.5" style="stroke:#888888;stroke-width:0.5;" width="165.5547" x="7" y="68.43"/><ellipse cx="22" cy="84.43" fill="#EB937F" rx="11" ry="11" style="stroke:#181818;stroke-width:1;"/><path d="M25.6143,90.93 L17.8945,90.93 L17.8945,78.5369 L25.6143,78.5369 L25.6143,80.6951 L20.3433,80.6951 L20.3433,83.368 L25.1162,83.368 L25.1162,85.5262 L20.3433,85.5262 L20.3433,88.7718 L25.6143,88.7718 Z " fill="#000000"/><text fill="#000000" font-family="sans-serif" font-size="13" lengthAdjust="spacing" textLength="133.5547" x="36" y="89.3431">CorrespondenceType</text><line style="stroke:#888888;stroke-width:0.5;" x1="8" x2="171.5547" y1="100.43" y2="100.43"/><text fill="#000000" font-family="sans-serif" font-size="14" lengthAdjust="spacing" textLength="22.9961" x="13" y="117.9652">call</text><text fill="#000000" font-family="sans-serif" font-size="14" lengthAdjust="spacing" textLength="35.8477" x="13" y="134.4534">letter</text><text fill="#000000" font-family="sans-serif" font-size="14" lengthAdjust="spacing" textLength="36.6953" x="13" y="150.9417">email</text><text fill="#000000" font-family="sans-serif" font-size="14" lengthAdjust="spacing" textLength="55.3711" x="13" y="167.43">meeting</text><text fill="#000000" font-family="sans-serif" font-size="14" lengthAdjust="spacing" textLength="21.4648" x="13" y="183.9183">fax</text></g><!--class Correspondence--><g class="entity" data-qualified-name="Correspondence" data-source-line="18" id="ent0003"><rect fill="#FAFAFA" height="245.3027" rx="2.5" ry="2.5" style="stroke:#888888;stroke-width:0.5;" width="324.9424" x="207.31" y="7"/><ellipse cx="291.8281" cy="26.7217" fill="#ADD1B2" rx="11" ry="11" style="stroke:#181818;stroke-width:1;"/><path d="M294.3012,32.8647 Q293.7202,33.1636 293.081,33.313 Q292.4418,33.4624 291.7363,33.4624 Q289.2294,33.4624 287.9096,31.8105 Q286.5898,30.1587 286.5898,27.0376 Q286.5898,23.9082 287.9096,22.2563 Q289.2294,20.6045 291.7363,20.6045 Q292.4418,20.6045 293.0893,20.7539 Q293.7368,20.9033 294.3012,21.2021 L294.3012,23.9248 Q293.6704,23.3438 293.0768,23.074 Q292.4833,22.8042 291.8525,22.8042 Q290.5078,22.8042 289.8229,23.8708 Q289.1381,24.9375 289.1381,27.0376 Q289.1381,29.1294 289.8229,30.196 Q290.5078,31.2627 291.8525,31.2627 Q292.4833,31.2627 293.0768,30.9929 Q293.6704,30.7231 294.3012,30.1421 Z " fill="#000000"/><text fill="#000000" font-family="sans-serif" font-size="12" font-style="italic" lengthAdjust="spacing" textLength="151.4063" x="310.3281" y="23.6016">&#171;correspondence_entries&#187;</text><text fill="#000000" font-family="sans-serif" font-size="13" lengthAdjust="spacing" textLength="103.1177" x="334.4724" y="38.7012">Correspondence</text><line style="stroke:#888888;stroke-width:0.5;" x1="208.31" x2="531.2524" y1="46.4434" y2="46.4434"/><text fill="#000000" font-family="sans-serif" font-size="14" lengthAdjust="spacing" textLength="91.2256" x="213.31" y="63.9785">+id : int &#171;PK&#187;</text><text fill="#000000" font-family="sans-serif" font-size="14" lengthAdjust="spacing" textLength="193.1084" x="213.31" y="80.4668">+client_id : int &#171;FK&#8594;clients&#187;</text><text fill="#000000" font-family="sans-serif" font-size="14" lengthAdjust="spacing" textLength="251.7266" x="213.31" y="96.9551">+business_id : int? &#171;FK&#8594;businesses&#187;</text><text fill="#000000" font-family="sans-serif" font-size="14" lengthAdjust="spacing" textLength="292.9746" x="213.31" y="113.4434">+contact_id : int? &#171;FK&#8594;authority_contacts&#187;</text><text fill="#000000" font-family="sans-serif" font-size="14" lengthAdjust="spacing" textLength="312.9424" x="213.31" y="129.9316">+correspondence_type : CorrespondenceType</text><text fill="#000000" font-family="sans-serif" font-size="14" lengthAdjust="spacing" textLength="91.6221" x="213.31" y="146.4199">+subject : str</text><text fill="#000000" font-family="sans-serif" font-size="14" lengthAdjust="spacing" textLength="94.6436" x="213.31" y="162.9082">+notes : text?</text><text fill="#000000" font-family="sans-serif" font-size="14" lengthAdjust="spacing" textLength="163.8164" x="213.31" y="179.3965">+occurred_at : datetime</text><text fill="#000000" font-family="sans-serif" font-size="14" lengthAdjust="spacing" textLength="202.0293" x="213.31" y="195.8848">+created_by : int &#171;FK&#8594;users&#187;</text><text fill="#000000" font-family="sans-serif" font-size="14" lengthAdjust="spacing" textLength="154.3965" x="213.31" y="212.373">+created_at : datetime</text><text fill="#000000" font-family="sans-serif" font-size="14" lengthAdjust="spacing" textLength="160.3301" x="213.31" y="228.8613">+deleted_at : datetime?</text><text fill="#000000" font-family="sans-serif" font-size="14" lengthAdjust="spacing" textLength="207.9629" x="213.31" y="245.3496">+deleted_by : int? &#171;FK&#8594;users&#187;</text></g><!--class Client--><g class="entity" data-qualified-name="Client" data-source-line="33" id="ent0004"><rect fill="#FAFAFA" height="32" rx="2.5" ry="2.5" style="stroke:#888888;stroke-width:0.5;" width="68.6831" x="116.44" y="329.3"/><ellipse cx="131.44" cy="345.3" fill="#ADD1B2" rx="11" ry="11" style="stroke:#181818;stroke-width:1;"/><path d="M133.9131,351.4431 Q133.3321,351.7419 132.6929,351.8913 Q132.0538,352.0407 131.3482,352.0407 Q128.8414,352.0407 127.5215,350.3889 Q126.2017,348.737 126.2017,345.6159 Q126.2017,342.4865 127.5215,340.8347 Q128.8414,339.1828 131.3482,339.1828 Q132.0538,339.1828 132.7012,339.3322 Q133.3487,339.4816 133.9131,339.7805 L133.9131,342.5031 Q133.2823,341.9221 132.6888,341.6523 Q132.0953,341.3825 131.4644,341.3825 Q130.1197,341.3825 129.4349,342.4492 Q128.7501,343.5158 128.7501,345.6159 Q128.7501,347.7077 129.4349,348.7744 Q130.1197,349.841 131.4644,349.841 Q132.0953,349.841 132.6888,349.5712 Q133.2823,349.3015 133.9131,348.7204 Z " fill="#000000"/><text fill="#000000" font-family="sans-serif" font-size="13" lengthAdjust="spacing" textLength="36.6831" x="145.44" y="350.2131">Client</text></g><!--class AuthorityContact--><g class="entity" data-qualified-name="AuthorityContact" data-source-line="34" id="ent0006"><rect fill="#FAFAFA" height="32" rx="2.5" ry="2.5" style="stroke:#888888;stroke-width:0.5;" width="139.2944" x="235.13" y="329.3"/><ellipse cx="250.13" cy="345.3" fill="#ADD1B2" rx="11" ry="11" style="stroke:#181818;stroke-width:1;"/><path d="M252.6031,351.4431 Q252.0221,351.7419 251.3829,351.8913 Q250.7438,352.0407 250.0382,352.0407 Q247.5314,352.0407 246.2115,350.3889 Q244.8917,348.737 244.8917,345.6159 Q244.8917,342.4865 246.2115,340.8347 Q247.5314,339.1828 250.0382,339.1828 Q250.7438,339.1828 251.3912,339.3322 Q252.0387,339.4816 252.6031,339.7805 L252.6031,342.5031 Q251.9723,341.9221 251.3788,341.6523 Q250.7853,341.3825 250.1544,341.3825 Q248.8097,341.3825 248.1249,342.4492 Q247.4401,343.5158 247.4401,345.6159 Q247.4401,347.7077 248.1249,348.7744 Q248.8097,349.841 250.1544,349.841 Q250.7853,349.841 251.3788,349.5712 Q251.9723,349.3015 252.6031,348.7204 Z " fill="#000000"/><text fill="#000000" font-family="sans-serif" font-size="13" lengthAdjust="spacing" textLength="107.2944" x="264.13" y="350.2131">AuthorityContact</text></g><!--class Business--><g class="entity" data-qualified-name="Business" data-source-line="37" id="ent0009"><rect fill="#FAFAFA" height="32" rx="2.5" ry="2.5" style="stroke:#888888;stroke-width:0.5;" width="86.4946" x="432.53" y="329.3"/><ellipse cx="447.53" cy="345.3" fill="#ADD1B2" rx="11" ry="11" style="stroke:#181818;stroke-width:1;"/><path d="M450.0031,351.4431 Q449.4221,351.7419 448.7829,351.8913 Q448.1438,352.0407 447.4382,352.0407 Q444.9314,352.0407 443.6115,350.3889 Q442.2917,348.737 442.2917,345.6159 Q442.2917,342.4865 443.6115,340.8347 Q444.9314,339.1828 447.4382,339.1828 Q448.1438,339.1828 448.7912,339.3322 Q449.4387,339.4816 450.0031,339.7805 L450.0031,342.5031 Q449.3723,341.9221 448.7788,341.6523 Q448.1853,341.3825 447.5544,341.3825 Q446.2097,341.3825 445.5249,342.4492 Q444.8401,343.5158 444.8401,345.6159 Q444.8401,347.7077 445.5249,348.7744 Q446.2097,349.841 447.5544,349.841 Q448.1853,349.841 448.7788,349.5712 Q449.3723,349.3015 450.0031,348.7204 Z " fill="#000000"/><text fill="#000000" font-family="sans-serif" font-size="13" lengthAdjust="spacing" textLength="54.4946" x="461.53" y="350.2131">Business</text></g><!--class User--><g class="entity" data-qualified-name="User" data-source-line="39" id="ent0012"><rect fill="#FAFAFA" height="32" rx="2.5" ry="2.5" style="stroke:#888888;stroke-width:0.5;" width="60.1963" x="615.68" y="329.3"/><ellipse cx="630.68" cy="345.3" fill="#ADD1B2" rx="11" ry="11" style="stroke:#181818;stroke-width:1;"/><path d="M633.1531,351.4431 Q632.5721,351.7419 631.9329,351.8913 Q631.2938,352.0407 630.5882,352.0407 Q628.0814,352.0407 626.7615,350.3889 Q625.4417,348.737 625.4417,345.6159 Q625.4417,342.4865 626.7615,340.8347 Q628.0814,339.1828 630.5882,339.1828 Q631.2938,339.1828 631.9412,339.3322 Q632.5887,339.4816 633.1531,339.7805 L633.1531,342.5031 Q632.5223,341.9221 631.9288,341.6523 Q631.3353,341.3825 630.7044,341.3825 Q629.3597,341.3825 628.6749,342.4492 Q627.9901,343.5158 627.9901,345.6159 Q627.9901,347.7077 628.6749,348.7744 Q629.3597,349.841 630.7044,349.841 Q631.3353,349.841 631.9288,349.5712 Q632.5223,349.3015 633.1531,348.7204 Z " fill="#000000"/><text fill="#000000" font-family="sans-serif" font-size="13" lengthAdjust="spacing" textLength="28.1963" x="644.68" y="350.2131">User</text></g><!--link Correspondence to Client--><g class="link" data-entity-1="ent0003" data-entity-2="ent0004" data-link-type="dependency" data-source-line="33" id="lnk5"><path codeLine="33" d="M206.97,243.1 C201.22,246.29 195.48,249.37 189.78,252.3 C155.63,269.84 130.71,250.79 108.78,282.3 C97.79,298.09 108.9131,312.5301 124.1631,325.1201" fill="none" id="Correspondence-to-Client" style="stroke:#555555;stroke-width:1;stroke-dasharray:7,7;"/><polygon fill="#555555" points="128.79,328.94,124.3962,320.1256,124.9342,325.7568,119.303,326.2948,128.79,328.94" style="stroke:#555555;stroke-width:1;"/><text fill="#000000" font-family="sans-serif" font-size="13" lengthAdjust="spacing" textLength="34.3472" x="109.78" y="295.8684">client</text><text fill="#000000" font-family="sans-serif" font-size="13" lengthAdjust="spacing" textLength="24.667" x="93.6408" y="318.6562">0..1</text></g><!--link Correspondence to Client--><g class="link" data-entity-1="ent0003" data-entity-2="ent0004" data-link-type="dependency" data-source-line="36" id="lnk8"><path codeLine="36" d="M244.61,252.76 C213.37,283.24 188.1644,307.8198 170.8544,324.7098" fill="none" id="Correspondence-to-Client-1" style="stroke:#555555;stroke-width:1;stroke-dasharray:7,7;"/><polygon fill="#555555" points="166.56,328.9,175.7951,325.4776,170.1387,325.4081,170.2081,319.7517,166.56,328.9" style="stroke:#555555;stroke-width:1;"/><text fill="#000000" font-family="sans-serif" font-size="13" lengthAdjust="spacing" textLength="52.7871" x="210.51" y="295.8684">client_id</text></g><!--link Correspondence to AuthorityContact--><g class="link" data-entity-1="ent0003" data-entity-2="ent0006" data-link-type="dependency" data-source-line="34" id="lnk7"><path codeLine="34" d="M289.27,252.72 C285.11,262.47 281.52,272.39 278.78,282.3 C274.23,298.72 279.8677,311.6727 288.5277,323.9827" fill="none" id="Correspondence-to-AuthorityContact" style="stroke:#555555;stroke-width:1;stroke-dasharray:7,7;"/><polygon fill="#555555" points="291.98,328.89,290.0731,319.2275,289.1031,324.8006,283.53,323.8305,291.98,328.89" style="stroke:#555555;stroke-width:1;"/><text fill="#000000" font-family="sans-serif" font-size="13" lengthAdjust="spacing" textLength="46.2744" x="279.78" y="295.8684">contact</text><text fill="#000000" font-family="sans-serif" font-size="13" lengthAdjust="spacing" textLength="24.667" x="259.8764" y="318.5896">0..1</text></g><!--link Correspondence to AuthorityContact--><g class="link" data-entity-1="ent0003" data-entity-2="ent0006" data-link-type="dependency" data-source-line="38" id="lnk11"><path codeLine="38" d="M346.12,252.66 C341.71,268.57 336.62,284.48 330.78,299.3 C326.67,309.71 323.6383,315.5135 318.3083,323.9735" fill="none" id="Correspondence-to-AuthorityContact-1" style="stroke:#555555;stroke-width:1;stroke-dasharray:7,7;"/><polygon fill="#555555" points="315.11,329.05,323.2918,323.5675,317.7753,324.8196,316.5231,319.303,315.11,329.05" style="stroke:#555555;stroke-width:1;"/><text fill="#000000" font-family="sans-serif" font-size="13" lengthAdjust="spacing" textLength="64.7144" x="336.67" y="295.8684">contact_id</text></g><!--link Correspondence to Business--><g class="link" data-entity-1="ent0003" data-entity-2="ent0009" data-link-type="dependency" data-source-line="37" id="lnk10"><path codeLine="37" d="M430.36,252.76 C445.48,283.24 457.0933,306.6352 465.4733,323.5252" fill="none" id="Correspondence-to-Business" style="stroke:#555555;stroke-width:1;stroke-dasharray:7,7;"/><polygon fill="#555555" points="468.14,328.9,467.7231,319.06,465.9177,324.421,460.5567,322.6156,468.14,328.9" style="stroke:#555555;stroke-width:1;"/><text fill="#000000" font-family="sans-serif" font-size="13" lengthAdjust="spacing" textLength="73.6392" x="453.88" y="295.8684">business_id</text></g><!--link Correspondence to User--><g class="link" data-entity-1="ent0003" data-entity-2="ent0012" data-link-type="dependency" data-source-line="39" id="lnk13"><path codeLine="39" d="M527.53,252.76 C566.89,283.24 599.3262,308.3363 621.1362,325.2263" fill="none" id="Correspondence-to-User" style="stroke:#555555;stroke-width:1;stroke-dasharray:7,7;"/><polygon fill="#555555" points="625.88,328.9,621.2134,320.2269,621.9268,325.8386,616.3151,326.552,625.88,328.9" style="stroke:#555555;stroke-width:1;"/><text fill="#000000" font-family="sans-serif" font-size="13" lengthAdjust="spacing" textLength="68.1611" x="587.16" y="295.8684">created_by</text></g><!--link Correspondence to User--><g class="link" data-entity-1="ent0003" data-entity-2="ent0012" data-link-type="dependency" data-source-line="40" id="lnk14"><path codeLine="40" d="M532.57,177.79 C582.86,200.85 632.64,234.33 661.78,282.3 C670.49,296.65 666.2749,310.3956 658.9549,323.5656" fill="none" id="Correspondence-to-User-1" style="stroke:#555555;stroke-width:1;stroke-dasharray:7,7;"/><polygon fill="#555555" points="656.04,328.81,663.9086,322.8867,658.4691,324.4397,656.9161,319.0002,656.04,328.81" style="stroke:#555555;stroke-width:1;"/><text fill="#000000" font-family="sans-serif" font-size="13" lengthAdjust="spacing" textLength="68.1865" x="666.79" y="295.8684">deleted_by</text></g><?plantuml-src VPDBRjim443tEiKWMIH6O2D1KQ0G0XcEMmE5KRJePorGvCHcB946EKAZVhOzG8xOatIeZol9JkGDnNb3ZTyCB-2jBOGsCKZh7FgzDGgDH81V08LL6CDzcUVH1RnJ6uGSDsXK3DDf0Xy_Vm27kI1jZT_g_UK406Qp15RhgJLv1PV63e19jDKA0OizLL1WaQ7paTzfinTE521puVs2oEci97mlhVcYVo1SZv6LDLH7RbxrGWldxFUbpQs3yzVrqmikGzwTTGfTYxofdoD4oDt6sTAe5bijmY-Aq9IC30nzhVO8FoC0ATWFi1eYTBn0zXas2aJIPiEhU_4O_OwYklhHAN1xEnIVec43w9EaFlnAAuX16sBmqpf9mfRCDKDfBx9Q__tpr6pxXibAhmrwVw3c7TP5i2NPCmb9nw0eQMkTfYfjaKF2e5uA7k8JSWBho-m19N7SKt1pPIoXvrV2Hvg73IjboPag5O5IWbXQKUTAX_ocqgmQ_i_IyzoqfRJ8KQv2RiSuCEz7kbFdusEvKQCMXPa-kvxDRivuIe9Zpcnalq0kEdlBHbx8QLPybxeRackpy_Kz6LycKCZZmbucyQcFZEhWvfsYxjfMCzURXrFayzK-a_2DRGNeqACNeF_Aety0?></g></svg>