<?plantuml 1.2026.2?><svg xmlns="http://www.w3.org/2000/svg" xmlns:xlink="http://www.w3.org/1999/xlink" contentStyleType="text/css" data-diagram-type="CLASS" height="285px" preserveAspectRatio="none" style="width:236px;height:285px;background:#FFFFFF;" version="1.1" viewBox="0 0 236 285" width="236px" zoomAndPan="magnify"><defs/><g><!--class Invoice--><g class="entity" data-qualified-name="Invoice" data-source-line="10" id="ent0002"><rect fill="#FAFAFA" height="162.8613" rx="2.5" ry="2.5" style="stroke:#888888;stroke-width:0.5;" width="222.8271" x="7" y="7"/><ellipse cx="86.4185" cy="26.7217" fill="#ADD1B2" rx="11" ry="11" style="stroke:#181818;stroke-width:1;"/><path d="M88.8916,32.8647 Q88.3105,33.1636 87.6714,33.313 Q87.0322,33.4624 86.3267,33.4624 Q83.8198,33.4624 82.5,31.8105 Q81.1802,30.1587 81.1802,27.0376 Q81.1802,23.9082 82.5,22.2563 Q83.8198,20.6045 86.3267,20.6045 Q87.0322,20.6045 87.6797,20.7539 Q88.3271,20.9033 88.8916,21.2021 L88.8916,23.9248 Q88.2607,23.3438 87.6672,23.074 Q87.0737,22.8042 86.4429,22.8042 Q85.0981,22.8042 84.4133,23.8708 Q83.7285,24.9375 83.7285,27.0376 Q83.7285,29.1294 84.4133,30.196 Q85.0981,31.2627 86.4429,31.2627 Q87.0737,31.2627 87.6672,30.9929 Q88.2607,30.7231 88.8916,30.1421 Z " fill="#000000"/><text fill="#000000" font-family="sans-serif" font-size="12" font-style="italic" lengthAdjust="spacing" textLength="59.4902" x="104.9185" y="23.6016">&#171;invoices&#187;</text><text fill="#000000" font-family="sans-serif" font-size="13" lengthAdjust="spacing" textLength="44.186" x="112.5706" y="38.7012">Invoice</text><line style="stroke:#888888;stroke-width:0.5;" x1="8" x2="228.8271" y1="46.4434" y2="46.4434"/><text fill="#000000" font-family="sans-serif" font-size="14" lengthAdjust="spacing" textLength="91.2256" x="13" y="63.9785">+id : int &#171;PK&#187;</text><text fill="#000000" font-family="sans-serif" font-size="14" lengthAdjust="spacing" textLength="210.8271" x="13" y="80.4668">+charge_id : int &#171;FK&#8594;charges&#187;</text><text fill="#000000" font-family="sans-serif" font-size="14" lengthAdjust="spacing" textLength="99.292" x="13" y="96.9551">+provider : str</text><text fill="#000000" font-family="sans-serif" font-size="14" lengthAdjust="spacing" textLength="172.5938" x="13" y="113.4434">+external_invoice_id : str</text><text fill="#000000" font-family="sans-serif" font-size="14" lengthAdjust="spacing" textLength="141.9551" x="13" y="129.9316">+document_url : str?</text><text fill="#000000" font-family="sans-serif" font-size="14" lengthAdjust="spacing" textLength="147.7383" x="13" y="146.4199">+issued_at : datetime</text><text fill="#000000" font-family="sans-serif" font-size="14" lengthAdjust="spacing" textLength="154.3965" x="13" y="162.9082">+created_at : datetime</text></g><!--class Charge--><g class="entity" data-qualified-name="Charge" data-source-line="21" id="ent0003"><rect fill="#FAFAFA" height="32" rx="2.5" ry="2.5" style="stroke:#888888;stroke-width:0.5;" width="76.9097" x="79.96" y="246.86"/><ellipse cx="94.96" cy="262.86" fill="#ADD1B2" rx="11" ry="11" style="stroke:#181818;stroke-width:1;"/><path d="M97.4331,269.0031 Q96.8521,269.3019 96.2129,269.4513 Q95.5738,269.6007 94.8682,269.6007 Q92.3614,269.6007 91.0415,267.9489 Q89.7217,266.297 89.7217,263.1759 Q89.7217,260.0465 91.0415,258.3947 Q92.3614,256.7428 94.8682,256.7428 Q95.5738,256.7428 96.2212,256.8922 Q96.8687,257.0416 97.4331,257.3405 L97.4331,260.0631 Q96.8023,259.4821 96.2088,259.2123 Q95.6153,258.9425 94.9844,258.9425 Q93.6397,258.9425 92.9549,260.0092 Q92.2701,261.0758 92.2701,263.1759 Q92.2701,265.2677 92.9549,266.3344 Q93.6397,267.401 94.9844,267.401 Q95.6153,267.401 96.2088,267.1312 Q96.8023,266.8615 97.4331,266.2804 Z " fill="#000000"/><text fill="#000000" font-family="sans-serif" font-size="13" lengthAdjust="spacing" textLength="44.9097" x="108.96" y="267.7731">Charge</text></g><!--link Invoice to Charge--><g class="link" data-entity-1="ent0002" data-entity-2="ent0003" data-link-type="dependency" data-source-line="21" id="lnk4"><path codeLine="21" d="M118.41,170.34 C118.41,199.39 118.41,223.25 118.41,240.65" fill="none" id="Invoice-to-Charge" style="stroke:#555555;stroke-width:1;stroke-dasharray:7,7;"/><polygon fill="#555555" points="118.41,246.65,122.41,237.65,118.41,241.65,114.41,237.65,118.41,246.65" style="stroke:#555555;stroke-width:1;"/><text fill="#000000" font-family="sans-serif" font-size="13" lengthAdjust="spacing" textLength="61.0137" x="119.41" y="213.4284">charge_id</text></g><?plantuml-src PL7RIWCn47tFLmpuq1PfKKIGfQpKwa8fekW7BEbct8RciaoorNfvzGFyHB_4R7OhQqsUSiwPpCmv0xYscakJW3HRAmi4U0VGLc02JxLIR00teaHGMA8H2Op7ATmzt0AXubvQuzQo6eu0O3998LkEhL4x61hxHp1YQoaGK5T-1nhr2ianjv6cuiGr58exD_EUvAhsk2YiUPIl22U7aimQ7vdJinur8xBFSwiimT5vF3rotjHTMH98dUGYddyINcnAihKHdIoRDPUns1WMdJVJQUUIIrDuOm37Ka1ZdG_K_J9D6wXOSoenxp7PyllpguLTgwd8ReCb52JEKuFWYqSoNELTXxQ-8uKjQet6vpMf5hsCpPshKUJS1qnmZrvgZ1CGXjSXyS52cFk8b3GR5uCwJ1C4XgK9nIXX-xsRSETn_l3Xxtxi1m00?></g></svg>