<?plantuml 1.2026.2?><svg xmlns="http://www.w3.org/2000/svg" xmlns:xlink="http://www.w3.org/1999/xlink" contentStyleType="text/css" data-diagram-type="CLASS" height="318px" preserveAspectRatio="none" style="width:233px;height:318px;background:#FFFFFF;" version="1.1" viewBox="0 0 233 318" width="233px" zoomAndPan="magnify"><defs/><g><!--class EntityNote--><g class="entity" data-qualified-name="EntityNote" data-source-line="10" id="ent0002"><rect fill="#FAFAFA" height="195.8379" rx="2.5" ry="2.5" style="stroke:#888888;stroke-width:0.5;" width="219.9629" x="7" y="7"/><ellipse cx="72.9658" cy="26.7217" fill="#ADD1B2" rx="11" ry="11" style="stroke:#181818;stroke-width:1;"/><path d="M75.439,32.8647 Q74.8579,33.1636 74.2188,33.313 Q73.5796,33.4624 72.874,33.4624 Q70.3672,33.4624 69.0474,31.8105 Q67.7275,30.1587 67.7275,27.0376 Q67.7275,23.9082 69.0474,22.2563 Q70.3672,20.6045 72.874,20.6045 Q73.5796,20.6045 74.2271,20.7539 Q74.8745,20.9033 75.439,21.2021 L75.439,23.9248 Q74.8081,23.3438 74.2146,23.074 Q73.6211,22.8042 72.9902,22.8042 Q71.6455,22.8042 70.9607,23.8708 Q70.2759,24.9375 70.2759,27.0376 Q70.2759,29.1294 70.9607,30.196 Q71.6455,31.2627 72.9902,31.2627 Q73.6211,31.2627 74.2146,30.9929 Q74.8081,30.7231 75.439,30.1421 Z " fill="#000000"/><text fill="#000000" font-family="sans-serif" font-size="12" font-style="italic" lengthAdjust="spacing" textLength="83.5313" x="91.4658" y="23.6016">&#171;entity_notes&#187;</text><text fill="#000000" font-family="sans-serif" font-size="13" lengthAdjust="spacing" textLength="65.0825" x="100.6902" y="38.7012">EntityNote</text><line style="stroke:#888888;stroke-width:0.5;" x1="8" x2="225.9629" y1="46.4434" y2="46.4434"/><text fill="#000000" font-family="sans-serif" font-size="14" lengthAdjust="spacing" textLength="91.2256" x="13" y="63.9785">+id : int &#171;PK&#187;</text><text fill="#000000" font-family="sans-serif" font-size="14" lengthAdjust="spacing" textLength="117.0039" x="13" y="80.4668">+entity_type : str</text><text fill="#000000" font-family="sans-serif" font-size="14" lengthAdjust="spacing" textLength="100.5703" x="13" y="96.9551">+entity_id : int</text><text fill="#000000" font-family="sans-serif" font-size="14" lengthAdjust="spacing" textLength="81.6006" x="13" y="113.4434">+note : text</text><text fill="#000000" font-family="sans-serif" font-size="14" lengthAdjust="spacing" textLength="207.9355" x="13" y="129.9316">+created_by : int? &#171;FK&#8594;users&#187;</text><text fill="#000000" font-family="sans-serif" font-size="14" lengthAdjust="spacing" textLength="154.3965" x="13" y="146.4199">+created_at : datetime</text><text fill="#000000" font-family="sans-serif" font-size="14" lengthAdjust="spacing" textLength="165.915" x="13" y="162.9082">+updated_at : datetime?</text><text fill="#000000" font-family="sans-serif" font-size="14" lengthAdjust="spacing" textLength="160.3301" x="13" y="179.3965">+deleted_at : datetime?</text><text fill="#000000" font-family="sans-serif" font-size="14" lengthAdjust="spacing" textLength="207.9629" x="13" y="195.8848">+deleted_by : int? &#171;FK&#8594;users&#187;</text></g><!--class User--><g class="entity" data-qualified-name="User" data-source-line="23" id="ent0003"><rect fill="#FAFAFA" height="32" rx="2.5" ry="2.5" style="stroke:#888888;stroke-width:0.5;" width="60.1963" x="86.88" y="279.84"/><ellipse cx="101.88" cy="295.84" fill="#ADD1B2" rx="11" ry="11" style="stroke:#181818;stroke-width:1;"/><path d="M104.3531,301.9831 Q103.7721,302.2819 103.1329,302.4313 Q102.4938,302.5807 101.7882,302.5807 Q99.2814,302.5807 97.9615,300.9289 Q96.6417,299.277 96.6417,296.1559 Q96.6417,293.0265 97.9615,291.3747 Q99.2814,289.7228 101.7882,289.7228 Q102.4938,289.7228 103.1412,289.8722 Q103.7887,290.0216 104.3531,290.3205 L104.3531,293.0431 Q103.7223,292.4621 103.1288,292.1923 Q102.5353,291.9225 101.9044,291.9225 Q100.5597,291.9225 99.8749,292.9892 Q99.1901,294.0558 99.1901,296.1559 Q99.1901,298.2477 99.8749,299.3144 Q100.5597,300.381 101.9044,300.381 Q102.5353,300.381 103.1288,300.1112 Q103.7223,299.8415 104.3531,299.2604 Z " fill="#000000"/><text fill="#000000" font-family="sans-serif" font-size="13" lengthAdjust="spacing" textLength="28.1963" x="115.88" y="300.7531">User</text></g><!--link EntityNote to User--><g class="link" data-entity-1="ent0002" data-entity-2="ent0003" data-link-type="dependency" data-source-line="23" id="lnk4"><path codeLine="23" d="M67.56,203.22 C64.09,213.04 61.12,223.02 58.98,232.84 C57.37,240.22 55.66,243.05 58.98,249.84 C65.04,262.2 71.3233,268.8034 82.3233,276.1634" fill="none" id="EntityNote-to-User" style="stroke:#555555;stroke-width:1;stroke-dasharray:7,7;"/><polygon fill="#555555" points="87.31,279.5,82.0543,271.1707,83.1544,276.7195,77.6055,277.8196,87.31,279.5" style="stroke:#555555;stroke-width:1;"/><text fill="#000000" font-family="sans-serif" font-size="13" lengthAdjust="spacing" textLength="68.1611" x="59.98" y="246.4084">created_by</text></g><!--link EntityNote to User--><g class="link" data-entity-1="ent0002" data-entity-2="ent0003" data-link-type="dependency" data-source-line="24" id="lnk5"><path codeLine="24" d="M135.25,203.3 C136.04,218.91 135.57,234.85 132.98,249.84 C131.23,259.97 129.6932,265.2932 126.2232,273.8132" fill="none" id="EntityNote-to-User-1" style="stroke:#555555;stroke-width:1;stroke-dasharray:7,7;"/><polygon fill="#555555" points="123.96,279.37,131.0593,272.5436,125.846,274.7393,123.6502,269.526,123.96,279.37" style="stroke:#555555;stroke-width:1;"/><text fill="#000000" font-family="sans-serif" font-size="13" lengthAdjust="spacing" textLength="68.1865" x="135.91" y="246.4084">deleted_by</text></g><?plantuml-src VPBVIiCm5CRlynG7lDY6R2WYI1aTSwuWmpyeNe-iEMvXQLAIKxJ-kVK1V4IVn2JRMDsOwKtF-NxvqduvBRWo1PSw0Mq87S07G6449l1SASLQC1Pp18Lpr2A1RZU5kuSRiAWuIQFTGfRj3W3qUYbaawxHgeQsDd-03bj8WO15IJKKMCpGEkQMKfVSyW9onPqR4bavgmYlSwCVvHl2oIwI6KrHEJrhI4DhpSl8A6FXw3okXZWA-owD5MZNo4LSUmZFbtDhAYtMM3OC3sFnO1XhabJV-doWtyTOJ6DQQGhl3E1O2aX0QlBo_IHDGskDKLsYrnpPHdE3XrRmyHNXQonpYvnGJ6Vr2Xbuospoy_LTEP_Qodh3SFACyAya2mn2LOfzOH0KWGh_LmuU-Cdy46okLaczTF62TwS01FgmB8fEmXfvXRbuyaxUVFjh1u3jfx1V?></g></svg>