<?plantuml 1.2026.2?><svg xmlns="http://www.w3.org/2000/svg" xmlns:xlink="http://www.w3.org/1999/xlink" contentStyleType="text/css" data-diagram-type="CLASS" height="524px" preserveAspectRatio="none" style="width:835px;height:524px;background:#FFFFFF;" version="1.1" viewBox="0 0 835 524" width="835px" zoomAndPan="magnify"><defs/><g><!--class NotificationChannel--><g class="entity" data-qualified-name="NotificationChannel" data-source-line="10" id="ent0002"><rect fill="#FAFAFA" height="72.9766" rx="2.5" ry="2.5" style="stroke:#888888;stroke-width:0.5;" width="156.6362" x="7" y="142.63"/><ellipse cx="22" cy="158.63" fill="#EB937F" rx="11" ry="11" style="stroke:#181818;stroke-width:1;"/><path d="M25.6143,165.13 L17.8945,165.13 L17.8945,152.7369 L25.6143,152.7369 L25.6143,154.8951 L20.3433,154.8951 L20.3433,157.568 L25.1162,157.568 L25.1162,159.7262 L20.3433,159.7262 L20.3433,162.9718 L25.6143,162.9718 Z " fill="#000000"/><text fill="#000000" font-family="sans-serif" font-size="13" lengthAdjust="spacing" textLength="124.6362" x="36" y="163.5431">NotificationChannel</text><line style="stroke:#888888;stroke-width:0.5;" x1="8" x2="162.6362" y1="174.63" y2="174.63"/><text fill="#000000" font-family="sans-serif" font-size="14" lengthAdjust="spacing" textLength="64.9346" x="13" y="192.1652">whatsapp</text><text fill="#000000" font-family="sans-serif" font-size="14" lengthAdjust="spacing" textLength="36.6953" x="13" y="208.6534">email</text></g><!--class NotificationSeverity--><g class="entity" data-qualified-name="NotificationSeverity" data-source-line="15" id="ent0003"><rect fill="#FAFAFA" height="105.9531" rx="2.5" ry="2.5" style="stroke:#888888;stroke-width:0.5;" width="154.2051" x="198.22" y="126.14"/><ellipse cx="213.22" cy="142.14" fill="#EB937F" rx="11" ry="11" style="stroke:#181818;stroke-width:1;"/><path d="M216.8343,148.64 L209.1145,148.64 L209.1145,136.2469 L216.8343,136.2469 L216.8343,138.4051 L211.5633,138.4051 L211.5633,141.078 L216.3362,141.078 L216.3362,143.2362 L211.5633,143.2362 L211.5633,146.4818 L216.8343,146.4818 Z " fill="#000000"/><text fill="#000000" font-family="sans-serif" font-size="13" lengthAdjust="spacing" textLength="122.2051" x="227.22" y="147.0531">NotificationSeverity</text><line style="stroke:#888888;stroke-width:0.5;" x1="199.22" x2="351.4251" y1="158.14" y2="158.14"/><text fill="#000000" font-family="sans-serif" font-size="14" lengthAdjust="spacing" textLength="26.4824" x="204.22" y="175.6752">info</text><text fill="#000000" font-family="sans-serif" font-size="14" lengthAdjust="spacing" textLength="54.4004" x="204.22" y="192.1634">warning</text><text fill="#000000" font-family="sans-serif" font-size="14" lengthAdjust="spacing" textLength="44.8711" x="204.22" y="208.6517">urgent</text><text fill="#000000" font-family="sans-serif" font-size="14" lengthAdjust="spacing" textLength="45.1787" x="204.22" y="225.14">critical</text></g><!--class NotificationStatus--><g class="entity" data-qualified-name="NotificationStatus" data-source-line="22" id="ent0004"><rect fill="#FAFAFA" height="89.4648" rx="2.5" ry="2.5" style="stroke:#888888;stroke-width:0.5;" width="143.8584" x="13.39" y="428.24"/><ellipse cx="28.39" cy="444.24" fill="#EB937F" rx="11" ry="11" style="stroke:#181818;stroke-width:1;"/><path d="M32.0043,450.74 L24.2845,450.74 L24.2845,438.3469 L32.0043,438.3469 L32.0043,440.5051 L26.7333,440.5051 L26.7333,443.178 L31.5062,443.178 L31.5062,445.3362 L26.7333,445.3362 L26.7333,448.5818 L32.0043,448.5818 Z " fill="#000000"/><text fill="#000000" font-family="sans-serif" font-size="13" lengthAdjust="spacing" textLength="111.8584" x="42.39" y="449.1531">NotificationStatus</text><line style="stroke:#888888;stroke-width:0.5;" x1="14.39" x2="156.2484" y1="460.24" y2="460.24"/><text fill="#000000" font-family="sans-serif" font-size="14" lengthAdjust="spacing" textLength="55.5762" x="19.39" y="477.7752">pending</text><text fill="#000000" font-family="sans-serif" font-size="14" lengthAdjust="spacing" textLength="28.8613" x="19.39" y="494.2634">sent</text><text fill="#000000" font-family="sans-serif" font-size="14" lengthAdjust="spacing" textLength="37.584" x="19.39" y="510.7517">failed</text></g><!--class NotificationTrigger--><g class="entity" data-qualified-name="NotificationTrigger" data-source-line="28" id="ent0005"><rect fill="#FAFAFA" height="89.4648" rx="2.5" ry="2.5" style="stroke:#888888;stroke-width:0.5;" width="196.2832" x="192.18" y="428.24"/><ellipse cx="227.4091" cy="444.24" fill="#EB937F" rx="11" ry="11" style="stroke:#181818;stroke-width:1;"/><path d="M231.0234,450.74 L223.3037,450.74 L223.3037,438.3469 L231.0234,438.3469 L231.0234,440.5051 L225.7524,440.5051 L225.7524,443.178 L230.5253,443.178 L230.5253,445.3362 L225.7524,445.3362 L225.7524,448.5818 L231.0234,448.5818 Z " fill="#000000"/><text fill="#000000" font-family="sans-serif" font-size="13" lengthAdjust="spacing" textLength="119.3296" x="245.9045" y="449.1531">NotificationTrigger</text><line style="stroke:#888888;stroke-width:0.5;" x1="193.18" x2="387.4632" y1="460.24" y2="460.24"/><text fill="#000000" font-family="sans-serif" font-size="14" lengthAdjust="spacing" textLength="107.29" x="198.18" y="477.7752">binder_received</text><text fill="#000000" font-family="sans-serif" font-size="14" lengthAdjust="spacing" textLength="167.46" x="198.18" y="494.2634">binder_ready_for_pickup</text><text fill="#000000" font-family="sans-serif" font-size="14" lengthAdjust="spacing" textLength="184.2832" x="198.18" y="510.7517">manual_payment_reminder</text></g><!--class Notification--><g class="entity" data-qualified-name="Notification" data-source-line="34" id="ent0006"><rect fill="#FAFAFA" height="344.2324" rx="2.5" ry="2.5" style="stroke:#888888;stroke-width:0.5;" width="263.7266" x="496.45" y="7"/><ellipse cx="583.615" cy="26.7217" fill="#ADD1B2" rx="11" ry="11" style="stroke:#181818;stroke-width:1;"/><path d="M586.0882,32.8647 Q585.5071,33.1636 584.868,33.313 Q584.2288,33.4624 583.5232,33.4624 Q581.0164,33.4624 579.6966,31.8105 Q578.3768,30.1587 578.3768,27.0376 Q578.3768,23.9082 579.6966,22.2563 Q581.0164,20.6045 583.5232,20.6045 Q584.2288,20.6045 584.8763,20.7539 Q585.5237,20.9033 586.0882,21.2021 L586.0882,23.9248 Q585.4573,23.3438 584.8638,23.074 Q584.2703,22.8042 583.6395,22.8042 Q582.2947,22.8042 581.6099,23.8708 Q580.9251,24.9375 580.9251,27.0376 Q580.9251,29.1294 581.6099,30.196 Q582.2947,31.2627 583.6395,31.2627 Q584.2703,31.2627 584.8638,30.9929 Q585.4573,30.7231 586.0882,30.1421 Z " fill="#000000"/><text fill="#000000" font-family="sans-serif" font-size="12" font-style="italic" lengthAdjust="spacing" textLength="84.8965" x="602.115" y="23.6016">&#171;notifications&#187;</text><text fill="#000000" font-family="sans-serif" font-size="13" lengthAdjust="spacing" textLength="73.2583" x="607.9341" y="38.7012">Notification</text><line style="stroke:#888888;stroke-width:0.5;" x1="497.45" x2="759.1766" y1="46.4434" y2="46.4434"/><text fill="#000000" font-family="sans-serif" font-size="14" lengthAdjust="spacing" textLength="91.2256" x="502.45" y="63.9785">+id : int &#171;PK&#187;</text><text fill="#000000" font-family="sans-serif" font-size="14" lengthAdjust="spacing" textLength="193.1084" x="502.45" y="80.4668">+client_id : int &#171;FK&#8594;clients&#187;</text><text fill="#000000" font-family="sans-serif" font-size="14" lengthAdjust="spacing" textLength="251.7266" x="502.45" y="96.9551">+business_id : int? &#171;FK&#8594;businesses&#187;</text><text fill="#000000" font-family="sans-serif" font-size="14" lengthAdjust="spacing" textLength="212.8096" x="502.45" y="113.4434">+binder_id : int? &#171;FK&#8594;binders&#187;</text><text fill="#000000" font-family="sans-serif" font-size="14" lengthAdjust="spacing" textLength="198.9258" x="502.45" y="129.9316">+trigger : NotificationTrigger</text><text fill="#000000" font-family="sans-serif" font-size="14" lengthAdjust="spacing" textLength="211.4561" x="502.45" y="146.4199">+channel : NotificationChannel</text><text fill="#000000" font-family="sans-serif" font-size="14" lengthAdjust="spacing" textLength="208.332" x="502.45" y="162.9082">+severity : NotificationSeverity</text><text fill="#000000" font-family="sans-serif" font-size="14" lengthAdjust="spacing" textLength="101.8486" x="502.45" y="179.3965">+recipient : str</text><text fill="#000000" font-family="sans-serif" font-size="14" lengthAdjust="spacing" textLength="171.7256" x="502.45" y="195.8848">+content_snapshot : text</text><text fill="#000000" font-family="sans-serif" font-size="14" lengthAdjust="spacing" textLength="186.0469" x="502.45" y="212.373">+status : NotificationStatus</text><text fill="#000000" font-family="sans-serif" font-size="14" lengthAdjust="spacing" textLength="138.8857" x="502.45" y="228.8613">+sent_at : datetime?</text><text fill="#000000" font-family="sans-serif" font-size="14" lengthAdjust="spacing" textLength="147.6084" x="502.45" y="245.3496">+failed_at : datetime?</text><text fill="#000000" font-family="sans-serif" font-size="14" lengthAdjust="spacing" textLength="157.1719" x="502.45" y="261.8379">+error_message : text?</text><text fill="#000000" font-family="sans-serif" font-size="14" lengthAdjust="spacing" textLength="119.5811" x="502.45" y="278.3262">+retry_count : int</text><text fill="#000000" font-family="sans-serif" font-size="14" lengthAdjust="spacing" textLength="102.7305" x="502.45" y="294.8145">+is_read : bool</text><text fill="#000000" font-family="sans-serif" font-size="14" lengthAdjust="spacing" textLength="140.0957" x="502.45" y="311.3027">+read_at : datetime?</text><text fill="#000000" font-family="sans-serif" font-size="14" lengthAdjust="spacing" textLength="220.2676" x="502.45" y="327.791">+triggered_by : int? &#171;FK&#8594;users&#187;</text><text fill="#000000" font-family="sans-serif" font-size="14" lengthAdjust="spacing" textLength="154.3965" x="502.45" y="344.2793">+created_at : datetime</text></g><!--class Client--><g class="entity" data-qualified-name="Client" data-source-line="56" id="ent0007"><rect fill="#FAFAFA" height="32" rx="2.5" ry="2.5" style="stroke:#888888;stroke-width:0.5;" width="68.6831" x="422.98" y="456.97"/><ellipse cx="437.98" cy="472.97" fill="#ADD1B2" rx="11" ry="11" style="stroke:#181818;stroke-width:1;"/><path d="M440.4531,479.1131 Q439.8721,479.4119 439.2329,479.5613 Q438.5938,479.7107 437.8882,479.7107 Q435.3814,479.7107 434.0615,478.0589 Q432.7417,476.407 432.7417,473.2859 Q432.7417,470.1565 434.0615,468.5047 Q435.3814,466.8528 437.8882,466.8528 Q438.5938,466.8528 439.2412,467.0022 Q439.8887,467.1516 440.4531,467.4505 L440.4531,470.1731 Q439.8223,469.5921 439.2288,469.3223 Q438.6353,469.0525 438.0044,469.0525 Q436.6597,469.0525 435.9749,470.1192 Q435.2901,471.1858 435.2901,473.2859 Q435.2901,475.3777 435.9749,476.4444 Q436.6597,477.511 438.0044,477.511 Q438.6353,477.511 439.2288,477.2412 Q439.8223,476.9715 440.4531,476.3904 Z " fill="#000000"/><text fill="#000000" font-family="sans-serif" font-size="13" lengthAdjust="spacing" textLength="36.6831" x="451.98" y="477.8831">Client</text></g><!--class Business--><g class="entity" data-qualified-name="Business" data-source-line="57" id="ent0009"><rect fill="#FAFAFA" height="32" rx="2.5" ry="2.5" style="stroke:#888888;stroke-width:0.5;" width="86.4946" x="527.07" y="456.97"/><ellipse cx="542.07" cy="472.97" fill="#ADD1B2" rx="11" ry="11" style="stroke:#181818;stroke-width:1;"/><path d="M544.5431,479.1131 Q543.9621,479.4119 543.3229,479.5613 Q542.6838,479.7107 541.9782,479.7107 Q539.4714,479.7107 538.1515,478.0589 Q536.8317,476.407 536.8317,473.2859 Q536.8317,470.1565 538.1515,468.5047 Q539.4714,466.8528 541.9782,466.8528 Q542.6838,466.8528 543.3312,467.0022 Q543.9787,467.1516 544.5431,467.4505 L544.5431,470.1731 Q543.9123,469.5921 543.3188,469.3223 Q542.7253,469.0525 542.0944,469.0525 Q540.7497,469.0525 540.0649,470.1192 Q539.3801,471.1858 539.3801,473.2859 Q539.3801,475.3777 540.0649,476.4444 Q540.7497,477.511 542.0944,477.511 Q542.7253,477.511 543.3188,477.2412 Q543.9123,476.9715 544.5431,476.3904 Z " fill="#000000"/><text fill="#000000" font-family="sans-serif" font-size="13" lengthAdjust="spacing" textLength="54.4946" x="556.07" y="477.8831">Business</text></g><!--class Binder--><g class="entity" data-qualified-name="Binder" data-source-line="58" id="ent0011"><rect fill="#FAFAFA" height="32" rx="2.5" ry="2.5" style="stroke:#888888;stroke-width:0.5;" width="72.0474" x="649.29" y="456.97"/><ellipse cx="664.29" cy="472.97" fill="#ADD1B2" rx="11" ry="11" style="stroke:#181818;stroke-width:1;"/><path d="M666.7631,479.1131 Q666.1821,479.4119 665.5429,479.5613 Q664.9038,479.7107 664.1982,479.7107 Q661.6914,479.7107 660.3715,478.0589 Q659.0517,476.407 659.0517,473.2859 Q659.0517,470.1565 660.3715,468.5047 Q661.6914,466.8528 664.1982,466.8528 Q664.9038,466.8528 665.5512,467.0022 Q666.1987,467.1516 666.7631,467.4505 L666.7631,470.1731 Q666.1323,469.5921 665.5388,469.3223 Q664.9453,469.0525 664.3144,469.0525 Q662.9697,469.0525 662.2849,470.1192 Q661.6001,471.1858 661.6001,473.2859 Q661.6001,475.3777 662.2849,476.4444 Q662.9697,477.511 664.3144,477.511 Q664.9453,477.511 665.5388,477.2412 Q666.1323,476.9715 666.7631,476.3904 Z " fill="#000000"/><text fill="#000000" font-family="sans-serif" font-size="13" lengthAdjust="spacing" textLength="40.0474" x="678.29" y="477.8831">Binder</text></g><!--class User--><g class="entity" data-qualified-name="User" data-source-line="59" id="ent0013"><rect fill="#FAFAFA" height="32" rx="2.5" ry="2.5" style="stroke:#888888;stroke-width:0.5;" width="60.1963" x="756.22" y="456.97"/><ellipse cx="771.22" cy="472.97" fill="#ADD1B2" rx="11" ry="11" style="stroke:#181818;stroke-width:1;"/><path d="M773.6931,479.1131 Q773.1121,479.4119 772.4729,479.5613 Q771.8338,479.7107 771.1282,479.7107 Q768.6214,479.7107 767.3015,478.0589 Q765.9817,476.407 765.9817,473.2859 Q765.9817,470.1565 767.3015,468.5047 Q768.6214,466.8528 771.1282,466.8528 Q771.8338,466.8528 772.4812,467.0022 Q773.1287,467.1516 773.6931,467.4505 L773.6931,470.1731 Q773.0623,469.5921 772.4688,469.3223 Q771.8753,469.0525 771.2444,469.0525 Q769.8997,469.0525 769.2149,470.1192 Q768.5301,471.1858 768.5301,473.2859 Q768.5301,475.3777 769.2149,476.4444 Q769.8997,477.511 771.2444,477.511 Q771.8753,477.511 772.4688,477.2412 Q773.0623,476.9715 773.6931,476.3904 Z " fill="#000000"/><text fill="#000000" font-family="sans-serif" font-size="13" lengthAdjust="spacing" textLength="28.1963" x="785.22" y="477.8831">User</text></g><!--link Notification to Client--><g class="link" data-entity-1="ent0006" data-entity-2="ent0007" data-link-type="dependency" data-source-line="56" id="lnk8"><path codeLine="56" d="M527.86,351.58 C502.41,395 481.8236,430.1434 469.4236,451.3034" fill="none" id="Notification-to-Client" style="stroke:#555555;stroke-width:1;stroke-dasharray:7,7;"/><polygon fill="#555555" points="466.39,456.48,474.3914,450.7374,468.918,452.1661,467.4893,446.6927,466.39,456.48" style="stroke:#555555;stroke-width:1;"/><text fill="#000000" font-family="sans-serif" font-size="13" lengthAdjust="spacing" textLength="52.7871" x="508.85" y="394.8084">client_id</text></g><!--link Notification to Business--><g class="link" data-entity-1="ent0006" data-entity-2="ent0009" data-link-type="dependency" data-source-line="57" id="lnk10"><path codeLine="57" d="M591.07,351.71 C589.08,361.69 587.15,371.59 585.32,381.24 C580.33,407.59 576.3414,432.4996 573.5614,450.5896" fill="none" id="Notification-to-Business" style="stroke:#555555;stroke-width:1;stroke-dasharray:7,7;"/><polygon fill="#555555" points="572.65,456.52,577.9706,448.232,573.4095,451.578,570.0634,447.0169,572.65,456.52" style="stroke:#555555;stroke-width:1;"/><text fill="#000000" font-family="sans-serif" font-size="13" lengthAdjust="spacing" textLength="73.6392" x="586.32" y="394.8084">business_id</text></g><!--link Notification to Binder--><g class="link" data-entity-1="ent0006" data-entity-2="ent0011" data-link-type="dependency" data-source-line="58" id="lnk12"><path codeLine="58" d="M661.8,351.58 C670.29,395 677.0106,429.4311 681.1406,450.5911" fill="none" id="Notification-to-Binder" style="stroke:#555555;stroke-width:1;stroke-dasharray:7,7;"/><polygon fill="#555555" points="682.29,456.48,684.4918,446.8804,681.3322,451.5726,676.64,448.4129,682.29,456.48" style="stroke:#555555;stroke-width:1;"/><text fill="#000000" font-family="sans-serif" font-size="13" lengthAdjust="spacing" textLength="59.1919" x="671.03" y="394.8084">binder_id</text></g><!--link Notification to User--><g class="link" data-entity-1="ent0006" data-entity-2="ent0013" data-link-type="dependency" data-source-line="59" id="lnk14"><path codeLine="59" d="M723.39,351.66 C728.8,361.65 734.15,371.56 739.32,381.24 C753.37,407.52 766.4931,433.0355 775.7331,451.1455" fill="none" id="Notification-to-User" style="stroke:#555555;stroke-width:1;stroke-dasharray:7,7;"/><polygon fill="#555555" points="778.46,456.49,777.9327,446.6553,776.1876,452.0362,770.8067,450.2911,778.46,456.49" style="stroke:#555555;stroke-width:1;"/><text fill="#000000" font-family="sans-serif" font-size="13" lengthAdjust="spacing" textLength="79.6123" x="748.16" y="394.8084">triggered_by</text></g><?plantuml-src TPJRZjCm48RlynGZST5TeQv020b5grJTGYLKSH0Brv4JJrEhFaIsiqiutF80F29FmjXEIzg6zCQQ-MR6yy_KCtXj51Cw1ssys8gQUM4qm0y0PJZciEsap6RmXZS84XlKF8Vvl80Fdzw1HHbnjnFjrJK0tDmKiDxCZPOzN6bp0bndEy4HKBM-1uMgGkiojnUwPPOfg2LpRkcz5LNdyMrjzBtuXl3i75aRxQFd-OkHQscjULmPQImyUHc_aNCLukwCvMW7v5NyBX1MxnjhEiq7RBqClon3tIbuFz9djMDQeuJl6S3ZZdd7sfQEI4hAxET4m3q-e1NKU8WGUcj28BDQw8PEdILTFHrgOYZYFpayyvsB6LeQGmfrAN1BXP5FXdssecdGnhXAQ1AXj5YZU21-P66yBxV6bgsezrreHZ7TCLcsh5TKWmWLqL0Z3kAa2DpUZlV75KMizrHmoAbVJ_wFcw88fbgAa6_aMM_-_FgTp2unLUU4HkUErEA07Jnu8DFzBxbe7o0_I91F2HFlDCmpdvfo0DnXVldaM0D2eeesz42CyoajxMherMdMkfq97ezVVKoOXfbFJ3ZLep0M0ZZpw8N2HJ2dCKyuaFRVbeg4OVG_JMKMwLRUzcLDI-sJGd4gBWwS39KnCc5iAkqW79Mi-ZE1EtUKjwPeVtwji2UpusCWXTwx-2ISlnl0aTQ9IbpdsSb6XRTa9GT1ZqjpoTmD6n6w-RSs4rpSY40TLkQI-U8YCMux-mi0?></g></svg>