<?plantuml 1.2026.2?><svg xmlns="http://www.w3.org/2000/svg" xmlns:xlink="http://www.w3.org/1999/xlink" contentStyleType="text/css" data-diagram-type="CLASS" height="722px" preserveAspectRatio="none" style="width:956px;height:722px;background:#FFFFFF;" version="1.1" viewBox="0 0 956 722" width="956px" zoomAndPan="magnify"><defs/><g><!--class DocumentScope--><g class="entity" data-qualified-name="DocumentScope" data-source-line="10" id="ent0002"><rect fill="#FAFAFA" height="72.9766" rx="2.5" ry="2.5" style="stroke:#888888;stroke-width:0.5;" width="133.8291" x="28.01" y="183.85"/><ellipse cx="43.01" cy="199.85" fill="#EB937F" rx="11" ry="11" style="stroke:#181818;stroke-width:1;"/><path d="M46.6243,206.35 L38.9045,206.35 L38.9045,193.9569 L46.6243,193.9569 L46.6243,196.1151 L41.3533,196.1151 L41.3533,198.788 L46.1262,198.788 L46.1262,200.9462 L41.3533,200.9462 L41.3533,204.1918 L46.6243,204.1918 Z " fill="#000000"/><text fill="#000000" font-family="sans-serif" font-size="13" lengthAdjust="spacing" textLength="101.8291" x="57.01" y="204.7631">DocumentScope</text><line style="stroke:#888888;stroke-width:0.5;" x1="29.01" x2="160.8391" y1="215.85" y2="215.85"/><text fill="#000000" font-family="sans-serif" font-size="14" lengthAdjust="spacing" textLength="36.9893" x="34.01" y="233.3852">client</text><text fill="#000000" font-family="sans-serif" font-size="14" lengthAdjust="spacing" textLength="59.4453" x="34.01" y="249.8734">business</text></g><!--class DocumentStatus--><g class="entity" data-qualified-name="DocumentStatus" data-source-line="15" id="ent0003"><rect fill="#FAFAFA" height="105.9531" rx="2.5" ry="2.5" style="stroke:#888888;stroke-width:0.5;" width="135.3589" x="197.25" y="167.36"/><ellipse cx="212.25" cy="183.36" fill="#EB937F" rx="11" ry="11" style="stroke:#181818;stroke-width:1;"/><path d="M215.8643,189.86 L208.1445,189.86 L208.1445,177.4669 L215.8643,177.4669 L215.8643,179.6251 L210.5933,179.6251 L210.5933,182.298 L215.3662,182.298 L215.3662,184.4562 L210.5933,184.4562 L210.5933,187.7018 L215.8643,187.7018 Z " fill="#000000"/><text fill="#000000" font-family="sans-serif" font-size="13" lengthAdjust="spacing" textLength="103.3589" x="226.25" y="188.2731">DocumentStatus</text><line style="stroke:#888888;stroke-width:0.5;" x1="198.25" x2="331.6089" y1="199.36" y2="199.36"/><text fill="#000000" font-family="sans-serif" font-size="14" lengthAdjust="spacing" textLength="55.5762" x="203.25" y="216.8952">pending</text><text fill="#000000" font-family="sans-serif" font-size="14" lengthAdjust="spacing" textLength="56.4033" x="203.25" y="233.3834">received</text><text fill="#000000" font-family="sans-serif" font-size="14" lengthAdjust="spacing" textLength="63.54" x="203.25" y="249.8717">approved</text><text fill="#000000" font-family="sans-serif" font-size="14" lengthAdjust="spacing" textLength="54.6055" x="203.25" y="266.36">rejected</text></g><!--class DocumentType--><g class="entity" data-qualified-name="DocumentType" data-source-line="22" id="ent0004"><rect fill="#FAFAFA" height="204.8828" rx="2.5" ry="2.5" style="stroke:#888888;stroke-width:0.5;" width="175.8574" x="7" y="510.68"/><ellipse cx="43.8977" cy="526.68" fill="#EB937F" rx="11" ry="11" style="stroke:#181818;stroke-width:1;"/><path d="M47.512,533.18 L39.7923,533.18 L39.7923,520.7869 L47.512,520.7869 L47.512,522.9451 L42.241,522.9451 L42.241,525.618 L47.0139,525.618 L47.0139,527.7762 L42.241,527.7762 L42.241,531.0218 L47.512,531.0218 Z " fill="#000000"/><text fill="#000000" font-family="sans-serif" font-size="13" lengthAdjust="spacing" textLength="95.1958" x="62.7639" y="531.5931">DocumentType</text><line style="stroke:#888888;stroke-width:0.5;" x1="8" x2="181.8574" y1="542.68" y2="542.68"/><text fill="#000000" font-family="sans-serif" font-size="14" lengthAdjust="spacing" textLength="51.7549" x="13" y="560.2152">id_copy</text><text fill="#000000" font-family="sans-serif" font-size="14" lengthAdjust="spacing" textLength="125.8086" x="13" y="576.7034">power_of_attorney</text><text fill="#000000" font-family="sans-serif" font-size="14" lengthAdjust="spacing" textLength="163.8574" x="13" y="593.1917">engagement_agreement</text><text fill="#000000" font-family="sans-serif" font-size="14" lengthAdjust="spacing" textLength="61.0996" x="13" y="609.68">tax_form</text><text fill="#000000" font-family="sans-serif" font-size="14" lengthAdjust="spacing" textLength="46.5938" x="13" y="626.1683">receipt</text><text fill="#000000" font-family="sans-serif" font-size="14" lengthAdjust="spacing" textLength="79.1807" x="13" y="642.6566">invoice_doc</text><text fill="#000000" font-family="sans-serif" font-size="14" lengthAdjust="spacing" textLength="99.1211" x="13" y="659.1448">bank_approval</text><text fill="#000000" font-family="sans-serif" font-size="14" lengthAdjust="spacing" textLength="154.4854" x="13" y="675.6331">withholding_certificate</text><text fill="#000000" font-family="sans-serif" font-size="14" lengthAdjust="spacing" textLength="82.4893" x="13" y="692.1214">nii_approval</text><text fill="#000000" font-family="sans-serif" font-size="14" lengthAdjust="spacing" textLength="36.0527" x="13" y="708.6097">other</text></g><!--class PermanentDocument--><g class="entity" data-qualified-name="PermanentDocument" data-source-line="35" id="ent0005"><rect fill="#FAFAFA" height="426.6738" rx="2.5" ry="2.5" style="stroke:#888888;stroke-width:0.5;" width="367.4482" x="411.2" y="7"/><ellipse cx="519.6341" cy="26.7217" fill="#ADD1B2" rx="11" ry="11" style="stroke:#181818;stroke-width:1;"/><path d="M522.1072,32.8647 Q521.5262,33.1636 520.887,33.313 Q520.2479,33.4624 519.5423,33.4624 Q517.0354,33.4624 515.7156,31.8105 Q514.3958,30.1587 514.3958,27.0376 Q514.3958,23.9082 515.7156,22.2563 Q517.0354,20.6045 519.5423,20.6045 Q520.2479,20.6045 520.8953,20.7539 Q521.5428,20.9033 522.1072,21.2021 L522.1072,23.9248 Q521.4764,23.3438 520.8829,23.074 Q520.2894,22.8042 519.6585,22.8042 Q518.3138,22.8042 517.629,23.8708 Q516.9441,24.9375 516.9441,27.0376 Q516.9441,29.1294 517.629,30.196 Q518.3138,31.2627 519.6585,31.2627 Q520.2894,31.2627 520.8829,30.9929 Q521.4764,30.7231 522.1072,30.1421 Z " fill="#000000"/><text fill="#000000" font-family="sans-serif" font-size="12" font-style="italic" lengthAdjust="spacing" textLength="146.0801" x="538.1341" y="23.6016">&#171;permanent_documents&#187;</text><text fill="#000000" font-family="sans-serif" font-size="13" lengthAdjust="spacing" textLength="132.063" x="545.1426" y="38.7012">PermanentDocument</text><line style="stroke:#888888;stroke-width:0.5;" x1="412.2" x2="777.6482" y1="46.4434" y2="46.4434"/><text fill="#000000" font-family="sans-serif" font-size="14" lengthAdjust="spacing" textLength="91.2256" x="417.2" y="63.9785">+id : int &#171;PK&#187;</text><text fill="#000000" font-family="sans-serif" font-size="14" lengthAdjust="spacing" textLength="193.1084" x="417.2" y="80.4668">+client_id : int &#171;FK&#8594;clients&#187;</text><text fill="#000000" font-family="sans-serif" font-size="14" lengthAdjust="spacing" textLength="251.7266" x="417.2" y="96.9551">+business_id : int? &#171;FK&#8594;businesses&#187;</text><text fill="#000000" font-family="sans-serif" font-size="14" lengthAdjust="spacing" textLength="173.5986" x="417.2" y="113.4434">+scope : DocumentScope</text><text fill="#000000" font-family="sans-serif" font-size="14" lengthAdjust="spacing" textLength="231.1641" x="417.2" y="129.9316">+document_type : DocumentType</text><text fill="#000000" font-family="sans-serif" font-size="14" lengthAdjust="spacing" textLength="123.7783" x="417.2" y="146.4199">+storage_key : str</text><text fill="#000000" font-family="sans-serif" font-size="14" lengthAdjust="spacing" textLength="165.375" x="417.2" y="162.9082">+original_filename : str?</text><text fill="#000000" font-family="sans-serif" font-size="14" lengthAdjust="spacing" textLength="146.6445" x="417.2" y="179.3965">+file_size_bytes : int?</text><text fill="#000000" font-family="sans-serif" font-size="14" lengthAdjust="spacing" textLength="122.5752" x="417.2" y="195.8848">+mime_type : str?</text><text fill="#000000" font-family="sans-serif" font-size="14" lengthAdjust="spacing" textLength="105.4238" x="417.2" y="212.373">+tax_year : int?</text><text fill="#000000" font-family="sans-serif" font-size="14" lengthAdjust="spacing" textLength="123.8604" x="417.2" y="228.8613">+is_present : bool</text><text fill="#000000" font-family="sans-serif" font-size="14" lengthAdjust="spacing" textLength="122.9648" x="417.2" y="245.3496">+is_deleted : bool</text><text fill="#000000" font-family="sans-serif" font-size="14" lengthAdjust="spacing" textLength="176.8936" x="417.2" y="261.8379">+status : DocumentStatus</text><text fill="#000000" font-family="sans-serif" font-size="14" lengthAdjust="spacing" textLength="91.6357" x="417.2" y="278.3262">+version : int</text><text fill="#000000" font-family="sans-serif" font-size="14" lengthAdjust="spacing" textLength="355.4482" x="417.2" y="294.8145">+superseded_by : int? &#171;FK&#8594;permanent_documents&#187;</text><text fill="#000000" font-family="sans-serif" font-size="14" lengthAdjust="spacing" textLength="313.9951" x="417.2" y="311.3027">+annual_report_id : int? &#171;FK&#8594;annual_reports&#187;</text><text fill="#000000" font-family="sans-serif" font-size="14" lengthAdjust="spacing" textLength="85.8867" x="417.2" y="327.791">+notes : str?</text><text fill="#000000" font-family="sans-serif" font-size="14" lengthAdjust="spacing" textLength="215.0518" x="417.2" y="344.2793">+uploaded_by : int &#171;FK&#8594;users&#187;</text><text fill="#000000" font-family="sans-serif" font-size="14" lengthAdjust="spacing" textLength="167.4189" x="417.2" y="360.7676">+uploaded_at : datetime</text><text fill="#000000" font-family="sans-serif" font-size="14" lengthAdjust="spacing" textLength="221.1973" x="417.2" y="377.2559">+approved_by : int? &#171;FK&#8594;users&#187;</text><text fill="#000000" font-family="sans-serif" font-size="14" lengthAdjust="spacing" textLength="173.5645" x="417.2" y="393.7441">+approved_at : datetime?</text><text fill="#000000" font-family="sans-serif" font-size="14" lengthAdjust="spacing" textLength="212.2627" x="417.2" y="410.2324">+rejected_by : int? &#171;FK&#8594;users&#187;</text><text fill="#000000" font-family="sans-serif" font-size="14" lengthAdjust="spacing" textLength="164.6299" x="417.2" y="426.7207">+rejected_at : datetime?</text></g><!--class Client--><g class="entity" data-qualified-name="Client" data-source-line="63" id="ent0007"><rect fill="#FAFAFA" height="32" rx="2.5" ry="2.5" style="stroke:#888888;stroke-width:0.5;" width="68.6831" x="217.59" y="597.12"/><ellipse cx="232.59" cy="613.12" fill="#ADD1B2" rx="11" ry="11" style="stroke:#181818;stroke-width:1;"/><path d="M235.0631,619.2631 Q234.4821,619.5619 233.8429,619.7113 Q233.2038,619.8607 232.4982,619.8607 Q229.9914,619.8607 228.6715,618.2089 Q227.3517,616.557 227.3517,613.4359 Q227.3517,610.3065 228.6715,608.6547 Q229.9914,607.0028 232.4982,607.0028 Q233.2038,607.0028 233.8512,607.1522 Q234.4987,607.3016 235.0631,607.6005 L235.0631,610.3231 Q234.4323,609.7421 233.8388,609.4723 Q233.2453,609.2025 232.6144,609.2025 Q231.2697,609.2025 230.5849,610.2692 Q229.9001,611.3358 229.9001,613.4359 Q229.9001,615.5277 230.5849,616.5944 Q231.2697,617.661 232.6144,617.661 Q233.2453,617.661 233.8388,617.3912 Q234.4323,617.1215 235.0631,616.5404 Z " fill="#000000"/><text fill="#000000" font-family="sans-serif" font-size="13" lengthAdjust="spacing" textLength="36.6831" x="246.59" y="618.0331">Client</text></g><!--class Business--><g class="entity" data-qualified-name="Business" data-source-line="64" id="ent0009"><rect fill="#FAFAFA" height="32" rx="2.5" ry="2.5" style="stroke:#888888;stroke-width:0.5;" width="86.4946" x="321.68" y="597.12"/><ellipse cx="336.68" cy="613.12" fill="#ADD1B2" rx="11" ry="11" style="stroke:#181818;stroke-width:1;"/><path d="M339.1531,619.2631 Q338.5721,619.5619 337.9329,619.7113 Q337.2938,619.8607 336.5882,619.8607 Q334.0814,619.8607 332.7615,618.2089 Q331.4417,616.557 331.4417,613.4359 Q331.4417,610.3065 332.7615,608.6547 Q334.0814,607.0028 336.5882,607.0028 Q337.2938,607.0028 337.9412,607.1522 Q338.5887,607.3016 339.1531,607.6005 L339.1531,610.3231 Q338.5223,609.7421 337.9288,609.4723 Q337.3353,609.2025 336.7044,609.2025 Q335.3597,609.2025 334.6749,610.2692 Q333.9901,611.3358 333.9901,613.4359 Q333.9901,615.5277 334.6749,616.5944 Q335.3597,617.661 336.7044,617.661 Q337.3353,617.661 337.9288,617.3912 Q338.5223,617.1215 339.1531,616.5404 Z " fill="#000000"/><text fill="#000000" font-family="sans-serif" font-size="13" lengthAdjust="spacing" textLength="54.4946" x="350.68" y="618.0331">Business</text></g><!--class AnnualReport--><g class="entity" data-qualified-name="AnnualReport" data-source-line="65" id="ent0011"><rect fill="#FAFAFA" height="32" rx="2.5" ry="2.5" style="stroke:#888888;stroke-width:0.5;" width="117.9219" x="442.97" y="597.12"/><ellipse cx="457.97" cy="613.12" fill="#ADD1B2" rx="11" ry="11" style="stroke:#181818;stroke-width:1;"/><path d="M460.4431,619.2631 Q459.8621,619.5619 459.2229,619.7113 Q458.5838,619.8607 457.8782,619.8607 Q455.3714,619.8607 454.0515,618.2089 Q452.7317,616.557 452.7317,613.4359 Q452.7317,610.3065 454.0515,608.6547 Q455.3714,607.0028 457.8782,607.0028 Q458.5838,607.0028 459.2312,607.1522 Q459.8787,607.3016 460.4431,607.6005 L460.4431,610.3231 Q459.8123,609.7421 459.2188,609.4723 Q458.6253,609.2025 457.9944,609.2025 Q456.6497,609.2025 455.9649,610.2692 Q455.2801,611.3358 455.2801,613.4359 Q455.2801,615.5277 455.9649,616.5944 Q456.6497,617.661 457.9944,617.661 Q458.6253,617.661 459.2188,617.3912 Q459.8123,617.1215 460.4431,616.5404 Z " fill="#000000"/><text fill="#000000" font-family="sans-serif" font-size="13" lengthAdjust="spacing" textLength="85.9219" x="471.97" y="618.0331">AnnualReport</text></g><!--class User--><g class="entity" data-qualified-name="User" data-source-line="66" id="ent0013"><rect fill="#FAFAFA" height="32" rx="2.5" ry="2.5" style="stroke:#888888;stroke-width:0.5;" width="60.1963" x="730.83" y="597.12"/><ellipse cx="745.83" cy="613.12" fill="#ADD1B2" rx="11" ry="11" style="stroke:#181818;stroke-width:1;"/><path d="M748.3031,619.2631 Q747.7221,619.5619 747.0829,619.7113 Q746.4438,619.8607 745.7382,619.8607 Q743.2314,619.8607 741.9115,618.2089 Q740.5917,616.557 740.5917,613.4359 Q740.5917,610.3065 741.9115,608.6547 Q743.2314,607.0028 745.7382,607.0028 Q746.4438,607.0028 747.0912,607.1522 Q747.7387,607.3016 748.3031,607.6005 L748.3031,610.3231 Q747.6723,609.7421 747.0788,609.4723 Q746.4853,609.2025 745.8544,609.2025 Q744.5097,609.2025 743.8249,610.2692 Q743.1401,611.3358 743.1401,613.4359 Q743.1401,615.5277 743.8249,616.5944 Q744.5097,617.661 745.8544,617.661 Q746.4853,617.661 747.0788,617.3912 Q747.6723,617.1215 748.3031,616.5404 Z " fill="#000000"/><text fill="#000000" font-family="sans-serif" font-size="13" lengthAdjust="spacing" textLength="28.1963" x="759.83" y="618.0331">User</text></g><!--link PermanentDocument to PermanentDocument--><g class="link" data-entity-1="ent0005" data-entity-2="ent0005" data-link-type="dependency" data-source-line="61" id="lnk6"><path codeLine="61" d="M778.83,180.18 C799.94,187.65 813.65,201.03 813.65,220.34 C813.65,239.65 805.5963,251.0285 784.4863,258.4985" fill="none" id="PermanentDocument-to-PermanentDocument" style="stroke:#555555;stroke-width:1;"/><polygon fill="#555555" points="778.83,260.5,788.6488,261.2686,783.5436,258.832,785.9801,253.7268,778.83,260.5" style="stroke:#555555;stroke-width:1;"/><text fill="#000000" font-family="sans-serif" font-size="13" lengthAdjust="spacing" textLength="123.7158" x="819.65" y="225.4084">superseded_by_doc</text><text fill="#000000" font-family="sans-serif" font-size="13" lengthAdjust="spacing" textLength="24.667" x="786.4956" y="259.3503">0..1</text></g><!--link PermanentDocument to Client--><g class="link" data-entity-1="ent0005" data-entity-2="ent0007" data-link-type="dependency" data-source-line="63" id="lnk8"><path codeLine="63" d="M410.9,379.5 C383.49,406.41 356.55,434.97 332.93,463.68 C317.33,482.63 315.98,489.29 303.93,510.68 C287.02,540.68 271.6971,571.3657 261.9371,591.4057" fill="none" id="PermanentDocument-to-Client" style="stroke:#555555;stroke-width:1;stroke-dasharray:7,7;"/><polygon fill="#555555" points="259.31,596.8,266.8469,590.46,261.4993,592.3048,259.6545,586.9572,259.31,596.8" style="stroke:#555555;stroke-width:1;"/><text fill="#000000" font-family="sans-serif" font-size="13" lengthAdjust="spacing" textLength="52.7871" x="333.93" y="477.2484">client_id</text></g><!--link PermanentDocument to Business--><g class="link" data-entity-1="ent0005" data-entity-2="ent0009" data-link-type="dependency" data-source-line="64" id="lnk10"><path codeLine="64" d="M417.83,434.16 C412.14,443.93 406.81,453.79 401.93,463.68 C379.6,508.93 370.7655,562.8253 367.3255,590.6753" fill="none" id="PermanentDocument-to-Business" style="stroke:#555555;stroke-width:1;stroke-dasharray:7,7;"/><polygon fill="#555555" points="366.59,596.63,371.6631,588.1882,367.2029,591.6677,363.7235,587.2075,366.59,596.63" style="stroke:#555555;stroke-width:1;"/><text fill="#000000" font-family="sans-serif" font-size="13" lengthAdjust="spacing" textLength="73.6392" x="402.93" y="477.2484">business_id</text></g><!--link PermanentDocument to AnnualReport--><g class="link" data-entity-1="ent0005" data-entity-2="ent0011" data-link-type="dependency" data-source-line="65" id="lnk12"><path codeLine="65" d="M495.3,434.14 C492.48,444.02 489.99,453.89 487.93,463.68 C477.83,511.55 488.7289,563.8413 495.9389,590.9713" fill="none" id="PermanentDocument-to-AnnualReport" style="stroke:#555555;stroke-width:1;stroke-dasharray:7,7;"/><polygon fill="#555555" points="497.48,596.77,499.0342,587.0446,496.1958,591.9377,491.3026,589.0993,497.48,596.77" style="stroke:#555555;stroke-width:1;"/><text fill="#000000" font-family="sans-serif" font-size="13" lengthAdjust="spacing" textLength="106.1709" x="488.93" y="477.2484">annual_report_id</text></g><!--link PermanentDocument to User--><g class="link" data-entity-1="ent0005" data-entity-2="ent0013" data-link-type="dependency" data-source-line="66" id="lnk14"><path codeLine="66" d="M617.63,434.13 C622.63,450.26 628.67,465.96 635.93,480.68 C660.74,530.94 706.731,571.1829 735.351,593.2829" fill="none" id="PermanentDocument-to-User" style="stroke:#555555;stroke-width:1;stroke-dasharray:7,7;"/><polygon fill="#555555" points="740.1,596.95,735.4213,588.2834,736.1425,593.8941,730.5319,594.6153,740.1,596.95" style="stroke:#555555;stroke-width:1;"/><text fill="#000000" font-family="sans-serif" font-size="13" lengthAdjust="spacing" textLength="80.2534" x="636.93" y="477.2484">uploaded_by</text></g><!--link PermanentDocument to User--><g class="link" data-entity-1="ent0005" data-entity-2="ent0013" data-link-type="dependency" data-source-line="67" id="lnk15"><path codeLine="67" d="M709.66,433.86 C713.99,443.85 718.11,453.82 721.93,463.68 C740.23,510.88 751.7062,563.89 756.9962,591.13" fill="none" id="PermanentDocument-to-User-1" style="stroke:#555555;stroke-width:1;stroke-dasharray:7,7;"/><polygon fill="#555555" points="758.14,597.02,760.3509,587.4225,757.1868,592.1117,752.4976,588.9476,758.14,597.02" style="stroke:#555555;stroke-width:1;"/><text fill="#000000" font-family="sans-serif" font-size="13" lengthAdjust="spacing" textLength="80.4756" x="728.65" y="477.2484">approved_by</text></g><!--link PermanentDocument to User--><g class="link" data-entity-1="ent0005" data-entity-2="ent0013" data-link-type="dependency" data-source-line="68" id="lnk16"><path codeLine="68" d="M779.12,392.83 C794.76,415.14 808.27,438.91 817.93,463.68 C836.89,512.28 800.6193,565.4108 778.3193,592.3108" fill="none" id="PermanentDocument-to-User-2" style="stroke:#555555;stroke-width:1;stroke-dasharray:7,7;"/><polygon fill="#555555" points="774.49,596.93,783.3133,592.5541,777.6811,593.0807,777.1545,587.4484,774.49,596.93" style="stroke:#555555;stroke-width:1;"/><text fill="#000000" font-family="sans-serif" font-size="13" lengthAdjust="spacing" textLength="72.1792" x="823.11" y="477.2484">rejected_by</text></g><?plantuml-src VLJDRjim3BxdAOZjq1P3WnR3WC4eKgJT0Wp5iABTpe9YCOuMMJGakPttSzq3x17t9ADaEtESjFQ59Z-QrCUFEe9tL4fjCwZGbTAY3K9HNfTiU82V02Kfp61L6pCvWlUgG31Oe5KPd9xEuDFTHt1ePD1a_LfNnoS0C9tEO75pIjOqS6nf1t0oMMk5W6KL6YYnNABp4x_Hjf9Ebf0RwVqy1AUNTS0FETbx_HtXR0nPa0qfSlvw49exHu_NPCZ1opVf6GIlOzuLEOMkWxnDpnv4vfl2KMrL1rlCupkPeArBfgibvpwd2k771BWVpTziB6klBNe_-JN61Xbgdy0LCwTjmPR37FK3AZPbLJbgJOTVCGziZl_nkUdAQIMuT1F_HO_e1As4386SnUX3MyW2OuAGXSDaiJl8Rs95hkphLj6fxGFf7EEyO_VIRaJRYJJy_QZ3UaqcTYjoT46lT2u3SiHgFGHIMAEB_QR1m6slexvpkBWueAtPB9tcbLQGSISHTNipcqLNIwWOH1OtVt__QTs-nVHSRr6NFQoFO8VqQL3Pxk1Ye6z5X6O749bEYKmgSoass73K1nUTv7IXhJHYfGrQMM8Rkeonw1AUHIcMJK3VzHKZfIwnBzEZuqWQb6u0qrvK3dtaB8CbaUcS2Wso9WPEtoeg6qaiXXvueNZNsjycRCtqUrIekAyHMGS74vEajJMVqc55BkoJl1FkKYorX-uFM5U6vB1gdrnxxgVDsM9aFB9YVGMcAZNGxSH-puFqBMWdFLNl5-dP_2rebCzYtfTnlEvUd4sdvoyEQ9oFFQGvxTJHzX8qscvykWh7zoKevBLng4wo0oNZHNgTPCy5jcln1F2g4twKoV_jU08yJmEyI_FZXF6udyZwmjGnUZ3Pvu638JuF74nhyWy0?></g></svg>