<?plantuml 1.2026.2?><svg xmlns="http://www.w3.org/2000/svg" xmlns:xlink="http://www.w3.org/1999/xlink" contentStyleType="text/css" data-diagram-type="CLASS" height="516px" preserveAspectRatio="none" style="width:1229px;height:516px;background:#FFFFFF;" version="1.1" viewBox="0 0 1229 516" width="1229px" zoomAndPan="magnify"><defs/><g><!--class ReminderStatus--><g class="entity" data-qualified-name="ReminderStatus" data-source-line="10" id="ent0002"><rect fill="#FAFAFA" height="105.9531" rx="2.5" ry="2.5" style="stroke:#888888;stroke-width:0.5;" width="130.7695" x="7" y="150.87"/><ellipse cx="22" cy="166.87" fill="#EB937F" rx="11" ry="11" style="stroke:#181818;stroke-width:1;"/><path d="M25.6143,173.37 L17.8945,173.37 L17.8945,160.9769 L25.6143,160.9769 L25.6143,163.1351 L20.3433,163.1351 L20.3433,165.808 L25.1162,165.808 L25.1162,167.9662 L20.3433,167.9662 L20.3433,171.2118 L25.6143,171.2118 Z " fill="#000000"/><text fill="#000000" font-family="sans-serif" font-size="13" lengthAdjust="spacing" textLength="98.7695" x="36" y="171.7831">ReminderStatus</text><line style="stroke:#888888;stroke-width:0.5;" x1="8" x2="136.7695" y1="182.87" y2="182.87"/><text fill="#000000" font-family="sans-serif" font-size="14" lengthAdjust="spacing" textLength="55.5762" x="13" y="200.4052">pending</text><text fill="#000000" font-family="sans-serif" font-size="14" lengthAdjust="spacing" textLength="73.8486" x="13" y="216.8934">processing</text><text fill="#000000" font-family="sans-serif" font-size="14" lengthAdjust="spacing" textLength="28.8613" x="13" y="233.3817">sent</text><text fill="#000000" font-family="sans-serif" font-size="14" lengthAdjust="spacing" textLength="59.2197" x="13" y="249.87">canceled</text></g><!--class ReminderType--><g class="entity" data-qualified-name="ReminderType" data-source-line="17" id="ent0003"><rect fill="#FAFAFA" height="171.9063" rx="2.5" ry="2.5" style="stroke:#888888;stroke-width:0.5;" width="190.0283" x="172.37" y="117.9"/><ellipse cx="217.8309" cy="133.9" fill="#EB937F" rx="11" ry="11" style="stroke:#181818;stroke-width:1;"/><path d="M221.4452,140.4 L213.7255,140.4 L213.7255,128.0069 L221.4452,128.0069 L221.4452,130.1651 L216.1742,130.1651 L216.1742,132.838 L220.9471,132.838 L220.9471,134.9962 L216.1742,134.9962 L216.1742,138.2418 L221.4452,138.2418 Z " fill="#000000"/><text fill="#000000" font-family="sans-serif" font-size="13" lengthAdjust="spacing" textLength="90.6064" x="238.3309" y="138.8131">ReminderType</text><line style="stroke:#888888;stroke-width:0.5;" x1="173.37" x2="361.3983" y1="149.9" y2="149.9"/><text fill="#000000" font-family="sans-serif" font-size="14" lengthAdjust="spacing" textLength="178.0283" x="178.37" y="167.4352">tax_deadline_approaching</text><text fill="#000000" font-family="sans-serif" font-size="14" lengthAdjust="spacing" textLength="61.9199" x="178.37" y="183.9234">vat_filing</text><text fill="#000000" font-family="sans-serif" font-size="14" lengthAdjust="spacing" textLength="153.1318" x="178.37" y="200.4117">advance_payment_due</text><text fill="#000000" font-family="sans-serif" font-size="14" lengthAdjust="spacing" textLength="159.2158" x="178.37" y="216.9">annual_report_deadline</text><text fill="#000000" font-family="sans-serif" font-size="14" lengthAdjust="spacing" textLength="75.5918" x="178.37" y="233.3883">binder_idle</text><text fill="#000000" font-family="sans-serif" font-size="14" lengthAdjust="spacing" textLength="99.627" x="178.37" y="249.8766">unpaid_charge</text><text fill="#000000" font-family="sans-serif" font-size="14" lengthAdjust="spacing" textLength="127.9209" x="178.37" y="266.3648">document_missing</text><text fill="#000000" font-family="sans-serif" font-size="14" lengthAdjust="spacing" textLength="49.9023" x="178.37" y="282.8531">custom</text></g><!--class Reminder--><g class="entity" data-qualified-name="Reminder" data-source-line="28" id="ent0004"><rect fill="#FAFAFA" height="393.6973" rx="2.5" ry="2.5" style="stroke:#888888;stroke-width:0.5;" width="378.7002" x="397.03" y="7"/><ellipse cx="548.3528" cy="26.7217" fill="#ADD1B2" rx="11" ry="11" style="stroke:#181818;stroke-width:1;"/><path d="M550.8259,32.8647 Q550.2448,33.1636 549.6057,33.313 Q548.9665,33.4624 548.261,33.4624 Q545.7541,33.4624 544.4343,31.8105 Q543.1145,30.1587 543.1145,27.0376 Q543.1145,23.9082 544.4343,22.2563 Q545.7541,20.6045 548.261,20.6045 Q548.9665,20.6045 549.614,20.7539 Q550.2614,20.9033 550.8259,21.2021 L550.8259,23.9248 Q550.195,23.3438 549.6015,23.074 Q549.008,22.8042 548.3772,22.8042 Q547.0324,22.8042 546.3476,23.8708 Q545.6628,24.9375 545.6628,27.0376 Q545.6628,29.1294 546.3476,30.196 Q547.0324,31.2627 548.3772,31.2627 Q549.008,31.2627 549.6015,30.9929 Q550.195,30.7231 550.8259,30.1421 Z " fill="#000000"/><text fill="#000000" font-family="sans-serif" font-size="12" font-style="italic" lengthAdjust="spacing" textLength="71.5547" x="566.8528" y="23.6016">&#171;reminders&#187;</text><text fill="#000000" font-family="sans-serif" font-size="13" lengthAdjust="spacing" textLength="60.1694" x="572.5454" y="38.7012">Reminder</text><line style="stroke:#888888;stroke-width:0.5;" x1="398.03" x2="774.7302" y1="46.4434" y2="46.4434"/><text fill="#000000" font-family="sans-serif" font-size="14" lengthAdjust="spacing" textLength="91.2256" x="403.03" y="63.9785">+id : int &#171;PK&#187;</text><text fill="#000000" font-family="sans-serif" font-size="14" lengthAdjust="spacing" textLength="193.1084" x="403.03" y="80.4668">+client_id : int &#171;FK&#8594;clients&#187;</text><text fill="#000000" font-family="sans-serif" font-size="14" lengthAdjust="spacing" textLength="251.7266" x="403.03" y="96.9551">+business_id : int? &#171;FK&#8594;businesses&#187;</text><text fill="#000000" font-family="sans-serif" font-size="14" lengthAdjust="spacing" textLength="219.8301" x="403.03" y="113.4434">+reminder_type : ReminderType</text><text fill="#000000" font-family="sans-serif" font-size="14" lengthAdjust="spacing" textLength="171.9512" x="403.03" y="129.9316">+status : ReminderStatus</text><text fill="#000000" font-family="sans-serif" font-size="14" lengthAdjust="spacing" textLength="131.0381" x="403.03" y="146.4199">+target_date : date</text><text fill="#000000" font-family="sans-serif" font-size="14" lengthAdjust="spacing" textLength="124.2705" x="403.03" y="162.9082">+days_before : int</text><text fill="#000000" font-family="sans-serif" font-size="14" lengthAdjust="spacing" textLength="110.7217" x="403.03" y="179.3965">+send_on : date</text><text fill="#000000" font-family="sans-serif" font-size="14" lengthAdjust="spacing" textLength="110.6807" x="403.03" y="195.8848">+message : text</text><text fill="#000000" font-family="sans-serif" font-size="14" lengthAdjust="spacing" textLength="212.8096" x="403.03" y="212.373">+binder_id : int? &#171;FK&#8594;binders&#187;</text><text fill="#000000" font-family="sans-serif" font-size="14" lengthAdjust="spacing" textLength="216.7334" x="403.03" y="228.8613">+charge_id : int? &#171;FK&#8594;charges&#187;</text><text fill="#000000" font-family="sans-serif" font-size="14" lengthAdjust="spacing" textLength="297.6162" x="403.03" y="245.3496">+tax_deadline_id : int? &#171;FK&#8594;tax_deadlines&#187;</text><text fill="#000000" font-family="sans-serif" font-size="14" lengthAdjust="spacing" textLength="313.9951" x="403.03" y="261.8379">+annual_report_id : int? &#171;FK&#8594;annual_reports&#187;</text><text fill="#000000" font-family="sans-serif" font-size="14" lengthAdjust="spacing" textLength="366.7002" x="403.03" y="278.3262">+advance_payment_id : int? &#171;FK&#8594;advance_payments&#187;</text><text fill="#000000" font-family="sans-serif" font-size="14" lengthAdjust="spacing" textLength="154.3965" x="403.03" y="294.8145">+created_at : datetime</text><text fill="#000000" font-family="sans-serif" font-size="14" lengthAdjust="spacing" textLength="138.8857" x="403.03" y="311.3027">+sent_at : datetime?</text><text fill="#000000" font-family="sans-serif" font-size="14" lengthAdjust="spacing" textLength="169.2441" x="403.03" y="327.791">+canceled_at : datetime?</text><text fill="#000000" font-family="sans-serif" font-size="14" lengthAdjust="spacing" textLength="216.877" x="403.03" y="344.2793">+canceled_by : int? &#171;FK&#8594;users&#187;</text><text fill="#000000" font-family="sans-serif" font-size="14" lengthAdjust="spacing" textLength="207.9355" x="403.03" y="360.7676">+created_by : int? &#171;FK&#8594;users&#187;</text><text fill="#000000" font-family="sans-serif" font-size="14" lengthAdjust="spacing" textLength="160.3301" x="403.03" y="377.2559">+deleted_at : datetime?</text><text fill="#000000" font-family="sans-serif" font-size="14" lengthAdjust="spacing" textLength="207.9629" x="403.03" y="393.7441">+deleted_by : int? &#171;FK&#8594;users&#187;</text></g><!--class Client--><g class="entity" data-qualified-name="Client" data-source-line="53" id="ent0005"><rect fill="#FAFAFA" height="32" rx="2.5" ry="2.5" style="stroke:#888888;stroke-width:0.5;" width="68.6831" x="17.04" y="477.7"/><ellipse cx="32.04" cy="493.7" fill="#ADD1B2" rx="11" ry="11" style="stroke:#181818;stroke-width:1;"/><path d="M34.5131,499.8431 Q33.9321,500.1419 33.2929,500.2913 Q32.6538,500.4407 31.9482,500.4407 Q29.4414,500.4407 28.1215,498.7889 Q26.8017,497.137 26.8017,494.0159 Q26.8017,490.8865 28.1215,489.2347 Q29.4414,487.5828 31.9482,487.5828 Q32.6538,487.5828 33.3012,487.7322 Q33.9487,487.8816 34.5131,488.1805 L34.5131,490.9031 Q33.8823,490.3221 33.2888,490.0523 Q32.6953,489.7825 32.0644,489.7825 Q30.7197,489.7825 30.0349,490.8492 Q29.3501,491.9158 29.3501,494.0159 Q29.3501,496.1077 30.0349,497.1744 Q30.7197,498.241 32.0644,498.241 Q32.6953,498.241 33.2888,497.9712 Q33.8823,497.7015 34.5131,497.1204 Z " fill="#000000"/><text fill="#000000" font-family="sans-serif" font-size="13" lengthAdjust="spacing" textLength="36.6831" x="46.04" y="498.6131">Client</text></g><!--class Business--><g class="entity" data-qualified-name="Business" data-source-line="54" id="ent0007"><rect fill="#FAFAFA" height="32" rx="2.5" ry="2.5" style="stroke:#888888;stroke-width:0.5;" width="86.4946" x="121.14" y="477.7"/><ellipse cx="136.14" cy="493.7" fill="#ADD1B2" rx="11" ry="11" style="stroke:#181818;stroke-width:1;"/><path d="M138.6131,499.8431 Q138.0321,500.1419 137.3929,500.2913 Q136.7538,500.4407 136.0482,500.4407 Q133.5414,500.4407 132.2215,498.7889 Q130.9017,497.137 130.9017,494.0159 Q130.9017,490.8865 132.2215,489.2347 Q133.5414,487.5828 136.0482,487.5828 Q136.7538,487.5828 137.4012,487.7322 Q138.0487,487.8816 138.6131,488.1805 L138.6131,490.9031 Q137.9823,490.3221 137.3888,490.0523 Q136.7953,489.7825 136.1644,489.7825 Q134.8197,489.7825 134.1349,490.8492 Q133.4501,491.9158 133.4501,494.0159 Q133.4501,496.1077 134.1349,497.1744 Q134.8197,498.241 136.1644,498.241 Q136.7953,498.241 137.3888,497.9712 Q137.9823,497.7015 138.6131,497.1204 Z " fill="#000000"/><text fill="#000000" font-family="sans-serif" font-size="13" lengthAdjust="spacing" textLength="54.4946" x="150.14" y="498.6131">Business</text></g><!--class Binder--><g class="entity" data-qualified-name="Binder" data-source-line="55" id="ent0009"><rect fill="#FAFAFA" height="32" rx="2.5" ry="2.5" style="stroke:#888888;stroke-width:0.5;" width="72.0474" x="242.36" y="477.7"/><ellipse cx="257.36" cy="493.7" fill="#ADD1B2" rx="11" ry="11" style="stroke:#181818;stroke-width:1;"/><path d="M259.8331,499.8431 Q259.2521,500.1419 258.6129,500.2913 Q257.9738,500.4407 257.2682,500.4407 Q254.7614,500.4407 253.4415,498.7889 Q252.1217,497.137 252.1217,494.0159 Q252.1217,490.8865 253.4415,489.2347 Q254.7614,487.5828 257.2682,487.5828 Q257.9738,487.5828 258.6212,487.7322 Q259.2687,487.8816 259.8331,488.1805 L259.8331,490.9031 Q259.2023,490.3221 258.6088,490.0523 Q258.0153,489.7825 257.3844,489.7825 Q256.0397,489.7825 255.3549,490.8492 Q254.6701,491.9158 254.6701,494.0159 Q254.6701,496.1077 255.3549,497.1744 Q256.0397,498.241 257.3844,498.241 Q258.0153,498.241 258.6088,497.9712 Q259.2023,497.7015 259.8331,497.1204 Z " fill="#000000"/><text fill="#000000" font-family="sans-serif" font-size="13" lengthAdjust="spacing" textLength="40.0474" x="271.36" y="498.6131">Binder</text></g><!--class Charge--><g class="entity" data-qualified-name="Charge" data-source-line="56" id="ent0011"><rect fill="#FAFAFA" height="32" rx="2.5" ry="2.5" style="stroke:#888888;stroke-width:0.5;" width="76.9097" x="348.93" y="477.7"/><ellipse cx="363.93" cy="493.7" fill="#ADD1B2" rx="11" ry="11" style="stroke:#181818;stroke-width:1;"/><path d="M366.4031,499.8431 Q365.8221,500.1419 365.1829,500.2913 Q364.5438,500.4407 363.8382,500.4407 Q361.3314,500.4407 360.0115,498.7889 Q358.6917,497.137 358.6917,494.0159 Q358.6917,490.8865 360.0115,489.2347 Q361.3314,487.5828 363.8382,487.5828 Q364.5438,487.5828 365.1912,487.7322 Q365.8387,487.8816 366.4031,488.1805 L366.4031,490.9031 Q365.7723,490.3221 365.1788,490.0523 Q364.5853,489.7825 363.9544,489.7825 Q362.6097,489.7825 361.9249,490.8492 Q361.2401,491.9158 361.2401,494.0159 Q361.2401,496.1077 361.9249,497.1744 Q362.6097,498.241 363.9544,498.241 Q364.5853,498.241 365.1788,497.9712 Q365.7723,497.7015 366.4031,497.1204 Z " fill="#000000"/><text fill="#000000" font-family="sans-serif" font-size="13" lengthAdjust="spacing" textLength="44.9097" x="377.93" y="498.6131">Charge</text></g><!--class TaxDeadline--><g class="entity" data-qualified-name="TaxDeadline" data-source-line="57" id="ent0013"><rect fill="#FAFAFA" height="32" rx="2.5" ry="2.5" style="stroke:#888888;stroke-width:0.5;" width="110.5396" x="461.11" y="477.7"/><ellipse cx="476.11" cy="493.7" fill="#ADD1B2" rx="11" ry="11" style="stroke:#181818;stroke-width:1;"/><path d="M478.5831,499.8431 Q478.0021,500.1419 477.3629,500.2913 Q476.7238,500.4407 476.0182,500.4407 Q473.5114,500.4407 472.1915,498.7889 Q470.8717,497.137 470.8717,494.0159 Q470.8717,490.8865 472.1915,489.2347 Q473.5114,487.5828 476.0182,487.5828 Q476.7238,487.5828 477.3712,487.7322 Q478.0187,487.8816 478.5831,488.1805 L478.5831,490.9031 Q477.9523,490.3221 477.3588,490.0523 Q476.7653,489.7825 476.1344,489.7825 Q474.7897,489.7825 474.1049,490.8492 Q473.4201,491.9158 473.4201,494.0159 Q473.4201,496.1077 474.1049,497.1744 Q474.7897,498.241 476.1344,498.241 Q476.7653,498.241 477.3588,497.9712 Q477.9523,497.7015 478.5831,497.1204 Z " fill="#000000"/><text fill="#000000" font-family="sans-serif" font-size="13" lengthAdjust="spacing" textLength="78.5396" x="490.11" y="498.6131">TaxDeadline</text></g><!--class AnnualReport--><g class="entity" data-qualified-name="AnnualReport" data-source-line="58" id="ent0015"><rect fill="#FAFAFA" height="32" rx="2.5" ry="2.5" style="stroke:#888888;stroke-width:0.5;" width="117.9219" x="606.42" y="477.7"/><ellipse cx="621.42" cy="493.7" fill="#ADD1B2" rx="11" ry="11" style="stroke:#181818;stroke-width:1;"/><path d="M623.8931,499.8431 Q623.3121,500.1419 622.6729,500.2913 Q622.0338,500.4407 621.3282,500.4407 Q618.8214,500.4407 617.5015,498.7889 Q616.1817,497.137 616.1817,494.0159 Q616.1817,490.8865 617.5015,489.2347 Q618.8214,487.5828 621.3282,487.5828 Q622.0338,487.5828 622.6812,487.7322 Q623.3287,487.8816 623.8931,488.1805 L623.8931,490.9031 Q623.2623,490.3221 622.6688,490.0523 Q622.0753,489.7825 621.4444,489.7825 Q620.0997,489.7825 619.4149,490.8492 Q618.7301,491.9158 618.7301,494.0159 Q618.7301,496.1077 619.4149,497.1744 Q620.0997,498.241 621.4444,498.241 Q622.0753,498.241 622.6688,497.9712 Q623.2623,497.7015 623.8931,497.1204 Z " fill="#000000"/><text fill="#000000" font-family="sans-serif" font-size="13" lengthAdjust="spacing" textLength="85.9219" x="635.42" y="498.6131">AnnualReport</text></g><!--class AdvancePayment--><g class="entity" data-qualified-name="AdvancePayment" data-source-line="59" id="ent0017"><rect fill="#FAFAFA" height="32" rx="2.5" ry="2.5" style="stroke:#888888;stroke-width:0.5;" width="138.4946" x="759.14" y="477.7"/><ellipse cx="774.14" cy="493.7" fill="#ADD1B2" rx="11" ry="11" style="stroke:#181818;stroke-width:1;"/><path d="M776.6131,499.8431 Q776.0321,500.1419 775.3929,500.2913 Q774.7538,500.4407 774.0482,500.4407 Q771.5414,500.4407 770.2215,498.7889 Q768.9017,497.137 768.9017,494.0159 Q768.9017,490.8865 770.2215,489.2347 Q771.5414,487.5828 774.0482,487.5828 Q774.7538,487.5828 775.4012,487.7322 Q776.0487,487.8816 776.6131,488.1805 L776.6131,490.9031 Q775.9823,490.3221 775.3888,490.0523 Q774.7953,489.7825 774.1644,489.7825 Q772.8197,489.7825 772.1349,490.8492 Q771.4501,491.9158 771.4501,494.0159 Q771.4501,496.1077 772.1349,497.1744 Q772.8197,498.241 774.1644,498.241 Q774.7953,498.241 775.3888,497.9712 Q775.9823,497.7015 776.6131,497.1204 Z " fill="#000000"/><text fill="#000000" font-family="sans-serif" font-size="13" lengthAdjust="spacing" textLength="106.4946" x="788.14" y="498.6131">AdvancePayment</text></g><!--class User--><g class="entity" data-qualified-name="User" data-source-line="60" id="ent0019"><rect fill="#FAFAFA" height="32" rx="2.5" ry="2.5" style="stroke:#888888;stroke-width:0.5;" width="60.1963" x="1064.29" y="477.7"/><ellipse cx="1079.29" cy="493.7" fill="#ADD1B2" rx="11" ry="11" style="stroke:#181818;stroke-width:1;"/><path d="M1081.7631,499.8431 Q1081.1821,500.1419 1080.5429,500.2913 Q1079.9038,500.4407 1079.1982,500.4407 Q1076.6914,500.4407 1075.3715,498.7889 Q1074.0517,497.137 1074.0517,494.0159 Q1074.0517,490.8865 1075.3715,489.2347 Q1076.6914,487.5828 1079.1982,487.5828 Q1079.9038,487.5828 1080.5512,487.7322 Q1081.1987,487.8816 1081.7631,488.1805 L1081.7631,490.9031 Q1081.1323,490.3221 1080.5388,490.0523 Q1079.9453,489.7825 1079.3144,489.7825 Q1077.9697,489.7825 1077.2849,490.8492 Q1076.6001,491.9158 1076.6001,494.0159 Q1076.6001,496.1077 1077.2849,497.1744 Q1077.9697,498.241 1079.3144,498.241 Q1079.9453,498.241 1080.5388,497.9712 Q1081.1323,497.7015 1081.7631,497.1204 Z " fill="#000000"/><text fill="#000000" font-family="sans-serif" font-size="13" lengthAdjust="spacing" textLength="28.1963" x="1093.29" y="498.6131">User</text></g><!--link Reminder to Client--><g class="link" data-entity-1="ent0004" data-entity-2="ent0005" data-link-type="dependency" data-source-line="53" id="lnk6"><path codeLine="53" d="M396.58,392.29 C391.24,395.27 385.84,398.09 380.38,400.7 C290.61,443.76 252.58,398.46 158.38,430.7 C126.29,441.68 97.9674,459.2921 77.2274,473.7921" fill="none" id="Reminder-to-Client" style="stroke:#555555;stroke-width:1;stroke-dasharray:7,7;"/><polygon fill="#555555" points="72.31,477.23,81.978,475.3514,76.4078,474.3651,77.3942,468.7949,72.31,477.23" style="stroke:#555555;stroke-width:1;"/><text fill="#000000" font-family="sans-serif" font-size="13" lengthAdjust="spacing" textLength="52.7871" x="159.38" y="444.2684">client_id</text></g><!--link Reminder to Business--><g class="link" data-entity-1="ent0004" data-entity-2="ent0007" data-link-type="dependency" data-source-line="54" id="lnk8"><path codeLine="54" d="M396.57,391.45 C391.22,394.7 385.82,397.79 380.38,400.7 C326.95,429.27 302.42,405.35 247.38,430.7 C221.74,442.52 200.7938,459.1507 184.9838,473.3507" fill="none" id="Reminder-to-Business" style="stroke:#555555;stroke-width:1;stroke-dasharray:7,7;"/><polygon fill="#555555" points="180.52,477.36,189.8886,474.322,184.2399,474.0189,184.5429,468.3702,180.52,477.36" style="stroke:#555555;stroke-width:1;"/><text fill="#000000" font-family="sans-serif" font-size="13" lengthAdjust="spacing" textLength="73.6392" x="248.38" y="444.2684">business_id</text></g><!--link Reminder to Binder--><g class="link" data-entity-1="ent0004" data-entity-2="ent0009" data-link-type="dependency" data-source-line="55" id="lnk10"><path codeLine="55" d="M396.59,385.65 C391.13,390.73 385.73,395.75 380.38,400.7 C350.99,427.92 320.7314,455.0504 300.3214,473.2204" fill="none" id="Reminder-to-Binder" style="stroke:#555555;stroke-width:1;stroke-dasharray:7,7;"/><polygon fill="#555555" points="295.84,477.21,305.2219,474.2132,299.5745,473.8853,299.9024,468.238,295.84,477.21" style="stroke:#555555;stroke-width:1;"/><text fill="#000000" font-family="sans-serif" font-size="13" lengthAdjust="spacing" textLength="59.1919" x="347.95" y="444.2684">binder_id</text></g><!--link Reminder to Charge--><g class="link" data-entity-1="ent0004" data-entity-2="ent0011" data-link-type="dependency" data-source-line="56" id="lnk12"><path codeLine="56" d="M450.9,400.83 C428.74,432.88 412.7417,456.0244 401.3917,472.4444" fill="none" id="Reminder-to-Charge" style="stroke:#555555;stroke-width:1;stroke-dasharray:7,7;"/><polygon fill="#555555" points="397.98,477.38,406.3879,472.251,400.8231,473.267,399.8071,467.7021,397.98,477.38" style="stroke:#555555;stroke-width:1;"/><text fill="#000000" font-family="sans-serif" font-size="13" lengthAdjust="spacing" textLength="61.0137" x="426.45" y="444.2684">charge_id</text></g><!--link Reminder to TaxDeadline--><g class="link" data-entity-1="ent0004" data-entity-2="ent0013" data-link-type="dependency" data-source-line="57" id="lnk14"><path codeLine="57" d="M518.98,401.05 C516.82,411.01 514.92,420.93 513.38,430.7 C510.9,446.45 511.5249,458.769 513.1449,471.369" fill="none" id="Reminder-to-TaxDeadline" style="stroke:#555555;stroke-width:1;stroke-dasharray:7,7;"/><polygon fill="#555555" points="513.91,477.32,516.7296,467.8834,513.2724,472.3608,508.795,468.9036,513.91,477.32" style="stroke:#555555;stroke-width:1;"/><text fill="#000000" font-family="sans-serif" font-size="13" lengthAdjust="spacing" textLength="98.5664" x="514.38" y="444.2684">tax_deadline_id</text></g><!--link Reminder to AnnualReport--><g class="link" data-entity-1="ent0004" data-entity-2="ent0015" data-link-type="dependency" data-source-line="58" id="lnk16"><path codeLine="58" d="M640.17,400.83 C648.97,432.88 655.0809,455.1743 659.5909,471.5943" fill="none" id="Reminder-to-AnnualReport" style="stroke:#555555;stroke-width:1;stroke-dasharray:7,7;"/><polygon fill="#555555" points="661.18,477.38,662.6534,467.642,659.8557,472.5586,654.9391,469.7608,661.18,477.38" style="stroke:#555555;stroke-width:1;"/><text fill="#000000" font-family="sans-serif" font-size="13" lengthAdjust="spacing" textLength="106.1709" x="653.14" y="444.2684">annual_report_id</text></g><!--link Reminder to AdvancePayment--><g class="link" data-entity-1="ent0004" data-entity-2="ent0017" data-link-type="dependency" data-source-line="59" id="lnk18"><path codeLine="59" d="M751.15,400.83 C778.1,432.88 797.8397,456.3668 811.6397,472.7868" fill="none" id="Reminder-to-AdvancePayment" style="stroke:#555555;stroke-width:1;stroke-dasharray:7,7;"/><polygon fill="#555555" points="815.5,477.38,812.7717,467.9166,812.2831,473.5523,806.6473,473.0637,815.5,477.38" style="stroke:#555555;stroke-width:1;"/><text fill="#000000" font-family="sans-serif" font-size="13" lengthAdjust="spacing" textLength="130.6411" x="788.81" y="444.2684">advance_payment_id</text></g><!--link Reminder to User--><g class="link" data-entity-1="ent0004" data-entity-2="ent0019" data-link-type="dependency" data-source-line="60" id="lnk20"><path codeLine="60" d="M775.82,334.52 C837.32,373.65 906.87,414.89 973.38,447.7 C1003.13,462.37 1033.2277,473.2536 1058.1277,481.4036" fill="none" id="Reminder-to-User" style="stroke:#555555;stroke-width:1;stroke-dasharray:7,7;"/><polygon fill="#555555" points="1063.83,483.27,1056.5208,476.6688,1059.0781,481.7146,1054.0322,484.2719,1063.83,483.27" style="stroke:#555555;stroke-width:1;"/><text fill="#000000" font-family="sans-serif" font-size="13" lengthAdjust="spacing" textLength="76.4639" x="974.38" y="444.2684">canceled_by</text></g><!--link Reminder to User--><g class="link" data-entity-1="ent0004" data-entity-2="ent0019" data-link-type="dependency" data-source-line="61" id="lnk21"><path codeLine="61" d="M776.09,267.88 C867.75,304.99 975.01,358.91 1055.38,430.7 C1069.99,443.75 1078.5488,458.1184 1085.1088,471.8184" fill="none" id="Reminder-to-User-1" style="stroke:#555555;stroke-width:1;stroke-dasharray:7,7;"/><polygon fill="#555555" points="1087.7,477.23,1087.4209,467.3851,1085.5406,472.7203,1080.2054,470.8401,1087.7,477.23" style="stroke:#555555;stroke-width:1;"/><text fill="#000000" font-family="sans-serif" font-size="13" lengthAdjust="spacing" textLength="68.1611" x="1070.97" y="444.2684">created_by</text></g><!--link Reminder to User--><g class="link" data-entity-1="ent0004" data-entity-2="ent0019" data-link-type="dependency" data-source-line="62" id="lnk22"><path codeLine="62" d="M776.18,226.61 C904.74,252.32 1065.73,308.4 1148.38,430.7 C1159.89,447.73 1146.3915,461.936 1127.9815,473.976" fill="none" id="Reminder-to-User-2" style="stroke:#555555;stroke-width:1;stroke-dasharray:7,7;"/><polygon fill="#555555" points="1122.96,477.26,1132.6816,475.6816,1127.1446,474.5233,1128.3029,468.9863,1122.96,477.26" style="stroke:#555555;stroke-width:1;"/><text fill="#000000" font-family="sans-serif" font-size="13" lengthAdjust="spacing" textLength="68.1865" x="1152.94" y="444.2684">deleted_by</text></g><?plantuml-src VLJPYjim57ttLrpeGoQK32sbKCpW8PDfe8JI8JDzDh9ruuXeCP8yJRgyzWFwYVsIIl8IB-au3xPqpbrqxebcSAy4OJ86ZO99Yje0_0GGYc8CkuhpQ0OVQO70iK19OrWi4lYo_Upud5YcfDcpyceE0DVN2Qmt2oNv2Qwa6X3cqPvH11IbFO50aRawaJamMH9D1EIS6BEqLhEiilWfL_AHVKTuCwQibRG1UVkk1osrLjzMYYiDhzw7fmUkVDoTqkva3UL3U2OKaXyAhIf96zfwwNzHXB8Ii6t4URJ4LWP-H02bKuF9mdzfbQCnzSAWjEwL4vaZHnhz6cLuEfKOuYqvfXG9vKnYIagNXEJxEiSpiUcEyNf1wBFFbPRa95pkb5ReTwMi24yrbahRBey3ib0bPPJxLUMEo6YQxuak_9ggl0fP16iRpYjZbV1z1ecxHk7cfhD4aeIMNpCACJ1f7VQmIHA_bNFcy_MGzURlxp_rjgavMULgEOKwrcrBQn5ic6t5r7gPue5g7ZUr_l5e81wo_eXE2c9ze7_vNKfE9irmfpJMfKCMDxfKoHvDk1v8uIaMZu7JwJZkk5Ka73xeEYNL-mrfCEW9jOys0SFPJY86S1ioCiaqQ4Xe-zVe1A0fiOqMbWbi5BB3tTl0Rrpz4fITHgKhSzQhgVSIXxeizcA95lbljFFmhBk2dA074owYyMq559tLDT9v77LkzxVNAfZM9UzCFSJl6hSwHi_I8qxz6P__YACQmHg-HkkT8Vv4ZlUD7RmRXzuPKfV12DlW0ySTssP4hWtmKC_VqoUM6GPyDU4OlRbUnhkHNeJFCul-0G00?></g></svg>