<?plantuml 1.2026.2?><svg xmlns="http://www.w3.org/2000/svg" xmlns:xlink="http://www.w3.org/1999/xlink" contentStyleType="text/css" data-diagram-type="CLASS" height="954px" preserveAspectRatio="none" style="width:1161px;height:954px;background:#FFFFFF;" version="1.1" viewBox="0 0 1161 954" width="1161px" zoomAndPan="magnify"><defs/><g><!--class SignatureRequestStatus--><g class="entity" data-qualified-name="SignatureRequestStatus" data-source-line="10" id="ent0002"><rect fill="#FAFAFA" height="138.9297" rx="2.5" ry="2.5" style="stroke:#888888;stroke-width:0.5;" width="180.6494" x="7" y="43.7"/><ellipse cx="22" cy="59.7" fill="#EB937F" rx="11" ry="11" style="stroke:#181818;stroke-width:1;"/><path d="M25.6143,66.2 L17.8945,66.2 L17.8945,53.8069 L25.6143,53.8069 L25.6143,55.9651 L20.3433,55.9651 L20.3433,58.638 L25.1162,58.638 L25.1162,60.7962 L20.3433,60.7962 L20.3433,64.0418 L25.6143,64.0418 Z " fill="#000000"/><text fill="#000000" font-family="sans-serif" font-size="13" lengthAdjust="spacing" textLength="148.6494" x="36" y="64.6131">SignatureRequestStatus</text><line style="stroke:#888888;stroke-width:0.5;" x1="8" x2="186.6494" y1="75.7" y2="75.7"/><text fill="#000000" font-family="sans-serif" font-size="14" lengthAdjust="spacing" textLength="32.6553" x="13" y="93.2352">draft</text><text fill="#000000" font-family="sans-serif" font-size="14" lengthAdjust="spacing" textLength="126.3623" x="13" y="109.7234">pending_signature</text><text fill="#000000" font-family="sans-serif" font-size="14" lengthAdjust="spacing" textLength="45.2129" x="13" y="126.2117">signed</text><text fill="#000000" font-family="sans-serif" font-size="14" lengthAdjust="spacing" textLength="57.1758" x="13" y="142.7">declined</text><text fill="#000000" font-family="sans-serif" font-size="14" lengthAdjust="spacing" textLength="51.584" x="13" y="159.1883">expired</text><text fill="#000000" font-family="sans-serif" font-size="14" lengthAdjust="spacing" textLength="59.2197" x="13" y="175.6766">canceled</text></g><!--class SignatureRequestType--><g class="entity" data-qualified-name="SignatureRequestType" data-source-line="19" id="ent0003"><rect fill="#FAFAFA" height="122.4414" rx="2.5" ry="2.5" style="stroke:#888888;stroke-width:0.5;" width="175.8574" x="222.4" y="51.94"/><ellipse cx="238.917" cy="67.94" fill="#EB937F" rx="11" ry="11" style="stroke:#181818;stroke-width:1;"/><path d="M242.5313,74.44 L234.8115,74.44 L234.8115,62.0469 L242.5313,62.0469 L242.5313,64.2051 L237.2603,64.2051 L237.2603,66.878 L242.0332,66.878 L242.0332,69.0362 L237.2603,69.0362 L237.2603,72.2818 L242.5313,72.2818 Z " fill="#000000"/><text fill="#000000" font-family="sans-serif" font-size="13" lengthAdjust="spacing" textLength="140.4863" x="253.2541" y="72.8531">SignatureRequestType</text><line style="stroke:#888888;stroke-width:0.5;" x1="223.4" x2="397.2574" y1="83.94" y2="83.94"/><text fill="#000000" font-family="sans-serif" font-size="14" lengthAdjust="spacing" textLength="163.8574" x="228.4" y="101.4752">engagement_agreement</text><text fill="#000000" font-family="sans-serif" font-size="14" lengthAdjust="spacing" textLength="160.1865" x="228.4" y="117.9634">annual_report_approval</text><text fill="#000000" font-family="sans-serif" font-size="14" lengthAdjust="spacing" textLength="125.8086" x="228.4" y="134.4517">power_of_attorney</text><text fill="#000000" font-family="sans-serif" font-size="14" lengthAdjust="spacing" textLength="134.791" x="228.4" y="150.94">vat_return_approval</text><text fill="#000000" font-family="sans-serif" font-size="14" lengthAdjust="spacing" textLength="49.9023" x="228.4" y="167.4283">custom</text></g><!--class SignatureAuditEvent--><g class="entity" data-qualified-name="SignatureAuditEvent" data-source-line="27" id="ent0004"><rect fill="#FAFAFA" height="212.3262" rx="2.5" ry="2.5" style="stroke:#888888;stroke-width:0.5;" width="375.1045" x="432.77" y="7"/><ellipse cx="544.8388" cy="26.7217" fill="#ADD1B2" rx="11" ry="11" style="stroke:#181818;stroke-width:1;"/><path d="M547.312,32.8647 Q546.7309,33.1636 546.0918,33.313 Q545.4526,33.4624 544.7471,33.4624 Q542.2402,33.4624 540.9204,31.8105 Q539.6006,30.1587 539.6006,27.0376 Q539.6006,23.9082 540.9204,22.2563 Q542.2402,20.6045 544.7471,20.6045 Q545.4526,20.6045 546.1001,20.7539 Q546.7475,20.9033 547.312,21.2021 L547.312,23.9248 Q546.6811,23.3438 546.0876,23.074 Q545.4941,22.8042 544.8633,22.8042 Q543.5185,22.8042 542.8337,23.8708 Q542.1489,24.9375 542.1489,27.0376 Q542.1489,29.1294 542.8337,30.196 Q543.5185,31.2627 544.8633,31.2627 Q545.4941,31.2627 546.0876,30.9929 Q546.6811,30.7231 547.312,30.1421 Z " fill="#000000"/><text fill="#000000" font-family="sans-serif" font-size="12" font-style="italic" lengthAdjust="spacing" textLength="146.4668" x="563.3388" y="23.6016">&#171;signature_audit_events&#187;</text><text fill="#000000" font-family="sans-serif" font-size="13" lengthAdjust="spacing" textLength="127.3911" x="572.8767" y="38.7012">SignatureAuditEvent</text><line style="stroke:#888888;stroke-width:0.5;" x1="433.77" x2="806.8745" y1="46.4434" y2="46.4434"/><text fill="#000000" font-family="sans-serif" font-size="14" lengthAdjust="spacing" textLength="91.2256" x="438.77" y="63.9785">+id : int &#171;PK&#187;</text><text fill="#000000" font-family="sans-serif" font-size="14" lengthAdjust="spacing" textLength="363.1045" x="438.77" y="80.4668">+signature_request_id : int &#171;FK&#8594;signature_requests&#187;</text><text fill="#000000" font-family="sans-serif" font-size="14" lengthAdjust="spacing" textLength="115.4521" x="438.77" y="96.9551">+event_type : str</text><text fill="#000000" font-family="sans-serif" font-size="14" lengthAdjust="spacing" textLength="113.1484" x="438.77" y="113.4434">+actor_type : str</text><text fill="#000000" font-family="sans-serif" font-size="14" lengthAdjust="spacing" textLength="102.6211" x="438.77" y="129.9316">+actor_id : int?</text><text fill="#000000" font-family="sans-serif" font-size="14" lengthAdjust="spacing" textLength="127.1826" x="438.77" y="146.4199">+actor_name : str?</text><text fill="#000000" font-family="sans-serif" font-size="14" lengthAdjust="spacing" textLength="121.4404" x="438.77" y="162.9082">+ip_address : str?</text><text fill="#000000" font-family="sans-serif" font-size="14" lengthAdjust="spacing" textLength="122.9648" x="438.77" y="179.3965">+user_agent : str?</text><text fill="#000000" font-family="sans-serif" font-size="14" lengthAdjust="spacing" textLength="94.6436" x="438.77" y="195.8848">+notes : text?</text><text fill="#000000" font-family="sans-serif" font-size="14" lengthAdjust="spacing" textLength="163.8164" x="438.77" y="212.373">+occurred_at : datetime</text></g><!--class SignatureRequest--><g class="entity" data-qualified-name="SignatureRequest" data-source-line="40" id="ent0005"><rect fill="#FAFAFA" height="542.0918" rx="2.5" ry="2.5" style="stroke:#888888;stroke-width:0.5;" width="353.7217" x="442.46" y="296.33"/><ellipse cx="555.4449" cy="316.0517" fill="#ADD1B2" rx="11" ry="11" style="stroke:#181818;stroke-width:1;"/><path d="M557.918,322.1947 Q557.337,322.4936 556.6978,322.643 Q556.0586,322.7924 555.3531,322.7924 Q552.8462,322.7924 551.5264,321.1405 Q550.2066,319.4887 550.2066,316.3676 Q550.2066,313.2382 551.5264,311.5863 Q552.8462,309.9345 555.3531,309.9345 Q556.0586,309.9345 556.7061,310.0839 Q557.3536,310.2333 557.918,310.5321 L557.918,313.2548 Q557.2871,312.6737 556.6936,312.404 Q556.1001,312.1342 555.4693,312.1342 Q554.1246,312.1342 553.4397,313.2008 Q552.7549,314.2675 552.7549,316.3676 Q552.7549,318.4594 553.4397,319.526 Q554.1246,320.5927 555.4693,320.5927 Q556.1001,320.5927 556.6936,320.3229 Q557.2871,320.0531 557.918,319.4721 Z " fill="#000000"/><text fill="#000000" font-family="sans-serif" font-size="12" font-style="italic" lengthAdjust="spacing" textLength="123.252" x="573.9449" y="312.9316">&#171;signature_requests&#187;</text><text fill="#000000" font-family="sans-serif" font-size="13" lengthAdjust="spacing" textLength="110.0493" x="580.5462" y="328.0312">SignatureRequest</text><line style="stroke:#888888;stroke-width:0.5;" x1="443.46" x2="795.1817" y1="335.7734" y2="335.7734"/><text fill="#000000" font-family="sans-serif" font-size="14" lengthAdjust="spacing" textLength="91.2256" x="448.46" y="353.3085">+id : int &#171;PK&#187;</text><text fill="#000000" font-family="sans-serif" font-size="14" lengthAdjust="spacing" textLength="193.1084" x="448.46" y="369.7968">+client_id : int &#171;FK&#8594;clients&#187;</text><text fill="#000000" font-family="sans-serif" font-size="14" lengthAdjust="spacing" textLength="251.7266" x="448.46" y="386.2851">+business_id : int? &#171;FK&#8594;businesses&#187;</text><text fill="#000000" font-family="sans-serif" font-size="14" lengthAdjust="spacing" textLength="202.0293" x="448.46" y="402.7734">+created_by : int &#171;FK&#8594;users&#187;</text><text fill="#000000" font-family="sans-serif" font-size="14" lengthAdjust="spacing" textLength="313.9951" x="448.46" y="419.2616">+annual_report_id : int? &#171;FK&#8594;annual_reports&#187;</text><text fill="#000000" font-family="sans-serif" font-size="14" lengthAdjust="spacing" textLength="341.7217" x="448.46" y="435.7499">+document_id : int? &#171;FK&#8594;permanent_documents&#187;</text><text fill="#000000" font-family="sans-serif" font-size="14" lengthAdjust="spacing" textLength="263.0742" x="448.46" y="452.2382">+request_type : SignatureRequestType</text><text fill="#000000" font-family="sans-serif" font-size="14" lengthAdjust="spacing" textLength="68.8857" x="448.46" y="468.7265">+title : str</text><text fill="#000000" font-family="sans-serif" font-size="14" lengthAdjust="spacing" textLength="133.2598" x="448.46" y="485.2148">+description : text?</text><text fill="#000000" font-family="sans-serif" font-size="14" lengthAdjust="spacing" textLength="139.0908" x="448.46" y="501.703">+content_hash : str?</text><text fill="#000000" font-family="sans-serif" font-size="14" lengthAdjust="spacing" textLength="129.6846" x="448.46" y="518.1913">+storage_key : str?</text><text fill="#000000" font-family="sans-serif" font-size="14" lengthAdjust="spacing" textLength="128.9395" x="448.46" y="534.6796">+signer_name : str</text><text fill="#000000" font-family="sans-serif" font-size="14" lengthAdjust="spacing" textLength="134.251" x="448.46" y="551.1679">+signer_email : str?</text><text fill="#000000" font-family="sans-serif" font-size="14" lengthAdjust="spacing" textLength="140.1436" x="448.46" y="567.6562">+signer_phone : str?</text><text fill="#000000" font-family="sans-serif" font-size="14" lengthAdjust="spacing" textLength="225.668" x="448.46" y="584.1445">+status : SignatureRequestStatus</text><text fill="#000000" font-family="sans-serif" font-size="14" lengthAdjust="spacing" textLength="143.999" x="448.46" y="600.6327">+signing_token : str?</text><text fill="#000000" font-family="sans-serif" font-size="14" lengthAdjust="spacing" textLength="154.3965" x="448.46" y="617.121">+created_at : datetime</text><text fill="#000000" font-family="sans-serif" font-size="14" lengthAdjust="spacing" textLength="138.8857" x="448.46" y="633.6093">+sent_at : datetime?</text><text fill="#000000" font-family="sans-serif" font-size="14" lengthAdjust="spacing" textLength="159.9336" x="448.46" y="650.0976">+expires_at : datetime?</text><text fill="#000000" font-family="sans-serif" font-size="14" lengthAdjust="spacing" textLength="122.6709" x="448.46" y="666.5859">+expiry_days : int</text><text fill="#000000" font-family="sans-serif" font-size="14" lengthAdjust="spacing" textLength="155.2373" x="448.46" y="683.0741">+signed_at : datetime?</text><text fill="#000000" font-family="sans-serif" font-size="14" lengthAdjust="spacing" textLength="167.2002" x="448.46" y="699.5624">+declined_at : datetime?</text><text fill="#000000" font-family="sans-serif" font-size="14" lengthAdjust="spacing" textLength="169.2441" x="448.46" y="716.0507">+canceled_at : datetime?</text><text fill="#000000" font-family="sans-serif" font-size="14" lengthAdjust="spacing" textLength="216.877" x="448.46" y="732.539">+canceled_by : int? &#171;FK&#8594;users&#187;</text><text fill="#000000" font-family="sans-serif" font-size="14" lengthAdjust="spacing" textLength="170.5703" x="448.46" y="749.0273">+signer_ip_address : str?</text><text fill="#000000" font-family="sans-serif" font-size="14" lengthAdjust="spacing" textLength="172.0947" x="448.46" y="765.5155">+signer_user_agent : str?</text><text fill="#000000" font-family="sans-serif" font-size="14" lengthAdjust="spacing" textLength="158.2314" x="448.46" y="782.0038">+decline_reason : text?</text><text fill="#000000" font-family="sans-serif" font-size="14" lengthAdjust="spacing" textLength="199.001" x="448.46" y="798.4921">+signed_document_key : str?</text><text fill="#000000" font-family="sans-serif" font-size="14" lengthAdjust="spacing" textLength="160.3301" x="448.46" y="814.9804">+deleted_at : datetime?</text><text fill="#000000" font-family="sans-serif" font-size="14" lengthAdjust="spacing" textLength="207.9629" x="448.46" y="831.4687">+deleted_by : int? &#171;FK&#8594;users&#187;</text></g><!--class Client--><g class="entity" data-qualified-name="Client" data-source-line="74" id="ent0007"><rect fill="#FAFAFA" height="32" rx="2.5" ry="2.5" style="stroke:#888888;stroke-width:0.5;" width="68.6831" x="175.98" y="915.42"/><ellipse cx="190.98" cy="931.42" fill="#ADD1B2" rx="11" ry="11" style="stroke:#181818;stroke-width:1;"/><path d="M193.4531,937.5631 Q192.8721,937.8619 192.2329,938.0113 Q191.5938,938.1607 190.8882,938.1607 Q188.3814,938.1607 187.0615,936.5089 Q185.7417,934.857 185.7417,931.7359 Q185.7417,928.6065 187.0615,926.9547 Q188.3814,925.3028 190.8882,925.3028 Q191.5938,925.3028 192.2412,925.4522 Q192.8887,925.6016 193.4531,925.9005 L193.4531,928.6231 Q192.8223,928.0421 192.2288,927.7723 Q191.6353,927.5025 191.0044,927.5025 Q189.6597,927.5025 188.9749,928.5692 Q188.2901,929.6358 188.2901,931.7359 Q188.2901,933.8277 188.9749,934.8944 Q189.6597,935.961 191.0044,935.961 Q191.6353,935.961 192.2288,935.6912 Q192.8223,935.4215 193.4531,934.8404 Z " fill="#000000"/><text fill="#000000" font-family="sans-serif" font-size="13" lengthAdjust="spacing" textLength="36.6831" x="204.98" y="936.3331">Client</text></g><!--class AnnualReport--><g class="entity" data-qualified-name="AnnualReport" data-source-line="75" id="ent0009"><rect fill="#FAFAFA" height="32" rx="2.5" ry="2.5" style="stroke:#888888;stroke-width:0.5;" width="117.9219" x="365.36" y="915.42"/><ellipse cx="380.36" cy="931.42" fill="#ADD1B2" rx="11" ry="11" style="stroke:#181818;stroke-width:1;"/><path d="M382.8331,937.5631 Q382.2521,937.8619 381.6129,938.0113 Q380.9738,938.1607 380.2682,938.1607 Q377.7614,938.1607 376.4415,936.5089 Q375.1217,934.857 375.1217,931.7359 Q375.1217,928.6065 376.4415,926.9547 Q377.7614,925.3028 380.2682,925.3028 Q380.9738,925.3028 381.6212,925.4522 Q382.2687,925.6016 382.8331,925.9005 L382.8331,928.6231 Q382.2023,928.0421 381.6088,927.7723 Q381.0153,927.5025 380.3844,927.5025 Q379.0397,927.5025 378.3549,928.5692 Q377.6701,929.6358 377.6701,931.7359 Q377.6701,933.8277 378.3549,934.8944 Q379.0397,935.961 380.3844,935.961 Q381.0153,935.961 381.6088,935.6912 Q382.2023,935.4215 382.8331,934.8404 Z " fill="#000000"/><text fill="#000000" font-family="sans-serif" font-size="13" lengthAdjust="spacing" textLength="85.9219" x="394.36" y="936.3331">AnnualReport</text></g><!--class Business--><g class="entity" data-qualified-name="Business" data-source-line="79" id="ent0013"><rect fill="#FAFAFA" height="32" rx="2.5" ry="2.5" style="stroke:#888888;stroke-width:0.5;" width="86.4946" x="576.08" y="915.42"/><ellipse cx="591.08" cy="931.42" fill="#ADD1B2" rx="11" ry="11" style="stroke:#181818;stroke-width:1;"/><path d="M593.5531,937.5631 Q592.9721,937.8619 592.3329,938.0113 Q591.6938,938.1607 590.9882,938.1607 Q588.4814,938.1607 587.1615,936.5089 Q585.8417,934.857 585.8417,931.7359 Q585.8417,928.6065 587.1615,926.9547 Q588.4814,925.3028 590.9882,925.3028 Q591.6938,925.3028 592.3412,925.4522 Q592.9887,925.6016 593.5531,925.9005 L593.5531,928.6231 Q592.9223,928.0421 592.3288,927.7723 Q591.7353,927.5025 591.1044,927.5025 Q589.7597,927.5025 589.0749,928.5692 Q588.3901,929.6358 588.3901,931.7359 Q588.3901,933.8277 589.0749,934.8944 Q589.7597,935.961 591.1044,935.961 Q591.7353,935.961 592.3288,935.6912 Q592.9223,935.4215 593.5531,934.8404 Z " fill="#000000"/><text fill="#000000" font-family="sans-serif" font-size="13" lengthAdjust="spacing" textLength="54.4946" x="605.08" y="936.3331">Business</text></g><!--class User--><g class="entity" data-qualified-name="User" data-source-line="80" id="ent0015"><rect fill="#FAFAFA" height="32" rx="2.5" ry="2.5" style="stroke:#888888;stroke-width:0.5;" width="60.1963" x="814.23" y="915.42"/><ellipse cx="829.23" cy="931.42" fill="#ADD1B2" rx="11" ry="11" style="stroke:#181818;stroke-width:1;"/><path d="M831.7031,937.5631 Q831.1221,937.8619 830.4829,938.0113 Q829.8438,938.1607 829.1382,938.1607 Q826.6314,938.1607 825.3115,936.5089 Q823.9917,934.857 823.9917,931.7359 Q823.9917,928.6065 825.3115,926.9547 Q826.6314,925.3028 829.1382,925.3028 Q829.8438,925.3028 830.4912,925.4522 Q831.1387,925.6016 831.7031,925.9005 L831.7031,928.6231 Q831.0723,928.0421 830.4788,927.7723 Q829.8853,927.5025 829.2544,927.5025 Q827.9097,927.5025 827.2249,928.5692 Q826.5401,929.6358 826.5401,931.7359 Q826.5401,933.8277 827.2249,934.8944 Q827.9097,935.961 829.2544,935.961 Q829.8853,935.961 830.4788,935.6912 Q831.0723,935.4215 831.7031,934.8404 Z " fill="#000000"/><text fill="#000000" font-family="sans-serif" font-size="13" lengthAdjust="spacing" textLength="28.1963" x="843.23" y="936.3331">User</text></g><!--class PermanentDocument--><g class="entity" data-qualified-name="PermanentDocument" data-source-line="82" id="ent0018"><rect fill="#FAFAFA" height="32" rx="2.5" ry="2.5" style="stroke:#888888;stroke-width:0.5;" width="164.063" x="990.29" y="915.42"/><ellipse cx="1005.29" cy="931.42" fill="#ADD1B2" rx="11" ry="11" style="stroke:#181818;stroke-width:1;"/><path d="M1007.7631,937.5631 Q1007.1821,937.8619 1006.5429,938.0113 Q1005.9038,938.1607 1005.1982,938.1607 Q1002.6914,938.1607 1001.3715,936.5089 Q1000.0517,934.857 1000.0517,931.7359 Q1000.0517,928.6065 1001.3715,926.9547 Q1002.6914,925.3028 1005.1982,925.3028 Q1005.9038,925.3028 1006.5512,925.4522 Q1007.1987,925.6016 1007.7631,925.9005 L1007.7631,928.6231 Q1007.1323,928.0421 1006.5388,927.7723 Q1005.9453,927.5025 1005.3144,927.5025 Q1003.9697,927.5025 1003.2849,928.5692 Q1002.6001,929.6358 1002.6001,931.7359 Q1002.6001,933.8277 1003.2849,934.8944 Q1003.9697,935.961 1005.3144,935.961 Q1005.9453,935.961 1006.5388,935.6912 Q1007.1323,935.4215 1007.7631,934.8404 Z " fill="#000000"/><text fill="#000000" font-family="sans-serif" font-size="13" lengthAdjust="spacing" textLength="132.063" x="1019.29" y="936.3331">PermanentDocument</text></g><!--link SignatureAuditEvent to SignatureRequest--><g class="link" data-entity-1="ent0004" data-entity-2="ent0005" data-link-type="dependency" data-source-line="73" id="lnk6"><path codeLine="73" d="M550.18,219.48 C545.83,229.29 542.1,239.31 539.32,249.33 C535.12,264.51 533.0927,274.1387 532.2427,289.9187" fill="none" id="SignatureAuditEvent-to-SignatureRequest" style="stroke:#555555;stroke-width:1;"/><polygon fill="#555555" points="531.92,295.91,536.3983,287.1382,532.1889,290.9172,528.4099,286.7079,531.92,295.91" style="stroke:#555555;stroke-width:1;"/><text fill="#000000" font-family="sans-serif" font-size="13" lengthAdjust="spacing" textLength="113.2739" x="540.32" y="262.8984">signature_request</text><text fill="#000000" font-family="sans-serif" font-size="13" lengthAdjust="spacing" textLength="24.667" x="504.9789" y="285.2012">0..1</text></g><!--link SignatureRequest to SignatureAuditEvent--><g class="link" data-entity-1="ent0005" data-entity-2="ent0004" data-link-type="dependency" data-source-line="76" id="lnk11"><path codeLine="76" d="M662.06,296.05 C661.62,280.24 660.43,264.57 658.32,249.33 C656.98,239.55 656.3811,235.3416 654.1911,225.3216" fill="none" id="SignatureRequest-to-SignatureAuditEvent" style="stroke:#555555;stroke-width:1;"/><polygon fill="#555555" points="652.91,219.46,650.9239,229.1065,653.9776,224.3447,658.7395,227.3984,652.91,219.46" style="stroke:#555555;stroke-width:1;"/><text fill="#000000" font-family="sans-serif" font-size="13" lengthAdjust="spacing" textLength="79.3203" x="660.4" y="262.8984">audit_events</text><text fill="#000000" font-family="sans-serif" font-size="13" lengthAdjust="spacing" textLength="22.7119" x="632.4529" y="240.0406">0..*</text></g><!--link SignatureRequest to Client--><g class="link" data-entity-1="ent0005" data-entity-2="ent0007" data-link-type="dependency" data-source-line="74" id="lnk8"><path codeLine="74" d="M442.03,636.38 C342.51,684.81 227.03,760.59 169.32,868.42 C160.44,885.03 170.4812,898.9358 184.6612,911.1958" fill="none" id="SignatureRequest-to-Client" style="stroke:#555555;stroke-width:1;stroke-dasharray:7,7;"/><polygon fill="#555555" points="189.2,915.12,185.008,906.2078,185.4177,911.8498,179.7757,912.2595,189.2,915.12" style="stroke:#555555;stroke-width:1;"/><text fill="#000000" font-family="sans-serif" font-size="13" lengthAdjust="spacing" textLength="34.3472" x="170.32" y="881.9884">client</text><text fill="#000000" font-family="sans-serif" font-size="13" lengthAdjust="spacing" textLength="24.667" x="153.9291" y="904.5605">0..1</text></g><!--link SignatureRequest to Client--><g class="link" data-entity-1="ent0005" data-entity-2="ent0007" data-link-type="dependency" data-source-line="78" id="lnk12"><path codeLine="78" d="M442.11,720.29 C388.12,767.29 328.9,819.55 275.32,868.42 C258.27,883.97 243.5165,898.0922 230.4665,910.7522" fill="none" id="SignatureRequest-to-Client-1" style="stroke:#555555;stroke-width:1;stroke-dasharray:7,7;"/><polygon fill="#555555" points="226.16,914.93,235.405,911.5343,229.7488,911.4485,229.8346,905.7923,226.16,914.93" style="stroke:#555555;stroke-width:1;"/><text fill="#000000" font-family="sans-serif" font-size="13" lengthAdjust="spacing" textLength="52.7871" x="276.32" y="881.9884">client_id</text></g><!--link SignatureRequest to AnnualReport--><g class="link" data-entity-1="ent0005" data-entity-2="ent0009" data-link-type="dependency" data-source-line="75" id="lnk10"><path codeLine="75" d="M442.25,714.56 C400.54,759.15 361.73,811.58 339.32,868.42 C330.95,889.66 345.5351,902.5076 368.2651,912.5876" fill="none" id="SignatureRequest-to-AnnualReport" style="stroke:#555555;stroke-width:1;stroke-dasharray:7,7;"/><polygon fill="#555555" points="373.75,915.02,367.1443,907.7149,369.1793,912.993,363.9011,915.028,373.75,915.02" style="stroke:#555555;stroke-width:1;"/><text fill="#000000" font-family="sans-serif" font-size="13" lengthAdjust="spacing" textLength="87.731" x="340.32" y="881.9884">annual_report</text><text fill="#000000" font-family="sans-serif" font-size="13" lengthAdjust="spacing" textLength="24.667" x="333.0237" y="906.207">0..1</text></g><!--link SignatureRequest to AnnualReport--><g class="link" data-entity-1="ent0005" data-entity-2="ent0009" data-link-type="dependency" data-source-line="81" id="lnk17"><path codeLine="81" d="M473.78,838.59 C456.18,871.27 444.2156,893.4977 435.5156,909.6477" fill="none" id="SignatureRequest-to-AnnualReport-1" style="stroke:#555555;stroke-width:1;stroke-dasharray:7,7;"/><polygon fill="#555555" points="432.67,914.93,440.4599,908.9036,435.0413,910.5281,433.4168,905.1095,432.67,914.93" style="stroke:#555555;stroke-width:1;"/><text fill="#000000" font-family="sans-serif" font-size="13" lengthAdjust="spacing" textLength="106.1709" x="458.02" y="881.9884">annual_report_id</text></g><!--link SignatureRequest to Business--><g class="link" data-entity-1="ent0005" data-entity-2="ent0013" data-link-type="dependency" data-source-line="79" id="lnk14"><path codeLine="79" d="M616.5,838.66 C616.43,848.71 616.37,858.65 616.32,868.42 C616.29,875.98 616.07,877.87 616.32,885.42 C616.65,895.28 616.9251,900.3573 617.5851,909.0373" fill="none" id="SignatureRequest-to-Business" style="stroke:#555555;stroke-width:1;stroke-dasharray:7,7;"/><polygon fill="#555555" points="618.04,915.02,621.3461,905.7426,617.6609,910.0344,613.3692,906.3492,618.04,915.02" style="stroke:#555555;stroke-width:1;"/><text fill="#000000" font-family="sans-serif" font-size="13" lengthAdjust="spacing" textLength="73.6392" x="617.32" y="881.9884">business_id</text></g><!--link SignatureRequest to User--><g class="link" data-entity-1="ent0005" data-entity-2="ent0015" data-link-type="dependency" data-source-line="80" id="lnk16"><path codeLine="80" d="M695.36,838.6 C705.85,855.48 717.77,871.32 731.32,885.42 C753.35,908.33 782.6722,918.5614 807.9322,924.1614" fill="none" id="SignatureRequest-to-User" style="stroke:#555555;stroke-width:1;stroke-dasharray:7,7;"/><polygon fill="#555555" points="813.79,925.46,805.8691,919.6069,808.9085,924.3778,804.1376,927.4172,813.79,925.46" style="stroke:#555555;stroke-width:1;"/><text fill="#000000" font-family="sans-serif" font-size="13" lengthAdjust="spacing" textLength="68.1611" x="732.32" y="881.9884">created_by</text></g><!--link SignatureRequest to User--><g class="link" data-entity-1="ent0005" data-entity-2="ent0015" data-link-type="dependency" data-source-line="83" id="lnk20"><path codeLine="83" d="M787.26,838.59 C807.57,871.27 821.4922,893.6844 831.5322,909.8344" fill="none" id="SignatureRequest-to-User-1" style="stroke:#555555;stroke-width:1;stroke-dasharray:7,7;"/><polygon fill="#555555" points="834.7,914.93,833.3454,905.1747,832.0602,910.6837,826.5513,909.3985,834.7,914.93" style="stroke:#555555;stroke-width:1;"/><text fill="#000000" font-family="sans-serif" font-size="13" lengthAdjust="spacing" textLength="76.4639" x="812.67" y="881.9884">canceled_by</text></g><!--link SignatureRequest to User--><g class="link" data-entity-1="ent0005" data-entity-2="ent0015" data-link-type="dependency" data-source-line="84" id="lnk21"><path codeLine="84" d="M796.6,716.32 C837.47,760.57 875.36,812.39 897.32,868.42 C904.56,886.88 892.9555,900.2637 876.4955,911.7137" fill="none" id="SignatureRequest-to-User-2" style="stroke:#555555;stroke-width:1;stroke-dasharray:7,7;"/><polygon fill="#555555" points="871.57,915.14,881.2424,913.2842,875.6746,912.2848,876.674,906.7169,871.57,915.14" style="stroke:#555555;stroke-width:1;"/><text fill="#000000" font-family="sans-serif" font-size="13" lengthAdjust="spacing" textLength="68.1865" x="900.06" y="881.9884">deleted_by</text></g><!--link SignatureRequest to PermanentDocument--><g class="link" data-entity-1="ent0005" data-entity-2="ent0018" data-link-type="dependency" data-source-line="82" id="lnk19"><path codeLine="82" d="M796.41,709.91 C895.92,789.44 1004.1233,875.9036 1048.3833,911.2836" fill="none" id="SignatureRequest-to-PermanentDocument" style="stroke:#555555;stroke-width:1;stroke-dasharray:7,7;"/><polygon fill="#555555" points="1053.07,915.03,1048.5376,906.286,1049.1645,911.908,1043.5424,912.5349,1053.07,915.03" style="stroke:#555555;stroke-width:1;"/><text fill="#000000" font-family="sans-serif" font-size="13" lengthAdjust="spacing" textLength="81.6436" x="1007.57" y="881.9884">document_id</text></g><?plantuml-src VLLBRjim4Dth54IwID8YHeAYG6443foFWI8e6ZZjMg35YKnO8bMIIg9-jZr0ZzYJT4XH5cNHjXUcPzuCv_DcU4nkPKcvc1BDSq5DhI1LyBq6RJGXlmWf9OCfUQgB8ZacTom7Ka0EWat9sTcCV5b-9WeAQhWKUisharD2o6Go8ulxCocAXfm8EG2S9clEW41PcOQKKAv0wKHlkAYeeYN92ghrt1Z5LxM1JvaKZ_m7aFDTo48AupGNxmFLN2dvSYCBgSYR3-uJA6-itRLK39I7V7IV4OHccrp9MZ0FMypjDqb0r2LvxAgqR8lqQF2V9ZyJGfYYJmP_AwmE5tcwBIZAx1cO1K5MyFO8hnLNxfHHaK61nzzxRldQLE3k097J74eG9gMv0dT2CHMYfWKshf8ADLMbv3CjR2po1LGgdr9gZ5G26fGzKuD8z2v2P5Ph8qiRWIjm7yAyPjpSFUD5vFAo9mcruXIiNCzcBhXtd94fuGxuS3-RMT68LMa0Mjp_-_DtpBlMqhbEZSqSoMcKbT4CiuZAEgzNlKZGqiESa5SfPKm1vjOBQutbmOfYEBrGI0CMPE2rzIUph5ROAgmYYXarO7W9aLhvTWqArMUrjqX82PlhRcLQiI_7gjR86wtxJ3jOfm6Fp1HWX2nTDKDtDbSF6V9bv76WzYPCPdKPHhb5Lw1AAgogmtYJhkE-Np5IMvZXfWZwoK1dYbTsOOGzm5LWx1rhgjT1hv2q2lkNRg09fNRSGWO4Gi1rLuonrLeA63XsWptTC_6TfHrq8pSW0jEk0KEsM0Ctjw7KuTj5eFTfcfJHHhT5tmRC8kXkjqHKtOOvfEhuSXKXZ2zIT8QyBZfAFYIa4jN3VleijhGQDf1XH6PFagrcRxGubR7TPL-he_F9vE9eFAwHnoyPWUohvXtSkC54itP23sBdRfQMRfJGOZ1QOyCkohT7qGMCzi7QnGUvUsQno1lj7jlT5zczE1INr-aq7kTECZZVSTorNpE837PH7FiDUs4zRZTH77QeDdjzFtJhvjPJnpAaNqw70-gvVX3Naopv3m00?></g></svg>