<?plantuml 1.2026.2?><svg xmlns="http://www.w3.org/2000/svg" xmlns:xlink="http://www.w3.org/1999/xlink" contentStyleType="text/css" data-diagram-type="CLASS" height="483px" preserveAspectRatio="none" style="width:812px;height:483px;background:#FFFFFF;" version="1.1" viewBox="0 0 812 483" width="812px" zoomAndPan="magnify"><defs/><g><!--class DeadlineType--><g class="entity" data-qualified-name="DeadlineType" data-source-line="10" id="ent0002"><rect fill="#FAFAFA" height="122.4414" rx="2.5" ry="2.5" style="stroke:#888888;stroke-width:0.5;" width="139.4492" x="7" y="88.92"/><ellipse cx="31.8301" cy="104.92" fill="#EB937F" rx="11" ry="11" style="stroke:#181818;stroke-width:1;"/><path d="M35.4444,111.42 L27.7247,111.42 L27.7247,99.0269 L35.4444,99.0269 L35.4444,101.1851 L30.1734,101.1851 L30.1734,103.858 L34.9463,103.858 L34.9463,106.0162 L30.1734,106.0162 L30.1734,109.2618 L35.4444,109.2618 Z " fill="#000000"/><text fill="#000000" font-family="sans-serif" font-size="13" lengthAdjust="spacing" textLength="85.6045" x="48.0146" y="109.8331">DeadlineType</text><line style="stroke:#888888;stroke-width:0.5;" x1="8" x2="145.4492" y1="120.92" y2="120.92"/><text fill="#000000" font-family="sans-serif" font-size="14" lengthAdjust="spacing" textLength="20.2139" x="13" y="138.4552">vat</text><text fill="#000000" font-family="sans-serif" font-size="14" lengthAdjust="spacing" textLength="120.832" x="13" y="154.9434">advance_payment</text><text fill="#000000" font-family="sans-serif" font-size="14" lengthAdjust="spacing" textLength="127.4492" x="13" y="171.4317">national_insurance</text><text fill="#000000" font-family="sans-serif" font-size="14" lengthAdjust="spacing" textLength="94.4795" x="13" y="187.92">annual_report</text><text fill="#000000" font-family="sans-serif" font-size="14" lengthAdjust="spacing" textLength="36.0527" x="13" y="204.4083">other</text></g><!--class TaxDeadlineStatus--><g class="entity" data-qualified-name="TaxDeadlineStatus" data-source-line="18" id="ent0003"><rect fill="#FAFAFA" height="72.9766" rx="2.5" ry="2.5" style="stroke:#888888;stroke-width:0.5;" width="149.1396" x="181.15" y="113.65"/><ellipse cx="196.15" cy="129.65" fill="#EB937F" rx="11" ry="11" style="stroke:#181818;stroke-width:1;"/><path d="M199.7643,136.15 L192.0445,136.15 L192.0445,123.7569 L199.7643,123.7569 L199.7643,125.9151 L194.4933,125.9151 L194.4933,128.588 L199.2662,128.588 L199.2662,130.7462 L194.4933,130.7462 L194.4933,133.9918 L199.7643,133.9918 Z " fill="#000000"/><text fill="#000000" font-family="sans-serif" font-size="13" lengthAdjust="spacing" textLength="117.1396" x="210.15" y="134.5631">TaxDeadlineStatus</text><line style="stroke:#888888;stroke-width:0.5;" x1="182.15" x2="329.2896" y1="145.65" y2="145.65"/><text fill="#000000" font-family="sans-serif" font-size="14" lengthAdjust="spacing" textLength="55.5762" x="187.15" y="163.1852">pending</text><text fill="#000000" font-family="sans-serif" font-size="14" lengthAdjust="spacing" textLength="71.3467" x="187.15" y="179.6734">completed</text></g><!--class UrgencyLevel--><g class="entity" data-qualified-name="UrgencyLevel" data-source-line="23" id="ent0004"><rect fill="#FAFAFA" height="105.9531" rx="2.5" ry="2.5" style="stroke:#888888;stroke-width:0.5;" width="115.0972" x="19.18" y="370.28"/><ellipse cx="34.18" cy="386.28" fill="#EB937F" rx="11" ry="11" style="stroke:#181818;stroke-width:1;"/><path d="M37.7943,392.78 L30.0745,392.78 L30.0745,380.3869 L37.7943,380.3869 L37.7943,382.5451 L32.5233,382.5451 L32.5233,385.218 L37.2962,385.218 L37.2962,387.3762 L32.5233,387.3762 L32.5233,390.6218 L37.7943,390.6218 Z " fill="#000000"/><text fill="#000000" font-family="sans-serif" font-size="13" lengthAdjust="spacing" textLength="83.0972" x="48.18" y="391.1931">UrgencyLevel</text><line style="stroke:#888888;stroke-width:0.5;" x1="20.18" x2="133.2772" y1="402.28" y2="402.28"/><text fill="#000000" font-family="sans-serif" font-size="14" lengthAdjust="spacing" textLength="54.6738" x="25.18" y="419.8152">overdue</text><text fill="#000000" font-family="sans-serif" font-size="14" lengthAdjust="spacing" textLength="22.3398" x="25.18" y="436.3034">red</text><text fill="#000000" font-family="sans-serif" font-size="14" lengthAdjust="spacing" textLength="42.5947" x="25.18" y="452.7917">yellow</text><text fill="#000000" font-family="sans-serif" font-size="14" lengthAdjust="spacing" textLength="38.7461" x="25.18" y="469.28">green</text></g><!--class TaxDeadline--><g class="entity" data-qualified-name="TaxDeadline" data-source-line="30" id="ent0005"><rect fill="#FAFAFA" height="286.2793" rx="2.5" ry="2.5" style="stroke:#888888;stroke-width:0.5;" width="378.7002" x="365.37" y="7"/><ellipse cx="506.1429" cy="26.7217" fill="#ADD1B2" rx="11" ry="11" style="stroke:#181818;stroke-width:1;"/><path d="M508.6161,32.8647 Q508.035,33.1636 507.3959,33.313 Q506.7567,33.4624 506.0512,33.4624 Q503.5443,33.4624 502.2245,31.8105 Q500.9047,30.1587 500.9047,27.0376 Q500.9047,23.9082 502.2245,22.2563 Q503.5443,20.6045 506.0512,20.6045 Q506.7567,20.6045 507.4042,20.7539 Q508.0516,20.9033 508.6161,21.2021 L508.6161,23.9248 Q507.9852,23.3438 507.3917,23.074 Q506.7982,22.8042 506.1674,22.8042 Q504.8226,22.8042 504.1378,23.8708 Q503.453,24.9375 503.453,27.0376 Q503.453,29.1294 504.1378,30.196 Q504.8226,31.2627 506.1674,31.2627 Q506.7982,31.2627 507.3917,30.9929 Q507.9852,30.7231 508.6161,30.1421 Z " fill="#000000"/><text fill="#000000" font-family="sans-serif" font-size="12" font-style="italic" lengthAdjust="spacing" textLength="92.6543" x="524.6429" y="23.6016">&#171;tax_deadlines&#187;</text><text fill="#000000" font-family="sans-serif" font-size="13" lengthAdjust="spacing" textLength="78.5396" x="531.7003" y="38.7012">TaxDeadline</text><line style="stroke:#888888;stroke-width:0.5;" x1="366.37" x2="743.0702" y1="46.4434" y2="46.4434"/><text fill="#000000" font-family="sans-serif" font-size="14" lengthAdjust="spacing" textLength="91.2256" x="371.37" y="63.9785">+id : int &#171;PK&#187;</text><text fill="#000000" font-family="sans-serif" font-size="14" lengthAdjust="spacing" textLength="193.1084" x="371.37" y="80.4668">+client_id : int &#171;FK&#8594;clients&#187;</text><text fill="#000000" font-family="sans-serif" font-size="14" lengthAdjust="spacing" textLength="210.5059" x="371.37" y="96.9551">+deadline_type : DeadlineType</text><text fill="#000000" font-family="sans-serif" font-size="14" lengthAdjust="spacing" textLength="115.876" x="371.37" y="113.4434">+due_date : date</text><text fill="#000000" font-family="sans-serif" font-size="14" lengthAdjust="spacing" textLength="191.7344" x="371.37" y="129.9316">+status : TaxDeadlineStatus</text><text fill="#000000" font-family="sans-serif" font-size="14" lengthAdjust="spacing" textLength="181.3711" x="371.37" y="146.4199">+completed_at : datetime?</text><text fill="#000000" font-family="sans-serif" font-size="14" lengthAdjust="spacing" textLength="229.0039" x="371.37" y="162.9082">+completed_by : int? &#171;FK&#8594;users&#187;</text><text fill="#000000" font-family="sans-serif" font-size="14" lengthAdjust="spacing" textLength="366.7002" x="371.37" y="179.3965">+advance_payment_id : int? &#171;FK&#8594;advance_payments&#187;</text><text fill="#000000" font-family="sans-serif" font-size="14" lengthAdjust="spacing" textLength="133.2598" x="371.37" y="195.8848">+description : text?</text><text fill="#000000" font-family="sans-serif" font-size="14" lengthAdjust="spacing" textLength="154.3965" x="371.37" y="212.373">+created_at : datetime</text><text fill="#000000" font-family="sans-serif" font-size="14" lengthAdjust="spacing" textLength="160.3301" x="371.37" y="228.8613">+deleted_at : datetime?</text><text fill="#000000" font-family="sans-serif" font-size="14" lengthAdjust="spacing" textLength="207.9629" x="371.37" y="245.3496">+deleted_by : int? &#171;FK&#8594;users&#187;</text><line style="stroke:#888888;stroke-width:0.5;" x1="366.37" x2="743.0702" y1="252.3027" y2="252.3027"/><text fill="#000000" font-family="sans-serif" font-size="14" lengthAdjust="spacing" textLength="110.1816" x="371.37" y="269.8379">+period : str(7)?</text><text fill="#000000" font-family="sans-serif" font-size="14" lengthAdjust="spacing" textLength="240.7617" x="371.37" y="286.3262">+payment_amount : decimal(10,2)?</text></g><!--class Client--><g class="entity" data-qualified-name="Client" data-source-line="48" id="ent0006"><rect fill="#FAFAFA" height="32" rx="2.5" ry="2.5" style="stroke:#888888;stroke-width:0.5;" width="68.6831" x="361.38" y="407.25"/><ellipse cx="376.38" cy="423.25" fill="#ADD1B2" rx="11" ry="11" style="stroke:#181818;stroke-width:1;"/><path d="M378.8531,429.3931 Q378.2721,429.6919 377.6329,429.8413 Q376.9938,429.9907 376.2882,429.9907 Q373.7814,429.9907 372.4615,428.3389 Q371.1417,426.687 371.1417,423.5659 Q371.1417,420.4365 372.4615,418.7847 Q373.7814,417.1328 376.2882,417.1328 Q376.9938,417.1328 377.6412,417.2822 Q378.2887,417.4316 378.8531,417.7305 L378.8531,420.4531 Q378.2223,419.8721 377.6288,419.6023 Q377.0353,419.3325 376.4044,419.3325 Q375.0597,419.3325 374.3749,420.3992 Q373.6901,421.4658 373.6901,423.5659 Q373.6901,425.6577 374.3749,426.7244 Q375.0597,427.791 376.4044,427.791 Q377.0353,427.791 377.6288,427.5212 Q378.2223,427.2515 378.8531,426.6704 Z " fill="#000000"/><text fill="#000000" font-family="sans-serif" font-size="13" lengthAdjust="spacing" textLength="36.6831" x="390.38" y="428.1631">Client</text></g><!--class User--><g class="entity" data-qualified-name="User" data-source-line="49" id="ent0008"><rect fill="#FAFAFA" height="32" rx="2.5" ry="2.5" style="stroke:#888888;stroke-width:0.5;" width="60.1963" x="514.63" y="407.25"/><ellipse cx="529.63" cy="423.25" fill="#ADD1B2" rx="11" ry="11" style="stroke:#181818;stroke-width:1;"/><path d="M532.1031,429.3931 Q531.5221,429.6919 530.8829,429.8413 Q530.2438,429.9907 529.5382,429.9907 Q527.0314,429.9907 525.7115,428.3389 Q524.3917,426.687 524.3917,423.5659 Q524.3917,420.4365 525.7115,418.7847 Q527.0314,417.1328 529.5382,417.1328 Q530.2438,417.1328 530.8912,417.2822 Q531.5387,417.4316 532.1031,417.7305 L532.1031,420.4531 Q531.4723,419.8721 530.8788,419.6023 Q530.2853,419.3325 529.6544,419.3325 Q528.3097,419.3325 527.6249,420.3992 Q526.9401,421.4658 526.9401,423.5659 Q526.9401,425.6577 527.6249,426.7244 Q528.3097,427.791 529.6544,427.791 Q530.2853,427.791 530.8788,427.5212 Q531.4723,427.2515 532.1031,426.6704 Z " fill="#000000"/><text fill="#000000" font-family="sans-serif" font-size="13" lengthAdjust="spacing" textLength="28.1963" x="543.63" y="428.1631">User</text></g><!--class AdvancePayment--><g class="entity" data-qualified-name="AdvancePayment" data-source-line="50" id="ent0010"><rect fill="#FAFAFA" height="32" rx="2.5" ry="2.5" style="stroke:#888888;stroke-width:0.5;" width="138.4946" x="659.48" y="407.25"/><ellipse cx="674.48" cy="423.25" fill="#ADD1B2" rx="11" ry="11" style="stroke:#181818;stroke-width:1;"/><path d="M676.9531,429.3931 Q676.3721,429.6919 675.7329,429.8413 Q675.0938,429.9907 674.3882,429.9907 Q671.8814,429.9907 670.5615,428.3389 Q669.2417,426.687 669.2417,423.5659 Q669.2417,420.4365 670.5615,418.7847 Q671.8814,417.1328 674.3882,417.1328 Q675.0938,417.1328 675.7412,417.2822 Q676.3887,417.4316 676.9531,417.7305 L676.9531,420.4531 Q676.3223,419.8721 675.7288,419.6023 Q675.1353,419.3325 674.5044,419.3325 Q673.1597,419.3325 672.4749,420.3992 Q671.7901,421.4658 671.7901,423.5659 Q671.7901,425.6577 672.4749,426.7244 Q673.1597,427.791 674.5044,427.791 Q675.1353,427.791 675.7288,427.5212 Q676.3223,427.2515 676.9531,426.6704 Z " fill="#000000"/><text fill="#000000" font-family="sans-serif" font-size="13" lengthAdjust="spacing" textLength="106.4946" x="688.48" y="428.1631">AdvancePayment</text></g><!--link TaxDeadline to Client--><g class="link" data-entity-1="ent0005" data-entity-2="ent0006" data-link-type="dependency" data-source-line="48" id="lnk7"><path codeLine="48" d="M440.17,293.67 C434.22,303.45 428.67,313.37 423.72,323.28 C409.84,351.08 402.9808,380.9082 399.3108,400.9482" fill="none" id="TaxDeadline-to-Client" style="stroke:#555555;stroke-width:1;stroke-dasharray:7,7;"/><polygon fill="#555555" points="398.23,406.85,403.7858,398.7178,399.1307,401.9318,395.9167,397.2767,398.23,406.85" style="stroke:#555555;stroke-width:1;"/><text fill="#000000" font-family="sans-serif" font-size="13" lengthAdjust="spacing" textLength="52.7871" x="424.72" y="336.8484">client_id</text></g><!--link TaxDeadline to User--><g class="link" data-entity-1="ent0005" data-entity-2="ent0008" data-link-type="dependency" data-source-line="49" id="lnk9"><path codeLine="49" d="M493.79,293.64 C491,303.55 488.59,313.49 486.72,323.28 C480.47,356.15 503.0571,384.36 522.3171,402.72" fill="none" id="TaxDeadline-to-User" style="stroke:#555555;stroke-width:1;stroke-dasharray:7,7;"/><polygon fill="#555555" points="526.66,406.86,522.9056,397.7548,523.0409,403.41,517.3857,403.5453,526.66,406.86" style="stroke:#555555;stroke-width:1;"/><text fill="#000000" font-family="sans-serif" font-size="13" lengthAdjust="spacing" textLength="87.7246" x="487.72" y="336.8484">completed_by</text></g><!--link TaxDeadline to User--><g class="link" data-entity-1="ent0005" data-entity-2="ent0008" data-link-type="dependency" data-source-line="51" id="lnk12"><path codeLine="51" d="M583.75,293.76 C583.94,309.51 582.79,325.27 579.72,340.28 C574.73,364.69 565.0268,385.5383 556.3868,401.5683" fill="none" id="TaxDeadline-to-User-1" style="stroke:#555555;stroke-width:1;stroke-dasharray:7,7;"/><polygon fill="#555555" points="553.54,406.85,561.3312,400.8253,555.9123,402.4486,554.289,397.0297,553.54,406.85" style="stroke:#555555;stroke-width:1;"/><text fill="#000000" font-family="sans-serif" font-size="13" lengthAdjust="spacing" textLength="68.1865" x="583.17" y="336.8484">deleted_by</text></g><!--link TaxDeadline to AdvancePayment--><g class="link" data-entity-1="ent0005" data-entity-2="ent0010" data-link-type="dependency" data-source-line="50" id="lnk11"><path codeLine="50" d="M646.06,293.44 C675.59,339.47 701.2197,379.4002 715.7597,402.0602" fill="none" id="TaxDeadline-to-AdvancePayment" style="stroke:#555555;stroke-width:1;stroke-dasharray:7,7;"/><polygon fill="#555555" points="719,407.11,717.5062,397.3751,716.2998,402.9018,710.7731,401.6954,719,407.11" style="stroke:#555555;stroke-width:1;"/><text fill="#000000" font-family="sans-serif" font-size="13" lengthAdjust="spacing" textLength="130.6411" x="673.44" y="336.8484">advance_payment_id</text></g><?plantuml-src TPFRRjD048Rl_HGZSP54aAe58P1LEGefaL10LBIzjZRU8Lbb3zRiEgsXtF80F29FmkxQ3awiE59ipNnp-cTt13T6CQ5JSEmfvyYu51e1dW6KuPZ2zqhAP0GV-GP1uWOrJs4wpU3hjoz0A9aJHjkjACSJ0BYuo62vcXejQnXhSmHCagtW2AXALuD2jKQoYTq9NJ9Y2Wh9h9qxHs9TEVnK67qdVY1SdY9BertqNBtfkUP4vd5Xf25uyJO-FUSYn7qmn95Qv7ry1WWhTXiobUOjjfo7NvAWhXJSjDhSroN2pmHWpvp_PtpFT85voMg5EbXq79d9N6XRKN06JElAcmXBGm4oRekK_6fptxEdBlsTOwwoiK3fnHPwuxyAeqg93laXue7yAehwC-vHHjZiaNWLIf7706gKqZpwZmqXwX0NvUkNWklh_j9jbiLCBmM758Hstd-xoh9WAgJmm-KzptBrz_UVncmRfikJkw1GUYHOy9T8meG4rj7utMGMOohCENC13wzWieq0wL2Ks4YdHCvS6-I4mjcnRrqtVSwwHYlhJrlJvid23ZCTs1EW3Ujmflm1YQMn48h9yTNbgzVjC6WB4cNOllSxV79DMuHiq733dvkayvoTmwzpTBXfNg6TZVVjz5A69YNp1sAI9lt5XtkwYBlp-G-x7I0Flbe0UheEc7cZrcqZZwU7-fxB-t_Av1y0?></g></svg>