<?plantuml 1.2026.2?><svg xmlns="http://www.w3.org/2000/svg" xmlns:xlink="http://www.w3.org/1999/xlink" contentStyleType="text/css" data-diagram-type="CLASS" height="507px" preserveAspectRatio="none" style="width:549px;height:507px;background:#FFFFFF;" version="1.1" viewBox="0 0 549 507" width="549px" zoomAndPan="magnify"><defs/><g><!--class UserRole--><g class="entity" data-qualified-name="UserRole" data-source-line="10" id="ent0002"><rect fill="#FAFAFA" height="72.9766" rx="2.5" ry="2.5" style="stroke:#888888;stroke-width:0.5;" width="87.4023" x="15.52" y="68.43"/><ellipse cx="30.52" cy="84.43" fill="#EB937F" rx="11" ry="11" style="stroke:#181818;stroke-width:1;"/><path d="M34.1343,90.93 L26.4145,90.93 L26.4145,78.5369 L34.1343,78.5369 L34.1343,80.6951 L28.8633,80.6951 L28.8633,83.368 L33.6362,83.368 L33.6362,85.5262 L28.8633,85.5262 L28.8633,88.7718 L34.1343,88.7718 Z " fill="#000000"/><text fill="#000000" font-family="sans-serif" font-size="13" lengthAdjust="spacing" textLength="55.4023" x="44.52" y="89.3431">UserRole</text><line style="stroke:#888888;stroke-width:0.5;" x1="16.52" x2="101.9223" y1="100.43" y2="100.43"/><text fill="#000000" font-family="sans-serif" font-size="14" lengthAdjust="spacing" textLength="49.3008" x="21.52" y="117.9652">advisor</text><text fill="#000000" font-family="sans-serif" font-size="14" lengthAdjust="spacing" textLength="61.6465" x="21.52" y="134.4534">secretary</text></g><!--class User--><g class="entity" data-qualified-name="User" data-source-line="15" id="ent0003"><rect fill="#FAFAFA" height="220.3262" rx="2.5" ry="2.5" style="stroke:#888888;stroke-width:0.5;" width="187.2871" x="327.58" y="279.83"/><ellipse cx="397.0478" cy="299.5517" fill="#ADD1B2" rx="11" ry="11" style="stroke:#181818;stroke-width:1;"/><path d="M399.5209,305.6947 Q398.9399,305.9936 398.3007,306.143 Q397.6615,306.2924 396.956,306.2924 Q394.4491,306.2924 393.1293,304.6405 Q391.8095,302.9887 391.8095,299.8676 Q391.8095,296.7382 393.1293,295.0863 Q394.4491,293.4345 396.956,293.4345 Q397.6615,293.4345 398.309,293.5839 Q398.9565,293.7333 399.5209,294.0321 L399.5209,296.7548 Q398.8901,296.1738 398.2966,295.904 Q397.703,295.6342 397.0722,295.6342 Q395.7275,295.6342 395.0426,296.7008 Q394.3578,297.7675 394.3578,299.8676 Q394.3578,301.9594 395.0426,303.026 Q395.7275,304.0927 397.0722,304.0927 Q397.703,304.0927 398.2966,303.8229 Q398.8901,303.5531 399.5209,302.9721 Z " fill="#000000"/><text fill="#000000" font-family="sans-serif" font-size="12" font-style="italic" lengthAdjust="spacing" textLength="43.8516" x="415.5478" y="296.4316">&#171;users&#187;</text><text fill="#000000" font-family="sans-serif" font-size="13" lengthAdjust="spacing" textLength="28.1963" x="423.3754" y="311.5312">User</text><line style="stroke:#888888;stroke-width:0.5;" x1="328.58" x2="513.8671" y1="319.2734" y2="319.2734"/><text fill="#000000" font-family="sans-serif" font-size="14" lengthAdjust="spacing" textLength="91.2256" x="333.58" y="336.8085">+id : int &#171;PK&#187;</text><text fill="#000000" font-family="sans-serif" font-size="14" lengthAdjust="spacing" textLength="108.7393" x="333.58" y="353.2968">+full_name : str</text><text fill="#000000" font-family="sans-serif" font-size="14" lengthAdjust="spacing" textLength="79.2148" x="333.58" y="369.7851">+email : str</text><text fill="#000000" font-family="sans-serif" font-size="14" lengthAdjust="spacing" textLength="91.0137" x="333.58" y="386.2734">+phone : str?</text><text fill="#000000" font-family="sans-serif" font-size="14" lengthAdjust="spacing" textLength="110.2568" x="333.58" y="402.7616">+role : UserRole</text><text fill="#000000" font-family="sans-serif" font-size="14" lengthAdjust="spacing" textLength="111.8906" x="333.58" y="419.2499">+is_active : bool</text><text fill="#000000" font-family="sans-serif" font-size="14" lengthAdjust="spacing" textLength="137.1426" x="333.58" y="435.7382">+token_version : int</text><text fill="#000000" font-family="sans-serif" font-size="14" lengthAdjust="spacing" textLength="154.3965" x="333.58" y="452.2265">+created_at : datetime</text><text fill="#000000" font-family="sans-serif" font-size="14" lengthAdjust="spacing" textLength="175.2871" x="333.58" y="468.7148">+last_login_at : datetime?</text><line style="stroke:#888888;stroke-width:0.5;" x1="328.58" x2="513.8671" y1="475.6679" y2="475.6679"/><text fill="#000000" font-family="sans-serif" font-size="14" lengthAdjust="spacing" textLength="173.3184" x="333.58" y="493.203">+password_hash : str(60)</text></g><!--class AuditAction--><g class="entity" data-qualified-name="AuditAction" data-source-line="28" id="ent0004"><rect fill="#FAFAFA" height="171.9063" rx="2.5" ry="2.5" style="stroke:#888888;stroke-width:0.5;" width="125.9756" x="138.23" y="18.96"/><ellipse cx="162.1557" cy="34.96" fill="#EB937F" rx="11" ry="11" style="stroke:#181818;stroke-width:1;"/><path d="M165.77,41.46 L158.0503,41.46 L158.0503,29.0669 L165.77,29.0669 L165.77,31.2251 L160.499,31.2251 L160.499,33.898 L165.2719,33.898 L165.2719,36.0562 L160.499,36.0562 L160.499,39.3018 L165.77,39.3018 Z " fill="#000000"/><text fill="#000000" font-family="sans-serif" font-size="13" lengthAdjust="spacing" textLength="74.1406" x="178.1392" y="39.8731">AuditAction</text><line style="stroke:#888888;stroke-width:0.5;" x1="139.23" x2="263.2056" y1="50.96" y2="50.96"/><text fill="#000000" font-family="sans-serif" font-size="14" lengthAdjust="spacing" textLength="93.3516" x="144.23" y="68.4952">login_success</text><text fill="#000000" font-family="sans-serif" font-size="14" lengthAdjust="spacing" textLength="84.3008" x="144.23" y="84.9834">login_failure</text><text fill="#000000" font-family="sans-serif" font-size="14" lengthAdjust="spacing" textLength="43.9004" x="144.23" y="101.4717">logout</text><text fill="#000000" font-family="sans-serif" font-size="14" lengthAdjust="spacing" textLength="86.6318" x="144.23" y="117.96">user_created</text><text fill="#000000" font-family="sans-serif" font-size="14" lengthAdjust="spacing" textLength="92.2441" x="144.23" y="134.4483">user_updated</text><text fill="#000000" font-family="sans-serif" font-size="14" lengthAdjust="spacing" textLength="97.3643" x="144.23" y="150.9366">user_activated</text><text fill="#000000" font-family="sans-serif" font-size="14" lengthAdjust="spacing" textLength="113.9756" x="144.23" y="167.4248">user_deactivated</text><text fill="#000000" font-family="sans-serif" font-size="14" lengthAdjust="spacing" textLength="105.4443" x="144.23" y="183.9131">password_reset</text></g><!--class AuditStatus--><g class="entity" data-qualified-name="AuditStatus" data-source-line="39" id="ent0005"><rect fill="#FAFAFA" height="72.9766" rx="2.5" ry="2.5" style="stroke:#888888;stroke-width:0.5;" width="104.4395" x="7" y="353.51"/><ellipse cx="22" cy="369.51" fill="#EB937F" rx="11" ry="11" style="stroke:#181818;stroke-width:1;"/><path d="M25.6143,376.01 L17.8945,376.01 L17.8945,363.6169 L25.6143,363.6169 L25.6143,365.7751 L20.3433,365.7751 L20.3433,368.448 L25.1162,368.448 L25.1162,370.6062 L20.3433,370.6062 L20.3433,373.8518 L25.6143,373.8518 Z " fill="#000000"/><text fill="#000000" font-family="sans-serif" font-size="13" lengthAdjust="spacing" textLength="72.4395" x="36" y="374.4231">AuditStatus</text><line style="stroke:#888888;stroke-width:0.5;" x1="8" x2="110.4395" y1="385.51" y2="385.51"/><text fill="#000000" font-family="sans-serif" font-size="14" lengthAdjust="spacing" textLength="52.2402" x="13" y="403.0452">success</text><text fill="#000000" font-family="sans-serif" font-size="14" lengthAdjust="spacing" textLength="43.1895" x="13" y="419.5334">failure</text></g><!--class UserAuditLog--><g class="entity" data-qualified-name="UserAuditLog" data-source-line="44" id="ent0006"><rect fill="#FAFAFA" height="195.8379" rx="2.5" ry="2.5" style="stroke:#888888;stroke-width:0.5;" width="243.2051" x="299.62" y="7"/><ellipse cx="367.0936" cy="26.7217" fill="#ADD1B2" rx="11" ry="11" style="stroke:#181818;stroke-width:1;"/><path d="M369.5668,32.8647 Q368.9857,33.1636 368.3466,33.313 Q367.7074,33.4624 367.0018,33.4624 Q364.495,33.4624 363.1752,31.8105 Q361.8554,30.1587 361.8554,27.0376 Q361.8554,23.9082 363.1752,22.2563 Q364.495,20.6045 367.0018,20.6045 Q367.7074,20.6045 368.3549,20.7539 Q369.0023,20.9033 369.5668,21.2021 L369.5668,23.9248 Q368.9359,23.3438 368.3424,23.074 Q367.7489,22.8042 367.118,22.8042 Q365.7733,22.8042 365.0885,23.8708 Q364.4037,24.9375 364.4037,27.0376 Q364.4037,29.1294 365.0885,30.196 Q365.7733,31.2627 367.118,31.2627 Q367.7489,31.2627 368.3424,30.9929 Q368.9359,30.7231 369.5668,30.1421 Z " fill="#000000"/><text fill="#000000" font-family="sans-serif" font-size="12" font-style="italic" lengthAdjust="spacing" textLength="103.7578" x="385.5936" y="23.6016">&#171;user_audit_logs&#187;</text><text fill="#000000" font-family="sans-serif" font-size="13" lengthAdjust="spacing" textLength="85.0586" x="394.9432" y="38.7012">UserAuditLog</text><line style="stroke:#888888;stroke-width:0.5;" x1="300.62" x2="541.8251" y1="46.4434" y2="46.4434"/><text fill="#000000" font-family="sans-serif" font-size="14" lengthAdjust="spacing" textLength="91.2256" x="305.62" y="63.9785">+id : int &#171;PK&#187;</text><text fill="#000000" font-family="sans-serif" font-size="14" lengthAdjust="spacing" textLength="145.7354" x="305.62" y="80.4668">+action : AuditAction</text><text fill="#000000" font-family="sans-serif" font-size="14" lengthAdjust="spacing" textLength="225.21" x="305.62" y="96.9551">+actor_user_id : int? &#171;FK&#8594;users&#187;</text><text fill="#000000" font-family="sans-serif" font-size="14" lengthAdjust="spacing" textLength="231.2051" x="305.62" y="113.4434">+target_user_id : int? &#171;FK&#8594;users&#187;</text><text fill="#000000" font-family="sans-serif" font-size="14" lengthAdjust="spacing" textLength="85.1211" x="305.62" y="129.9316">+email : str?</text><text fill="#000000" font-family="sans-serif" font-size="14" lengthAdjust="spacing" textLength="143.5957" x="305.62" y="146.4199">+status : AuditStatus</text><text fill="#000000" font-family="sans-serif" font-size="14" lengthAdjust="spacing" textLength="94.1104" x="305.62" y="162.9082">+reason : str?</text><text fill="#000000" font-family="sans-serif" font-size="14" lengthAdjust="spacing" textLength="156.2148" x="305.62" y="179.3965">+metadata_json : text?</text><text fill="#000000" font-family="sans-serif" font-size="14" lengthAdjust="spacing" textLength="154.3965" x="305.62" y="195.8848">+created_at : datetime</text></g><!--link UserAuditLog to User--><g class="link" data-entity-1="ent0006" data-entity-2="ent0003" data-link-type="dependency" data-source-line="57" id="lnk7"><path codeLine="57" d="M364.87,203.18 C360.97,212.96 357.64,222.94 355.22,232.83 C351.45,248.27 350.8591,258.3017 354.3991,273.7417" fill="none" id="UserAuditLog-to-User" style="stroke:#555555;stroke-width:1;stroke-dasharray:7,7;"/><polygon fill="#555555" points="355.74,279.59,357.6276,269.9237,354.6226,274.7165,349.8299,271.7115,355.74,279.59" style="stroke:#555555;stroke-width:1;"/><text fill="#000000" font-family="sans-serif" font-size="13" lengthAdjust="spacing" textLength="84.2017" x="356.22" y="246.3984">actor_user_id</text></g><!--link UserAuditLog to User--><g class="link" data-entity-1="ent0006" data-entity-2="ent0003" data-link-type="dependency" data-source-line="58" id="lnk8"><path codeLine="58" d="M441.49,203.01 C443.02,213.05 444.31,223.12 445.22,232.83 C446.64,247.99 446.8474,257.9432 445.4674,273.5832" fill="none" id="UserAuditLog-to-User-1" style="stroke:#555555;stroke-width:1;stroke-dasharray:7,7;"/><polygon fill="#555555" points="444.94,279.56,449.7156,270.9464,445.3795,274.5794,441.7465,270.2433,444.94,279.56" style="stroke:#555555;stroke-width:1;"/><text fill="#000000" font-family="sans-serif" font-size="13" lengthAdjust="spacing" textLength="89.7686" x="447.01" y="246.3984">target_user_id</text></g><?plantuml-src XLFRZjCm47tFLup4Grkjkbg4G2XQfIeBbL11e5tn7BdnR6BgU2fxtALSNla0Ff4lmNRIRh9e8Nd9d3cnppbZJ-0rjKAP7Bn3wm2-0xGaCOTRhtKsWJUoHj1Oev4vpES5VBX-3nQrO4N6DMetdG70-Na1g_MSZ3x0rD28CCiQ9H6mtV41McmtOP_CRPNP2IjQgBHmRibirSOplgt8tAYl21SFAIiod3fFdmrQIslfxeeqMNZoF3s3vbNyxnLPYRQdl4pFNnHHRMjBtiYUjbh6DylG-1O-XM2kIIDyom24t2j7Ddmvh2ooi8ViHvObXOa9bvSfoQ98_3Cb8GTbEE0VrqKHePXiQKIBeUCuhdM6OGRwljmrPFhk8jLXzRlWeso4Qpfy-k9Y5bisAijF8jEMhXGLgtt4DqGwOanRDEK-20jJwHH5E5WGZB8K730PFbcrQOtWXqjDjJBZtYAwJR4ilLIyhEAKazEEx7nLeNEd-ZRuyXQxcdpSDCPJzXiVIx-JmpB97m8IXz0f3eiEUQpeXWLxbnJTQpcg64qgqTzHtK-i5B6EdlyrEz4PpeVsUvo2ZRZEyQz5-6sr_ltpLtyUqXY4hP7_pnkSXtG0NESg7tfCqqVXafmZiGr7CaGfoiyTplY55uzFEWGoELrShSpMfUlxy8w3n92RHJdBir5qyTwdKv_3A857MUC0iZy0?></g></svg>