<?plantuml 1.2026.2?><svg xmlns="http://www.w3.org/2000/svg" xmlns:xlink="http://www.w3.org/1999/xlink" contentStyleType="text/css" data-diagram-type="CLASS" height="1309px" preserveAspectRatio="none" style="width:957px;height:1309px;background:#FFFFFF;" version="1.1" viewBox="0 0 957 1309" width="957px" zoomAndPan="magnify"><defs/><g><!--class VatAuditLog--><g class="entity" data-qualified-name="VatAuditLog" data-source-line="10" id="ent0002"><rect fill="#FAFAFA" height="195.8379" rx="2.5" ry="2.5" style="stroke:#888888;stroke-width:0.5;" width="299.2461" x="488.6" y="7"/><ellipse cx="588.0111" cy="26.7217" fill="#ADD1B2" rx="11" ry="11" style="stroke:#181818;stroke-width:1;"/><path d="M590.4843,32.8647 Q589.9032,33.1636 589.2641,33.313 Q588.6249,33.4624 587.9193,33.4624 Q585.4125,33.4624 584.0927,31.8105 Q582.7729,30.1587 582.7729,27.0376 Q582.7729,23.9082 584.0927,22.2563 Q585.4125,20.6045 587.9193,20.6045 Q588.6249,20.6045 589.2724,20.7539 Q589.9198,20.9033 590.4843,21.2021 L590.4843,23.9248 Q589.8534,23.3438 589.2599,23.074 Q588.6664,22.8042 588.0355,22.8042 Q586.6908,22.8042 586.006,23.8708 Q585.3212,24.9375 585.3212,27.0376 Q585.3212,29.1294 586.006,30.196 Q586.6908,31.2627 588.0355,31.2627 Q588.6664,31.2627 589.2599,30.9929 Q589.8534,30.7231 590.4843,30.1421 Z " fill="#000000"/><text fill="#000000" font-family="sans-serif" font-size="12" font-style="italic" lengthAdjust="spacing" textLength="95.9238" x="606.5111" y="23.6016">&#171;vat_audit_logs&#187;</text><text fill="#000000" font-family="sans-serif" font-size="13" lengthAdjust="spacing" textLength="77.4033" x="615.7714" y="38.7012">VatAuditLog</text><line style="stroke:#888888;stroke-width:0.5;" x1="489.6" x2="786.8461" y1="46.4434" y2="46.4434"/><text fill="#000000" font-family="sans-serif" font-size="14" lengthAdjust="spacing" textLength="91.2256" x="494.6" y="63.9785">+id : int &#171;PK&#187;</text><text fill="#000000" font-family="sans-serif" font-size="14" lengthAdjust="spacing" textLength="287.2461" x="494.6" y="80.4668">+work_item_id : int &#171;FK&#8594;vat_work_items&#187;</text><text fill="#000000" font-family="sans-serif" font-size="14" lengthAdjust="spacing" textLength="223.248" x="494.6" y="96.9551">+performed_by : int &#171;FK&#8594;users&#187;</text><text fill="#000000" font-family="sans-serif" font-size="14" lengthAdjust="spacing" textLength="83.9932" x="494.6" y="113.4434">+action : str</text><text fill="#000000" font-family="sans-serif" font-size="14" lengthAdjust="spacing" textLength="121.1533" x="494.6" y="129.9316">+old_value : text?</text><text fill="#000000" font-family="sans-serif" font-size="14" lengthAdjust="spacing" textLength="126.9707" x="494.6" y="146.4199">+new_value : text?</text><text fill="#000000" font-family="sans-serif" font-size="14" lengthAdjust="spacing" textLength="87.5068" x="494.6" y="162.9082">+note : text?</text><text fill="#000000" font-family="sans-serif" font-size="14" lengthAdjust="spacing" textLength="247.4473" x="494.6" y="179.3965">+invoice_id : int? &#171;FK&#8594;vat_invoices&#187;</text><text fill="#000000" font-family="sans-serif" font-size="14" lengthAdjust="spacing" textLength="175.6152" x="494.6" y="195.8848">+performed_at : datetime</text></g><!--class VatInvoice--><g class="entity" data-qualified-name="VatInvoice" data-source-line="22" id="ent0003"><rect fill="#FAFAFA" height="352.2324" rx="2.5" ry="2.5" style="stroke:#888888;stroke-width:0.5;" width="319.9521" x="248.25" y="279.84"/><ellipse cx="364.5679" cy="299.5617" fill="#ADD1B2" rx="11" ry="11" style="stroke:#181818;stroke-width:1;"/><path d="M367.041,305.7047 Q366.46,306.0036 365.8208,306.153 Q365.1816,306.3024 364.4761,306.3024 Q361.9692,306.3024 360.6494,304.6505 Q359.3296,302.9987 359.3296,299.8776 Q359.3296,296.7482 360.6494,295.0963 Q361.9692,293.4445 364.4761,293.4445 Q365.1816,293.4445 365.8291,293.5939 Q366.4766,293.7433 367.041,294.0421 L367.041,296.7648 Q366.4102,296.1838 365.8167,295.914 Q365.2231,295.6442 364.5923,295.6442 Q363.2476,295.6442 362.5627,296.7108 Q361.8779,297.7775 361.8779,299.8776 Q361.8779,301.9694 362.5627,303.036 Q363.2476,304.1027 364.5923,304.1027 Q365.2231,304.1027 365.8167,303.8329 Q366.4102,303.5631 367.041,302.9821 Z " fill="#000000"/><text fill="#000000" font-family="sans-serif" font-size="12" font-style="italic" lengthAdjust="spacing" textLength="82.8164" x="383.0679" y="296.4416">&#171;vat_invoices&#187;</text><text fill="#000000" font-family="sans-serif" font-size="13" lengthAdjust="spacing" textLength="64.7271" x="392.1125" y="311.5412">VatInvoice</text><line style="stroke:#888888;stroke-width:0.5;" x1="249.25" x2="567.2021" y1="319.2834" y2="319.2834"/><text fill="#000000" font-family="sans-serif" font-size="14" lengthAdjust="spacing" textLength="91.2256" x="254.25" y="336.8185">+id : int &#171;PK&#187;</text><text fill="#000000" font-family="sans-serif" font-size="14" lengthAdjust="spacing" textLength="287.2461" x="254.25" y="353.3068">+work_item_id : int &#171;FK&#8594;vat_work_items&#187;</text><text fill="#000000" font-family="sans-serif" font-size="14" lengthAdjust="spacing" textLength="202.0293" x="254.25" y="369.7951">+created_by : int &#171;FK&#8594;users&#187;</text><text fill="#000000" font-family="sans-serif" font-size="14" lengthAdjust="spacing" textLength="306.7559" x="254.25" y="386.2834">+business_activity_id : int? &#171;FK&#8594;businesses&#187;</text><text fill="#000000" font-family="sans-serif" font-size="14" lengthAdjust="spacing" textLength="188.542" x="254.25" y="402.7716">+invoice_type : InvoiceType</text><text fill="#000000" font-family="sans-serif" font-size="14" lengthAdjust="spacing" textLength="237.0703" x="254.25" y="419.2599">+document_type : DocumentType?</text><text fill="#000000" font-family="sans-serif" font-size="14" lengthAdjust="spacing" textLength="149.9053" x="254.25" y="435.7482">+invoice_number : str</text><text fill="#000000" font-family="sans-serif" font-size="14" lengthAdjust="spacing" textLength="138.1748" x="254.25" y="452.2365">+invoice_date : date</text><text fill="#000000" font-family="sans-serif" font-size="14" lengthAdjust="spacing" textLength="173.5439" x="254.25" y="468.7248">+counterparty_name : str</text><text fill="#000000" font-family="sans-serif" font-size="14" lengthAdjust="spacing" textLength="155.0186" x="254.25" y="485.213">+counterparty_id : str?</text><text fill="#000000" font-family="sans-serif" font-size="14" lengthAdjust="spacing" textLength="307.9521" x="254.25" y="501.7013">+counterparty_id_type : CounterpartyIdType?</text><text fill="#000000" font-family="sans-serif" font-size="14" lengthAdjust="spacing" textLength="269.4932" x="254.25" y="518.1896">+expense_category : ExpenseCategory?</text><text fill="#000000" font-family="sans-serif" font-size="14" lengthAdjust="spacing" textLength="171.5957" x="254.25" y="534.6779">+rate_type : VatRateType</text><text fill="#000000" font-family="sans-serif" font-size="14" lengthAdjust="spacing" textLength="151.1768" x="254.25" y="551.1662">+is_exceptional : bool</text><text fill="#000000" font-family="sans-serif" font-size="14" lengthAdjust="spacing" textLength="124.2432" x="254.25" y="567.6545">+created_at : date</text><line style="stroke:#888888;stroke-width:0.5;" x1="249.25" x2="567.2021" y1="574.6076" y2="574.6076"/><text fill="#000000" font-family="sans-serif" font-size="14" lengthAdjust="spacing" textLength="197.9277" x="254.25" y="592.1427">+net_amount : decimal(12,2)</text><text fill="#000000" font-family="sans-serif" font-size="14" lengthAdjust="spacing" textLength="196.417" x="254.25" y="608.631">+vat_amount : decimal(12,2)</text><text fill="#000000" font-family="sans-serif" font-size="14" lengthAdjust="spacing" textLength="209.6855" x="254.25" y="625.1193">+deduction_rate : decimal(5,4)</text></g><!--class VatWorkItem--><g class="entity" data-qualified-name="VatWorkItem" data-source-line="43" id="ent0004"><rect fill="#FAFAFA" height="484.1387" rx="2.5" ry="2.5" style="stroke:#888888;stroke-width:0.5;" width="325.0928" x="344.68" y="709.07"/><ellipse cx="453.7742" cy="728.7917" fill="#ADD1B2" rx="11" ry="11" style="stroke:#181818;stroke-width:1;"/><path d="M456.2474,734.9347 Q455.6663,735.2336 455.0272,735.383 Q454.388,735.5324 453.6824,735.5324 Q451.1756,735.5324 449.8558,733.8805 Q448.536,732.2287 448.536,729.1076 Q448.536,725.9782 449.8558,724.3263 Q451.1756,722.6745 453.6824,722.6745 Q454.388,722.6745 455.0355,722.8239 Q455.6829,722.9733 456.2474,723.2721 L456.2474,725.9948 Q455.6165,725.4138 455.023,725.144 Q454.4295,724.8742 453.7987,724.8742 Q452.4539,724.8742 451.7691,725.9408 Q451.0843,727.0075 451.0843,729.1076 Q451.0843,731.1994 451.7691,732.266 Q452.4539,733.3327 453.7987,733.3327 Q454.4295,733.3327 455.023,733.0629 Q455.6165,732.7931 456.2474,732.2121 Z " fill="#000000"/><text fill="#000000" font-family="sans-serif" font-size="12" font-style="italic" lengthAdjust="spacing" textLength="102.4043" x="472.2742" y="725.6716">&#171;vat_work_items&#187;</text><text fill="#000000" font-family="sans-serif" font-size="13" lengthAdjust="spacing" textLength="80.5518" x="483.2005" y="740.7712">VatWorkItem</text><line style="stroke:#888888;stroke-width:0.5;" x1="345.68" x2="668.7728" y1="748.5134" y2="748.5134"/><text fill="#000000" font-family="sans-serif" font-size="14" lengthAdjust="spacing" textLength="91.2256" x="350.68" y="766.0485">+id : int &#171;PK&#187;</text><text fill="#000000" font-family="sans-serif" font-size="14" lengthAdjust="spacing" textLength="193.1084" x="350.68" y="782.5368">+client_id : int &#171;FK&#8594;clients&#187;</text><text fill="#000000" font-family="sans-serif" font-size="14" lengthAdjust="spacing" textLength="202.0293" x="350.68" y="799.0251">+created_by : int &#171;FK&#8594;users&#187;</text><text fill="#000000" font-family="sans-serif" font-size="14" lengthAdjust="spacing" textLength="215.4482" x="350.68" y="815.5134">+assigned_to : int? &#171;FK&#8594;users&#187;</text><text fill="#000000" font-family="sans-serif" font-size="14" lengthAdjust="spacing" textLength="159.2773" x="350.68" y="832.0016">+period_type : VatType</text><text fill="#000000" font-family="sans-serif" font-size="14" lengthAdjust="spacing" textLength="193.9014" x="350.68" y="848.4899">+status : VatWorkItemStatus</text><text fill="#000000" font-family="sans-serif" font-size="14" lengthAdjust="spacing" textLength="219.6113" x="350.68" y="864.9782">+pending_materials_note : text?</text><text fill="#000000" font-family="sans-serif" font-size="14" lengthAdjust="spacing" textLength="145.9199" x="350.68" y="881.4665">+is_overridden : bool</text><text fill="#000000" font-family="sans-serif" font-size="14" lengthAdjust="spacing" textLength="199.9785" x="350.68" y="897.9548">+override_justification : text?</text><text fill="#000000" font-family="sans-serif" font-size="14" lengthAdjust="spacing" textLength="295.8525" x="350.68" y="914.443">+submission_method : SubmissionMethod?</text><text fill="#000000" font-family="sans-serif" font-size="14" lengthAdjust="spacing" textLength="139.877" x="350.68" y="930.9313">+filed_at : datetime?</text><text fill="#000000" font-family="sans-serif" font-size="14" lengthAdjust="spacing" textLength="187.5098" x="350.68" y="947.4196">+filed_by : int? &#171;FK&#8594;users&#187;</text><text fill="#000000" font-family="sans-serif" font-size="14" lengthAdjust="spacing" textLength="153.5557" x="350.68" y="963.9079">+is_amendment : bool</text><text fill="#000000" font-family="sans-serif" font-size="14" lengthAdjust="spacing" textLength="313.0928" x="350.68" y="980.3962">+amends_item_id : int? &#171;FK&#8594;vat_work_items&#187;</text><text fill="#000000" font-family="sans-serif" font-size="14" lengthAdjust="spacing" textLength="154.3965" x="350.68" y="996.8845">+created_at : datetime</text><text fill="#000000" font-family="sans-serif" font-size="14" lengthAdjust="spacing" textLength="160.0088" x="350.68" y="1013.3727">+updated_at : datetime</text><text fill="#000000" font-family="sans-serif" font-size="14" lengthAdjust="spacing" textLength="160.3301" x="350.68" y="1029.861">+deleted_at : datetime?</text><text fill="#000000" font-family="sans-serif" font-size="14" lengthAdjust="spacing" textLength="207.9629" x="350.68" y="1046.3493">+deleted_by : int? &#171;FK&#8594;users&#187;</text><line style="stroke:#888888;stroke-width:0.5;" x1="345.68" x2="668.7728" y1="1053.3024" y2="1053.3024"/><text fill="#000000" font-family="sans-serif" font-size="14" lengthAdjust="spacing" textLength="104.2754" x="350.68" y="1070.8376">+period : str(7)</text><text fill="#000000" font-family="sans-serif" font-size="14" lengthAdjust="spacing" textLength="227.5137" x="350.68" y="1087.3259">+total_output_vat : decimal(12,2)</text><text fill="#000000" font-family="sans-serif" font-size="14" lengthAdjust="spacing" textLength="217.7246" x="350.68" y="1103.8141">+total_input_vat : decimal(12,2)</text><text fill="#000000" font-family="sans-serif" font-size="14" lengthAdjust="spacing" textLength="166.127" x="350.68" y="1120.3024">+net_vat : decimal(12,2)</text><text fill="#000000" font-family="sans-serif" font-size="14" lengthAdjust="spacing" textLength="229.0244" x="350.68" y="1136.7907">+total_output_net : decimal(12,2)</text><text fill="#000000" font-family="sans-serif" font-size="14" lengthAdjust="spacing" textLength="219.2354" x="350.68" y="1153.279">+total_input_net : decimal(12,2)</text><text fill="#000000" font-family="sans-serif" font-size="14" lengthAdjust="spacing" textLength="238.9844" x="350.68" y="1169.7673">+final_vat_amount : decimal(12,2)?</text><text fill="#000000" font-family="sans-serif" font-size="14" lengthAdjust="spacing" textLength="232.1143" x="350.68" y="1186.2555">+submission_reference : str(100)?</text></g><!--class User--><g class="entity" data-qualified-name="User" data-source-line="77" id="ent0009"><rect fill="#FAFAFA" height="32" rx="2.5" ry="2.5" style="stroke:#888888;stroke-width:0.5;" width="60.1963" x="422.12" y="1270.21"/><ellipse cx="437.12" cy="1286.21" fill="#ADD1B2" rx="11" ry="11" style="stroke:#181818;stroke-width:1;"/><path d="M439.5931,1292.3531 Q439.0121,1292.6519 438.3729,1292.8013 Q437.7338,1292.9507 437.0282,1292.9507 Q434.5214,1292.9507 433.2015,1291.2989 Q431.8817,1289.647 431.8817,1286.5259 Q431.8817,1283.3965 433.2015,1281.7447 Q434.5214,1280.0928 437.0282,1280.0928 Q437.7338,1280.0928 438.3812,1280.2422 Q439.0287,1280.3916 439.5931,1280.6905 L439.5931,1283.4131 Q438.9623,1282.8321 438.3688,1282.5623 Q437.7753,1282.2925 437.1444,1282.2925 Q435.7997,1282.2925 435.1149,1283.3592 Q434.4301,1284.4258 434.4301,1286.5259 Q434.4301,1288.6177 435.1149,1289.6844 Q435.7997,1290.751 437.1444,1290.751 Q437.7753,1290.751 438.3688,1290.4812 Q438.9623,1290.2115 439.5931,1289.6304 Z " fill="#000000"/><text fill="#000000" font-family="sans-serif" font-size="13" lengthAdjust="spacing" textLength="28.1963" x="451.12" y="1291.1231">User</text></g><!--class Business--><g class="entity" data-qualified-name="Business" data-source-line="80" id="ent0013"><rect fill="#FAFAFA" height="32" rx="2.5" ry="2.5" style="stroke:#888888;stroke-width:0.5;" width="86.4946" x="222.98" y="935.14"/><ellipse cx="237.98" cy="951.14" fill="#ADD1B2" rx="11" ry="11" style="stroke:#181818;stroke-width:1;"/><path d="M240.4531,957.2831 Q239.8721,957.5819 239.2329,957.7313 Q238.5938,957.8807 237.8882,957.8807 Q235.3814,957.8807 234.0615,956.2289 Q232.7417,954.577 232.7417,951.4559 Q232.7417,948.3265 234.0615,946.6747 Q235.3814,945.0228 237.8882,945.0228 Q238.5938,945.0228 239.2412,945.1722 Q239.8887,945.3216 240.4531,945.6205 L240.4531,948.3431 Q239.8223,947.7621 239.2288,947.4923 Q238.6353,947.2225 238.0044,947.2225 Q236.6597,947.2225 235.9749,948.2892 Q235.2901,949.3558 235.2901,951.4559 Q235.2901,953.5477 235.9749,954.6144 Q236.6597,955.681 238.0044,955.681 Q238.6353,955.681 239.2288,955.4112 Q239.8223,955.1415 240.4531,954.5604 Z " fill="#000000"/><text fill="#000000" font-family="sans-serif" font-size="13" lengthAdjust="spacing" textLength="54.4946" x="251.98" y="956.0531">Business</text></g><!--class Client--><g class="entity" data-qualified-name="Client" data-source-line="81" id="ent0015"><rect fill="#FAFAFA" height="32" rx="2.5" ry="2.5" style="stroke:#888888;stroke-width:0.5;" width="68.6831" x="680.88" y="1270.21"/><ellipse cx="695.88" cy="1286.21" fill="#ADD1B2" rx="11" ry="11" style="stroke:#181818;stroke-width:1;"/><path d="M698.3531,1292.3531 Q697.7721,1292.6519 697.1329,1292.8013 Q696.4938,1292.9507 695.7882,1292.9507 Q693.2814,1292.9507 691.9615,1291.2989 Q690.6417,1289.647 690.6417,1286.5259 Q690.6417,1283.3965 691.9615,1281.7447 Q693.2814,1280.0928 695.7882,1280.0928 Q696.4938,1280.0928 697.1412,1280.2422 Q697.7887,1280.3916 698.3531,1280.6905 L698.3531,1283.4131 Q697.7223,1282.8321 697.1288,1282.5623 Q696.5353,1282.2925 695.9044,1282.2925 Q694.5597,1282.2925 693.8749,1283.3592 Q693.1901,1284.4258 693.1901,1286.5259 Q693.1901,1288.6177 693.8749,1289.6844 Q694.5597,1290.751 695.9044,1290.751 Q696.5353,1290.751 697.1288,1290.4812 Q697.7223,1290.2115 698.3531,1289.6304 Z " fill="#000000"/><text fill="#000000" font-family="sans-serif" font-size="13" lengthAdjust="spacing" textLength="36.6831" x="709.88" y="1291.1231">Client</text></g><!--link VatInvoice to VatWorkItem--><g class="link" data-entity-1="ent0003" data-entity-2="ent0004" data-link-type="dependency" data-source-line="72" id="lnk5"><path codeLine="72" d="M477.75,632.49 C480.54,642.42 483.07,652.32 485.22,662.07 C488.58,677.25 490.541,687.0493 492.981,702.9693" fill="none" id="VatInvoice-to-VatWorkItem" style="stroke:#555555;stroke-width:1;"/><polygon fill="#555555" points="493.89,708.9,496.4804,699.3979,493.1325,703.9577,488.5727,700.6099,493.89,708.9" style="stroke:#555555;stroke-width:1;"/><text fill="#000000" font-family="sans-serif" font-size="13" lengthAdjust="spacing" textLength="65.4189" x="489.39" y="675.6384">work_item</text><text fill="#000000" font-family="sans-serif" font-size="13" lengthAdjust="spacing" textLength="24.667" x="469.0696" y="698.2789">0..1</text></g><!--link VatWorkItem to VatInvoice--><g class="link" data-entity-1="ent0004" data-entity-2="ent0003" data-link-type="dependency" data-source-line="73" id="lnk6"><path codeLine="73" d="M431.34,708.79 C429.11,698.79 427.05,688.86 425.22,679.07 C422.39,663.96 420.7691,654.1443 418.7991,638.2743" fill="none" id="VatWorkItem-to-VatInvoice" style="stroke:#555555;stroke-width:1;"/><polygon fill="#555555" points="418.06,632.32,415.1992,641.7442,418.6759,637.2819,423.1382,640.7587,418.06,632.32" style="stroke:#555555;stroke-width:1;"/><text fill="#000000" font-family="sans-serif" font-size="13" lengthAdjust="spacing" textLength="50.8257" x="426.22" y="675.6384">invoices</text><text fill="#000000" font-family="sans-serif" font-size="13" lengthAdjust="spacing" textLength="22.7119" x="396.0258" y="652.6517">0..*</text></g><!--link VatWorkItem to VatWorkItem--><g class="link" data-entity-1="ent0004" data-entity-2="ent0004" data-link-type="dependency" data-source-line="74" id="lnk7"><path codeLine="74" d="M669.97,905.04 C690.93,913.03 704.77,928.4 704.77,951.14 C704.77,973.88 696.5356,987.1105 675.5756,995.1105" fill="none" id="VatWorkItem-to-VatWorkItem" style="stroke:#555555;stroke-width:1;"/><polygon fill="#555555" points="669.97,997.25,679.8047,997.7778,674.6413,995.4671,676.952,990.3037,669.97,997.25" style="stroke:#555555;stroke-width:1;"/><text fill="#000000" font-family="sans-serif" font-size="13" lengthAdjust="spacing" textLength="82.4307" x="710.77" y="956.2084">original_item</text><text fill="#000000" font-family="sans-serif" font-size="13" lengthAdjust="spacing" textLength="24.667" x="677.9032" y="996.5749">0..1</text></g><!--link VatAuditLog to VatWorkItem--><g class="link" data-entity-1="ent0002" data-entity-2="ent0004" data-link-type="dependency" data-source-line="76" id="lnk8"><path codeLine="76" d="M632.54,202.96 C625.37,308.96 610.8,483.46 585.22,632.07 C580.93,657.01 577.0555,677.0171 571.4555,702.7571" fill="none" id="VatAuditLog-to-VatWorkItem" style="stroke:#555555;stroke-width:1;stroke-dasharray:7,7;"/><polygon fill="#555555" points="570.18,708.62,576.0019,700.6761,571.2429,703.7343,568.1847,698.9754,570.18,708.62" style="stroke:#555555;stroke-width:1;"/><text fill="#000000" font-family="sans-serif" font-size="13" lengthAdjust="spacing" textLength="83.8589" x="627.67" y="461.0284">work_item_id</text></g><!--link VatAuditLog to User--><g class="link" data-entity-1="ent0002" data-entity-2="ent0009" data-link-type="dependency" data-source-line="77" id="lnk10"><path codeLine="77" d="M686.67,203.02 C777.34,399.12 950.44,852.69 799.22,1193.21 C786.58,1221.68 775.37,1226.85 747.22,1240.21 C700.65,1262.31 554.2085,1276.7331 488.6385,1282.2931" fill="none" id="VatAuditLog-to-User" style="stroke:#555555;stroke-width:1;stroke-dasharray:7,7;"/><polygon fill="#555555" points="482.66,1282.8,491.9658,1286.0253,487.6421,1282.3775,491.2899,1278.0539,482.66,1282.8" style="stroke:#555555;stroke-width:1;"/><text fill="#000000" font-family="sans-serif" font-size="13" lengthAdjust="spacing" textLength="87.8643" x="839.97" y="675.6384">performed_by</text></g><!--link VatAuditLog to VatInvoice--><g class="link" data-entity-1="ent0002" data-entity-2="ent0003" data-link-type="dependency" data-source-line="78" id="lnk11"><path codeLine="78" d="M568.4,203.25 C561.51,213.19 554.68,223.18 548.22,232.84 C538.15,247.9 531.0896,258.6027 520.8396,274.4427" fill="none" id="VatAuditLog-to-VatInvoice" style="stroke:#555555;stroke-width:1;stroke-dasharray:7,7;"/><polygon fill="#555555" points="517.58,279.48,525.8277,274.0971,520.2964,275.2822,519.1112,269.7509,517.58,279.48" style="stroke:#555555;stroke-width:1;"/><text fill="#000000" font-family="sans-serif" font-size="13" lengthAdjust="spacing" textLength="62.6387" x="549.22" y="246.4084">invoice_id</text></g><!--link VatInvoice to User--><g class="link" data-entity-1="ent0003" data-entity-2="ent0009" data-link-type="dependency" data-source-line="79" id="lnk12"><path codeLine="79" d="M247.83,565.32 C202.81,604.77 159.54,653.52 135.22,709.07 C48.95,906.19 6,1021.16 135.22,1193.21 C170.2,1239.78 343.5238,1269.5175 415.9138,1280.1575" fill="none" id="VatInvoice-to-User" style="stroke:#555555;stroke-width:1;stroke-dasharray:7,7;"/><polygon fill="#555555" points="421.85,1281.03,413.5273,1275.7637,416.9031,1280.3029,412.364,1283.6787,421.85,1281.03" style="stroke:#555555;stroke-width:1;"/><text fill="#000000" font-family="sans-serif" font-size="13" lengthAdjust="spacing" textLength="68.1611" x="136.22" y="956.2084">created_by</text></g><!--link VatInvoice to Business--><g class="link" data-entity-1="ent0003" data-entity-2="ent0013" data-link-type="dependency" data-source-line="80" id="lnk14"><path codeLine="80" d="M300.02,632.29 C295.97,642.19 292.32,652.15 289.22,662.07 C257.97,762.16 262.0541,884.8412 264.7341,928.7112" fill="none" id="VatInvoice-to-Business" style="stroke:#555555;stroke-width:1;stroke-dasharray:7,7;"/><polygon fill="#555555" points="265.1,934.7,268.5438,925.4728,264.7951,929.7093,260.5587,925.9607,265.1,934.7" style="stroke:#555555;stroke-width:1;"/><text fill="#000000" font-family="sans-serif" font-size="13" lengthAdjust="spacing" textLength="124.7378" x="290.22" y="675.6384">business_activity_id</text></g><!--link VatWorkItem to Client--><g class="link" data-entity-1="ent0004" data-entity-2="ent0015" data-link-type="dependency" data-source-line="81" id="lnk16"><path codeLine="81" d="M657.84,1193.32 C678.17,1225.87 692.3223,1248.5406 702.4623,1264.7806" fill="none" id="VatWorkItem-to-Client" style="stroke:#555555;stroke-width:1;stroke-dasharray:7,7;"/><polygon fill="#555555" points="705.64,1269.87,704.2663,1260.1174,702.9919,1265.6288,697.4805,1264.3544,705.64,1269.87" style="stroke:#555555;stroke-width:1;"/><text fill="#000000" font-family="sans-serif" font-size="13" lengthAdjust="spacing" textLength="52.7871" x="686.03" y="1236.7784">client_id</text></g><!--link VatWorkItem to User--><g class="link" data-entity-1="ent0004" data-entity-2="ent0009" data-link-type="dependency" data-source-line="82" id="lnk17"><path codeLine="82" d="M401.18,1193.39 C398.54,1203.37 396.2,1213.34 394.22,1223.21 C392.74,1230.62 390.9,1233.42 394.22,1240.21 C400.28,1252.57 406.5633,1259.1734 417.5633,1266.5334" fill="none" id="VatWorkItem-to-User" style="stroke:#555555;stroke-width:1;stroke-dasharray:7,7;"/><polygon fill="#555555" points="422.55,1269.87,417.2943,1261.5407,418.3944,1267.0895,412.8455,1268.1896,422.55,1269.87" style="stroke:#555555;stroke-width:1;"/><text fill="#000000" font-family="sans-serif" font-size="13" lengthAdjust="spacing" textLength="68.1611" x="395.22" y="1236.7784">created_by</text></g><!--link VatWorkItem to User--><g class="link" data-entity-1="ent0004" data-entity-2="ent0009" data-link-type="dependency" data-source-line="83" id="lnk18"><path codeLine="83" d="M478.35,1193.33 C475.28,1209.26 471.91,1225.01 468.22,1240.21 C465.76,1250.36 464.0078,1255.8253 460.6678,1264.4453" fill="none" id="VatWorkItem-to-User-1" style="stroke:#555555;stroke-width:1;stroke-dasharray:7,7;"/><polygon fill="#555555" points="458.5,1270.04,465.4815,1263.0931,460.3065,1265.3777,458.0219,1260.2028,458.5,1270.04" style="stroke:#555555;stroke-width:1;"/><text fill="#000000" font-family="sans-serif" font-size="13" lengthAdjust="spacing" textLength="75.1372" x="472.77" y="1236.7784">assigned_to</text></g><!--link VatWorkItem to User--><g class="link" data-entity-1="ent0004" data-entity-2="ent0009" data-link-type="dependency" data-source-line="84" id="lnk19"><path codeLine="84" d="M576.32,1193.45 C572.91,1209.91 566.79,1225.7 557.22,1240.21 C540.74,1265.21 513.0537,1275.2042 488.2837,1280.1542" fill="none" id="VatWorkItem-to-User-2" style="stroke:#555555;stroke-width:1;stroke-dasharray:7,7;"/><polygon fill="#555555" points="482.4,1281.33,492.0094,1283.4888,487.3031,1280.3502,490.4416,1275.6439,482.4,1281.33" style="stroke:#555555;stroke-width:1;"/><text fill="#000000" font-family="sans-serif" font-size="13" lengthAdjust="spacing" textLength="49.1943" x="565.9" y="1236.7784">filed_by</text></g><!--link VatWorkItem to User--><g class="link" data-entity-1="ent0004" data-entity-2="ent0009" data-link-type="dependency" data-source-line="85" id="lnk20"><path codeLine="85" d="M344.2,1165.98 C329.78,1188.65 318.86,1208.7 314.22,1223.21 C299.55,1269.12 370.834,1280.6597 415.774,1283.7397" fill="none" id="VatWorkItem-to-User-3" style="stroke:#555555;stroke-width:1;stroke-dasharray:7,7;"/><polygon fill="#555555" points="421.76,1284.15,413.0546,1279.544,416.7717,1283.8081,412.5076,1287.5253,421.76,1284.15" style="stroke:#555555;stroke-width:1;"/><text fill="#000000" font-family="sans-serif" font-size="13" lengthAdjust="spacing" textLength="68.1865" x="315.22" y="1236.7784">deleted_by</text></g><?plantuml-src hLRRRXCn47tVhx3AGnDegvQBG15AL0ALge90BPV7bREUR4szzihsfWsNLpw0J-HB67kz6s-o2poGF7dcs3DpvdYy--IbAYYN4xAYDjLGAcqD8Ty8AHI32LbMGYJxv1NBWGZ8GR89EJoSahUNRuW6GIrNqbppSZGcX1mTJSdPnQ6IOar6KdK0u-IQCo1Gb7PD2YWMe4rYRhWigQO5oGGrvjHQpHULXVDCoIl-1SZnDkHCIUiz9uyYrwdMwdQkXDBatXF_Yvnpj--5qWnqW3pplnq8pMvohIh90kpirFsJn0Sc7wazhHYthrLEdZztR56tJ8NApNHAlYQ4FE2CJ0YN5W7lBgPJPxfL-YRb5eeqSfvT_FhnqntHUasDBa4lbIw0fOjr5rqP9Am6qSoHYcvZjLihmT8L5HMWoSATdJcZXDiUexATDPShnJDeKvl5kGNdJcRK8fXH2vONa7oF-3clTmHwDll_4pcP1epwHseMbU4IZ4aTHojkrxkbDP2ci8O3kouTDw66zxXoNgQogW1f6_VBi7R-3eMoSfBUDAMnEw82Nxu6r9S5ZRB3t2GjOBEZu_9fesFMusbocKVcSzPc906bMJYVYmiPBwWOdJmyU3XsNY_SGI_SbI0Df1cccoljY7vLc-R1uaDeN3HPODylSTaI1gpo-anrg3p4U7Bms8VW9eMx34g7eG812wL4tDvMNnrjVK8ndACMWhXYRGpAAnFSjMvRMxNvtqM56V1S8iQgBIr58BmVN8McZPwEDwQ8fuOZOwcjJ6rhwhhojdgRP5pcQO5vQKw5IRUlhLMMYbHLjgmiNlBUJjOO773342UKF-uE4H3tjmW3a2N75gV3afi5GQWLQCqP0ndf8HWX_LmPovSyes7ijJoOQb5mR0wAhG1xxUc_Qcrll6bMvo6s1rTaRrhVrzOeX8ObQ91PkBAZa-FZjW2yo9AvkH3bxsscEzvc_pBVkWCM7LN9-XqC1DZUoXhFO6rujwA9xPxqlUEZevEzpbsRa3R79BOtyFjxyTXtWUgHtmlUELjfddk1-FFtsqy7mUMDyHyGsryPJZs2Qc3ZIHA_n-x3Oo1lf7u7-i7uIHq_jdt7xTGLpchiqL6RAR8DU16U6oUCdiUfmvJ3p_rmSaSsmsi7qXkp3n4DhY58SmE6_1iT9Ry1?></g></svg>