<?plantuml 1.2026.2?><svg xmlns="http://www.w3.org/2000/svg" xmlns:xlink="http://www.w3.org/1999/xlink" contentStyleType="text/css" data-diagram-type="CLASS" height="343px" preserveAspectRatio="none" style="width:718px;height:343px;background:#FFFFFF;" version="1.1" viewBox="0 0 718 343" width="718px" zoomAndPan="magnify"><defs/><g><!--class AdvancePaymentStatus--><g class="entity" data-qualified-name="AdvancePaymentStatus" data-source-line="10" id="ent0002"><rect fill="#FAFAFA" height="105.9531" rx="2.5" ry="2.5" style="stroke:#888888;stroke-width:0.5;" width="177.0947" x="7" y="64.19"/><ellipse cx="22" cy="80.19" fill="#EB937F" rx="11" ry="11" style="stroke:#181818;stroke-width:1;"/><path d="M25.6143,86.69 L17.8945,86.69 L17.8945,74.2969 L25.6143,74.2969 L25.6143,76.4551 L20.3433,76.4551 L20.3433,79.128 L25.1162,79.128 L25.1162,81.2862 L20.3433,81.2862 L20.3433,84.5318 L25.6143,84.5318 Z " fill="#000000"/><text fill="#000000" font-family="sans-serif" font-size="13" lengthAdjust="spacing" textLength="145.0947" x="36" y="85.1031">AdvancePaymentStatus</text><line style="stroke:#888888;stroke-width:0.5;" x1="8" x2="183.0947" y1="96.19" y2="96.19"/><text fill="#000000" font-family="sans-serif" font-size="14" lengthAdjust="spacing" textLength="55.5762" x="13" y="113.7252">pending</text><text fill="#000000" font-family="sans-serif" font-size="14" lengthAdjust="spacing" textLength="29.4014" x="13" y="130.2134">paid</text><text fill="#000000" font-family="sans-serif" font-size="14" lengthAdjust="spacing" textLength="43.333" x="13" y="146.7017">partial</text><text fill="#000000" font-family="sans-serif" font-size="14" lengthAdjust="spacing" textLength="54.6738" x="13" y="163.19">overdue</text></g><!--class PaymentMethod--><g class="entity" data-qualified-name="PaymentMethod" data-source-line="17" id="ent0003"><rect fill="#FAFAFA" height="138.9297" rx="2.5" ry="2.5" style="stroke:#888888;stroke-width:0.5;" width="133.0039" x="219.05" y="47.7"/><ellipse cx="234.05" cy="63.7" fill="#EB937F" rx="11" ry="11" style="stroke:#181818;stroke-width:1;"/><path d="M237.6643,70.2 L229.9445,70.2 L229.9445,57.8069 L237.6643,57.8069 L237.6643,59.9651 L232.3933,59.9651 L232.3933,62.638 L237.1662,62.638 L237.1662,64.7962 L232.3933,64.7962 L232.3933,68.0418 L237.6643,68.0418 Z " fill="#000000"/><text fill="#000000" font-family="sans-serif" font-size="13" lengthAdjust="spacing" textLength="101.0039" x="248.05" y="68.6131">PaymentMethod</text><line style="stroke:#888888;stroke-width:0.5;" x1="220.05" x2="351.0539" y1="79.7" y2="79.7"/><text fill="#000000" font-family="sans-serif" font-size="14" lengthAdjust="spacing" textLength="93.6113" x="225.05" y="97.2352">bank_transfer</text><text fill="#000000" font-family="sans-serif" font-size="14" lengthAdjust="spacing" textLength="75.2363" x="225.05" y="113.7234">credit_card</text><text fill="#000000" font-family="sans-serif" font-size="14" lengthAdjust="spacing" textLength="39.0127" x="225.05" y="130.2117">check</text><text fill="#000000" font-family="sans-serif" font-size="14" lengthAdjust="spacing" textLength="80.5" x="225.05" y="146.7">direct_debit</text><text fill="#000000" font-family="sans-serif" font-size="14" lengthAdjust="spacing" textLength="30.7275" x="225.05" y="163.1883">cash</text><text fill="#000000" font-family="sans-serif" font-size="14" lengthAdjust="spacing" textLength="36.0527" x="225.05" y="179.6766">other</text></g><!--class AdvancePayment--><g class="entity" data-qualified-name="AdvancePayment" data-source-line="26" id="ent0004"><rect fill="#FAFAFA" height="220.3262" rx="2.5" ry="2.5" style="stroke:#888888;stroke-width:0.5;" width="268.9561" x="387.07" y="7"/><ellipse cx="458.1672" cy="26.7217" fill="#ADD1B2" rx="11" ry="11" style="stroke:#181818;stroke-width:1;"/><path d="M460.6403,32.8647 Q460.0593,33.1636 459.4201,33.313 Q458.7809,33.4624 458.0754,33.4624 Q455.5685,33.4624 454.2487,31.8105 Q452.9289,30.1587 452.9289,27.0376 Q452.9289,23.9082 454.2487,22.2563 Q455.5685,20.6045 458.0754,20.6045 Q458.7809,20.6045 459.4284,20.7539 Q460.0759,20.9033 460.6403,21.2021 L460.6403,23.9248 Q460.0095,23.3438 459.4159,23.074 Q458.8224,22.8042 458.1916,22.8042 Q456.8469,22.8042 456.162,23.8708 Q455.4772,24.9375 455.4772,27.0376 Q455.4772,29.1294 456.162,30.196 Q456.8469,31.2627 458.1916,31.2627 Q458.8224,31.2627 459.4159,30.9929 Q460.0095,30.7231 460.6403,30.1421 Z " fill="#000000"/><text fill="#000000" font-family="sans-serif" font-size="12" font-style="italic" lengthAdjust="spacing" textLength="122.2617" x="476.6672" y="23.6016">&#171;advance_payments&#187;</text><text fill="#000000" font-family="sans-serif" font-size="13" lengthAdjust="spacing" textLength="106.4946" x="484.5507" y="38.7012">AdvancePayment</text><line style="stroke:#888888;stroke-width:0.5;" x1="388.07" x2="655.0261" y1="46.4434" y2="46.4434"/><text fill="#000000" font-family="sans-serif" font-size="14" lengthAdjust="spacing" textLength="91.2256" x="393.07" y="63.9785">+id : int &#171;PK&#187;</text><text fill="#000000" font-family="sans-serif" font-size="14" lengthAdjust="spacing" textLength="189.9912" x="393.07" y="80.4668">+period_months_count : int</text><text fill="#000000" font-family="sans-serif" font-size="14" lengthAdjust="spacing" textLength="115.876" x="393.07" y="96.9551">+due_date : date</text><text fill="#000000" font-family="sans-serif" font-size="14" lengthAdjust="spacing" textLength="221.8398" x="393.07" y="113.4434">+status : AdvancePaymentStatus</text><text fill="#000000" font-family="sans-serif" font-size="14" lengthAdjust="spacing" textLength="139.4258" x="393.07" y="129.9316">+paid_at : datetime?</text><text fill="#000000" font-family="sans-serif" font-size="14" lengthAdjust="spacing" textLength="256.9561" x="393.07" y="146.4199">+payment_method : PaymentMethod?</text><line style="stroke:#888888;stroke-width:0.5;" x1="388.07" x2="655.0261" y1="153.373" y2="153.373"/><text fill="#000000" font-family="sans-serif" font-size="14" lengthAdjust="spacing" textLength="104.2754" x="393.07" y="170.9082">+period : str(7)</text><text fill="#000000" font-family="sans-serif" font-size="14" lengthAdjust="spacing" textLength="244.125" x="393.07" y="187.3965">+expected_amount : decimal(10,2)?</text><text fill="#000000" font-family="sans-serif" font-size="14" lengthAdjust="spacing" textLength="205.6045" x="393.07" y="203.8848">+paid_amount : decimal(10,2)</text><text fill="#000000" font-family="sans-serif" font-size="14" lengthAdjust="spacing" textLength="121.5498" x="393.07" y="220.373">+notes : str(500)?</text></g><!--class Client--><g class="entity" data-qualified-name="Client" data-source-line="40" id="ent0005"><rect fill="#FAFAFA" height="32" rx="2.5" ry="2.5" style="stroke:#888888;stroke-width:0.5;" width="68.6831" x="359.21" y="304.33"/><ellipse cx="374.21" cy="320.33" fill="#ADD1B2" rx="11" ry="11" style="stroke:#181818;stroke-width:1;"/><path d="M376.6831,326.4731 Q376.1021,326.7719 375.4629,326.9213 Q374.8238,327.0707 374.1182,327.0707 Q371.6114,327.0707 370.2915,325.4189 Q368.9717,323.767 368.9717,320.6459 Q368.9717,317.5165 370.2915,315.8647 Q371.6114,314.2128 374.1182,314.2128 Q374.8238,314.2128 375.4712,314.3622 Q376.1187,314.5116 376.6831,314.8105 L376.6831,317.5331 Q376.0523,316.9521 375.4588,316.6823 Q374.8653,316.4125 374.2344,316.4125 Q372.8897,316.4125 372.2049,317.4792 Q371.5201,318.5458 371.5201,320.6459 Q371.5201,322.7377 372.2049,323.8044 Q372.8897,324.871 374.2344,324.871 Q374.8653,324.871 375.4588,324.6012 Q376.0523,324.3315 376.6831,323.7504 Z " fill="#000000"/><text fill="#000000" font-family="sans-serif" font-size="13" lengthAdjust="spacing" textLength="36.6831" x="388.21" y="325.2431">Client</text></g><!--class AnnualReport--><g class="entity" data-qualified-name="AnnualReport" data-source-line="41" id="ent0007"><rect fill="#FAFAFA" height="32" rx="2.5" ry="2.5" style="stroke:#888888;stroke-width:0.5;" width="117.9219" x="462.59" y="304.33"/><ellipse cx="477.59" cy="320.33" fill="#ADD1B2" rx="11" ry="11" style="stroke:#181818;stroke-width:1;"/><path d="M480.0631,326.4731 Q479.4821,326.7719 478.8429,326.9213 Q478.2038,327.0707 477.4982,327.0707 Q474.9914,327.0707 473.6715,325.4189 Q472.3517,323.767 472.3517,320.6459 Q472.3517,317.5165 473.6715,315.8647 Q474.9914,314.2128 477.4982,314.2128 Q478.2038,314.2128 478.8512,314.3622 Q479.4987,314.5116 480.0631,314.8105 L480.0631,317.5331 Q479.4323,316.9521 478.8388,316.6823 Q478.2453,316.4125 477.6144,316.4125 Q476.2697,316.4125 475.5849,317.4792 Q474.9001,318.5458 474.9001,320.6459 Q474.9001,322.7377 475.5849,323.8044 Q476.2697,324.871 477.6144,324.871 Q478.2453,324.871 478.8388,324.6012 Q479.4323,324.3315 480.0631,323.7504 Z " fill="#000000"/><text fill="#000000" font-family="sans-serif" font-size="13" lengthAdjust="spacing" textLength="85.9219" x="491.59" y="325.2431">AnnualReport</text></g><!--class User--><g class="entity" data-qualified-name="User" data-source-line="42" id="ent0009"><rect fill="#FAFAFA" height="32" rx="2.5" ry="2.5" style="stroke:#888888;stroke-width:0.5;" width="60.1963" x="639.45" y="304.33"/><ellipse cx="654.45" cy="320.33" fill="#ADD1B2" rx="11" ry="11" style="stroke:#181818;stroke-width:1;"/><path d="M656.9231,326.4731 Q656.3421,326.7719 655.7029,326.9213 Q655.0638,327.0707 654.3582,327.0707 Q651.8514,327.0707 650.5315,325.4189 Q649.2117,323.767 649.2117,320.6459 Q649.2117,317.5165 650.5315,315.8647 Q651.8514,314.2128 654.3582,314.2128 Q655.0638,314.2128 655.7112,314.3622 Q656.3587,314.5116 656.9231,314.8105 L656.9231,317.5331 Q656.2923,316.9521 655.6988,316.6823 Q655.1053,316.4125 654.4744,316.4125 Q653.1297,316.4125 652.4449,317.4792 Q651.7601,318.5458 651.7601,320.6459 Q651.7601,322.7377 652.4449,323.8044 Q653.1297,324.871 654.4744,324.871 Q655.1053,324.871 655.6988,324.6012 Q656.2923,324.3315 656.9231,323.7504 Z " fill="#000000"/><text fill="#000000" font-family="sans-serif" font-size="13" lengthAdjust="spacing" textLength="28.1963" x="668.45" y="325.2431">User</text></g><!--link AdvancePayment to Client--><g class="link" data-entity-1="ent0004" data-entity-2="ent0005" data-link-type="dependency" data-source-line="40" id="lnk6"><path codeLine="40" d="M451.93,227.58 C432.7,257.8 417.3713,281.898 406.5213,298.948" fill="none" id="AdvancePayment-to-Client" style="stroke:#555555;stroke-width:1;stroke-dasharray:7,7;"/><polygon fill="#555555" points="403.3,304.01,411.5065,298.5645,405.9844,299.7917,404.7572,294.2695,403.3,304.01" style="stroke:#555555;stroke-width:1;"/><text fill="#000000" font-family="sans-serif" font-size="13" lengthAdjust="spacing" textLength="52.7871" x="432.37" y="270.8984">client_id</text></g><!--link AdvancePayment to AnnualReport--><g class="link" data-entity-1="ent0004" data-entity-2="ent0007" data-link-type="dependency" data-source-line="41" id="lnk8"><path codeLine="41" d="M517.99,227.81 C517.9,243.43 518.05,259.29 518.55,274.33 C518.88,284.19 519.1551,289.2673 519.8151,297.9473" fill="none" id="AdvancePayment-to-AnnualReport" style="stroke:#555555;stroke-width:1;stroke-dasharray:7,7;"/><polygon fill="#555555" points="520.27,303.93,523.5761,294.6526,519.8909,298.9444,515.5992,295.2592,520.27,303.93" style="stroke:#555555;stroke-width:1;"/><text fill="#000000" font-family="sans-serif" font-size="13" lengthAdjust="spacing" textLength="106.1709" x="519.55" y="270.8984">annual_report_id</text></g><!--link AdvancePayment to User--><g class="link" data-entity-1="ent0004" data-entity-2="ent0009" data-link-type="dependency" data-source-line="42" id="lnk10"><path codeLine="42" d="M608.89,227.52 C616.34,237.5 623.66,247.54 630.55,257.33 C641.45,272.83 649.7777,286.1483 657.4277,298.8683" fill="none" id="AdvancePayment-to-User" style="stroke:#555555;stroke-width:1;stroke-dasharray:7,7;"/><polygon fill="#555555" points="660.52,304.01,659.3093,294.2358,657.9431,299.7252,652.4537,298.3589,660.52,304.01" style="stroke:#555555;stroke-width:1;"/><text fill="#000000" font-family="sans-serif" font-size="13" lengthAdjust="spacing" textLength="68.1865" x="642.79" y="270.8984">deleted_by</text></g><?plantuml-src TP9jQnin3CVVtwSGx4KIrfHqesmSvKQMBJ1AMMdPwqEnjPo97mvProrx-EwpdMDjqzP-OLlwIvP_rWG-1OV6ru3w3hsYjiUz8oyHu0-02vfgKC7rgAIQm6Uz9R2q9QzhcCyR-7fp1KmMnGGVEzDFPm1mUjh0-d8UlDt3r8T7WbdL6Kr0hfSzE78RubZ5dV4zCZfG5cDSYh3P349VLF2tvXV1ubYo3bwAv-pj0zUIEVnO1HiONfsNyS2vod4V0slYKVA-Z2SILBijXy7hKRPUvbbLv8TqnG7JzO7IhQ0C4NvN07rYOlmsxz3eih0Oj6aNxeZrGDNVCSSOV4NI1Ls2D-XthJ3w-9qudHMJDj8gv9n9TQHsQTM6IKchQMCacp5sERjqAIRbBc2E2eIBY-EFRPfovMkZeGPJ9DUNJPDDFR49sHo5f-zczwRM9TvTR5N28eUmx4oFQZKA9KjUieb-zgb6qYswKQj96OTsUhOuUJFxK78cG2_uipiUeDRFihwFb_5MCOx6j4NNkWFN-Z7d8l51A8xlEryiKZc9s-H_irhZTx6qx75Vvoejfb-PrTKHuTpjAskeF4QLJPiQu1dLqli1xGtrWRCMox7bSduXv5iaBemiPQYRVVKF?></g></svg>