<?plantuml 1.2026.2?><svg xmlns="http://www.w3.org/2000/svg" xmlns:xlink="http://www.w3.org/1999/xlink" contentStyleType="text/css" data-diagram-type="CLASS" height="285px" preserveAspectRatio="none" style="width:397px;height:285px;background:#FFFFFF;" version="1.1" viewBox="0 0 397 285" width="397px" zoomAndPan="magnify"><defs/><g><!--class ContactType--><g class="entity" data-qualified-name="ContactType" data-source-line="10" id="ent0002"><rect fill="#FAFAFA" height="105.9531" rx="2.5" ry="2.5" style="stroke:#888888;stroke-width:0.5;" width="139.4492" x="7" y="35.45"/><ellipse cx="34.7808" cy="51.45" fill="#EB937F" rx="11" ry="11" style="stroke:#181818;stroke-width:1;"/><path d="M38.3951,57.95 L30.6754,57.95 L30.6754,45.5569 L38.3951,45.5569 L38.3951,47.7151 L33.1241,47.7151 L33.1241,50.388 L37.897,50.388 L37.897,52.5462 L33.1241,52.5462 L33.1241,55.7918 L38.3951,55.7918 Z " fill="#000000"/><text fill="#000000" font-family="sans-serif" font-size="13" lengthAdjust="spacing" textLength="79.0474" x="51.621" y="56.3631">ContactType</text><line style="stroke:#888888;stroke-width:0.5;" x1="8" x2="145.4492" y1="67.45" y2="67.45"/><text fill="#000000" font-family="sans-serif" font-size="14" lengthAdjust="spacing" textLength="116.1836" x="13" y="84.9852">assessing_officer</text><text fill="#000000" font-family="sans-serif" font-size="14" lengthAdjust="spacing" textLength="74.0332" x="13" y="101.4734">vat_branch</text><text fill="#000000" font-family="sans-serif" font-size="14" lengthAdjust="spacing" textLength="127.4492" x="13" y="117.9617">national_insurance</text><text fill="#000000" font-family="sans-serif" font-size="14" lengthAdjust="spacing" textLength="36.0527" x="13" y="134.45">other</text></g><!--class AuthorityContact--><g class="entity" data-qualified-name="AuthorityContact" data-source-line="17" id="ent0003"><rect fill="#FAFAFA" height="162.8613" rx="2.5" ry="2.5" style="stroke:#888888;stroke-width:0.5;" width="207.542" x="180.95" y="7"/><ellipse cx="222.7782" cy="26.7217" fill="#ADD1B2" rx="11" ry="11" style="stroke:#181818;stroke-width:1;"/><path d="M225.2513,32.8647 Q224.6703,33.1636 224.0311,33.313 Q223.3919,33.4624 222.6864,33.4624 Q220.1795,33.4624 218.8597,31.8105 Q217.5399,30.1587 217.5399,27.0376 Q217.5399,23.9082 218.8597,22.2563 Q220.1795,20.6045 222.6864,20.6045 Q223.3919,20.6045 224.0394,20.7539 Q224.6869,20.9033 225.2513,21.2021 L225.2513,23.9248 Q224.6205,23.3438 224.027,23.074 Q223.4334,22.8042 222.8026,22.8042 Q221.4579,22.8042 220.773,23.8708 Q220.0882,24.9375 220.0882,27.0376 Q220.0882,29.1294 220.773,30.196 Q221.4579,31.2627 222.8026,31.2627 Q223.4334,31.2627 224.027,30.9929 Q224.6205,30.7231 225.2513,30.1421 Z " fill="#000000"/><text fill="#000000" font-family="sans-serif" font-size="12" font-style="italic" lengthAdjust="spacing" textLength="119.9238" x="240.74" y="23.6016">&#171;authority_contacts&#187;</text><text fill="#000000" font-family="sans-serif" font-size="13" lengthAdjust="spacing" textLength="107.2944" x="247.0547" y="38.7012">AuthorityContact</text><line style="stroke:#888888;stroke-width:0.5;" x1="181.95" x2="387.492" y1="46.4434" y2="46.4434"/><text fill="#000000" font-family="sans-serif" font-size="14" lengthAdjust="spacing" textLength="91.2256" x="186.95" y="63.9785">+id : int &#171;PK&#187;</text><text fill="#000000" font-family="sans-serif" font-size="14" lengthAdjust="spacing" textLength="195.542" x="186.95" y="80.4668">+contact_type : ContactType</text><text fill="#000000" font-family="sans-serif" font-size="14" lengthAdjust="spacing" textLength="79.8096" x="186.95" y="96.9551">+name : str</text><text fill="#000000" font-family="sans-serif" font-size="14" lengthAdjust="spacing" textLength="86.3379" x="186.95" y="113.4434">+office : str?</text><text fill="#000000" font-family="sans-serif" font-size="14" lengthAdjust="spacing" textLength="91.0137" x="186.95" y="129.9316">+phone : str?</text><text fill="#000000" font-family="sans-serif" font-size="14" lengthAdjust="spacing" textLength="85.1211" x="186.95" y="146.4199">+email : str?</text><text fill="#000000" font-family="sans-serif" font-size="14" lengthAdjust="spacing" textLength="94.6436" x="186.95" y="162.9082">+notes : text?</text></g><!--class Client--><g class="entity" data-qualified-name="Client" data-source-line="28" id="ent0004"><rect fill="#FAFAFA" height="32" rx="2.5" ry="2.5" style="stroke:#888888;stroke-width:0.5;" width="68.6831" x="200.38" y="246.86"/><ellipse cx="215.38" cy="262.86" fill="#ADD1B2" rx="11" ry="11" style="stroke:#181818;stroke-width:1;"/><path d="M217.8531,269.0031 Q217.2721,269.3019 216.6329,269.4513 Q215.9938,269.6007 215.2882,269.6007 Q212.7814,269.6007 211.4615,267.9489 Q210.1417,266.297 210.1417,263.1759 Q210.1417,260.0465 211.4615,258.3947 Q212.7814,256.7428 215.2882,256.7428 Q215.9938,256.7428 216.6412,256.8922 Q217.2887,257.0416 217.8531,257.3405 L217.8531,260.0631 Q217.2223,259.4821 216.6288,259.2123 Q216.0353,258.9425 215.4044,258.9425 Q214.0597,258.9425 213.3749,260.0092 Q212.6901,261.0758 212.6901,263.1759 Q212.6901,265.2677 213.3749,266.3344 Q214.0597,267.401 215.4044,267.401 Q216.0353,267.401 216.6288,267.1312 Q217.2223,266.8615 217.8531,266.2804 Z " fill="#000000"/><text fill="#000000" font-family="sans-serif" font-size="13" lengthAdjust="spacing" textLength="36.6831" x="229.38" y="267.7731">Client</text></g><!--class User--><g class="entity" data-qualified-name="User" data-source-line="29" id="ent0006"><rect fill="#FAFAFA" height="32" rx="2.5" ry="2.5" style="stroke:#888888;stroke-width:0.5;" width="60.1963" x="303.63" y="246.86"/><ellipse cx="318.63" cy="262.86" fill="#ADD1B2" rx="11" ry="11" style="stroke:#181818;stroke-width:1;"/><path d="M321.1031,269.0031 Q320.5221,269.3019 319.8829,269.4513 Q319.2438,269.6007 318.5382,269.6007 Q316.0314,269.6007 314.7115,267.9489 Q313.3917,266.297 313.3917,263.1759 Q313.3917,260.0465 314.7115,258.3947 Q316.0314,256.7428 318.5382,256.7428 Q319.2438,256.7428 319.8912,256.8922 Q320.5387,257.0416 321.1031,257.3405 L321.1031,260.0631 Q320.4723,259.4821 319.8788,259.2123 Q319.2853,258.9425 318.6544,258.9425 Q317.3097,258.9425 316.6249,260.0092 Q315.9401,261.0758 315.9401,263.1759 Q315.9401,265.2677 316.6249,266.3344 Q317.3097,267.401 318.6544,267.401 Q319.2853,267.401 319.8788,267.1312 Q320.4723,266.8615 321.1031,266.2804 Z " fill="#000000"/><text fill="#000000" font-family="sans-serif" font-size="13" lengthAdjust="spacing" textLength="28.1963" x="332.63" y="267.7731">User</text></g><!--link AuthorityContact to Client--><g class="link" data-entity-1="ent0003" data-entity-2="ent0004" data-link-type="dependency" data-source-line="28" id="lnk5"><path codeLine="28" d="M261.26,170.34 C252.84,199.39 245.8524,223.4878 240.8024,240.8878" fill="none" id="AuthorityContact-to-Client" style="stroke:#555555;stroke-width:1;stroke-dasharray:7,7;"/><polygon fill="#555555" points="239.13,246.65,245.48,239.1216,240.5236,241.8481,237.7971,236.8918,239.13,246.65" style="stroke:#555555;stroke-width:1;"/><text fill="#000000" font-family="sans-serif" font-size="13" lengthAdjust="spacing" textLength="52.7871" x="253.32" y="213.4284">client_id</text></g><!--link AuthorityContact to User--><g class="link" data-entity-1="ent0003" data-entity-2="ent0006" data-link-type="dependency" data-source-line="29" id="lnk7"><path codeLine="29" d="M307.72,170.34 C315.97,199.39 322.8213,223.4781 327.7613,240.8781" fill="none" id="AuthorityContact-to-User" style="stroke:#555555;stroke-width:1;stroke-dasharray:7,7;"/><polygon fill="#555555" points="329.4,246.65,330.7899,236.8997,328.0344,241.8401,323.094,239.0846,329.4,246.65" style="stroke:#555555;stroke-width:1;"/><text fill="#000000" font-family="sans-serif" font-size="13" lengthAdjust="spacing" textLength="68.1865" x="321.58" y="213.4284">deleted_by</text></g><?plantuml-src RP9TJ-im38RlyoiiSJ4cD0H2IAYQYiPW4aBe83wkgwmnQxJKhXBtd5C-_Zj9Dr1X93VnwoVjwzWZkEHQMyf0jrAnjz8L9PFeKW3U06esc479THCLDO8hiq9mk48o6KmcEVovlmMFJejb2fLjziS0S7YOm-9cmkGws2V-1enLPGq2rerqK6EzH1zKM5jgjDSrb4w7C1FnTjaANaSl3_O5uUWdieWc-ypnoI0ryvx_pTcnXxtJVWsIytJlWhr1lqNE-hM3w7AzyjoIsMABMTfA8RKHsRpEOzSWl2g0U053iBGg-FdPbkYZzbTBiVIQoYe6r9UkNM4fj4d4AB9KaNnNgYy6Pf-Fl_qwJASx_GXvtl_mm1h8m5A2xcxoF4bRf93aAXjwJ5dITLA396y76vkR-3m9JSKqZ34EX1l4n88XneB_vJnv7dqrrrbQXxx5F-S03CRIF9fnfdQgI_CnTnPZ3N6u-aDXpU_SKq0VAOCE1KsnxDG7?></g></svg>