<?plantuml 1.2026.2?><svg xmlns="http://www.w3.org/2000/svg" xmlns:xlink="http://www.w3.org/1999/xlink" contentStyleType="text/css" data-diagram-type="CLASS" height="791px" preserveAspectRatio="none" style="width:1007px;height:791px;background:#FFFFFF;" version="1.1" viewBox="0 0 1007 791" width="1007px" zoomAndPan="magnify"><defs/><g><!--class BinderStatus--><g class="entity" data-qualified-name="BinderStatus" data-source-line="10" id="ent0002"><rect fill="#FAFAFA" height="89.4648" rx="2.5" ry="2.5" style="stroke:#888888;stroke-width:0.5;" width="128.5732" x="263.05" y="72.96"/><ellipse cx="286.1166" cy="88.96" fill="#EB937F" rx="11" ry="11" style="stroke:#181818;stroke-width:1;"/><path d="M289.7309,95.46 L282.0111,95.46 L282.0111,83.0669 L289.7309,83.0669 L289.7309,85.2251 L284.4599,85.2251 L284.4599,87.898 L289.2328,87.898 L289.2328,90.0562 L284.4599,90.0562 L284.4599,93.3018 L289.7309,93.3018 Z " fill="#000000"/><text fill="#000000" font-family="sans-serif" font-size="13" lengthAdjust="spacing" textLength="78.6475" x="301.9092" y="93.8731">BinderStatus</text><line style="stroke:#888888;stroke-width:0.5;" x1="264.05" x2="390.6232" y1="104.96" y2="104.96"/><text fill="#000000" font-family="sans-serif" font-size="14" lengthAdjust="spacing" textLength="57.6475" x="269.05" y="122.4952">in_office</text><text fill="#000000" font-family="sans-serif" font-size="14" lengthAdjust="spacing" textLength="116.5732" x="269.05" y="138.9834">ready_for_pickup</text><text fill="#000000" font-family="sans-serif" font-size="14" lengthAdjust="spacing" textLength="58.4814" x="269.05" y="155.4717">returned</text></g><!--class Binder--><g class="entity" data-qualified-name="Binder" data-source-line="16" id="ent0003"><rect fill="#FAFAFA" height="195.8379" rx="2.5" ry="2.5" style="stroke:#888888;stroke-width:0.5;" width="204.1924" x="217.25" y="305.37"/><ellipse cx="288.9419" cy="325.0917" fill="#ADD1B2" rx="11" ry="11" style="stroke:#181818;stroke-width:1;"/><path d="M291.415,331.2347 Q290.834,331.5336 290.1948,331.683 Q289.5557,331.8324 288.8501,331.8324 Q286.3433,331.8324 285.0234,330.1805 Q283.7036,328.5287 283.7036,325.4076 Q283.7036,322.2782 285.0234,320.6263 Q286.3433,318.9745 288.8501,318.9745 Q289.5557,318.9745 290.2031,319.1239 Q290.8506,319.2733 291.415,319.5721 L291.415,322.2948 Q290.7842,321.7138 290.1907,321.444 Q289.5972,321.1742 288.9663,321.1742 Q287.6216,321.1742 286.9368,322.2408 Q286.252,323.3075 286.252,325.4076 Q286.252,327.4994 286.9368,328.566 Q287.6216,329.6327 288.9663,329.6327 Q289.5972,329.6327 290.1907,329.3629 Q290.7842,329.0931 291.415,328.5121 Z " fill="#000000"/><text fill="#000000" font-family="sans-serif" font-size="12" font-style="italic" lengthAdjust="spacing" textLength="56.3086" x="307.4419" y="321.9716">&#171;binders&#187;</text><text fill="#000000" font-family="sans-serif" font-size="13" lengthAdjust="spacing" textLength="40.0474" x="315.5725" y="337.0712">Binder</text><line style="stroke:#888888;stroke-width:0.5;" x1="218.25" x2="420.4424" y1="344.8134" y2="344.8134"/><text fill="#000000" font-family="sans-serif" font-size="14" lengthAdjust="spacing" textLength="91.2256" x="223.25" y="362.3485">+id : int &#171;PK&#187;</text><text fill="#000000" font-family="sans-serif" font-size="14" lengthAdjust="spacing" textLength="146.1934" x="223.25" y="378.8368">+binder_number : str</text><text fill="#000000" font-family="sans-serif" font-size="14" lengthAdjust="spacing" textLength="135.8643" x="223.25" y="395.3251">+period_start : date</text><text fill="#000000" font-family="sans-serif" font-size="14" lengthAdjust="spacing" textLength="136.001" x="223.25" y="411.8134">+period_end : date?</text><text fill="#000000" font-family="sans-serif" font-size="14" lengthAdjust="spacing" textLength="150.2813" x="223.25" y="428.3016">+status : BinderStatus</text><text fill="#000000" font-family="sans-serif" font-size="14" lengthAdjust="spacing" textLength="138.3525" x="223.25" y="444.7899">+returned_at : date?</text><text fill="#000000" font-family="sans-serif" font-size="14" lengthAdjust="spacing" textLength="192.1924" x="223.25" y="461.2782">+pickup_person_name : str?</text><text fill="#000000" font-family="sans-serif" font-size="14" lengthAdjust="spacing" textLength="94.5889" x="223.25" y="477.7665">+is_full : bool</text><text fill="#000000" font-family="sans-serif" font-size="14" lengthAdjust="spacing" textLength="94.6436" x="223.25" y="494.2548">+notes : text?</text></g><!--class BinderIntake--><g class="entity" data-qualified-name="BinderIntake" data-source-line="28" id="ent0004"><rect fill="#FAFAFA" height="96.9082" rx="2.5" ry="2.5" style="stroke:#888888;stroke-width:0.5;" width="142.3682" x="390.16" y="578.21"/><ellipse cx="412.5081" cy="597.9317" fill="#ADD1B2" rx="11" ry="11" style="stroke:#181818;stroke-width:1;"/><path d="M414.9812,604.0747 Q414.4002,604.3736 413.761,604.523 Q413.1219,604.6724 412.4163,604.6724 Q409.9095,604.6724 408.5896,603.0205 Q407.2698,601.3687 407.2698,598.2476 Q407.2698,595.1182 408.5896,593.4663 Q409.9095,591.8145 412.4163,591.8145 Q413.1219,591.8145 413.7693,591.9639 Q414.4168,592.1133 414.9812,592.4121 L414.9812,595.1348 Q414.3504,594.5538 413.7569,594.284 Q413.1634,594.0142 412.5325,594.0142 Q411.1878,594.0142 410.503,595.0808 Q409.8182,596.1475 409.8182,598.2476 Q409.8182,600.3394 410.503,601.406 Q411.1878,602.4727 412.5325,602.4727 Q413.1634,602.4727 413.7569,602.2029 Q414.3504,601.9331 414.9812,601.3521 Z " fill="#000000"/><text fill="#000000" font-family="sans-serif" font-size="12" font-style="italic" lengthAdjust="spacing" textLength="98.0391" x="426.141" y="594.8116">&#171;binder_intakes&#187;</text><text fill="#000000" font-family="sans-serif" font-size="13" lengthAdjust="spacing" textLength="78.7427" x="435.7892" y="609.9112">BinderIntake</text><line style="stroke:#888888;stroke-width:0.5;" x1="391.16" x2="531.5282" y1="617.6534" y2="617.6534"/><text fill="#000000" font-family="sans-serif" font-size="14" lengthAdjust="spacing" textLength="91.2256" x="396.16" y="635.1885">+id : int &#171;PK&#187;</text><text fill="#000000" font-family="sans-serif" font-size="14" lengthAdjust="spacing" textLength="130.3682" x="396.16" y="651.6768">+received_at : date</text><text fill="#000000" font-family="sans-serif" font-size="14" lengthAdjust="spacing" textLength="94.6436" x="396.16" y="668.1651">+notes : text?</text></g><!--class MaterialType--><g class="entity" data-qualified-name="MaterialType" data-source-line="34" id="ent0005"><rect fill="#FAFAFA" height="221.3711" rx="2.5" ry="2.5" style="stroke:#888888;stroke-width:0.5;" width="170.6826" x="635" y="7"/><ellipse cx="675.9875" cy="23" fill="#EB937F" rx="11" ry="11" style="stroke:#181818;stroke-width:1;"/><path d="M679.6018,29.5 L671.882,29.5 L671.882,17.1069 L679.6018,17.1069 L679.6018,19.2651 L674.3308,19.2651 L674.3308,21.938 L679.1037,21.938 L679.1037,24.0962 L674.3308,24.0962 L674.3308,27.3418 L679.6018,27.3418 Z " fill="#000000"/><text fill="#000000" font-family="sans-serif" font-size="13" lengthAdjust="spacing" textLength="80.9326" x="695.7625" y="27.9131">MaterialType</text><line style="stroke:#888888;stroke-width:0.5;" x1="636" x2="804.6826" y1="39" y2="39"/><text fill="#000000" font-family="sans-serif" font-size="14" lengthAdjust="spacing" textLength="20.2139" x="641" y="56.5352">vat</text><text fill="#000000" font-family="sans-serif" font-size="14" lengthAdjust="spacing" textLength="77.9297" x="641" y="73.0234">income_tax</text><text fill="#000000" font-family="sans-serif" font-size="14" lengthAdjust="spacing" textLength="94.4795" x="641" y="89.5117">annual_report</text><text fill="#000000" font-family="sans-serif" font-size="14" lengthAdjust="spacing" textLength="39.6895" x="641" y="106">salary</text><text fill="#000000" font-family="sans-serif" font-size="14" lengthAdjust="spacing" textLength="88.252" x="641" y="122.4883">bookkeeping</text><text fill="#000000" font-family="sans-serif" font-size="14" lengthAdjust="spacing" textLength="127.4492" x="641" y="138.9766">national_insurance</text><text fill="#000000" font-family="sans-serif" font-size="14" lengthAdjust="spacing" textLength="127.3672" x="641" y="155.4648">capital_declaration</text><text fill="#000000" font-family="sans-serif" font-size="14" lengthAdjust="spacing" textLength="158.6826" x="641" y="171.9531">pension_and_insurance</text><text fill="#000000" font-family="sans-serif" font-size="14" lengthAdjust="spacing" textLength="104.125" x="641" y="188.4414">corporate_docs</text><text fill="#000000" font-family="sans-serif" font-size="14" lengthAdjust="spacing" textLength="107.4268" x="641" y="204.9297">tax_assessment</text><text fill="#000000" font-family="sans-serif" font-size="14" lengthAdjust="spacing" textLength="36.0527" x="641" y="221.418">other</text></g><!--class BinderIntakeMaterial--><g class="entity" data-qualified-name="BinderIntakeMaterial" data-source-line="48" id="ent0006"><rect fill="#FAFAFA" height="96.9082" rx="2.5" ry="2.5" style="stroke:#888888;stroke-width:0.5;" width="215.1299" x="692.78" y="354.84"/><ellipse cx="723.8055" cy="374.5617" fill="#ADD1B2" rx="11" ry="11" style="stroke:#181818;stroke-width:1;"/><path d="M726.2787,380.7047 Q725.6976,381.0036 725.0585,381.153 Q724.4193,381.3024 723.7137,381.3024 Q721.2069,381.3024 719.8871,379.6505 Q718.5673,377.9987 718.5673,374.8776 Q718.5673,371.7482 719.8871,370.0963 Q721.2069,368.4445 723.7137,368.4445 Q724.4193,368.4445 725.0668,368.5939 Q725.7142,368.7433 726.2787,369.0421 L726.2787,371.7648 Q725.6478,371.1838 725.0543,370.914 Q724.4608,370.6442 723.83,370.6442 Q722.4852,370.6442 721.8004,371.7108 Q721.1156,372.7775 721.1156,374.8776 Q721.1156,376.9694 721.8004,378.036 Q722.4852,379.1027 723.83,379.1027 Q724.4608,379.1027 725.0543,378.8329 Q725.6478,378.5631 726.2787,377.9821 Z " fill="#000000"/><text fill="#000000" font-family="sans-serif" font-size="12" font-style="italic" lengthAdjust="spacing" textLength="151.5176" x="739.3668" y="371.4416">&#171;binder_intake_materials&#187;</text><text fill="#000000" font-family="sans-serif" font-size="13" lengthAdjust="spacing" textLength="129.2383" x="750.5064" y="386.5412">BinderIntakeMaterial</text><line style="stroke:#888888;stroke-width:0.5;" x1="693.78" x2="906.9099" y1="394.2834" y2="394.2834"/><text fill="#000000" font-family="sans-serif" font-size="14" lengthAdjust="spacing" textLength="91.2256" x="698.78" y="411.8185">+id : int &#171;PK&#187;</text><text fill="#000000" font-family="sans-serif" font-size="14" lengthAdjust="spacing" textLength="203.1299" x="698.78" y="428.3068">+material_type : MaterialType</text><text fill="#000000" font-family="sans-serif" font-size="14" lengthAdjust="spacing" textLength="133.2598" x="698.78" y="444.7951">+description : text?</text></g><!--class BinderStatusLog--><g class="entity" data-qualified-name="BinderStatusLog" data-source-line="54" id="ent0007"><rect fill="#FAFAFA" height="129.8848" rx="2.5" ry="2.5" style="stroke:#888888;stroke-width:0.5;" width="173.7383" x="426.47" y="52.75"/><ellipse cx="452.19" cy="72.4717" fill="#ADD1B2" rx="11" ry="11" style="stroke:#181818;stroke-width:1;"/><path d="M454.6632,78.6147 Q454.0821,78.9136 453.4429,79.063 Q452.8038,79.2124 452.0982,79.2124 Q449.5914,79.2124 448.2716,77.5605 Q446.9517,75.9087 446.9517,72.7876 Q446.9517,69.6582 448.2716,68.0063 Q449.5914,66.3545 452.0982,66.3545 Q452.8038,66.3545 453.4513,66.5039 Q454.0987,66.6533 454.6632,66.9521 L454.6632,69.6748 Q454.0323,69.0938 453.4388,68.824 Q452.8453,68.5542 452.2144,68.5542 Q450.8697,68.5542 450.1849,69.6208 Q449.5001,70.6875 449.5001,72.7876 Q449.5001,74.8794 450.1849,75.946 Q450.8697,77.0127 452.2144,77.0127 Q452.8453,77.0127 453.4388,76.7429 Q454.0323,76.4731 454.6632,75.8921 Z " fill="#000000"/><text fill="#000000" font-family="sans-serif" font-size="12" font-style="italic" lengthAdjust="spacing" textLength="121.916" x="466.5722" y="69.3516">&#171;binder_status_logs&#187;</text><text fill="#000000" font-family="sans-serif" font-size="13" lengthAdjust="spacing" textLength="101.6704" x="476.695" y="84.4512">BinderStatusLog</text><line style="stroke:#888888;stroke-width:0.5;" x1="427.47" x2="599.2083" y1="92.1934" y2="92.1934"/><text fill="#000000" font-family="sans-serif" font-size="14" lengthAdjust="spacing" textLength="91.2256" x="432.47" y="109.7285">+id : int &#171;PK&#187;</text><text fill="#000000" font-family="sans-serif" font-size="14" lengthAdjust="spacing" textLength="112.1436" x="432.47" y="126.2168">+old_status : str</text><text fill="#000000" font-family="sans-serif" font-size="14" lengthAdjust="spacing" textLength="117.9609" x="432.47" y="142.7051">+new_status : str</text><text fill="#000000" font-family="sans-serif" font-size="14" lengthAdjust="spacing" textLength="161.7383" x="432.47" y="159.1934">+changed_at : datetime</text><text fill="#000000" font-family="sans-serif" font-size="14" lengthAdjust="spacing" textLength="94.6436" x="432.47" y="175.6816">+notes : text?</text></g><!--class Client--><g class="entity" data-qualified-name="Client" data-source-line="65" id="ent0010"><rect fill="#FAFAFA" height="32" rx="2.5" ry="2.5" style="stroke:#888888;stroke-width:0.5;" width="68.6831" x="7" y="610.67"/><ellipse cx="22" cy="626.67" fill="#ADD1B2" rx="11" ry="11" style="stroke:#181818;stroke-width:1;"/><path d="M24.4731,632.8131 Q23.8921,633.1119 23.2529,633.2613 Q22.6138,633.4107 21.9082,633.4107 Q19.4014,633.4107 18.0815,631.7589 Q16.7617,630.107 16.7617,626.9859 Q16.7617,623.8565 18.0815,622.2047 Q19.4014,620.5528 21.9082,620.5528 Q22.6138,620.5528 23.2612,620.7022 Q23.9087,620.8516 24.4731,621.1505 L24.4731,623.8731 Q23.8423,623.2921 23.2488,623.0223 Q22.6553,622.7525 22.0244,622.7525 Q20.6797,622.7525 19.9949,623.8192 Q19.3101,624.8858 19.3101,626.9859 Q19.3101,629.0777 19.9949,630.1444 Q20.6797,631.211 22.0244,631.211 Q22.6553,631.211 23.2488,630.9412 Q23.8423,630.6715 24.4731,630.0904 Z " fill="#000000"/><text fill="#000000" font-family="sans-serif" font-size="13" lengthAdjust="spacing" textLength="36.6831" x="36" y="631.5831">Client</text></g><!--class User--><g class="entity" data-qualified-name="User" data-source-line="66" id="ent0012"><rect fill="#FAFAFA" height="32" rx="2.5" ry="2.5" style="stroke:#888888;stroke-width:0.5;" width="60.1963" x="313.24" y="752.12"/><ellipse cx="328.24" cy="768.12" fill="#ADD1B2" rx="11" ry="11" style="stroke:#181818;stroke-width:1;"/><path d="M330.7131,774.2631 Q330.1321,774.5619 329.4929,774.7113 Q328.8538,774.8607 328.1482,774.8607 Q325.6414,774.8607 324.3215,773.2089 Q323.0017,771.557 323.0017,768.4359 Q323.0017,765.3065 324.3215,763.6547 Q325.6414,762.0028 328.1482,762.0028 Q328.8538,762.0028 329.5012,762.1522 Q330.1487,762.3016 330.7131,762.6005 L330.7131,765.3231 Q330.0823,764.7421 329.4888,764.4723 Q328.8953,764.2025 328.2644,764.2025 Q326.9197,764.2025 326.2349,765.2692 Q325.5501,766.3358 325.5501,768.4359 Q325.5501,770.5277 326.2349,771.5944 Q326.9197,772.661 328.2644,772.661 Q328.8953,772.661 329.4888,772.3912 Q330.0823,772.1215 330.7131,771.5404 Z " fill="#000000"/><text fill="#000000" font-family="sans-serif" font-size="13" lengthAdjust="spacing" textLength="28.1963" x="342.24" y="773.0331">User</text></g><!--class Business--><g class="entity" data-qualified-name="Business" data-source-line="70" id="ent0017"><rect fill="#FAFAFA" height="32" rx="2.5" ry="2.5" style="stroke:#888888;stroke-width:0.5;" width="86.4946" x="757.09" y="610.67"/><ellipse cx="772.09" cy="626.67" fill="#ADD1B2" rx="11" ry="11" style="stroke:#181818;stroke-width:1;"/><path d="M774.5631,632.8131 Q773.9821,633.1119 773.3429,633.2613 Q772.7038,633.4107 771.9982,633.4107 Q769.4914,633.4107 768.1715,631.7589 Q766.8517,630.107 766.8517,626.9859 Q766.8517,623.8565 768.1715,622.2047 Q769.4914,620.5528 771.9982,620.5528 Q772.7038,620.5528 773.3512,620.7022 Q773.9987,620.8516 774.5631,621.1505 L774.5631,623.8731 Q773.9323,623.2921 773.3388,623.0223 Q772.7453,622.7525 772.1144,622.7525 Q770.7697,622.7525 770.0849,623.8192 Q769.4001,624.8858 769.4001,626.9859 Q769.4001,629.0777 770.0849,630.1444 Q770.7697,631.211 772.1144,631.211 Q772.7453,631.211 773.3388,630.9412 Q773.9323,630.6715 774.5631,630.0904 Z " fill="#000000"/><text fill="#000000" font-family="sans-serif" font-size="13" lengthAdjust="spacing" textLength="54.4946" x="786.09" y="631.5831">Business</text></g><!--class AnnualReport--><g class="entity" data-qualified-name="AnnualReport" data-source-line="71" id="ent0019"><rect fill="#FAFAFA" height="32" rx="2.5" ry="2.5" style="stroke:#888888;stroke-width:0.5;" width="117.9219" x="878.38" y="610.67"/><ellipse cx="893.38" cy="626.67" fill="#ADD1B2" rx="11" ry="11" style="stroke:#181818;stroke-width:1;"/><path d="M895.8531,632.8131 Q895.2721,633.1119 894.6329,633.2613 Q893.9938,633.4107 893.2882,633.4107 Q890.7814,633.4107 889.4615,631.7589 Q888.1417,630.107 888.1417,626.9859 Q888.1417,623.8565 889.4615,622.2047 Q890.7814,620.5528 893.2882,620.5528 Q893.9938,620.5528 894.6412,620.7022 Q895.2887,620.8516 895.8531,621.1505 L895.8531,623.8731 Q895.2223,623.2921 894.6288,623.0223 Q894.0353,622.7525 893.4044,622.7525 Q892.0597,622.7525 891.3749,623.8192 Q890.6901,624.8858 890.6901,626.9859 Q890.6901,629.0777 891.3749,630.1444 Q892.0597,631.211 893.4044,631.211 Q894.0353,631.211 894.6288,630.9412 Q895.2223,630.6715 895.8531,630.0904 Z " fill="#000000"/><text fill="#000000" font-family="sans-serif" font-size="13" lengthAdjust="spacing" textLength="85.9219" x="907.38" y="631.5831">AnnualReport</text></g><!--link Binder to BinderIntake--><g class="link" data-entity-1="ent0003" data-entity-2="ent0004" data-link-type="dependency" data-source-line="62" id="lnk8"><path codeLine="62" d="M383.22,501.52 C389.7,511.53 396.17,521.56 402.34,531.21 C412.03,546.36 419.2852,557.8788 428.6452,572.8888" fill="none" id="Binder-to-BinderIntake" style="stroke:#555555;stroke-width:1;"/><polygon fill="#555555" points="431.82,577.98,430.4519,568.2266,429.1743,573.7373,423.6636,572.4597,431.82,577.98" style="stroke:#555555;stroke-width:1;"/><text fill="#000000" font-family="sans-serif" font-size="13" lengthAdjust="spacing" textLength="45.335" x="413.12" y="544.7784">intakes</text><text fill="#000000" font-family="sans-serif" font-size="13" lengthAdjust="spacing" textLength="22.7119" x="403.9203" y="567.3191">0..*</text></g><!--link BinderIntake to Binder--><g class="link" data-entity-1="ent0004" data-entity-2="ent0003" data-link-type="dependency" data-source-line="63" id="lnk9"><path codeLine="63" d="M389.72,586.18 C375.56,575.5 362.08,562.78 352.34,548.21 C343.01,534.25 337.979,523.7674 333.159,507.3374" fill="none" id="BinderIntake-to-Binder" style="stroke:#555555;stroke-width:1;"/><polygon fill="#555555" points="331.47,501.58,330.1653,511.3421,332.8775,506.3778,337.8418,509.09,331.47,501.58" style="stroke:#555555;stroke-width:1;"/><text fill="#000000" font-family="sans-serif" font-size="13" lengthAdjust="spacing" textLength="40.752" x="353.34" y="544.7784">binder</text><text fill="#000000" font-family="sans-serif" font-size="13" lengthAdjust="spacing" textLength="24.667" x="307.5036" y="521.9288">0..1</text></g><!--link Binder to Client--><g class="link" data-entity-1="ent0003" data-entity-2="ent0010" data-link-type="dependency" data-source-line="65" id="lnk11"><path codeLine="65" d="M216.98,432.76 C164.48,452.34 103.69,483.61 65.34,531.21 C46.77,554.27 42.642,583.9462 41.722,604.2162" fill="none" id="Binder-to-Client" style="stroke:#555555;stroke-width:1;stroke-dasharray:7,7;"/><polygon fill="#555555" points="41.45,610.21,45.854,601.4006,41.6767,605.2151,37.8622,601.0379,41.45,610.21" style="stroke:#555555;stroke-width:1;"/><text fill="#000000" font-family="sans-serif" font-size="13" lengthAdjust="spacing" textLength="52.7871" x="66.34" y="544.7784">client_id</text></g><!--link Binder to User--><g class="link" data-entity-1="ent0003" data-entity-2="ent0012" data-link-type="dependency" data-source-line="66" id="lnk13"><path codeLine="66" d="M216.88,498.72 C172.61,551.24 137.95,617.46 172.34,675.12 C202.82,726.22 266.7331,749.1192 307.1131,759.3292" fill="none" id="Binder-to-User" style="stroke:#555555;stroke-width:1;stroke-dasharray:7,7;"/><polygon fill="#555555" points="312.93,760.8,305.1851,754.7158,308.0826,759.5743,303.2241,762.4718,312.93,760.8" style="stroke:#555555;stroke-width:1;"/><text fill="#000000" font-family="sans-serif" font-size="13" lengthAdjust="spacing" textLength="68.1611" x="173.34" y="631.7384">created_by</text></g><!--link Binder to User--><g class="link" data-entity-1="ent0003" data-entity-2="ent0012" data-link-type="dependency" data-source-line="67" id="lnk14"><path codeLine="67" d="M300.62,501.43 C293.75,553.44 290.26,618.33 302.34,675.12 C308.42,703.68 321.0367,728.9186 331.1467,746.6386" fill="none" id="Binder-to-User-1" style="stroke:#555555;stroke-width:1;stroke-dasharray:7,7;"/><polygon fill="#555555" points="334.12,751.85,333.1343,742.0506,331.6422,747.5071,326.1857,746.0151,334.12,751.85" style="stroke:#555555;stroke-width:1;"/><text fill="#000000" font-family="sans-serif" font-size="13" lengthAdjust="spacing" textLength="68.1865" x="303.34" y="631.7384">deleted_by</text></g><!--link BinderIntake to User--><g class="link" data-entity-1="ent0004" data-entity-2="ent0012" data-link-type="dependency" data-source-line="68" id="lnk15"><path codeLine="68" d="M421.06,675.27 C398.5,701.94 375.7242,728.8385 360.2242,747.1685" fill="none" id="BinderIntake-to-User" style="stroke:#555555;stroke-width:1;stroke-dasharray:7,7;"/><polygon fill="#555555" points="356.35,751.75,365.2157,747.4605,359.5785,747.932,359.1069,742.2949,356.35,751.75" style="stroke:#555555;stroke-width:1;"/><text fill="#000000" font-family="sans-serif" font-size="13" lengthAdjust="spacing" textLength="73.8486" x="396.28" y="718.6884">received_by</text></g><!--link BinderIntakeMaterial to BinderIntake--><g class="link" data-entity-1="ent0006" data-entity-2="ent0004" data-link-type="dependency" data-source-line="69" id="lnk16"><path codeLine="69" d="M763.92,451.98 C738.3,482.86 701.68,522.04 662.34,548.21 C622.8,574.52 578.7386,591.9741 538.6186,604.7141" fill="none" id="BinderIntakeMaterial-to-BinderIntake" style="stroke:#555555;stroke-width:1;stroke-dasharray:7,7;"/><polygon fill="#555555" points="532.9,606.53,542.6885,607.6185,537.6655,605.0167,540.2673,599.9937,532.9,606.53" style="stroke:#555555;stroke-width:1;"/><text fill="#000000" font-family="sans-serif" font-size="13" lengthAdjust="spacing" textLength="57.1479" x="685.13" y="544.7784">intake_id</text></g><!--link BinderIntakeMaterial to Business--><g class="link" data-entity-1="ent0006" data-entity-2="ent0017" data-link-type="dependency" data-source-line="70" id="lnk18"><path codeLine="70" d="M800.34,452.06 C800.34,502.13 800.34,571.95 800.34,604.23" fill="none" id="BinderIntakeMaterial-to-Business" style="stroke:#555555;stroke-width:1;stroke-dasharray:7,7;"/><polygon fill="#555555" points="800.34,610.23,804.34,601.23,800.34,605.23,796.34,601.23,800.34,610.23" style="stroke:#555555;stroke-width:1;"/><text fill="#000000" font-family="sans-serif" font-size="13" lengthAdjust="spacing" textLength="73.6392" x="801.34" y="544.7784">business_id</text></g><!--link BinderIntakeMaterial to AnnualReport--><g class="link" data-entity-1="ent0006" data-entity-2="ent0019" data-link-type="dependency" data-source-line="71" id="lnk20"><path codeLine="71" d="M832.56,452.07 C848.22,475.68 867.12,504.71 883.34,531.21 C900.2,558.76 915.7299,586.3974 926.1099,605.1974" fill="none" id="BinderIntakeMaterial-to-AnnualReport" style="stroke:#555555;stroke-width:1;stroke-dasharray:7,7;"/><polygon fill="#555555" points="929.01,610.45,928.1616,600.6378,926.5933,606.0729,921.1582,604.5045,929.01,610.45" style="stroke:#555555;stroke-width:1;"/><text fill="#000000" font-family="sans-serif" font-size="13" lengthAdjust="spacing" textLength="106.1709" x="893.53" y="544.7784">annual_report_id</text></g><!--link BinderStatusLog to Binder--><g class="link" data-entity-1="ent0007" data-entity-2="ent0003" data-link-type="dependency" data-source-line="72" id="lnk21"><path codeLine="72" d="M469.32,183.04 C444.67,219.08 416.8172,259.7876 389.2472,300.0976" fill="none" id="BinderStatusLog-to-Binder" style="stroke:#555555;stroke-width:1;stroke-dasharray:7,7;"/><polygon fill="#555555" points="385.86,305.05,394.2425,299.8795,388.6827,300.923,387.6392,295.3632,385.86,305.05" style="stroke:#555555;stroke-width:1;"/><text fill="#000000" font-family="sans-serif" font-size="13" lengthAdjust="spacing" textLength="59.1919" x="417.34" y="271.9384">binder_id</text></g><!--link BinderStatusLog to User--><g class="link" data-entity-1="ent0007" data-entity-2="ent0012" data-link-type="dependency" data-source-line="73" id="lnk22"><path codeLine="73" d="M526.02,182.8 C549.94,310.56 595.46,591.79 550.34,675.12 C515.61,739.27 428.4768,758.041 379.8468,763.911" fill="none" id="BinderStatusLog-to-User" style="stroke:#555555;stroke-width:1;stroke-dasharray:7,7;"/><polygon fill="#555555" points="373.89,764.63,383.3045,767.5226,378.854,764.0308,382.3458,759.5803,373.89,764.63" style="stroke:#555555;stroke-width:1;"/><text fill="#000000" font-family="sans-serif" font-size="13" lengthAdjust="spacing" textLength="74.9785" x="570.48" y="544.7784">changed_by</text></g><?plantuml-src VLHjJzim4FwUNt5Y7u1DhK3Jf2b2HOKD2J6q2RRFbXjVMwlEER8Te7lvxpixIPkKqlQBSy_Zk-TUVCVmnPPIKmupJGgT1_WBK5g5EHIsh6GHicFugXO81XT8AeVHQ0BV7-x1eP51M_9BNPsS0i1uF86Rkv4biuOJiWF2QRRK2W7BAgoXn7B6eJA_qbH99qieZFH-6eBJiphWRM7fKVz6EDkbt5WA2Jd_s8EcpjddQskiWtUVqgy7NiTxLzPnSYtbS_gzeiXYjN2s9jNIRgRndsL8TGbNgJgFGORQmvyCG9EmyxakaCyEfLgBkNMYqiMghf8fr8vGPV-oB2blFS35HLleoIJv-Q0LvEmjCFBZRZA9feOXE2wNYL4VN3HNwBHLmWVf0bkL3DWpSszQusMq-aPgFb0UWKwPaA7FRvGBTkOj2P8bDe4JgBsOryQmPMQjYHQo0QFtW2_XSZV9MmfoXPjKXKxVXp9sMA1-welQ6oIrufvHfwNvkQumENoI8JM4vnL5a2_y8ObgQOJ3ohe8UccaM_E1zQzMY9Mc1NzHcaycQlAravIwMSXA1xOfv9nSOh2rGl9y4fBKa6qTns19GjaY5fW522u5UbyYnTWsBD7jBr6NocwfHDa2XshMSKI8XSW7TOcuGbyuNKNzRpMgcOflTh4LqCoDC7PnABOrIcmch1rFmkTNjc8fQT5lQz3b_jQspoCkbwEpyVZzqN2Mae0uHDd0tD7FEpfqYuotLhUBZAQLJnjfTsr1qsDKftad82wnQwEvTUogI0UXLH_zvLEOWbzzuDHcwpsWGeC3iDNResn6VeUpcOd8tLk3hPvzDsglYOSl5g8z7kHFqqjvI0-5xmmUplRYTb2sgZQbVelM5QgT0SxpFm00?></g></svg>