<?plantuml 1.2026.2?><svg xmlns="http://www.w3.org/2000/svg" xmlns:xlink="http://www.w3.org/1999/xlink" contentStyleType="text/css" data-diagram-type="CLASS" height="310px" preserveAspectRatio="none" style="width:570px;height:310px;background:#FFFFFF;" version="1.1" viewBox="0 0 570 310" width="570px" zoomAndPan="magnify"><defs/><g><!--class BusinessStatus--><g class="entity" data-qualified-name="BusinessStatus" data-source-line="10" id="ent0002"><rect fill="#FAFAFA" height="89.4648" rx="2.5" ry="2.5" style="stroke:#888888;stroke-width:0.5;" width="125.0947" x="7" y="55.94"/><ellipse cx="22" cy="71.94" fill="#EB937F" rx="11" ry="11" style="stroke:#181818;stroke-width:1;"/><path d="M25.6143,78.44 L17.8945,78.44 L17.8945,66.0469 L25.6143,66.0469 L25.6143,68.2051 L20.3433,68.2051 L20.3433,70.878 L25.1162,70.878 L25.1162,73.0362 L20.3433,73.0362 L20.3433,76.2818 L25.6143,76.2818 Z " fill="#000000"/><text fill="#000000" font-family="sans-serif" font-size="13" lengthAdjust="spacing" textLength="93.0947" x="36" y="76.8531">BusinessStatus</text><line style="stroke:#888888;stroke-width:0.5;" x1="8" x2="131.0947" y1="87.94" y2="87.94"/><text fill="#000000" font-family="sans-serif" font-size="14" lengthAdjust="spacing" textLength="39.2314" x="13" y="105.4752">active</text><text fill="#000000" font-family="sans-serif" font-size="14" lengthAdjust="spacing" textLength="43.9893" x="13" y="121.9634">frozen</text><text fill="#000000" font-family="sans-serif" font-size="14" lengthAdjust="spacing" textLength="43.5654" x="13" y="138.4517">closed</text></g><!--class Business--><g class="entity" data-qualified-name="Business" data-source-line="16" id="ent0003"><rect fill="#FAFAFA" height="187.3496" rx="2.5" ry="2.5" style="stroke:#888888;stroke-width:0.5;" width="195.5449" x="166.77" y="7"/><ellipse cx="224.1274" cy="26.7217" fill="#ADD1B2" rx="11" ry="11" style="stroke:#181818;stroke-width:1;"/><path d="M226.6006,32.8647 Q226.0195,33.1636 225.3804,33.313 Q224.7412,33.4624 224.0356,33.4624 Q221.5288,33.4624 220.209,31.8105 Q218.8891,30.1587 218.8891,27.0376 Q218.8891,23.9082 220.209,22.2563 Q221.5288,20.6045 224.0356,20.6045 Q224.7412,20.6045 225.3887,20.7539 Q226.0361,20.9033 226.6006,21.2021 L226.6006,23.9248 Q225.9697,23.3438 225.3762,23.074 Q224.7827,22.8042 224.1518,22.8042 Q222.8071,22.8042 222.1223,23.8708 Q221.4375,24.9375 221.4375,27.0376 Q221.4375,29.1294 222.1223,30.196 Q222.8071,31.2627 224.1518,31.2627 Q224.7827,31.2627 225.3762,30.9929 Q225.9697,30.7231 226.6006,30.1421 Z " fill="#000000"/><text fill="#000000" font-family="sans-serif" font-size="12" font-style="italic" lengthAdjust="spacing" textLength="76.3301" x="242.6274" y="23.6016">&#171;businesses&#187;</text><text fill="#000000" font-family="sans-serif" font-size="13" lengthAdjust="spacing" textLength="54.4946" x="253.5451" y="38.7012">Business</text><line style="stroke:#888888;stroke-width:0.5;" x1="167.77" x2="361.3149" y1="46.4434" y2="46.4434"/><text fill="#000000" font-family="sans-serif" font-size="14" lengthAdjust="spacing" textLength="91.2256" x="172.77" y="63.9785">+id : int &#171;PK&#187;</text><text fill="#000000" font-family="sans-serif" font-size="14" lengthAdjust="spacing" textLength="146.2549" x="172.77" y="80.4668">+business_name : str</text><text fill="#000000" font-family="sans-serif" font-size="14" lengthAdjust="spacing" textLength="165.8398" x="172.77" y="96.9551">+status : BusinessStatus</text><text fill="#000000" font-family="sans-serif" font-size="14" lengthAdjust="spacing" textLength="124.4756" x="172.77" y="113.4434">+opened_at : date</text><text fill="#000000" font-family="sans-serif" font-size="14" lengthAdjust="spacing" textLength="123.4365" x="172.77" y="129.9316">+closed_at : date?</text><text fill="#000000" font-family="sans-serif" font-size="14" lengthAdjust="spacing" textLength="94.6436" x="172.77" y="146.4199">+notes : text?</text><line style="stroke:#888888;stroke-width:0.5;" x1="167.77" x2="361.3149" y1="153.373" y2="153.373"/><text fill="#000000" font-family="sans-serif" font-size="14" lengthAdjust="spacing" textLength="180.585" x="172.77" y="170.9082">+phone_override : str(20)?</text><text fill="#000000" font-family="sans-serif" font-size="14" lengthAdjust="spacing" textLength="183.5449" x="172.77" y="187.3965">+email_override : str(254)?</text></g><!--class Client--><g class="entity" data-qualified-name="Client" data-source-line="27" id="ent0004"><rect fill="#FAFAFA" height="32" rx="2.5" ry="2.5" style="stroke:#888888;stroke-width:0.5;" width="68.6831" x="27.21" y="271.35"/><ellipse cx="42.21" cy="287.35" fill="#ADD1B2" rx="11" ry="11" style="stroke:#181818;stroke-width:1;"/><path d="M44.6831,293.4931 Q44.1021,293.7919 43.4629,293.9413 Q42.8238,294.0907 42.1182,294.0907 Q39.6114,294.0907 38.2915,292.4389 Q36.9717,290.787 36.9717,287.6659 Q36.9717,284.5365 38.2915,282.8847 Q39.6114,281.2328 42.1182,281.2328 Q42.8238,281.2328 43.4712,281.3822 Q44.1187,281.5316 44.6831,281.8305 L44.6831,284.5531 Q44.0523,283.9721 43.4588,283.7023 Q42.8653,283.4325 42.2344,283.4325 Q40.8897,283.4325 40.2049,284.4992 Q39.5201,285.5658 39.5201,287.6659 Q39.5201,289.7577 40.2049,290.8244 Q40.8897,291.891 42.2344,291.891 Q42.8653,291.891 43.4588,291.6212 Q44.0523,291.3515 44.6831,290.7704 Z " fill="#000000"/><text fill="#000000" font-family="sans-serif" font-size="13" lengthAdjust="spacing" textLength="36.6831" x="56.21" y="292.2631">Client</text></g><!--class EntityNote--><g class="entity" data-qualified-name="EntityNote" data-source-line="28" id="ent0006"><rect fill="#FAFAFA" height="32" rx="2.5" ry="2.5" style="stroke:#888888;stroke-width:0.5;" width="97.0825" x="157.01" y="271.35"/><ellipse cx="172.01" cy="287.35" fill="#ADD1B2" rx="11" ry="11" style="stroke:#181818;stroke-width:1;"/><path d="M174.4831,293.4931 Q173.9021,293.7919 173.2629,293.9413 Q172.6238,294.0907 171.9182,294.0907 Q169.4114,294.0907 168.0915,292.4389 Q166.7717,290.787 166.7717,287.6659 Q166.7717,284.5365 168.0915,282.8847 Q169.4114,281.2328 171.9182,281.2328 Q172.6238,281.2328 173.2712,281.3822 Q173.9187,281.5316 174.4831,281.8305 L174.4831,284.5531 Q173.8523,283.9721 173.2588,283.7023 Q172.6653,283.4325 172.0344,283.4325 Q170.6897,283.4325 170.0049,284.4992 Q169.3201,285.5658 169.3201,287.6659 Q169.3201,289.7577 170.0049,290.8244 Q170.6897,291.891 172.0344,291.891 Q172.6653,291.891 173.2588,291.6212 Q173.8523,291.3515 174.4831,290.7704 Z " fill="#000000"/><text fill="#000000" font-family="sans-serif" font-size="13" lengthAdjust="spacing" textLength="65.0825" x="186.01" y="292.2631">EntityNote</text></g><!--class User--><g class="entity" data-qualified-name="User" data-source-line="31" id="ent0009"><rect fill="#FAFAFA" height="32" rx="2.5" ry="2.5" style="stroke:#888888;stroke-width:0.5;" width="60.1963" x="403.45" y="271.35"/><ellipse cx="418.45" cy="287.35" fill="#ADD1B2" rx="11" ry="11" style="stroke:#181818;stroke-width:1;"/><path d="M420.9231,293.4931 Q420.3421,293.7919 419.7029,293.9413 Q419.0638,294.0907 418.3582,294.0907 Q415.8514,294.0907 414.5315,292.4389 Q413.2117,290.787 413.2117,287.6659 Q413.2117,284.5365 414.5315,282.8847 Q415.8514,281.2328 418.3582,281.2328 Q419.0638,281.2328 419.7112,281.3822 Q420.3587,281.5316 420.9231,281.8305 L420.9231,284.5531 Q420.2923,283.9721 419.6988,283.7023 Q419.1053,283.4325 418.4744,283.4325 Q417.1297,283.4325 416.4449,284.4992 Q415.7601,285.5658 415.7601,287.6659 Q415.7601,289.7577 416.4449,290.8244 Q417.1297,291.891 418.4744,291.891 Q419.1053,291.891 419.6988,291.6212 Q420.2923,291.3515 420.9231,290.7704 Z " fill="#000000"/><text fill="#000000" font-family="sans-serif" font-size="13" lengthAdjust="spacing" textLength="28.1963" x="432.45" y="292.2631">User</text></g><!--link Business to Client--><g class="link" data-entity-1="ent0003" data-entity-2="ent0004" data-link-type="dependency" data-source-line="27" id="lnk5"><path codeLine="27" d="M166.28,185.06 C160.76,188.41 155.16,191.53 149.55,194.35 C101.56,218.41 65.46,181.94 32.55,224.35 C21.47,238.62 29.7706,253.3273 41.6006,266.5573" fill="none" id="Business-to-Client" style="stroke:#555555;stroke-width:1;stroke-dasharray:7,7;"/><polygon fill="#555555" points="45.6,271.03,42.5827,261.6547,42.2672,267.3028,36.6191,266.9872,45.6,271.03" style="stroke:#555555;stroke-width:1;"/><text fill="#000000" font-family="sans-serif" font-size="13" lengthAdjust="spacing" textLength="34.3472" x="33.55" y="237.9184">client</text><text fill="#000000" font-family="sans-serif" font-size="13" lengthAdjust="spacing" textLength="24.667" x="12.1063" y="260.4636">0..1</text></g><!--link Business to Client--><g class="link" data-entity-1="ent0003" data-entity-2="ent0004" data-link-type="dependency" data-source-line="30" id="lnk8"><path codeLine="30" d="M166.32,191.04 C132.52,221.79 102.6679,248.9421 82.9179,266.9121" fill="none" id="Business-to-Client-1" style="stroke:#555555;stroke-width:1;stroke-dasharray:7,7;"/><polygon fill="#555555" points="78.48,270.95,87.8288,267.8517,82.1783,267.5851,82.4449,261.9345,78.48,270.95" style="stroke:#555555;stroke-width:1;"/><text fill="#000000" font-family="sans-serif" font-size="13" lengthAdjust="spacing" textLength="52.7871" x="128.21" y="237.9184">client_id</text></g><!--link Business to EntityNote--><g class="link" data-entity-1="ent0003" data-entity-2="ent0006" data-link-type="dependency" data-source-line="28" id="lnk7"><path codeLine="28" d="M212.01,194.74 C208.18,204.51 204.9,214.48 202.55,224.35 C198.82,239.97 199.5113,252.4839 201.5213,265.1739" fill="none" id="Business-to-EntityNote" style="stroke:#555555;stroke-width:1;stroke-dasharray:7,7;"/><polygon fill="#555555" points="202.46,271.1,205.0028,261.585,201.6778,266.1616,197.1013,262.8366,202.46,271.1" style="stroke:#555555;stroke-width:1;"/><text fill="#000000" font-family="sans-serif" font-size="13" lengthAdjust="spacing" textLength="76.8701" x="203.55" y="237.9184">entity_notes</text><text fill="#000000" font-family="sans-serif" font-size="13" lengthAdjust="spacing" textLength="22.7119" x="175.7385" y="260.5577">0..*</text></g><!--link Business to User--><g class="link" data-entity-1="ent0003" data-entity-2="ent0009" data-link-type="dependency" data-source-line="31" id="lnk10"><path codeLine="31" d="M289.44,194.55 C297.26,211.67 307.42,228.25 320.55,241.35 C342.97,263.72 372.0626,273.9853 397.1526,279.7553" fill="none" id="Business-to-User" style="stroke:#555555;stroke-width:1;stroke-dasharray:7,7;"/><polygon fill="#555555" points="403,281.1,395.1254,275.1847,398.1272,279.9794,393.3325,282.9811,403,281.1" style="stroke:#555555;stroke-width:1;"/><text fill="#000000" font-family="sans-serif" font-size="13" lengthAdjust="spacing" textLength="68.1611" x="321.55" y="237.9184">created_by</text></g><!--link Business to User--><g class="link" data-entity-1="ent0003" data-entity-2="ent0009" data-link-type="dependency" data-source-line="32" id="lnk11"><path codeLine="32" d="M362.81,189.2 C373.95,200.62 384.79,212.48 394.55,224.35 C406.74,239.18 415.1901,252.854 422.4701,265.864" fill="none" id="Business-to-User-1" style="stroke:#555555;stroke-width:1;stroke-dasharray:7,7;"/><polygon fill="#555555" points="425.4,271.1,424.4958,261.2927,422.9584,266.7367,417.5145,265.1993,425.4,271.1" style="stroke:#555555;stroke-width:1;"/><text fill="#000000" font-family="sans-serif" font-size="13" lengthAdjust="spacing" textLength="68.1865" x="407.54" y="237.9184">deleted_by</text></g><!--link Business to User--><g class="link" data-entity-1="ent0003" data-entity-2="ent0009" data-link-type="dependency" data-source-line="33" id="lnk12"><path codeLine="33" d="M362.63,130.56 C408.18,149.44 458.03,179.19 484.55,224.35 C494.71,241.66 482.2233,255.6806 465.0533,267.6406" fill="none" id="Business-to-User-2" style="stroke:#555555;stroke-width:1;stroke-dasharray:7,7;"/><polygon fill="#555555" points="460.13,271.07,469.8013,269.2081,464.2328,268.2122,465.2287,262.6437,460.13,271.07" style="stroke:#555555;stroke-width:1;"/><text fill="#000000" font-family="sans-serif" font-size="13" lengthAdjust="spacing" textLength="74.2549" x="488.56" y="237.9184">restored_by</text></g><?plantuml-src VP9jJzj03CVVvrDOtGlQeLPb0mb5AAWmAare0mtnEhhclFRKn8vy3biP--xSNSj3sscNDuv_Vp-SpmVmXHlZA8TPvnsXz-W1dW0QjfX3nKrhAiqEuChE4MgS8zaSXiC2Rdvy0y7Qg6Fo2zVs1m0m6XKmlHuorIle4sy91jd2MGHiMbr1WyqCnMT-wQWrOXgeQkFzH5NSh5FyMZ7TkKU4yQvaogI977r-XoOY_EkIQnRuS9BEEtWPuovOBCf6SfhEdiHKoxbmHtOZcqxYbsL8NGCNcm7TgT7EmvyC88p6FM0mVWe_8WMZgjcZpVvcMMhsDGZEpju6N1Gf-j1PoC6H1dXxNHJHzI8goJGOg5U9Rh-kcUyq4H6tI6XBeu5Qex6RmtKNRxxpw6mNJ5Zo0uh4TqYv-v_6WmGnB46z1q-ErvHOCLPN_AtdyNAlrueFtXkFHaUzC4A752jMoTZNVEp15QdJrVUGBkWm_PGfUTYmbxsf7IrzsfxT5GEBOQg2Tf1lPzyfNJgxpUyzIgI2OHYsdAt-YItM-1yiw9LbpPy1?></g></svg>