<?plantuml 1.2026.2?><svg xmlns="http://www.w3.org/2000/svg" xmlns:xlink="http://www.w3.org/1999/xlink" contentStyleType="text/css" data-diagram-type="CLASS" height="359px" preserveAspectRatio="none" style="width:1089px;height:359px;background:#FFFFFF;" version="1.1" viewBox="0 0 1089 359" width="1089px" zoomAndPan="magnify"><defs/><g><!--class ChargeStatus--><g class="entity" data-qualified-name="ChargeStatus" data-source-line="10" id="ent0002"><rect fill="#FAFAFA" height="105.9531" rx="2.5" ry="2.5" style="stroke:#888888;stroke-width:0.5;" width="115.5098" x="130.39" y="72.43"/><ellipse cx="145.39" cy="88.43" fill="#EB937F" rx="11" ry="11" style="stroke:#181818;stroke-width:1;"/><path d="M149.0043,94.93 L141.2845,94.93 L141.2845,82.5369 L149.0043,82.5369 L149.0043,84.6951 L143.7333,84.6951 L143.7333,87.368 L148.5062,87.368 L148.5062,89.5262 L143.7333,89.5262 L143.7333,92.7718 L149.0043,92.7718 Z " fill="#000000"/><text fill="#000000" font-family="sans-serif" font-size="13" lengthAdjust="spacing" textLength="83.5098" x="159.39" y="93.3431">ChargeStatus</text><line style="stroke:#888888;stroke-width:0.5;" x1="131.39" x2="244.8998" y1="104.43" y2="104.43"/><text fill="#000000" font-family="sans-serif" font-size="14" lengthAdjust="spacing" textLength="32.6553" x="136.39" y="121.9652">draft</text><text fill="#000000" font-family="sans-serif" font-size="14" lengthAdjust="spacing" textLength="43.6201" x="136.39" y="138.4534">issued</text><text fill="#000000" font-family="sans-serif" font-size="14" lengthAdjust="spacing" textLength="29.4014" x="136.39" y="154.9417">paid</text><text fill="#000000" font-family="sans-serif" font-size="14" lengthAdjust="spacing" textLength="59.2197" x="136.39" y="171.43">canceled</text></g><!--class ChargeType--><g class="entity" data-qualified-name="ChargeType" data-source-line="17" id="ent0003"><rect fill="#FAFAFA" height="138.9297" rx="2.5" ry="2.5" style="stroke:#888888;stroke-width:0.5;" width="138.7793" x="280.76" y="55.94"/><ellipse cx="309.9047" cy="71.94" fill="#EB937F" rx="11" ry="11" style="stroke:#181818;stroke-width:1;"/><path d="M313.5189,78.44 L305.7992,78.44 L305.7992,66.0469 L313.5189,66.0469 L313.5189,68.2051 L308.2479,68.2051 L308.2479,70.878 L313.0209,70.878 L313.0209,73.0362 L308.2479,73.0362 L308.2479,76.2818 L313.5189,76.2818 Z " fill="#000000"/><text fill="#000000" font-family="sans-serif" font-size="13" lengthAdjust="spacing" textLength="75.3467" x="327.0479" y="76.8531">ChargeType</text><line style="stroke:#888888;stroke-width:0.5;" x1="281.76" x2="418.5393" y1="87.94" y2="87.94"/><text fill="#000000" font-family="sans-serif" font-size="14" lengthAdjust="spacing" textLength="115.4043" x="286.76" y="105.4752">monthly_retainer</text><text fill="#000000" font-family="sans-serif" font-size="14" lengthAdjust="spacing" textLength="122.2266" x="286.76" y="121.9634">annual_report_fee</text><text fill="#000000" font-family="sans-serif" font-size="14" lengthAdjust="spacing" textLength="89.667" x="286.76" y="138.4517">vat_filing_fee</text><text fill="#000000" font-family="sans-serif" font-size="14" lengthAdjust="spacing" textLength="126.7793" x="286.76" y="154.94">representation_fee</text><text fill="#000000" font-family="sans-serif" font-size="14" lengthAdjust="spacing" textLength="111.6172" x="286.76" y="171.4283">consultation_fee</text><text fill="#000000" font-family="sans-serif" font-size="14" lengthAdjust="spacing" textLength="36.0527" x="286.76" y="187.9166">other</text></g><!--class Charge--><g class="entity" data-qualified-name="Charge" data-source-line="26" id="ent0004"><rect fill="#FAFAFA" height="236.8145" rx="2.5" ry="2.5" style="stroke:#888888;stroke-width:0.5;" width="202.8252" x="454.73" y="7"/><ellipse cx="524.8975" cy="26.7217" fill="#ADD1B2" rx="11" ry="11" style="stroke:#181818;stroke-width:1;"/><path d="M527.3706,32.8647 Q526.7896,33.1636 526.1504,33.313 Q525.5113,33.4624 524.8057,33.4624 Q522.2988,33.4624 520.979,31.8105 Q519.6592,30.1587 519.6592,27.0376 Q519.6592,23.9082 520.979,22.2563 Q522.2988,20.6045 524.8057,20.6045 Q525.5113,20.6045 526.1587,20.7539 Q526.8062,20.9033 527.3706,21.2021 L527.3706,23.9248 Q526.7398,23.3438 526.1463,23.074 Q525.5528,22.8042 524.9219,22.8042 Q523.5772,22.8042 522.8924,23.8708 Q522.2075,24.9375 522.2075,27.0376 Q522.2075,29.1294 522.8924,30.196 Q523.5772,31.2627 524.9219,31.2627 Q525.5528,31.2627 526.1463,30.9929 Q526.7398,30.7231 527.3706,30.1421 Z " fill="#000000"/><text fill="#000000" font-family="sans-serif" font-size="12" font-style="italic" lengthAdjust="spacing" textLength="57.9902" x="543.3975" y="23.6016">&#171;charges&#187;</text><text fill="#000000" font-family="sans-serif" font-size="13" lengthAdjust="spacing" textLength="44.9097" x="549.9378" y="38.7012">Charge</text><line style="stroke:#888888;stroke-width:0.5;" x1="455.73" x2="656.5552" y1="46.4434" y2="46.4434"/><text fill="#000000" font-family="sans-serif" font-size="14" lengthAdjust="spacing" textLength="91.2256" x="460.73" y="63.9785">+id : int &#171;PK&#187;</text><text fill="#000000" font-family="sans-serif" font-size="14" lengthAdjust="spacing" textLength="187.5713" x="460.73" y="80.4668">+charge_type : ChargeType</text><text fill="#000000" font-family="sans-serif" font-size="14" lengthAdjust="spacing" textLength="155.5176" x="460.73" y="96.9551">+status : ChargeStatus</text><text fill="#000000" font-family="sans-serif" font-size="14" lengthAdjust="spacing" textLength="153.9658" x="460.73" y="113.4434">+months_covered : int</text><text fill="#000000" font-family="sans-serif" font-size="14" lengthAdjust="spacing" textLength="133.2598" x="460.73" y="129.9316">+description : text?</text><text fill="#000000" font-family="sans-serif" font-size="14" lengthAdjust="spacing" textLength="153.6445" x="460.73" y="146.4199">+issued_at : datetime?</text><text fill="#000000" font-family="sans-serif" font-size="14" lengthAdjust="spacing" textLength="139.4258" x="460.73" y="162.9082">+paid_at : datetime?</text><text fill="#000000" font-family="sans-serif" font-size="14" lengthAdjust="spacing" textLength="169.2441" x="460.73" y="179.3965">+canceled_at : datetime?</text><text fill="#000000" font-family="sans-serif" font-size="14" lengthAdjust="spacing" textLength="190.8252" x="460.73" y="195.8848">+cancellation_reason : text?</text><line style="stroke:#888888;stroke-width:0.5;" x1="455.73" x2="656.5552" y1="202.8379" y2="202.8379"/><text fill="#000000" font-family="sans-serif" font-size="14" lengthAdjust="spacing" textLength="169.2031" x="460.73" y="220.373">+amount : decimal(10,2)</text><text fill="#000000" font-family="sans-serif" font-size="14" lengthAdjust="spacing" textLength="110.1816" x="460.73" y="236.8613">+period : str(7)?</text></g><!--class Client--><g class="entity" data-qualified-name="Client" data-source-line="40" id="ent0005"><rect fill="#FAFAFA" height="32" rx="2.5" ry="2.5" style="stroke:#888888;stroke-width:0.5;" width="68.6831" x="36.8" y="320.81"/><ellipse cx="51.8" cy="336.81" fill="#ADD1B2" rx="11" ry="11" style="stroke:#181818;stroke-width:1;"/><path d="M54.2731,342.9531 Q53.6921,343.2519 53.0529,343.4013 Q52.4138,343.5507 51.7082,343.5507 Q49.2014,343.5507 47.8815,341.8989 Q46.5617,340.247 46.5617,337.1259 Q46.5617,333.9965 47.8815,332.3447 Q49.2014,330.6928 51.7082,330.6928 Q52.4138,330.6928 53.0612,330.8422 Q53.7087,330.9916 54.2731,331.2905 L54.2731,334.0131 Q53.6423,333.4321 53.0488,333.1623 Q52.4553,332.8925 51.8244,332.8925 Q50.4797,332.8925 49.7949,333.9592 Q49.1101,335.0258 49.1101,337.1259 Q49.1101,339.2177 49.7949,340.2844 Q50.4797,341.351 51.8244,341.351 Q52.4553,341.351 53.0488,341.0812 Q53.6423,340.8115 54.2731,340.2304 Z " fill="#000000"/><text fill="#000000" font-family="sans-serif" font-size="13" lengthAdjust="spacing" textLength="36.6831" x="65.8" y="341.7231">Client</text></g><!--class AnnualReport--><g class="entity" data-qualified-name="AnnualReport" data-source-line="41" id="ent0007"><rect fill="#FAFAFA" height="32" rx="2.5" ry="2.5" style="stroke:#888888;stroke-width:0.5;" width="117.9219" x="161.18" y="320.81"/><ellipse cx="176.18" cy="336.81" fill="#ADD1B2" rx="11" ry="11" style="stroke:#181818;stroke-width:1;"/><path d="M178.6531,342.9531 Q178.0721,343.2519 177.4329,343.4013 Q176.7938,343.5507 176.0882,343.5507 Q173.5814,343.5507 172.2615,341.8989 Q170.9417,340.247 170.9417,337.1259 Q170.9417,333.9965 172.2615,332.3447 Q173.5814,330.6928 176.0882,330.6928 Q176.7938,330.6928 177.4412,330.8422 Q178.0887,330.9916 178.6531,331.2905 L178.6531,334.0131 Q178.0223,333.4321 177.4288,333.1623 Q176.8353,332.8925 176.2044,332.8925 Q174.8597,332.8925 174.1749,333.9592 Q173.4901,335.0258 173.4901,337.1259 Q173.4901,339.2177 174.1749,340.2844 Q174.8597,341.351 176.2044,341.351 Q176.8353,341.351 177.4288,341.0812 Q178.0223,340.8115 178.6531,340.2304 Z " fill="#000000"/><text fill="#000000" font-family="sans-serif" font-size="13" lengthAdjust="spacing" textLength="85.9219" x="190.18" y="341.7231">AnnualReport</text></g><!--class Invoice--><g class="entity" data-qualified-name="Invoice" data-source-line="42" id="ent0009"><rect fill="#FAFAFA" height="32" rx="2.5" ry="2.5" style="stroke:#888888;stroke-width:0.5;" width="76.186" x="417.05" y="320.81"/><ellipse cx="432.05" cy="336.81" fill="#ADD1B2" rx="11" ry="11" style="stroke:#181818;stroke-width:1;"/><path d="M434.5231,342.9531 Q433.9421,343.2519 433.3029,343.4013 Q432.6638,343.5507 431.9582,343.5507 Q429.4514,343.5507 428.1315,341.8989 Q426.8117,340.247 426.8117,337.1259 Q426.8117,333.9965 428.1315,332.3447 Q429.4514,330.6928 431.9582,330.6928 Q432.6638,330.6928 433.3112,330.8422 Q433.9587,330.9916 434.5231,331.2905 L434.5231,334.0131 Q433.8923,333.4321 433.2988,333.1623 Q432.7053,332.8925 432.0744,332.8925 Q430.7297,332.8925 430.0449,333.9592 Q429.3601,335.0258 429.3601,337.1259 Q429.3601,339.2177 430.0449,340.2844 Q430.7297,341.351 432.0744,341.351 Q432.7053,341.351 433.2988,341.0812 Q433.8923,340.8115 434.5231,340.2304 Z " fill="#000000"/><text fill="#000000" font-family="sans-serif" font-size="13" lengthAdjust="spacing" textLength="44.186" x="446.05" y="341.7231">Invoice</text></g><!--class Business--><g class="entity" data-qualified-name="Business" data-source-line="45" id="ent0012"><rect fill="#FAFAFA" height="32" rx="2.5" ry="2.5" style="stroke:#888888;stroke-width:0.5;" width="86.4946" x="527.9" y="320.81"/><ellipse cx="542.9" cy="336.81" fill="#ADD1B2" rx="11" ry="11" style="stroke:#181818;stroke-width:1;"/><path d="M545.3731,342.9531 Q544.7921,343.2519 544.1529,343.4013 Q543.5138,343.5507 542.8082,343.5507 Q540.3014,343.5507 538.9815,341.8989 Q537.6617,340.247 537.6617,337.1259 Q537.6617,333.9965 538.9815,332.3447 Q540.3014,330.6928 542.8082,330.6928 Q543.5138,330.6928 544.1612,330.8422 Q544.8087,330.9916 545.3731,331.2905 L545.3731,334.0131 Q544.7423,333.4321 544.1488,333.1623 Q543.5553,332.8925 542.9244,332.8925 Q541.5797,332.8925 540.8949,333.9592 Q540.2101,335.0258 540.2101,337.1259 Q540.2101,339.2177 540.8949,340.2844 Q541.5797,341.351 542.9244,341.351 Q543.5553,341.351 544.1488,341.0812 Q544.7423,340.8115 545.3731,340.2304 Z " fill="#000000"/><text fill="#000000" font-family="sans-serif" font-size="13" lengthAdjust="spacing" textLength="54.4946" x="556.9" y="341.7231">Business</text></g><!--class User--><g class="entity" data-qualified-name="User" data-source-line="47" id="ent0015"><rect fill="#FAFAFA" height="32" rx="2.5" ry="2.5" style="stroke:#888888;stroke-width:0.5;" width="60.1963" x="854.05" y="320.81"/><ellipse cx="869.05" cy="336.81" fill="#ADD1B2" rx="11" ry="11" style="stroke:#181818;stroke-width:1;"/><path d="M871.5231,342.9531 Q870.9421,343.2519 870.3029,343.4013 Q869.6638,343.5507 868.9582,343.5507 Q866.4514,343.5507 865.1315,341.8989 Q863.8117,340.247 863.8117,337.1259 Q863.8117,333.9965 865.1315,332.3447 Q866.4514,330.6928 868.9582,330.6928 Q869.6638,330.6928 870.3112,330.8422 Q870.9587,330.9916 871.5231,331.2905 L871.5231,334.0131 Q870.8923,333.4321 870.2988,333.1623 Q869.7053,332.8925 869.0744,332.8925 Q867.7297,332.8925 867.0449,333.9592 Q866.3601,335.0258 866.3601,337.1259 Q866.3601,339.2177 867.0449,340.2844 Q867.7297,341.351 869.0744,341.351 Q869.7053,341.351 870.2988,341.0812 Q870.8923,340.8115 871.5231,340.2304 Z " fill="#000000"/><text fill="#000000" font-family="sans-serif" font-size="13" lengthAdjust="spacing" textLength="28.1963" x="883.05" y="341.7231">User</text></g><!--link Charge to Client--><g class="link" data-entity-1="ent0004" data-entity-2="ent0005" data-link-type="dependency" data-source-line="40" id="lnk6"><path codeLine="40" d="M454.59,234.53 C448.92,237.99 443.09,241.12 437.14,243.81 C352.51,282.14 83.44,205.8 20.14,273.81 C6,289.01 20.6279,304.147 39.4879,316.967" fill="none" id="Charge-to-Client" style="stroke:#555555;stroke-width:1;stroke-dasharray:7,7;"/><polygon fill="#555555" points="44.45,320.34,39.2554,311.9724,40.3149,317.5292,34.7581,318.5886,44.45,320.34" style="stroke:#555555;stroke-width:1;"/><text fill="#000000" font-family="sans-serif" font-size="13" lengthAdjust="spacing" textLength="34.3472" x="21.14" y="287.3784">client</text><text fill="#000000" font-family="sans-serif" font-size="13" lengthAdjust="spacing" textLength="24.667" x="7.7439" y="310.0197">0..1</text></g><!--link Charge to Client--><g class="link" data-entity-1="ent0004" data-entity-2="ent0005" data-link-type="dependency" data-source-line="44" id="lnk11"><path codeLine="44" d="M454.51,234.35 C448.86,237.86 443.06,241.05 437.14,243.81 C310.13,303.14 247.23,208.57 123.14,273.81 C103.37,284.21 91.1591,300.4384 82.4291,315.1684" fill="none" id="Charge-to-Client-1" style="stroke:#555555;stroke-width:1;stroke-dasharray:7,7;"/><polygon fill="#555555" points="79.37,320.33,87.3997,314.627,81.9193,316.0287,80.5176,310.5482,79.37,320.33" style="stroke:#555555;stroke-width:1;"/><text fill="#000000" font-family="sans-serif" font-size="13" lengthAdjust="spacing" textLength="52.7871" x="124.14" y="287.3784">client_id</text></g><!--link Charge to AnnualReport--><g class="link" data-entity-1="ent0004" data-entity-2="ent0007" data-link-type="dependency" data-source-line="41" id="lnk8"><path codeLine="41" d="M454.42,234.16 C448.79,237.72 443.03,240.97 437.14,243.81 C387.35,267.85 226.81,232.42 190.14,273.81 C178.01,287.5 187.0172,302.5834 199.5072,316.0334" fill="none" id="Charge-to-AnnualReport" style="stroke:#555555;stroke-width:1;stroke-dasharray:7,7;"/><polygon fill="#555555" points="203.59,320.43,200.3968,311.1131,200.1876,316.7661,194.5347,316.5569,203.59,320.43" style="stroke:#555555;stroke-width:1;"/><text fill="#000000" font-family="sans-serif" font-size="13" lengthAdjust="spacing" textLength="87.731" x="191.14" y="287.3784">annual_report</text><text fill="#000000" font-family="sans-serif" font-size="13" lengthAdjust="spacing" textLength="24.667" x="170.243" y="310.1395">0..1</text></g><!--link Charge to AnnualReport--><g class="link" data-entity-1="ent0004" data-entity-2="ent0007" data-link-type="dependency" data-source-line="46" id="lnk14"><path codeLine="46" d="M454.47,231.54 C448.77,235.89 442.98,240.01 437.14,243.81 C406.72,263.63 394.66,259.83 361.14,273.81 C324.37,289.15 288.1135,305.1721 259.6535,317.9521" fill="none" id="Charge-to-AnnualReport-1" style="stroke:#555555;stroke-width:1;stroke-dasharray:7,7;"/><polygon fill="#555555" points="254.18,320.41,264.0288,320.3722,258.7412,318.3618,260.7516,313.0742,254.18,320.41" style="stroke:#555555;stroke-width:1;"/><text fill="#000000" font-family="sans-serif" font-size="13" lengthAdjust="spacing" textLength="106.1709" x="362.14" y="287.3784">annual_report_id</text></g><!--link Charge to Invoice--><g class="link" data-entity-1="ent0004" data-entity-2="ent0009" data-link-type="dependency" data-source-line="42" id="lnk10"><path codeLine="42" d="M499.3,244.27 C484.67,274.58 473.3764,298.0057 465.2064,314.9457" fill="none" id="Charge-to-Invoice" style="stroke:#555555;stroke-width:1;"/><polygon fill="#555555" points="462.6,320.35,470.1125,313.9812,464.772,315.8464,462.9068,310.5059,462.6,320.35" style="stroke:#555555;stroke-width:1;"/><text fill="#000000" font-family="sans-serif" font-size="13" lengthAdjust="spacing" textLength="44.1987" x="485.99" y="287.3784">invoice</text><text fill="#000000" font-family="sans-serif" font-size="13" lengthAdjust="spacing" textLength="24.667" x="437.2056" y="310.033">0..1</text></g><!--link Charge to Business--><g class="link" data-entity-1="ent0004" data-entity-2="ent0012" data-link-type="dependency" data-source-line="45" id="lnk13"><path codeLine="45" d="M548.06,244.12 C548.71,259.9 550.26,275.81 553.14,290.81 C555.12,301.06 556.8979,306.4766 560.7979,314.9766" fill="none" id="Charge-to-Business" style="stroke:#555555;stroke-width:1;stroke-dasharray:7,7;"/><polygon fill="#555555" points="563.3,320.43,563.1824,310.5818,561.2149,315.8855,555.9112,313.918,563.3,320.43" style="stroke:#555555;stroke-width:1;"/><text fill="#000000" font-family="sans-serif" font-size="13" lengthAdjust="spacing" textLength="73.6392" x="554.14" y="287.3784">business_id</text></g><!--link Charge to User--><g class="link" data-entity-1="ent0004" data-entity-2="ent0015" data-link-type="dependency" data-source-line="47" id="lnk16"><path codeLine="47" d="M619.31,243.98 C633.33,261.86 649.62,278.43 668.14,290.81 C725.63,329.22 803.4305,335.7644 847.8605,336.3244" fill="none" id="Charge-to-User" style="stroke:#555555;stroke-width:1;stroke-dasharray:7,7;"/><polygon fill="#555555" points="853.86,336.4,844.9111,332.2869,848.8604,336.337,844.8103,340.2863,853.86,336.4" style="stroke:#555555;stroke-width:1;"/><text fill="#000000" font-family="sans-serif" font-size="13" lengthAdjust="spacing" textLength="68.1611" x="669.14" y="287.3784">created_by</text></g><!--link Charge to User--><g class="link" data-entity-1="ent0004" data-entity-2="ent0015" data-link-type="dependency" data-source-line="48" id="lnk17"><path codeLine="48" d="M657.99,209.68 C694.6,237.46 737.03,267.3 778.14,290.81 C802.62,304.8 826.6742,314.9176 848.3942,323.0876" fill="none" id="Charge-to-User-1" style="stroke:#555555;stroke-width:1;stroke-dasharray:7,7;"/><polygon fill="#555555" points="854.01,325.2,846.9945,318.2875,849.3301,323.4397,844.178,325.7753,854.01,325.2" style="stroke:#555555;stroke-width:1;"/><text fill="#000000" font-family="sans-serif" font-size="13" lengthAdjust="spacing" textLength="61.9785" x="779.14" y="287.3784">issued_by</text></g><!--link Charge to User--><g class="link" data-entity-1="ent0004" data-entity-2="ent0015" data-link-type="dependency" data-source-line="49" id="lnk18"><path codeLine="49" d="M657.98,162.48 C717.42,187.17 791.1,224.41 845.14,273.81 C859.6,287.02 868.165,301.3698 874.775,315.0198" fill="none" id="Charge-to-User-2" style="stroke:#555555;stroke-width:1;stroke-dasharray:7,7;"/><polygon fill="#555555" points="877.39,320.42,877.0676,310.5764,875.2108,315.9199,869.8674,314.0631,877.39,320.42" style="stroke:#555555;stroke-width:1;"/><text fill="#000000" font-family="sans-serif" font-size="13" lengthAdjust="spacing" textLength="48.7754" x="860.63" y="287.3784">paid_by</text></g><!--link Charge to User--><g class="link" data-entity-1="ent0004" data-entity-2="ent0015" data-link-type="dependency" data-source-line="50" id="lnk19"><path codeLine="50" d="M657.64,137.26 C742.87,152.33 859.67,188.26 917.14,273.81 C927.34,288.99 918.4557,303.3809 905.8757,316.2409" fill="none" id="Charge-to-User-3" style="stroke:#555555;stroke-width:1;stroke-dasharray:7,7;"/><polygon fill="#555555" points="901.68,320.53,910.8329,316.8935,905.1764,316.9558,905.1142,311.2993,901.68,320.53" style="stroke:#555555;stroke-width:1;"/><text fill="#000000" font-family="sans-serif" font-size="13" lengthAdjust="spacing" textLength="76.4639" x="921.79" y="287.3784">canceled_by</text></g><!--link Charge to User--><g class="link" data-entity-1="ent0004" data-entity-2="ent0015" data-link-type="dependency" data-source-line="51" id="lnk20"><path codeLine="51" d="M657.83,145.34 C777.64,169.97 965.71,216.67 1007.14,273.81 C1032.84,309.24 964.8762,324.8276 920.6462,331.3276" fill="none" id="Charge-to-User-4" style="stroke:#555555;stroke-width:1;stroke-dasharray:7,7;"/><polygon fill="#555555" points="914.71,332.2,924.1959,334.8489,919.6569,331.473,923.0328,326.9339,914.71,332.2" style="stroke:#555555;stroke-width:1;"/><text fill="#000000" font-family="sans-serif" font-size="13" lengthAdjust="spacing" textLength="68.1865" x="1013.43" y="287.3784">deleted_by</text></g><?plantuml-src VLDHRzCm47xFhpYDXxM2LYq8WQ8fg1jKcYO4sk0vSkrRQzMn8_jIA8p_pjbrKLe2oKDEt_SvT_VT-HBUkqPeMuBS2Bz6W2U0nYbam3Mja5HSmWV5XC4rMbN2P5B1f_kFuD48qiw6ZMv7Om2OJYjOtasSDNiOMNSY61SRhH2mQMaF3JOhzA48MsrRuKK3qeWG5aHUhph2M-diW_w1C3kNB9sbnCnVzQY5z-xRZJFEmxFNwUcHD_7SjVCAVPQyJSzV4Y6tQ-ywgx9ikOXlKQ3jM9BCUI11NO2V1O3ouf7ugqFeK77G2Xq_KbY9Xf5V9oU_x5jCvnhkO6FsjKTYrz4p9ApjX66aTPxgHqJ6Te8ZRRHTPu1PZm4j9Kipo3w5pfn0ZZRyKqwU_ChPuUhgCDrGLQcAvrf12TeICv_lgYf21qLDiTAoLtRamg7nyiI7I8Y67ICc54hT23EQprwy74UcHQzTp1B8ZzwCtqKiDHzgwNReCLSGSOL1Ujt6DXWa_4v9Vl2s5kd_Wf1qWuc8NW_0H-__IHtsaPqMePU9pSesnGs-c4sdymlU2OsfCPc20SKYZUq-JOrr9rCyokDToV9RktDQOcewHNolZhU5vxmDwSwSNwpegn5irhZibt1MNSshrsElky2h5UAyLZayK_olzZFfru0-9cBJYArTxGV8FAX1BirgaFapha5MCPKJ_WO0?></g></svg>