<?plantuml 1.2026.2?><svg xmlns="http://www.w3.org/2000/svg" xmlns:xlink="http://www.w3.org/1999/xlink" contentStyleType="text/css" data-diagram-type="CLASS" height="491px" preserveAspectRatio="none" style="width:651px;height:491px;background:#FFFFFF;" version="1.1" viewBox="0 0 651 491" width="651px" zoomAndPan="magnify"><defs/><g><!--class ClientStatus--><g class="entity" data-qualified-name="ClientStatus" data-source-line="10" id="ent0002"><rect fill="#FAFAFA" height="89.4648" rx="2.5" ry="2.5" style="stroke:#888888;stroke-width:0.5;" width="107.2832" x="7" y="146.63"/><ellipse cx="22" cy="162.63" fill="#EB937F" rx="11" ry="11" style="stroke:#181818;stroke-width:1;"/><path d="M25.6143,169.13 L17.8945,169.13 L17.8945,156.7369 L25.6143,156.7369 L25.6143,158.8951 L20.3433,158.8951 L20.3433,161.568 L25.1162,161.568 L25.1162,163.7262 L20.3433,163.7262 L20.3433,166.9718 L25.6143,166.9718 Z " fill="#000000"/><text fill="#000000" font-family="sans-serif" font-size="13" lengthAdjust="spacing" textLength="75.2832" x="36" y="167.5431">ClientStatus</text><line style="stroke:#888888;stroke-width:0.5;" x1="8" x2="113.2832" y1="178.63" y2="178.63"/><text fill="#000000" font-family="sans-serif" font-size="14" lengthAdjust="spacing" textLength="39.2314" x="13" y="196.1652">active</text><text fill="#000000" font-family="sans-serif" font-size="14" lengthAdjust="spacing" textLength="43.9893" x="13" y="212.6534">frozen</text><text fill="#000000" font-family="sans-serif" font-size="14" lengthAdjust="spacing" textLength="43.5654" x="13" y="229.1417">closed</text></g><!--class IdNumberType--><g class="entity" data-qualified-name="IdNumberType" data-source-line="16" id="ent0003"><rect fill="#FAFAFA" height="105.9531" rx="2.5" ry="2.5" style="stroke:#888888;stroke-width:0.5;" width="124.917" x="149.18" y="138.38"/><ellipse cx="164.18" cy="154.38" fill="#EB937F" rx="11" ry="11" style="stroke:#181818;stroke-width:1;"/><path d="M167.7943,160.88 L160.0745,160.88 L160.0745,148.4869 L167.7943,148.4869 L167.7943,150.6451 L162.5233,150.6451 L162.5233,153.318 L167.2962,153.318 L167.2962,155.4762 L162.5233,155.4762 L162.5233,158.7218 L167.7943,158.7218 Z " fill="#000000"/><text fill="#000000" font-family="sans-serif" font-size="13" lengthAdjust="spacing" textLength="92.917" x="178.18" y="159.2931">IdNumberType</text><line style="stroke:#888888;stroke-width:0.5;" x1="150.18" x2="273.097" y1="170.38" y2="170.38"/><text fill="#000000" font-family="sans-serif" font-size="14" lengthAdjust="spacing" textLength="66.165" x="155.18" y="187.9152">individual</text><text fill="#000000" font-family="sans-serif" font-size="14" lengthAdjust="spacing" textLength="78.9414" x="155.18" y="204.4034">corporation</text><text fill="#000000" font-family="sans-serif" font-size="14" lengthAdjust="spacing" textLength="59.1924" x="155.18" y="220.8917">passport</text><text fill="#000000" font-family="sans-serif" font-size="14" lengthAdjust="spacing" textLength="36.0527" x="155.18" y="237.38">other</text></g><!--class Client--><g class="entity" data-qualified-name="Client" data-source-line="23" id="ent0004"><rect fill="#FAFAFA" height="368.7207" rx="2.5" ry="2.5" style="stroke:#888888;stroke-width:0.5;" width="265.1416" x="309.07" y="7"/><ellipse cx="414.1926" cy="26.7217" fill="#ADD1B2" rx="11" ry="11" style="stroke:#181818;stroke-width:1;"/><path d="M416.6657,32.8647 Q416.0846,33.1636 415.4455,33.313 Q414.8063,33.4624 414.1008,33.4624 Q411.5939,33.4624 410.2741,31.8105 Q408.9543,30.1587 408.9543,27.0376 Q408.9543,23.9082 410.2741,22.2563 Q411.5939,20.6045 414.1008,20.6045 Q414.8063,20.6045 415.4538,20.7539 Q416.1013,20.9033 416.6657,21.2021 L416.6657,23.9248 Q416.0348,23.3438 415.4413,23.074 Q414.8478,22.8042 414.217,22.8042 Q412.8722,22.8042 412.1874,23.8708 Q411.5026,24.9375 411.5026,27.0376 Q411.5026,29.1294 412.1874,30.196 Q412.8722,31.2627 414.217,31.2627 Q414.8478,31.2627 415.4413,30.9929 Q416.0348,30.7231 416.6657,30.1421 Z " fill="#000000"/><text fill="#000000" font-family="sans-serif" font-size="12" font-style="italic" lengthAdjust="spacing" textLength="50.3965" x="432.6926" y="23.6016">&#171;clients&#187;</text><text fill="#000000" font-family="sans-serif" font-size="13" lengthAdjust="spacing" textLength="36.6831" x="439.5492" y="38.7012">Client</text><line style="stroke:#888888;stroke-width:0.5;" x1="310.07" x2="573.2116" y1="46.4434" y2="46.4434"/><text fill="#000000" font-family="sans-serif" font-size="14" lengthAdjust="spacing" textLength="91.2256" x="315.07" y="63.9785">+id : int &#171;PK&#187;</text><text fill="#000000" font-family="sans-serif" font-size="14" lengthAdjust="spacing" textLength="108.7393" x="315.07" y="80.4668">+full_name : str</text><text fill="#000000" font-family="sans-serif" font-size="14" lengthAdjust="spacing" textLength="115.165" x="315.07" y="96.9551">+id_number : str</text><text fill="#000000" font-family="sans-serif" font-size="14" lengthAdjust="spacing" textLength="233.29" x="315.07" y="113.4434">+id_number_type : IdNumberType</text><text fill="#000000" font-family="sans-serif" font-size="14" lengthAdjust="spacing" textLength="91.0137" x="315.07" y="129.9316">+phone : str?</text><text fill="#000000" font-family="sans-serif" font-size="14" lengthAdjust="spacing" textLength="85.1211" x="315.07" y="146.4199">+email : str?</text><text fill="#000000" font-family="sans-serif" font-size="14" lengthAdjust="spacing" textLength="147.5195" x="315.07" y="162.9082">+address_street : str?</text><text fill="#000000" font-family="sans-serif" font-size="14" lengthAdjust="spacing" textLength="224.2393" x="315.07" y="179.3965">+address_building_number : str?</text><text fill="#000000" font-family="sans-serif" font-size="14" lengthAdjust="spacing" textLength="178.6162" x="315.07" y="195.8848">+address_apartment : str?</text><text fill="#000000" font-family="sans-serif" font-size="14" lengthAdjust="spacing" textLength="132.3506" x="315.07" y="212.373">+address_city : str?</text><text fill="#000000" font-family="sans-serif" font-size="14" lengthAdjust="spacing" textLength="168.8477" x="315.07" y="228.8613">+address_zip_code : str?</text><text fill="#000000" font-family="sans-serif" font-size="14" lengthAdjust="spacing" textLength="175.6973" x="315.07" y="245.3496">+entity_type : EntityType?</text><text fill="#000000" font-family="sans-serif" font-size="14" lengthAdjust="spacing" textLength="249.9561" x="315.07" y="261.8379">+vat_reporting_frequency : VatType?</text><text fill="#000000" font-family="sans-serif" font-size="14" lengthAdjust="spacing" textLength="231.4375" x="315.07" y="278.3262">+advance_rate_updated_at : date?</text><text fill="#000000" font-family="sans-serif" font-size="14" lengthAdjust="spacing" textLength="146.6582" x="315.07" y="294.8145">+status : ClientStatus</text><text fill="#000000" font-family="sans-serif" font-size="14" lengthAdjust="spacing" textLength="94.6436" x="315.07" y="311.3027">+notes : text?</text><line style="stroke:#888888;stroke-width:0.5;" x1="310.07" x2="573.2116" y1="318.2559" y2="318.2559"/><text fill="#000000" font-family="sans-serif" font-size="14" lengthAdjust="spacing" textLength="253.1416" x="315.07" y="335.791">+vat_exempt_ceiling : decimal(12,0)?</text><text fill="#000000" font-family="sans-serif" font-size="14" lengthAdjust="spacing" textLength="202.918" x="315.07" y="352.2793">+advance_rate : decimal(5,2)?</text><text fill="#000000" font-family="sans-serif" font-size="14" lengthAdjust="spacing" textLength="203.3213" x="315.07" y="368.7676">+accountant_name : str(100)?</text></g><!--class EntityNote--><g class="entity" data-qualified-name="EntityNote" data-source-line="45" id="ent0005"><rect fill="#FAFAFA" height="32" rx="2.5" ry="2.5" style="stroke:#888888;stroke-width:0.5;" width="97.0825" x="220.1" y="452.72"/><ellipse cx="235.1" cy="468.72" fill="#ADD1B2" rx="11" ry="11" style="stroke:#181818;stroke-width:1;"/><path d="M237.5731,474.8631 Q236.9921,475.1619 236.3529,475.3113 Q235.7138,475.4607 235.0082,475.4607 Q232.5014,475.4607 231.1815,473.8089 Q229.8617,472.157 229.8617,469.0359 Q229.8617,465.9065 231.1815,464.2547 Q232.5014,462.6028 235.0082,462.6028 Q235.7138,462.6028 236.3612,462.7522 Q237.0087,462.9016 237.5731,463.2005 L237.5731,465.9231 Q236.9423,465.3421 236.3488,465.0723 Q235.7553,464.8025 235.1244,464.8025 Q233.7797,464.8025 233.0949,465.8692 Q232.4101,466.9358 232.4101,469.0359 Q232.4101,471.1277 233.0949,472.1944 Q233.7797,473.261 235.1244,473.261 Q235.7553,473.261 236.3488,472.9912 Q236.9423,472.7215 237.5731,472.1404 Z " fill="#000000"/><text fill="#000000" font-family="sans-serif" font-size="13" lengthAdjust="spacing" textLength="65.0825" x="249.1" y="473.6331">EntityNote</text></g><!--class User--><g class="entity" data-qualified-name="User" data-source-line="47" id="ent0007"><rect fill="#FAFAFA" height="32" rx="2.5" ry="2.5" style="stroke:#888888;stroke-width:0.5;" width="60.1963" x="466.54" y="452.72"/><ellipse cx="481.54" cy="468.72" fill="#ADD1B2" rx="11" ry="11" style="stroke:#181818;stroke-width:1;"/><path d="M484.0131,474.8631 Q483.4321,475.1619 482.7929,475.3113 Q482.1538,475.4607 481.4482,475.4607 Q478.9414,475.4607 477.6215,473.8089 Q476.3017,472.157 476.3017,469.0359 Q476.3017,465.9065 477.6215,464.2547 Q478.9414,462.6028 481.4482,462.6028 Q482.1538,462.6028 482.8012,462.7522 Q483.4487,462.9016 484.0131,463.2005 L484.0131,465.9231 Q483.3823,465.3421 482.7888,465.0723 Q482.1953,464.8025 481.5644,464.8025 Q480.2197,464.8025 479.5349,465.8692 Q478.8501,466.9358 478.8501,469.0359 Q478.8501,471.1277 479.5349,472.1944 Q480.2197,473.261 481.5644,473.261 Q482.1953,473.261 482.7888,472.9912 Q483.3823,472.7215 484.0131,472.1404 Z " fill="#000000"/><text fill="#000000" font-family="sans-serif" font-size="13" lengthAdjust="spacing" textLength="28.1963" x="495.54" y="473.6331">User</text></g><!--link Client to EntityNote--><g class="link" data-entity-1="ent0004" data-entity-2="ent0005" data-link-type="dependency" data-source-line="45" id="lnk6"><path codeLine="45" d="M308.67,369.37 C301.5,381.44 294.75,393.61 288.64,405.72 C281,420.87 276.936,433.7369 273.646,446.6069" fill="none" id="Client-to-EntityNote" style="stroke:#555555;stroke-width:1;stroke-dasharray:7,7;"/><polygon fill="#555555" points="272.16,452.42,278.2644,444.6911,273.3983,447.5758,270.5136,442.7097,272.16,452.42" style="stroke:#555555;stroke-width:1;"/><text fill="#000000" font-family="sans-serif" font-size="13" lengthAdjust="spacing" textLength="76.8701" x="289.64" y="419.2884">entity_notes</text><text fill="#000000" font-family="sans-serif" font-size="13" lengthAdjust="spacing" textLength="22.7119" x="247.7107" y="441.8605">0..*</text></g><!--link Client to User--><g class="link" data-entity-1="ent0004" data-entity-2="ent0007" data-link-type="dependency" data-source-line="47" id="lnk8"><path codeLine="47" d="M367.43,376.1 C368.95,392.55 373.92,408.38 383.64,422.72 C401.95,449.72 433.3967,459.5634 460.1467,463.8834" fill="none" id="Client-to-User" style="stroke:#555555;stroke-width:1;stroke-dasharray:7,7;"/><polygon fill="#555555" points="466.07,464.84,457.8228,459.4563,461.134,464.0429,456.5474,467.354,466.07,464.84" style="stroke:#555555;stroke-width:1;"/><text fill="#000000" font-family="sans-serif" font-size="13" lengthAdjust="spacing" textLength="68.1611" x="384.64" y="419.2884">created_by</text></g><!--link Client to User--><g class="link" data-entity-1="ent0004" data-entity-2="ent0007" data-link-type="dependency" data-source-line="48" id="lnk9"><path codeLine="48" d="M478.33,376.03 C484.67,407.8 489.104,429.9864 492.394,446.4464" fill="none" id="Client-to-User-1" style="stroke:#555555;stroke-width:1;stroke-dasharray:7,7;"/><polygon fill="#555555" points="493.57,452.33,495.7284,442.7206,492.59,447.427,487.8836,444.2886,493.57,452.33" style="stroke:#555555;stroke-width:1;"/><text fill="#000000" font-family="sans-serif" font-size="13" lengthAdjust="spacing" textLength="68.1865" x="488.42" y="419.2884">deleted_by</text></g><!--link Client to User--><g class="link" data-entity-1="ent0004" data-entity-2="ent0007" data-link-type="dependency" data-source-line="49" id="lnk10"><path codeLine="49" d="M555.98,375.98 C559.7,385.85 562.97,395.79 565.64,405.72 C567.61,413.02 569.24,416.08 565.64,422.72 C557.4,437.94 546.8921,446.1278 532.4521,453.3778" fill="none" id="Client-to-User-2" style="stroke:#555555;stroke-width:1;stroke-dasharray:7,7;"/><polygon fill="#555555" points="527.09,456.07,536.9279,455.6064,531.5584,453.8265,533.3384,448.457,527.09,456.07" style="stroke:#555555;stroke-width:1;"/><text fill="#000000" font-family="sans-serif" font-size="13" lengthAdjust="spacing" textLength="74.2549" x="568.77" y="419.2884">restored_by</text></g><?plantuml-src TLDHJnin37w_Ns6n1zeDgiA4D9rG4MDKGcXi6jjUJsbYseXSSajy7ItRVv-T7jALTjU7nlw-sFuS-n0-XLfPNu9s5ZqbW3y0TJ38db0tIbDn2DTcZk1mZjwKS7myWI_VFaD4fyW6dnQs6Gm1O3IQmFJsE7YtWe4FMuHXiR060Uk6Lb1ZFSEOYlHeVQEYgZcvIkcIADfPItYZWx-tQuJnQyeqUCh8oViUT1bZ-7qLN8ZmvYn_FV1AxdqCqM3iA1_ojqDH-d4UG-jDHvjUogyeqBT2aUxSaw8smNC1m8snI-J3Gmnhz7pGBYGqnT_knesvQqNczrM3-ORrnYwjQPKJSeXDYBazR3MSdqtYOw05HWcIzNPvuVoyUvx99CTwPmsK756GhxUJYRWUMkSghsfa957Si2gVYzZZgaWAAxVg54Ap2BuBSI4sydYudgsCYPXInJOYxG5chNN6-lbMwYs6uhPJBRfsCMrvG7RTQzjKcgUoNvWdvhx8kCwMYCZWKb4LKNegbJn4_DMYrnBvfw8j5Zx9K5OQhMCg4mngMoitE3az6W-x8fRAQwpulR17E3iwtSMhjZ7yPoebwkIueMZDeqNAK--91YVZBaFQ35QvDMS2-40eVi8dkf2nw0P2TkrWF1gzFUYKtuLSMzUKV8qNzsKTMTfZoalvUdD5ZLCHpR3in_wHyilfY5dCRBK7DEZmlo2_6eMuGVy1?></g></svg>