<?plantuml 1.2026.2?><svg xmlns="http://www.w3.org/2000/svg" xmlns:xlink="http://www.w3.org/1999/xlink" contentStyleType="text/css" data-diagram-type="CLASS" height="252px" preserveAspectRatio="none" style="width:726px;height:252px;background:#FFFFFF;" version="1.1" viewBox="0 0 726 252" width="726px" zoomAndPan="magnify"><defs/><g><!--class CorrespondenceType--><g class="entity" data-qualified-name="CorrespondenceType" data-source-line="10" id="ent0002"><rect fill="#FAFAFA" height="122.4414" rx="2.5" ry="2.5" style="stroke:#888888;stroke-width:0.5;" width="165.5547" x="7" y="10.72"/><ellipse cx="22" cy="26.72" fill="#EB937F" rx="11" ry="11" style="stroke:#181818;stroke-width:1;"/><path d="M25.6143,33.22 L17.8945,33.22 L17.8945,20.8269 L25.6143,20.8269 L25.6143,22.9851 L20.3433,22.9851 L20.3433,25.658 L25.1162,25.658 L25.1162,27.8162 L20.3433,27.8162 L20.3433,31.0618 L25.6143,31.0618 Z " fill="#000000"/><text fill="#000000" font-family="sans-serif" font-size="13" lengthAdjust="spacing" textLength="133.5547" x="36" y="31.6331">CorrespondenceType</text><line style="stroke:#888888;stroke-width:0.5;" x1="8" x2="171.5547" y1="42.72" y2="42.72"/><text fill="#000000" font-family="sans-serif" font-size="14" lengthAdjust="spacing" textLength="22.9961" x="13" y="60.2552">call</text><text fill="#000000" font-family="sans-serif" font-size="14" lengthAdjust="spacing" textLength="35.8477" x="13" y="76.7434">letter</text><text fill="#000000" font-family="sans-serif" font-size="14" lengthAdjust="spacing" textLength="36.6953" x="13" y="93.2317">email</text><text fill="#000000" font-family="sans-serif" font-size="14" lengthAdjust="spacing" textLength="55.3711" x="13" y="109.72">meeting</text><text fill="#000000" font-family="sans-serif" font-size="14" lengthAdjust="spacing" textLength="21.4648" x="13" y="126.2083">fax</text></g><!--class Correspondence--><g class="entity" data-qualified-name="Correspondence" data-source-line="18" id="ent0003"><rect fill="#FAFAFA" height="129.8848" rx="2.5" ry="2.5" style="stroke:#888888;stroke-width:0.5;" width="324.9424" x="207.31" y="7"/><ellipse cx="291.8281" cy="26.7217" fill="#ADD1B2" rx="11" ry="11" style="stroke:#181818;stroke-width:1;"/><path d="M294.3012,32.8647 Q293.7202,33.1636 293.081,33.313 Q292.4418,33.4624 291.7363,33.4624 Q289.2294,33.4624 287.9096,31.8105 Q286.5898,30.1587 286.5898,27.0376 Q286.5898,23.9082 287.9096,22.2563 Q289.2294,20.6045 291.7363,20.6045 Q292.4418,20.6045 293.0893,20.7539 Q293.7368,20.9033 294.3012,21.2021 L294.3012,23.9248 Q293.6704,23.3438 293.0768,23.074 Q292.4833,22.8042 291.8525,22.8042 Q290.5078,22.8042 289.8229,23.8708 Q289.1381,24.9375 289.1381,27.0376 Q289.1381,29.1294 289.8229,30.196 Q290.5078,31.2627 291.8525,31.2627 Q292.4833,31.2627 293.0768,30.9929 Q293.6704,30.7231 294.3012,30.1421 Z " fill="#000000"/><text fill="#000000" font-family="sans-serif" font-size="12" font-style="italic" lengthAdjust="spacing" textLength="151.4063" x="310.3281" y="23.6016">&#171;correspondence_entries&#187;</text><text fill="#000000" font-family="sans-serif" font-size="13" lengthAdjust="spacing" textLength="103.1177" x="334.4724" y="38.7012">Correspondence</text><line style="stroke:#888888;stroke-width:0.5;" x1="208.31" x2="531.2524" y1="46.4434" y2="46.4434"/><text fill="#000000" font-family="sans-serif" font-size="14" lengthAdjust="spacing" textLength="91.2256" x="213.31" y="63.9785">+id : int &#171;PK&#187;</text><text fill="#000000" font-family="sans-serif" font-size="14" lengthAdjust="spacing" textLength="312.9424" x="213.31" y="80.4668">+correspondence_type : CorrespondenceType</text><text fill="#000000" font-family="sans-serif" font-size="14" lengthAdjust="spacing" textLength="91.6221" x="213.31" y="96.9551">+subject : str</text><text fill="#000000" font-family="sans-serif" font-size="14" lengthAdjust="spacing" textLength="94.6436" x="213.31" y="113.4434">+notes : text?</text><text fill="#000000" font-family="sans-serif" font-size="14" lengthAdjust="spacing" textLength="163.8164" x="213.31" y="129.9316">+occurred_at : datetime</text></g><!--class Client--><g class="entity" data-qualified-name="Client" data-source-line="26" id="ent0004"><rect fill="#FAFAFA" height="32" rx="2.5" ry="2.5" style="stroke:#888888;stroke-width:0.5;" width="68.6831" x="116.44" y="213.88"/><ellipse cx="131.44" cy="229.88" fill="#ADD1B2" rx="11" ry="11" style="stroke:#181818;stroke-width:1;"/><path d="M133.9131,236.0231 Q133.3321,236.3219 132.6929,236.4713 Q132.0538,236.6207 131.3482,236.6207 Q128.8414,236.6207 127.5215,234.9689 Q126.2017,233.317 126.2017,230.1959 Q126.2017,227.0665 127.5215,225.4147 Q128.8414,223.7628 131.3482,223.7628 Q132.0538,223.7628 132.7012,223.9122 Q133.3487,224.0616 133.9131,224.3605 L133.9131,227.0831 Q133.2823,226.5021 132.6888,226.2323 Q132.0953,225.9625 131.4644,225.9625 Q130.1197,225.9625 129.4349,227.0292 Q128.7501,228.0958 128.7501,230.1959 Q128.7501,232.2877 129.4349,233.3544 Q130.1197,234.421 131.4644,234.421 Q132.0953,234.421 132.6888,234.1512 Q133.2823,233.8815 133.9131,233.3004 Z " fill="#000000"/><text fill="#000000" font-family="sans-serif" font-size="13" lengthAdjust="spacing" textLength="36.6831" x="145.44" y="234.7931">Client</text></g><!--class AuthorityContact--><g class="entity" data-qualified-name="AuthorityContact" data-source-line="27" id="ent0006"><rect fill="#FAFAFA" height="32" rx="2.5" ry="2.5" style="stroke:#888888;stroke-width:0.5;" width="139.2944" x="235.13" y="213.88"/><ellipse cx="250.13" cy="229.88" fill="#ADD1B2" rx="11" ry="11" style="stroke:#181818;stroke-width:1;"/><path d="M252.6031,236.0231 Q252.0221,236.3219 251.3829,236.4713 Q250.7438,236.6207 250.0382,236.6207 Q247.5314,236.6207 246.2115,234.9689 Q244.8917,233.317 244.8917,230.1959 Q244.8917,227.0665 246.2115,225.4147 Q247.5314,223.7628 250.0382,223.7628 Q250.7438,223.7628 251.3912,223.9122 Q252.0387,224.0616 252.6031,224.3605 L252.6031,227.0831 Q251.9723,226.5021 251.3788,226.2323 Q250.7853,225.9625 250.1544,225.9625 Q248.8097,225.9625 248.1249,227.0292 Q247.4401,228.0958 247.4401,230.1959 Q247.4401,232.2877 248.1249,233.3544 Q248.8097,234.421 250.1544,234.421 Q250.7853,234.421 251.3788,234.1512 Q251.9723,233.8815 252.6031,233.3004 Z " fill="#000000"/><text fill="#000000" font-family="sans-serif" font-size="13" lengthAdjust="spacing" textLength="107.2944" x="264.13" y="234.7931">AuthorityContact</text></g><!--class Business--><g class="entity" data-qualified-name="Business" data-source-line="30" id="ent0009"><rect fill="#FAFAFA" height="32" rx="2.5" ry="2.5" style="stroke:#888888;stroke-width:0.5;" width="86.4946" x="432.53" y="213.88"/><ellipse cx="447.53" cy="229.88" fill="#ADD1B2" rx="11" ry="11" style="stroke:#181818;stroke-width:1;"/><path d="M450.0031,236.0231 Q449.4221,236.3219 448.7829,236.4713 Q448.1438,236.6207 447.4382,236.6207 Q444.9314,236.6207 443.6115,234.9689 Q442.2917,233.317 442.2917,230.1959 Q442.2917,227.0665 443.6115,225.4147 Q444.9314,223.7628 447.4382,223.7628 Q448.1438,223.7628 448.7912,223.9122 Q449.4387,224.0616 450.0031,224.3605 L450.0031,227.0831 Q449.3723,226.5021 448.7788,226.2323 Q448.1853,225.9625 447.5544,225.9625 Q446.2097,225.9625 445.5249,227.0292 Q444.8401,228.0958 444.8401,230.1959 Q444.8401,232.2877 445.5249,233.3544 Q446.2097,234.421 447.5544,234.421 Q448.1853,234.421 448.7788,234.1512 Q449.3723,233.8815 450.0031,233.3004 Z " fill="#000000"/><text fill="#000000" font-family="sans-serif" font-size="13" lengthAdjust="spacing" textLength="54.4946" x="461.53" y="234.7931">Business</text></g><!--class User--><g class="entity" data-qualified-name="User" data-source-line="32" id="ent0012"><rect fill="#FAFAFA" height="32" rx="2.5" ry="2.5" style="stroke:#888888;stroke-width:0.5;" width="60.1963" x="615.68" y="213.88"/><ellipse cx="630.68" cy="229.88" fill="#ADD1B2" rx="11" ry="11" style="stroke:#181818;stroke-width:1;"/><path d="M633.1531,236.0231 Q632.5721,236.3219 631.9329,236.4713 Q631.2938,236.6207 630.5882,236.6207 Q628.0814,236.6207 626.7615,234.9689 Q625.4417,233.317 625.4417,230.1959 Q625.4417,227.0665 626.7615,225.4147 Q628.0814,223.7628 630.5882,223.7628 Q631.2938,223.7628 631.9412,223.9122 Q632.5887,224.0616 633.1531,224.3605 L633.1531,227.0831 Q632.5223,226.5021 631.9288,226.2323 Q631.3353,225.9625 630.7044,225.9625 Q629.3597,225.9625 628.6749,227.0292 Q627.9901,228.0958 627.9901,230.1959 Q627.9901,232.2877 628.6749,233.3544 Q629.3597,234.421 630.7044,234.421 Q631.3353,234.421 631.9288,234.1512 Q632.5223,233.8815 633.1531,233.3004 Z " fill="#000000"/><text fill="#000000" font-family="sans-serif" font-size="13" lengthAdjust="spacing" textLength="28.1963" x="644.68" y="234.7931">User</text></g><!--link Correspondence to Client--><g class="link" data-entity-1="ent0003" data-entity-2="ent0004" data-link-type="dependency" data-source-line="26" id="lnk5"><path codeLine="26" d="M206.81,131.09 C154.27,149.93 109.24,166.23 108.78,166.88 C97.71,182.62 108.8536,197.0595 124.1236,209.6695" fill="none" id="Correspondence-to-Client" style="stroke:#555555;stroke-width:1;stroke-dasharray:7,7;"/><polygon fill="#555555" points="128.75,213.49,124.3574,204.675,124.8947,210.3062,119.2634,210.8435,128.75,213.49" style="stroke:#555555;stroke-width:1;"/><text fill="#000000" font-family="sans-serif" font-size="13" lengthAdjust="spacing" textLength="34.3472" x="109.78" y="180.4484">client</text><text fill="#000000" font-family="sans-serif" font-size="13" lengthAdjust="spacing" textLength="24.667" x="93.5875" y="203.1962">0..1</text></g><!--link Correspondence to Client--><g class="link" data-entity-1="ent0003" data-entity-2="ent0004" data-link-type="dependency" data-source-line="29" id="lnk8"><path codeLine="29" d="M256.86,137.25 C242.36,146.7 227.98,156.69 214.78,166.88 C196.16,181.24 181.2016,196.0402 168.7816,209.2402" fill="none" id="Correspondence-to-Client-1" style="stroke:#555555;stroke-width:1;stroke-dasharray:7,7;"/><polygon fill="#555555" points="164.67,213.61,173.7505,209.7964,168.0963,209.9685,167.9242,204.3143,164.67,213.61" style="stroke:#555555;stroke-width:1;"/><text fill="#000000" font-family="sans-serif" font-size="13" lengthAdjust="spacing" textLength="52.7871" x="215.78" y="180.4484">client_id</text></g><!--link Correspondence to AuthorityContact--><g class="link" data-entity-1="ent0003" data-entity-2="ent0006" data-link-type="dependency" data-source-line="27" id="lnk7"><path codeLine="27" d="M295.9,137.37 C288.99,146.56 283,156.46 278.78,166.88 C272.34,182.78 278.2953,196.0511 287.5753,208.5611" fill="none" id="Correspondence-to-AuthorityContact" style="stroke:#555555;stroke-width:1;stroke-dasharray:7,7;"/><polygon fill="#555555" points="291.15,213.38,289.0006,203.7686,288.1711,209.3643,282.5754,208.5348,291.15,213.38" style="stroke:#555555;stroke-width:1;"/><text fill="#000000" font-family="sans-serif" font-size="13" lengthAdjust="spacing" textLength="46.2744" x="279.78" y="180.4484">contact</text><text fill="#000000" font-family="sans-serif" font-size="13" lengthAdjust="spacing" textLength="24.667" x="258.7715" y="203.0498">0..1</text></g><!--link Correspondence to AuthorityContact--><g class="link" data-entity-1="ent0003" data-entity-2="ent0006" data-link-type="dependency" data-source-line="31" id="lnk11"><path codeLine="31" d="M349.5,137.11 C343.97,152.64 337.6,169.04 330.78,183.88 C326.1,194.05 322.9885,199.8002 317.7885,208.3102" fill="none" id="Correspondence-to-AuthorityContact-1" style="stroke:#555555;stroke-width:1;stroke-dasharray:7,7;"/><polygon fill="#555555" points="314.66,213.43,322.7659,207.8359,317.267,209.1635,315.9395,203.6646,314.66,213.43" style="stroke:#555555;stroke-width:1;"/><text fill="#000000" font-family="sans-serif" font-size="13" lengthAdjust="spacing" textLength="64.7144" x="338.18" y="180.4484">contact_id</text></g><!--link Correspondence to Business--><g class="link" data-entity-1="ent0003" data-entity-2="ent0009" data-link-type="dependency" data-source-line="30" id="lnk10"><path codeLine="30" d="M413.5,137.27 C432.55,165.29 449.8762,190.7784 461.9662,208.5584" fill="none" id="Correspondence-to-Business" style="stroke:#555555;stroke-width:1;stroke-dasharray:7,7;"/><polygon fill="#555555" points="465.34,213.52,463.5871,203.8284,462.5285,209.3853,456.9716,208.3268,465.34,213.52" style="stroke:#555555;stroke-width:1;"/><text fill="#000000" font-family="sans-serif" font-size="13" lengthAdjust="spacing" textLength="73.6392" x="445.46" y="180.4484">business_id</text></g><!--link Correspondence to User--><g class="link" data-entity-1="ent0003" data-entity-2="ent0012" data-link-type="dependency" data-source-line="32" id="lnk13"><path codeLine="32" d="M483.63,137.27 C533.23,165.29 581.8961,192.7886 613.3661,210.5686" fill="none" id="Correspondence-to-User" style="stroke:#555555;stroke-width:1;stroke-dasharray:7,7;"/><polygon fill="#555555" points="618.59,213.52,612.7218,205.6103,614.2367,211.0605,608.7865,212.5755,618.59,213.52" style="stroke:#555555;stroke-width:1;"/><text fill="#000000" font-family="sans-serif" font-size="13" lengthAdjust="spacing" textLength="68.1611" x="565.22" y="180.4484">created_by</text></g><!--link Correspondence to User--><g class="link" data-entity-1="ent0003" data-entity-2="ent0012" data-link-type="dependency" data-source-line="33" id="lnk14"><path codeLine="33" d="M532.66,95.92 C574.42,109.76 615.05,131.82 641.78,166.88 C651.85,180.09 652.1539,193.9085 650.0739,207.5585" fill="none" id="Correspondence-to-User-1" style="stroke:#555555;stroke-width:1;stroke-dasharray:7,7;"/><polygon fill="#555555" points="649.17,213.49,654.4801,205.1953,649.9232,208.5471,646.5714,203.9901,649.17,213.49" style="stroke:#555555;stroke-width:1;"/><text fill="#000000" font-family="sans-serif" font-size="13" lengthAdjust="spacing" textLength="68.1865" x="649.99" y="180.4484">deleted_by</text></g><?plantuml-src VP9lQzim4CRVwrCStOisb8IMCHYcUAJP0gEKZRLx7MJfbcYHJaOwqtf_lljERWgDbrH-uVFTxwJ7Z-uKFiQW7LLWOagOsqWMoI307u0GBPP2QBLXTGgVx1h1unh9LZ2Trl3bsoqaz9fTfBnnxTa406Qp6fOtqqY-XpEAUy14RPn5mD1o3m53Wochl7NKwgG36AzpdZCdrtICdqsaE_SBuMACB2FnKBby-w8qJoa-BAAF2Twy6zQBugBqNSTaCUsGzyFw3z5ckqwn8xl3blFoA8NK2R9dqdtV8lnM04PxBo-Fp9WaGB6q908YErfBz4C_ghzA3Uf7ky3LrRxtAoHn07DT3vkVEmiLE681lzxKTKcD6hW8gGweAspkcfzeMEgPYxXpYenPFXaV-KD9H6CwwRGhNIYhMLG7B7f7IilLdbpCPfSdOfOJcOAR8NY5d7UyYSbnlv1RquCGynJ9I3qFYdUqpSEuZ6SAB8fhecvI7Jfaf6Fbx27gkikEC9U_RdRX4VAusYCDtpEc0YKKt-ogwL-1BCg8F47_0000?></g></svg>