<?plantuml 1.2026.2?><svg xmlns="http://www.w3.org/2000/svg" xmlns:xlink="http://www.w3.org/1999/xlink" contentStyleType="text/css" data-diagram-type="CLASS" height="252px" preserveAspectRatio="none" style="width:198px;height:252px;background:#FFFFFF;" version="1.1" viewBox="0 0 198 252" width="198px" zoomAndPan="magnify"><defs/><g><!--class Invoice--><g class="entity" data-qualified-name="Invoice" data-source-line="10" id="ent0002"><rect fill="#FAFAFA" height="129.8848" rx="2.5" ry="2.5" style="stroke:#888888;stroke-width:0.5;" width="184.5938" x="7" y="7"/><ellipse cx="67.3018" cy="26.7217" fill="#ADD1B2" rx="11" ry="11" style="stroke:#181818;stroke-width:1;"/><path d="M69.7749,32.8647 Q69.1938,33.1636 68.5547,33.313 Q67.9155,33.4624 67.21,33.4624 Q64.7031,33.4624 63.3833,31.8105 Q62.0635,30.1587 62.0635,27.0376 Q62.0635,23.9082 63.3833,22.2563 Q64.7031,20.6045 67.21,20.6045 Q67.9155,20.6045 68.563,20.7539 Q69.2104,20.9033 69.7749,21.2021 L69.7749,23.9248 Q69.144,23.3438 68.5505,23.074 Q67.957,22.8042 67.3262,22.8042 Q65.9814,22.8042 65.2966,23.8708 Q64.6118,24.9375 64.6118,27.0376 Q64.6118,29.1294 65.2966,30.196 Q65.9814,31.2627 67.3262,31.2627 Q67.957,31.2627 68.5505,30.9929 Q69.144,30.7231 69.7749,30.1421 Z " fill="#000000"/><text fill="#000000" font-family="sans-serif" font-size="12" font-style="italic" lengthAdjust="spacing" textLength="59.4902" x="85.8018" y="23.6016">&#171;invoices&#187;</text><text fill="#000000" font-family="sans-serif" font-size="13" lengthAdjust="spacing" textLength="44.186" x="93.4539" y="38.7012">Invoice</text><line style="stroke:#888888;stroke-width:0.5;" x1="8" x2="190.5938" y1="46.4434" y2="46.4434"/><text fill="#000000" font-family="sans-serif" font-size="14" lengthAdjust="spacing" textLength="91.2256" x="13" y="63.9785">+id : int &#171;PK&#187;</text><text fill="#000000" font-family="sans-serif" font-size="14" lengthAdjust="spacing" textLength="99.292" x="13" y="80.4668">+provider : str</text><text fill="#000000" font-family="sans-serif" font-size="14" lengthAdjust="spacing" textLength="172.5938" x="13" y="96.9551">+external_invoice_id : str</text><text fill="#000000" font-family="sans-serif" font-size="14" lengthAdjust="spacing" textLength="141.9551" x="13" y="113.4434">+document_url : str?</text><text fill="#000000" font-family="sans-serif" font-size="14" lengthAdjust="spacing" textLength="147.7383" x="13" y="129.9316">+issued_at : datetime</text></g><!--class Charge--><g class="entity" data-qualified-name="Charge" data-source-line="19" id="ent0003"><rect fill="#FAFAFA" height="32" rx="2.5" ry="2.5" style="stroke:#888888;stroke-width:0.5;" width="76.9097" x="60.84" y="213.88"/><ellipse cx="75.84" cy="229.88" fill="#ADD1B2" rx="11" ry="11" style="stroke:#181818;stroke-width:1;"/><path d="M78.3131,236.0231 Q77.7321,236.3219 77.0929,236.4713 Q76.4538,236.6207 75.7482,236.6207 Q73.2414,236.6207 71.9215,234.9689 Q70.6017,233.317 70.6017,230.1959 Q70.6017,227.0665 71.9215,225.4147 Q73.2414,223.7628 75.7482,223.7628 Q76.4538,223.7628 77.1012,223.9122 Q77.7487,224.0616 78.3131,224.3605 L78.3131,227.0831 Q77.6823,226.5021 77.0888,226.2323 Q76.4953,225.9625 75.8644,225.9625 Q74.5197,225.9625 73.8349,227.0292 Q73.1501,228.0958 73.1501,230.1959 Q73.1501,232.2877 73.8349,233.3544 Q74.5197,234.421 75.8644,234.421 Q76.4953,234.421 77.0888,234.1512 Q77.6823,233.8815 78.3131,233.3004 Z " fill="#000000"/><text fill="#000000" font-family="sans-serif" font-size="13" lengthAdjust="spacing" textLength="44.9097" x="89.84" y="234.7931">Charge</text></g><!--link Invoice to Charge--><g class="link" data-entity-1="ent0002" data-entity-2="ent0003" data-link-type="dependency" data-source-line="19" id="lnk4"><path codeLine="19" d="M99.3,137.27 C99.3,165.29 99.3,189.74 99.3,207.52" fill="none" id="Invoice-to-Charge" style="stroke:#555555;stroke-width:1;stroke-dasharray:7,7;"/><polygon fill="#555555" points="99.3,213.52,103.3,204.52,99.3,208.52,95.3,204.52,99.3,213.52" style="stroke:#555555;stroke-width:1;"/><text fill="#000000" font-family="sans-serif" font-size="13" lengthAdjust="spacing" textLength="61.0137" x="100.3" y="180.4484">charge_id</text></g><?plantuml-src PL5TImCn47pFhrZmeItIeeWWHpcfrK8fekWFED9akOOcsMEJgzQF_sukNg7MpKkOcTriPWPmJquQNu3nEp8A0Ru076aiG95hf8fY00-wHh1OezS5ZCSbFBqy0gELqP0F6zCCHm0mcPImM8t9spqCFVqHZCJ6Q0HqJTo3GxT63Y9iZMyaImVAoX1cCR9Pjn6NYloh-K2uE9KioCVCN5uTKJDcUfkJ9OQpwrn7vBphkoFMoBta9jS_YLJRcgdrkfSjPjqH8ZyCozwUwRGtAfGbV0g0SwEXSoycwdbLbXtKCEtITpaH8NA7u7j4zj9MVNULktfIaseT-bYrR7_HspmuX1Pr9MF2j8mOZKFnBL8U1vUjyTkGlJuD13IclHdrg127rRjyvXl9ASiKRhwaDSGF?></g></svg>