<?plantuml 1.2026.2?><svg xmlns="http://www.w3.org/2000/svg" xmlns:xlink="http://www.w3.org/1999/xlink" contentStyleType="text/css" data-diagram-type="CLASS" height="236px" preserveAspectRatio="none" style="width:166px;height:236px;background:#FFFFFF;" version="1.1" viewBox="0 0 166 236" width="166px" zoomAndPan="magnify"><defs/><g><!--class EntityNote--><g class="entity" data-qualified-name="EntityNote" data-source-line="10" id="ent0002"><rect fill="#FAFAFA" height="113.3965" rx="2.5" ry="2.5" style="stroke:#888888;stroke-width:0.5;" width="129.0039" x="7" y="7"/><ellipse cx="29.8627" cy="26.7217" fill="#ADD1B2" rx="11" ry="11" style="stroke:#181818;stroke-width:1;"/><path d="M32.3358,32.8647 Q31.7548,33.1636 31.1156,33.313 Q30.4765,33.4624 29.7709,33.4624 Q27.2641,33.4624 25.9442,31.8105 Q24.6244,30.1587 24.6244,27.0376 Q24.6244,23.9082 25.9442,22.2563 Q27.2641,20.6045 29.7709,20.6045 Q30.4765,20.6045 31.1239,20.7539 Q31.7714,20.9033 32.3358,21.2021 L32.3358,23.9248 Q31.705,23.3438 31.1115,23.074 Q30.518,22.8042 29.8871,22.8042 Q28.5424,22.8042 27.8576,23.8708 Q27.1728,24.9375 27.1728,27.0376 Q27.1728,29.1294 27.8576,30.196 Q28.5424,31.2627 29.8871,31.2627 Q30.518,31.2627 31.1115,30.9929 Q31.705,30.7231 32.3358,30.1421 Z " fill="#000000"/><text fill="#000000" font-family="sans-serif" font-size="12" font-style="italic" lengthAdjust="spacing" textLength="83.5313" x="43.61" y="23.6016">&#171;entity_notes&#187;</text><text fill="#000000" font-family="sans-serif" font-size="13" lengthAdjust="spacing" textLength="65.0825" x="52.8343" y="38.7012">EntityNote</text><line style="stroke:#888888;stroke-width:0.5;" x1="8" x2="135.0039" y1="46.4434" y2="46.4434"/><text fill="#000000" font-family="sans-serif" font-size="14" lengthAdjust="spacing" textLength="91.2256" x="13" y="63.9785">+id : int &#171;PK&#187;</text><text fill="#000000" font-family="sans-serif" font-size="14" lengthAdjust="spacing" textLength="117.0039" x="13" y="80.4668">+entity_type : str</text><text fill="#000000" font-family="sans-serif" font-size="14" lengthAdjust="spacing" textLength="100.5703" x="13" y="96.9551">+entity_id : int</text><text fill="#000000" font-family="sans-serif" font-size="14" lengthAdjust="spacing" textLength="81.6006" x="13" y="113.4434">+note : text</text></g><!--class User--><g class="entity" data-qualified-name="User" data-source-line="18" id="ent0003"><rect fill="#FAFAFA" height="32" rx="2.5" ry="2.5" style="stroke:#888888;stroke-width:0.5;" width="60.1963" x="41.4" y="197.4"/><ellipse cx="56.4" cy="213.4" fill="#ADD1B2" rx="11" ry="11" style="stroke:#181818;stroke-width:1;"/><path d="M58.8731,219.5431 Q58.2921,219.8419 57.6529,219.9913 Q57.0138,220.1407 56.3082,220.1407 Q53.8014,220.1407 52.4815,218.4889 Q51.1617,216.837 51.1617,213.7159 Q51.1617,210.5865 52.4815,208.9347 Q53.8014,207.2828 56.3082,207.2828 Q57.0138,207.2828 57.6612,207.4322 Q58.3087,207.5816 58.8731,207.8805 L58.8731,210.6031 Q58.2423,210.0221 57.6488,209.7523 Q57.0553,209.4825 56.4244,209.4825 Q55.0797,209.4825 54.3949,210.5492 Q53.7101,211.6158 53.7101,213.7159 Q53.7101,215.8077 54.3949,216.8744 Q55.0797,217.941 56.4244,217.941 Q57.0553,217.941 57.6488,217.6712 Q58.2423,217.4015 58.8731,216.8204 Z " fill="#000000"/><text fill="#000000" font-family="sans-serif" font-size="13" lengthAdjust="spacing" textLength="28.1963" x="70.4" y="218.3131">User</text></g><!--link EntityNote to User--><g class="link" data-entity-1="ent0002" data-entity-2="ent0003" data-link-type="dependency" data-source-line="18" id="lnk4"><path codeLine="18" d="M26.84,120.84 C21.36,130.25 16.61,140.27 13.5,150.4 C11.29,157.62 10.18,160.61 13.5,167.4 C19.56,179.76 25.8433,186.3634 36.8433,193.7234" fill="none" id="EntityNote-to-User" style="stroke:#555555;stroke-width:1;stroke-dasharray:7,7;"/><polygon fill="#555555" points="41.83,197.06,36.5743,188.7307,37.6744,194.2795,32.1255,195.3796,41.83,197.06" style="stroke:#555555;stroke-width:1;"/><text fill="#000000" font-family="sans-serif" font-size="13" lengthAdjust="spacing" textLength="68.1611" x="14.5" y="163.9684">created_by</text></g><!--link EntityNote to User--><g class="link" data-entity-1="ent0002" data-entity-2="ent0003" data-link-type="dependency" data-source-line="19" id="lnk5"><path codeLine="19" d="M86.87,120.72 C89.22,135.89 90.11,152.29 87.5,167.4 C85.75,177.53 84.2132,182.8532 80.7432,191.3732" fill="none" id="EntityNote-to-User-1" style="stroke:#555555;stroke-width:1;stroke-dasharray:7,7;"/><polygon fill="#555555" points="78.48,196.93,85.5793,190.1036,80.366,192.2993,78.1702,187.086,78.48,196.93" style="stroke:#555555;stroke-width:1;"/><text fill="#000000" font-family="sans-serif" font-size="13" lengthAdjust="spacing" textLength="68.1865" x="90.06" y="163.9684">deleted_by</text></g><?plantuml-src TP5RImCn48NVyoiE-D0MQL54aAKirDg252yeFakw6ThGN9PaYgwN_susR66jE7cQSxvCXfC1RhoLsXLmdYa2Nu3rYWfKtjQoOZ70Gcq8XZRaL87nkCJ3qnq26SdQkxZLzN04O38fiLoDlJCDXix_0aPYgnM1RCqDBDarXIZYJhjQ1cbH6HdZZ3dezPxfjlBkMNyGpewHfNUSdVEBdZKBmR_DlV419vUvUkQylNVjWwBG8LUv_Y2oscs2tplLOSjPUuJ83sFXM7DpdoB2T4gvUSs1bIK-1N2g5Gfenyb-N9LbAtKODpKbBtBeYGUybTevgMDwP_4jKjw758rskvYpF0uSYj9UWTIe4BtLsYzuYHJIj2gGP5Alw-OVG96X3lW1?></g></svg>