<?plantuml 1.2026.2?><svg xmlns="http://www.w3.org/2000/svg" xmlns:xlink="http://www.w3.org/1999/xlink" contentStyleType="text/css" data-diagram-type="CLASS" height="442px" preserveAspectRatio="none" style="width:835px;height:442px;background:#FFFFFF;" version="1.1" viewBox="0 0 835 442" width="835px" zoomAndPan="magnify"><defs/><g><!--class NotificationChannel--><g class="entity" data-qualified-name="NotificationChannel" data-source-line="10" id="ent0002"><rect fill="#FAFAFA" height="72.9766" rx="2.5" ry="2.5" style="stroke:#888888;stroke-width:0.5;" width="156.6362" x="7" y="101.41"/><ellipse cx="22" cy="117.41" fill="#EB937F" rx="11" ry="11" style="stroke:#181818;stroke-width:1;"/><path d="M25.6143,123.91 L17.8945,123.91 L17.8945,111.5169 L25.6143,111.5169 L25.6143,113.6751 L20.3433,113.6751 L20.3433,116.348 L25.1162,116.348 L25.1162,118.5062 L20.3433,118.5062 L20.3433,121.7518 L25.6143,121.7518 Z " fill="#000000"/><text fill="#000000" font-family="sans-serif" font-size="13" lengthAdjust="spacing" textLength="124.6362" x="36" y="122.3231">NotificationChannel</text><line style="stroke:#888888;stroke-width:0.5;" x1="8" x2="162.6362" y1="133.41" y2="133.41"/><text fill="#000000" font-family="sans-serif" font-size="14" lengthAdjust="spacing" textLength="64.9346" x="13" y="150.9452">whatsapp</text><text fill="#000000" font-family="sans-serif" font-size="14" lengthAdjust="spacing" textLength="36.6953" x="13" y="167.4334">email</text></g><!--class NotificationSeverity--><g class="entity" data-qualified-name="NotificationSeverity" data-source-line="15" id="ent0003"><rect fill="#FAFAFA" height="105.9531" rx="2.5" ry="2.5" style="stroke:#888888;stroke-width:0.5;" width="154.2051" x="198.22" y="84.92"/><ellipse cx="213.22" cy="100.92" fill="#EB937F" rx="11" ry="11" style="stroke:#181818;stroke-width:1;"/><path d="M216.8343,107.42 L209.1145,107.42 L209.1145,95.0269 L216.8343,95.0269 L216.8343,97.1851 L211.5633,97.1851 L211.5633,99.858 L216.3362,99.858 L216.3362,102.0162 L211.5633,102.0162 L211.5633,105.2618 L216.8343,105.2618 Z " fill="#000000"/><text fill="#000000" font-family="sans-serif" font-size="13" lengthAdjust="spacing" textLength="122.2051" x="227.22" y="105.8331">NotificationSeverity</text><line style="stroke:#888888;stroke-width:0.5;" x1="199.22" x2="351.4251" y1="116.92" y2="116.92"/><text fill="#000000" font-family="sans-serif" font-size="14" lengthAdjust="spacing" textLength="26.4824" x="204.22" y="134.4552">info</text><text fill="#000000" font-family="sans-serif" font-size="14" lengthAdjust="spacing" textLength="54.4004" x="204.22" y="150.9434">warning</text><text fill="#000000" font-family="sans-serif" font-size="14" lengthAdjust="spacing" textLength="44.8711" x="204.22" y="167.4317">urgent</text><text fill="#000000" font-family="sans-serif" font-size="14" lengthAdjust="spacing" textLength="45.1787" x="204.22" y="183.92">critical</text></g><!--class NotificationStatus--><g class="entity" data-qualified-name="NotificationStatus" data-source-line="22" id="ent0004"><rect fill="#FAFAFA" height="89.4648" rx="2.5" ry="2.5" style="stroke:#888888;stroke-width:0.5;" width="143.8584" x="13.39" y="345.8"/><ellipse cx="28.39" cy="361.8" fill="#EB937F" rx="11" ry="11" style="stroke:#181818;stroke-width:1;"/><path d="M32.0043,368.3 L24.2845,368.3 L24.2845,355.9069 L32.0043,355.9069 L32.0043,358.0651 L26.7333,358.0651 L26.7333,360.738 L31.5062,360.738 L31.5062,362.8962 L26.7333,362.8962 L26.7333,366.1418 L32.0043,366.1418 Z " fill="#000000"/><text fill="#000000" font-family="sans-serif" font-size="13" lengthAdjust="spacing" textLength="111.8584" x="42.39" y="366.7131">NotificationStatus</text><line style="stroke:#888888;stroke-width:0.5;" x1="14.39" x2="156.2484" y1="377.8" y2="377.8"/><text fill="#000000" font-family="sans-serif" font-size="14" lengthAdjust="spacing" textLength="55.5762" x="19.39" y="395.3352">pending</text><text fill="#000000" font-family="sans-serif" font-size="14" lengthAdjust="spacing" textLength="28.8613" x="19.39" y="411.8234">sent</text><text fill="#000000" font-family="sans-serif" font-size="14" lengthAdjust="spacing" textLength="37.584" x="19.39" y="428.3117">failed</text></g><!--class NotificationTrigger--><g class="entity" data-qualified-name="NotificationTrigger" data-source-line="28" id="ent0005"><rect fill="#FAFAFA" height="89.4648" rx="2.5" ry="2.5" style="stroke:#888888;stroke-width:0.5;" width="196.2832" x="192.18" y="345.8"/><ellipse cx="227.4091" cy="361.8" fill="#EB937F" rx="11" ry="11" style="stroke:#181818;stroke-width:1;"/><path d="M231.0234,368.3 L223.3037,368.3 L223.3037,355.9069 L231.0234,355.9069 L231.0234,358.0651 L225.7524,358.0651 L225.7524,360.738 L230.5253,360.738 L230.5253,362.8962 L225.7524,362.8962 L225.7524,366.1418 L231.0234,366.1418 Z " fill="#000000"/><text fill="#000000" font-family="sans-serif" font-size="13" lengthAdjust="spacing" textLength="119.3296" x="245.9045" y="366.7131">NotificationTrigger</text><line style="stroke:#888888;stroke-width:0.5;" x1="193.18" x2="387.4632" y1="377.8" y2="377.8"/><text fill="#000000" font-family="sans-serif" font-size="14" lengthAdjust="spacing" textLength="107.29" x="198.18" y="395.3352">binder_received</text><text fill="#000000" font-family="sans-serif" font-size="14" lengthAdjust="spacing" textLength="167.46" x="198.18" y="411.8234">binder_ready_for_pickup</text><text fill="#000000" font-family="sans-serif" font-size="14" lengthAdjust="spacing" textLength="184.2832" x="198.18" y="428.3117">manual_payment_reminder</text></g><!--class Notification--><g class="entity" data-qualified-name="Notification" data-source-line="34" id="ent0006"><rect fill="#FAFAFA" height="261.791" rx="2.5" ry="2.5" style="stroke:#888888;stroke-width:0.5;" width="223.4561" x="516.59" y="7"/><ellipse cx="583.6198" cy="26.7217" fill="#ADD1B2" rx="11" ry="11" style="stroke:#181818;stroke-width:1;"/><path d="M586.0929,32.8647 Q585.5119,33.1636 584.8727,33.313 Q584.2336,33.4624 583.528,33.4624 Q581.0212,33.4624 579.7013,31.8105 Q578.3815,30.1587 578.3815,27.0376 Q578.3815,23.9082 579.7013,22.2563 Q581.0212,20.6045 583.528,20.6045 Q584.2336,20.6045 584.881,20.7539 Q585.5285,20.9033 586.0929,21.2021 L586.0929,23.9248 Q585.4621,23.3438 584.8686,23.074 Q584.2751,22.8042 583.6442,22.8042 Q582.2995,22.8042 581.6147,23.8708 Q580.9298,24.9375 580.9298,27.0376 Q580.9298,29.1294 581.6147,30.196 Q582.2995,31.2627 583.6442,31.2627 Q584.2751,31.2627 584.8686,30.9929 Q585.4621,30.7231 586.0929,30.1421 Z " fill="#000000"/><text fill="#000000" font-family="sans-serif" font-size="12" font-style="italic" lengthAdjust="spacing" textLength="84.8965" x="602.1198" y="23.6016">&#171;notifications&#187;</text><text fill="#000000" font-family="sans-serif" font-size="13" lengthAdjust="spacing" textLength="73.2583" x="607.9389" y="38.7012">Notification</text><line style="stroke:#888888;stroke-width:0.5;" x1="517.59" x2="739.0461" y1="46.4434" y2="46.4434"/><text fill="#000000" font-family="sans-serif" font-size="14" lengthAdjust="spacing" textLength="91.2256" x="522.59" y="63.9785">+id : int &#171;PK&#187;</text><text fill="#000000" font-family="sans-serif" font-size="14" lengthAdjust="spacing" textLength="198.9258" x="522.59" y="80.4668">+trigger : NotificationTrigger</text><text fill="#000000" font-family="sans-serif" font-size="14" lengthAdjust="spacing" textLength="211.4561" x="522.59" y="96.9551">+channel : NotificationChannel</text><text fill="#000000" font-family="sans-serif" font-size="14" lengthAdjust="spacing" textLength="208.332" x="522.59" y="113.4434">+severity : NotificationSeverity</text><text fill="#000000" font-family="sans-serif" font-size="14" lengthAdjust="spacing" textLength="101.8486" x="522.59" y="129.9316">+recipient : str</text><text fill="#000000" font-family="sans-serif" font-size="14" lengthAdjust="spacing" textLength="171.7256" x="522.59" y="146.4199">+content_snapshot : text</text><text fill="#000000" font-family="sans-serif" font-size="14" lengthAdjust="spacing" textLength="186.0469" x="522.59" y="162.9082">+status : NotificationStatus</text><text fill="#000000" font-family="sans-serif" font-size="14" lengthAdjust="spacing" textLength="138.8857" x="522.59" y="179.3965">+sent_at : datetime?</text><text fill="#000000" font-family="sans-serif" font-size="14" lengthAdjust="spacing" textLength="147.6084" x="522.59" y="195.8848">+failed_at : datetime?</text><text fill="#000000" font-family="sans-serif" font-size="14" lengthAdjust="spacing" textLength="157.1719" x="522.59" y="212.373">+error_message : text?</text><text fill="#000000" font-family="sans-serif" font-size="14" lengthAdjust="spacing" textLength="119.5811" x="522.59" y="228.8613">+retry_count : int</text><text fill="#000000" font-family="sans-serif" font-size="14" lengthAdjust="spacing" textLength="102.7305" x="522.59" y="245.3496">+is_read : bool</text><text fill="#000000" font-family="sans-serif" font-size="14" lengthAdjust="spacing" textLength="140.0957" x="522.59" y="261.8379">+read_at : datetime?</text></g><!--class Client--><g class="entity" data-qualified-name="Client" data-source-line="51" id="ent0007"><rect fill="#FAFAFA" height="32" rx="2.5" ry="2.5" style="stroke:#888888;stroke-width:0.5;" width="68.6831" x="422.98" y="374.53"/><ellipse cx="437.98" cy="390.53" fill="#ADD1B2" rx="11" ry="11" style="stroke:#181818;stroke-width:1;"/><path d="M440.4531,396.6731 Q439.8721,396.9719 439.2329,397.1213 Q438.5938,397.2707 437.8882,397.2707 Q435.3814,397.2707 434.0615,395.6189 Q432.7417,393.967 432.7417,390.8459 Q432.7417,387.7165 434.0615,386.0647 Q435.3814,384.4128 437.8882,384.4128 Q438.5938,384.4128 439.2412,384.5622 Q439.8887,384.7116 440.4531,385.0105 L440.4531,387.7331 Q439.8223,387.1521 439.2288,386.8823 Q438.6353,386.6125 438.0044,386.6125 Q436.6597,386.6125 435.9749,387.6792 Q435.2901,388.7458 435.2901,390.8459 Q435.2901,392.9377 435.9749,394.0044 Q436.6597,395.071 438.0044,395.071 Q438.6353,395.071 439.2288,394.8012 Q439.8223,394.5315 440.4531,393.9504 Z " fill="#000000"/><text fill="#000000" font-family="sans-serif" font-size="13" lengthAdjust="spacing" textLength="36.6831" x="451.98" y="395.4431">Client</text></g><!--class Business--><g class="entity" data-qualified-name="Business" data-source-line="52" id="ent0009"><rect fill="#FAFAFA" height="32" rx="2.5" ry="2.5" style="stroke:#888888;stroke-width:0.5;" width="86.4946" x="527.07" y="374.53"/><ellipse cx="542.07" cy="390.53" fill="#ADD1B2" rx="11" ry="11" style="stroke:#181818;stroke-width:1;"/><path d="M544.5431,396.6731 Q543.9621,396.9719 543.3229,397.1213 Q542.6838,397.2707 541.9782,397.2707 Q539.4714,397.2707 538.1515,395.6189 Q536.8317,393.967 536.8317,390.8459 Q536.8317,387.7165 538.1515,386.0647 Q539.4714,384.4128 541.9782,384.4128 Q542.6838,384.4128 543.3312,384.5622 Q543.9787,384.7116 544.5431,385.0105 L544.5431,387.7331 Q543.9123,387.1521 543.3188,386.8823 Q542.7253,386.6125 542.0944,386.6125 Q540.7497,386.6125 540.0649,387.6792 Q539.3801,388.7458 539.3801,390.8459 Q539.3801,392.9377 540.0649,394.0044 Q540.7497,395.071 542.0944,395.071 Q542.7253,395.071 543.3188,394.8012 Q543.9123,394.5315 544.5431,393.9504 Z " fill="#000000"/><text fill="#000000" font-family="sans-serif" font-size="13" lengthAdjust="spacing" textLength="54.4946" x="556.07" y="395.4431">Business</text></g><!--class Binder--><g class="entity" data-qualified-name="Binder" data-source-line="53" id="ent0011"><rect fill="#FAFAFA" height="32" rx="2.5" ry="2.5" style="stroke:#888888;stroke-width:0.5;" width="72.0474" x="649.29" y="374.53"/><ellipse cx="664.29" cy="390.53" fill="#ADD1B2" rx="11" ry="11" style="stroke:#181818;stroke-width:1;"/><path d="M666.7631,396.6731 Q666.1821,396.9719 665.5429,397.1213 Q664.9038,397.2707 664.1982,397.2707 Q661.6914,397.2707 660.3715,395.6189 Q659.0517,393.967 659.0517,390.8459 Q659.0517,387.7165 660.3715,386.0647 Q661.6914,384.4128 664.1982,384.4128 Q664.9038,384.4128 665.5512,384.5622 Q666.1987,384.7116 666.7631,385.0105 L666.7631,387.7331 Q666.1323,387.1521 665.5388,386.8823 Q664.9453,386.6125 664.3144,386.6125 Q662.9697,386.6125 662.2849,387.6792 Q661.6001,388.7458 661.6001,390.8459 Q661.6001,392.9377 662.2849,394.0044 Q662.9697,395.071 664.3144,395.071 Q664.9453,395.071 665.5388,394.8012 Q666.1323,394.5315 666.7631,393.9504 Z " fill="#000000"/><text fill="#000000" font-family="sans-serif" font-size="13" lengthAdjust="spacing" textLength="40.0474" x="678.29" y="395.4431">Binder</text></g><!--class User--><g class="entity" data-qualified-name="User" data-source-line="54" id="ent0013"><rect fill="#FAFAFA" height="32" rx="2.5" ry="2.5" style="stroke:#888888;stroke-width:0.5;" width="60.1963" x="756.22" y="374.53"/><ellipse cx="771.22" cy="390.53" fill="#ADD1B2" rx="11" ry="11" style="stroke:#181818;stroke-width:1;"/><path d="M773.6931,396.6731 Q773.1121,396.9719 772.4729,397.1213 Q771.8338,397.2707 771.1282,397.2707 Q768.6214,397.2707 767.3015,395.6189 Q765.9817,393.967 765.9817,390.8459 Q765.9817,387.7165 767.3015,386.0647 Q768.6214,384.4128 771.1282,384.4128 Q771.8338,384.4128 772.4812,384.5622 Q773.1287,384.7116 773.6931,385.0105 L773.6931,387.7331 Q773.0623,387.1521 772.4688,386.8823 Q771.8753,386.6125 771.2444,386.6125 Q769.8997,386.6125 769.2149,387.6792 Q768.5301,388.7458 768.5301,390.8459 Q768.5301,392.9377 769.2149,394.0044 Q769.8997,395.071 771.2444,395.071 Q771.8753,395.071 772.4688,394.8012 Q773.0623,394.5315 773.6931,393.9504 Z " fill="#000000"/><text fill="#000000" font-family="sans-serif" font-size="13" lengthAdjust="spacing" textLength="28.1963" x="785.22" y="395.4431">User</text></g><!--link Notification to Client--><g class="link" data-entity-1="ent0006" data-entity-2="ent0007" data-link-type="dependency" data-source-line="51" id="lnk8"><path codeLine="51" d="M537.51,269.19 C530.65,279.19 523.86,289.14 517.32,298.8 C499.52,325.06 482.522,350.9072 470.682,369.0272" fill="none" id="Notification-to-Client" style="stroke:#555555;stroke-width:1;stroke-dasharray:7,7;"/><polygon fill="#555555" points="467.4,374.05,475.6715,368.7038,470.135,369.8643,468.9745,364.3278,467.4,374.05" style="stroke:#555555;stroke-width:1;"/><text fill="#000000" font-family="sans-serif" font-size="13" lengthAdjust="spacing" textLength="52.7871" x="518.32" y="312.3684">client_id</text></g><!--link Notification to Business--><g class="link" data-entity-1="ent0006" data-entity-2="ent0009" data-link-type="dependency" data-source-line="52" id="lnk10"><path codeLine="52" d="M589.17,268.96 C586.68,279.01 584.35,289.04 582.32,298.8 C576.83,325.08 573.9303,350.2272 572.2003,368.3472" fill="none" id="Notification-to-Business" style="stroke:#555555;stroke-width:1;stroke-dasharray:7,7;"/><polygon fill="#555555" points="571.63,374.32,576.4673,365.7409,572.1052,369.3426,568.5035,364.9806,571.63,374.32" style="stroke:#555555;stroke-width:1;"/><text fill="#000000" font-family="sans-serif" font-size="13" lengthAdjust="spacing" textLength="73.6392" x="583.32" y="312.3684">business_id</text></g><!--link Notification to Binder--><g class="link" data-entity-1="ent0006" data-entity-2="ent0011" data-link-type="dependency" data-source-line="53" id="lnk12"><path codeLine="53" d="M657.9,268.99 C667.5,311.18 675.5989,346.7995 680.5089,368.3795" fill="none" id="Notification-to-Binder" style="stroke:#555555;stroke-width:1;stroke-dasharray:7,7;"/><polygon fill="#555555" points="681.84,374.23,683.7436,364.5669,680.7307,369.3546,675.943,366.3417,681.84,374.23" style="stroke:#555555;stroke-width:1;"/><text fill="#000000" font-family="sans-serif" font-size="13" lengthAdjust="spacing" textLength="59.1919" x="669.48" y="312.3684">binder_id</text></g><!--link Notification to User--><g class="link" data-entity-1="ent0006" data-entity-2="ent0013" data-link-type="dependency" data-source-line="54" id="lnk14"><path codeLine="54" d="M718.66,269.07 C725.1,279.05 731.38,289.04 737.32,298.8 C753.05,324.64 766.6428,350.5505 775.9228,368.8205" fill="none" id="Notification-to-User" style="stroke:#555555;stroke-width:1;stroke-dasharray:7,7;"/><polygon fill="#555555" points="778.64,374.17,778.1305,364.3343,776.3757,369.7121,770.9979,367.9573,778.64,374.17" style="stroke:#555555;stroke-width:1;"/><text fill="#000000" font-family="sans-serif" font-size="13" lengthAdjust="spacing" textLength="79.6123" x="748.33" y="312.3684">triggered_by</text></g><?plantuml-src TLFRYjim47ttLmpq8HjAbfPIA6RnaaqRA4ilTDjdeqWJPuXrGP9twrx-lIF9BTcDQxyCcdFcScPc0M-j5cHgC3RIdgI8P0t0Bm1j5TOWhNP2nce1xrI7q6E7HjMmMZNmwSi7yDXdHZYGkrW2mELb0zlRbJNz21V6FW8igmCf1DGkZg1Hxz27AXp9EE651jcB4DOnUjeD4TzBQ-xe1yABfv2jDJ5xNhuwSQszjmyRsriFprxdxyIvIRmRwnNw2V8cVsSG8O-TjuDH4soxJdzLeHaqV3oHQ7CGnc0FFok0XuE8GJZ79hAOVVLxXd27z-Y96qyCCdkRYC8RCXrRWsTT8nkICSpuJumeuX1o1CTZADHGY7jEZ6gMzjLJrw7Fl1qP5g7rA97k6N_o8jJOxgrl7SdZa9hHmWoYRvqODUTWXCxGb2CFub4IkBewNQ7GD3dVSr9GSx-H_PzlcoOznQcUUgxA192JkFMSv0aG_efPpsgS8DmXEUAw6HDY2SkBane9HhXmiCaJyNlC0OkozOpS9H_JH28e4J6InklqN3IVSI0lesyrXY3uQ4gQwr9Lz6ChUSDYaILB5BBw_B2pjYymSHQMLL_yEwsUp37a0tjwXQ2GX-DHBUlgqNpIPMxwIH6PZPRKEUPc26IuybJEPCxZyZ8aL5cWESota17Jm5cgtLZz0G00?></g></svg>