<?plantuml 1.2026.2?><svg xmlns="http://www.w3.org/2000/svg" xmlns:xlink="http://www.w3.org/1999/xlink" contentStyleType="text/css" data-diagram-type="CLASS" height="607px" preserveAspectRatio="none" style="width:940px;height:607px;background:#FFFFFF;" version="1.1" viewBox="0 0 940 607" width="940px" zoomAndPan="magnify"><defs/><g><!--class DocumentScope--><g class="entity" data-qualified-name="DocumentScope" data-source-line="10" id="ent0002"><rect fill="#FAFAFA" height="72.9766" rx="2.5" ry="2.5" style="stroke:#888888;stroke-width:0.5;" width="133.8291" x="28.01" y="126.14"/><ellipse cx="43.01" cy="142.14" fill="#EB937F" rx="11" ry="11" style="stroke:#181818;stroke-width:1;"/><path d="M46.6243,148.64 L38.9045,148.64 L38.9045,136.2469 L46.6243,136.2469 L46.6243,138.4051 L41.3533,138.4051 L41.3533,141.078 L46.1262,141.078 L46.1262,143.2362 L41.3533,143.2362 L41.3533,146.4818 L46.6243,146.4818 Z " fill="#000000"/><text fill="#000000" font-family="sans-serif" font-size="13" lengthAdjust="spacing" textLength="101.8291" x="57.01" y="147.0531">DocumentScope</text><line style="stroke:#888888;stroke-width:0.5;" x1="29.01" x2="160.8391" y1="158.14" y2="158.14"/><text fill="#000000" font-family="sans-serif" font-size="14" lengthAdjust="spacing" textLength="36.9893" x="34.01" y="175.6752">client</text><text fill="#000000" font-family="sans-serif" font-size="14" lengthAdjust="spacing" textLength="59.4453" x="34.01" y="192.1634">business</text></g><!--class DocumentStatus--><g class="entity" data-qualified-name="DocumentStatus" data-source-line="15" id="ent0003"><rect fill="#FAFAFA" height="105.9531" rx="2.5" ry="2.5" style="stroke:#888888;stroke-width:0.5;" width="135.3589" x="197.25" y="109.65"/><ellipse cx="212.25" cy="125.65" fill="#EB937F" rx="11" ry="11" style="stroke:#181818;stroke-width:1;"/><path d="M215.8643,132.15 L208.1445,132.15 L208.1445,119.7569 L215.8643,119.7569 L215.8643,121.9151 L210.5933,121.9151 L210.5933,124.588 L215.3662,124.588 L215.3662,126.7462 L210.5933,126.7462 L210.5933,129.9918 L215.8643,129.9918 Z " fill="#000000"/><text fill="#000000" font-family="sans-serif" font-size="13" lengthAdjust="spacing" textLength="103.3589" x="226.25" y="130.5631">DocumentStatus</text><line style="stroke:#888888;stroke-width:0.5;" x1="198.25" x2="331.6089" y1="141.65" y2="141.65"/><text fill="#000000" font-family="sans-serif" font-size="14" lengthAdjust="spacing" textLength="55.5762" x="203.25" y="159.1852">pending</text><text fill="#000000" font-family="sans-serif" font-size="14" lengthAdjust="spacing" textLength="56.4033" x="203.25" y="175.6734">received</text><text fill="#000000" font-family="sans-serif" font-size="14" lengthAdjust="spacing" textLength="63.54" x="203.25" y="192.1617">approved</text><text fill="#000000" font-family="sans-serif" font-size="14" lengthAdjust="spacing" textLength="54.6055" x="203.25" y="208.65">rejected</text></g><!--class DocumentType--><g class="entity" data-qualified-name="DocumentType" data-source-line="22" id="ent0004"><rect fill="#FAFAFA" height="204.8828" rx="2.5" ry="2.5" style="stroke:#888888;stroke-width:0.5;" width="175.8574" x="7" y="395.26"/><ellipse cx="43.8977" cy="411.26" fill="#EB937F" rx="11" ry="11" style="stroke:#181818;stroke-width:1;"/><path d="M47.512,417.76 L39.7923,417.76 L39.7923,405.3669 L47.512,405.3669 L47.512,407.5251 L42.241,407.5251 L42.241,410.198 L47.0139,410.198 L47.0139,412.3562 L42.241,412.3562 L42.241,415.6018 L47.512,415.6018 Z " fill="#000000"/><text fill="#000000" font-family="sans-serif" font-size="13" lengthAdjust="spacing" textLength="95.1958" x="62.7639" y="416.1731">DocumentType</text><line style="stroke:#888888;stroke-width:0.5;" x1="8" x2="181.8574" y1="427.26" y2="427.26"/><text fill="#000000" font-family="sans-serif" font-size="14" lengthAdjust="spacing" textLength="51.7549" x="13" y="444.7952">id_copy</text><text fill="#000000" font-family="sans-serif" font-size="14" lengthAdjust="spacing" textLength="125.8086" x="13" y="461.2834">power_of_attorney</text><text fill="#000000" font-family="sans-serif" font-size="14" lengthAdjust="spacing" textLength="163.8574" x="13" y="477.7717">engagement_agreement</text><text fill="#000000" font-family="sans-serif" font-size="14" lengthAdjust="spacing" textLength="61.0996" x="13" y="494.26">tax_form</text><text fill="#000000" font-family="sans-serif" font-size="14" lengthAdjust="spacing" textLength="46.5938" x="13" y="510.7483">receipt</text><text fill="#000000" font-family="sans-serif" font-size="14" lengthAdjust="spacing" textLength="79.1807" x="13" y="527.2366">invoice_doc</text><text fill="#000000" font-family="sans-serif" font-size="14" lengthAdjust="spacing" textLength="99.1211" x="13" y="543.7248">bank_approval</text><text fill="#000000" font-family="sans-serif" font-size="14" lengthAdjust="spacing" textLength="154.4854" x="13" y="560.2131">withholding_certificate</text><text fill="#000000" font-family="sans-serif" font-size="14" lengthAdjust="spacing" textLength="82.4893" x="13" y="576.7014">nii_approval</text><text fill="#000000" font-family="sans-serif" font-size="14" lengthAdjust="spacing" textLength="36.0527" x="13" y="593.1897">other</text></g><!--class PermanentDocument--><g class="entity" data-qualified-name="PermanentDocument" data-source-line="35" id="ent0005"><rect fill="#FAFAFA" height="311.2559" rx="2.5" ry="2.5" style="stroke:#888888;stroke-width:0.5;" width="243.1641" x="436.35" y="7"/><ellipse cx="482.642" cy="26.7217" fill="#ADD1B2" rx="11" ry="11" style="stroke:#181818;stroke-width:1;"/><path d="M485.1151,32.8647 Q484.5341,33.1636 483.8949,33.313 Q483.2558,33.4624 482.5502,33.4624 Q480.0434,33.4624 478.7235,31.8105 Q477.4037,30.1587 477.4037,27.0376 Q477.4037,23.9082 478.7235,22.2563 Q480.0434,20.6045 482.5502,20.6045 Q483.2558,20.6045 483.9032,20.7539 Q484.5507,20.9033 485.1151,21.2021 L485.1151,23.9248 Q484.4843,23.3438 483.8908,23.074 Q483.2973,22.8042 482.6664,22.8042 Q481.3217,22.8042 480.6369,23.8708 Q479.9521,24.9375 479.9521,27.0376 Q479.9521,29.1294 480.6369,30.196 Q481.3217,31.2627 482.6664,31.2627 Q483.2973,31.2627 483.8908,30.9929 Q484.4843,30.7231 485.1151,30.1421 Z " fill="#000000"/><text fill="#000000" font-family="sans-serif" font-size="12" font-style="italic" lengthAdjust="spacing" textLength="146.0801" x="501.142" y="23.6016">&#171;permanent_documents&#187;</text><text fill="#000000" font-family="sans-serif" font-size="13" lengthAdjust="spacing" textLength="132.063" x="508.1505" y="38.7012">PermanentDocument</text><line style="stroke:#888888;stroke-width:0.5;" x1="437.35" x2="678.5141" y1="46.4434" y2="46.4434"/><text fill="#000000" font-family="sans-serif" font-size="14" lengthAdjust="spacing" textLength="91.2256" x="442.35" y="63.9785">+id : int &#171;PK&#187;</text><text fill="#000000" font-family="sans-serif" font-size="14" lengthAdjust="spacing" textLength="173.5986" x="442.35" y="80.4668">+scope : DocumentScope</text><text fill="#000000" font-family="sans-serif" font-size="14" lengthAdjust="spacing" textLength="231.1641" x="442.35" y="96.9551">+document_type : DocumentType</text><text fill="#000000" font-family="sans-serif" font-size="14" lengthAdjust="spacing" textLength="123.7783" x="442.35" y="113.4434">+storage_key : str</text><text fill="#000000" font-family="sans-serif" font-size="14" lengthAdjust="spacing" textLength="165.375" x="442.35" y="129.9316">+original_filename : str?</text><text fill="#000000" font-family="sans-serif" font-size="14" lengthAdjust="spacing" textLength="146.6445" x="442.35" y="146.4199">+file_size_bytes : int?</text><text fill="#000000" font-family="sans-serif" font-size="14" lengthAdjust="spacing" textLength="122.5752" x="442.35" y="162.9082">+mime_type : str?</text><text fill="#000000" font-family="sans-serif" font-size="14" lengthAdjust="spacing" textLength="105.4238" x="442.35" y="179.3965">+tax_year : int?</text><text fill="#000000" font-family="sans-serif" font-size="14" lengthAdjust="spacing" textLength="123.8604" x="442.35" y="195.8848">+is_present : bool</text><text fill="#000000" font-family="sans-serif" font-size="14" lengthAdjust="spacing" textLength="122.9648" x="442.35" y="212.373">+is_deleted : bool</text><text fill="#000000" font-family="sans-serif" font-size="14" lengthAdjust="spacing" textLength="176.8936" x="442.35" y="228.8613">+status : DocumentStatus</text><text fill="#000000" font-family="sans-serif" font-size="14" lengthAdjust="spacing" textLength="91.6357" x="442.35" y="245.3496">+version : int</text><text fill="#000000" font-family="sans-serif" font-size="14" lengthAdjust="spacing" textLength="85.8867" x="442.35" y="261.8379">+notes : str?</text><text fill="#000000" font-family="sans-serif" font-size="14" lengthAdjust="spacing" textLength="167.4189" x="442.35" y="278.3262">+uploaded_at : datetime</text><text fill="#000000" font-family="sans-serif" font-size="14" lengthAdjust="spacing" textLength="173.5645" x="442.35" y="294.8145">+approved_at : datetime?</text><text fill="#000000" font-family="sans-serif" font-size="14" lengthAdjust="spacing" textLength="164.6299" x="442.35" y="311.3027">+rejected_at : datetime?</text></g><!--class Client--><g class="entity" data-qualified-name="Client" data-source-line="56" id="ent0007"><rect fill="#FAFAFA" height="32" rx="2.5" ry="2.5" style="stroke:#888888;stroke-width:0.5;" width="68.6831" x="250.59" y="481.7"/><ellipse cx="265.59" cy="497.7" fill="#ADD1B2" rx="11" ry="11" style="stroke:#181818;stroke-width:1;"/><path d="M268.0631,503.8431 Q267.4821,504.1419 266.8429,504.2913 Q266.2038,504.4407 265.4982,504.4407 Q262.9914,504.4407 261.6715,502.7889 Q260.3517,501.137 260.3517,498.0159 Q260.3517,494.8865 261.6715,493.2347 Q262.9914,491.5828 265.4982,491.5828 Q266.2038,491.5828 266.8512,491.7322 Q267.4987,491.8816 268.0631,492.1805 L268.0631,494.9031 Q267.4323,494.3221 266.8388,494.0523 Q266.2453,493.7825 265.6144,493.7825 Q264.2697,493.7825 263.5849,494.8492 Q262.9001,495.9158 262.9001,498.0159 Q262.9001,500.1077 263.5849,501.1744 Q264.2697,502.241 265.6144,502.241 Q266.2453,502.241 266.8388,501.9712 Q267.4323,501.7015 268.0631,501.1204 Z " fill="#000000"/><text fill="#000000" font-family="sans-serif" font-size="13" lengthAdjust="spacing" textLength="36.6831" x="279.59" y="502.6131">Client</text></g><!--class Business--><g class="entity" data-qualified-name="Business" data-source-line="57" id="ent0009"><rect fill="#FAFAFA" height="32" rx="2.5" ry="2.5" style="stroke:#888888;stroke-width:0.5;" width="86.4946" x="354.68" y="481.7"/><ellipse cx="369.68" cy="497.7" fill="#ADD1B2" rx="11" ry="11" style="stroke:#181818;stroke-width:1;"/><path d="M372.1531,503.8431 Q371.5721,504.1419 370.9329,504.2913 Q370.2938,504.4407 369.5882,504.4407 Q367.0814,504.4407 365.7615,502.7889 Q364.4417,501.137 364.4417,498.0159 Q364.4417,494.8865 365.7615,493.2347 Q367.0814,491.5828 369.5882,491.5828 Q370.2938,491.5828 370.9412,491.7322 Q371.5887,491.8816 372.1531,492.1805 L372.1531,494.9031 Q371.5223,494.3221 370.9288,494.0523 Q370.3353,493.7825 369.7044,493.7825 Q368.3597,493.7825 367.6749,494.8492 Q366.9901,495.9158 366.9901,498.0159 Q366.9901,500.1077 367.6749,501.1744 Q368.3597,502.241 369.7044,502.241 Q370.3353,502.241 370.9288,501.9712 Q371.5223,501.7015 372.1531,501.1204 Z " fill="#000000"/><text fill="#000000" font-family="sans-serif" font-size="13" lengthAdjust="spacing" textLength="54.4946" x="383.68" y="502.6131">Business</text></g><!--class AnnualReport--><g class="entity" data-qualified-name="AnnualReport" data-source-line="58" id="ent0011"><rect fill="#FAFAFA" height="32" rx="2.5" ry="2.5" style="stroke:#888888;stroke-width:0.5;" width="117.9219" x="475.97" y="481.7"/><ellipse cx="490.97" cy="497.7" fill="#ADD1B2" rx="11" ry="11" style="stroke:#181818;stroke-width:1;"/><path d="M493.4431,503.8431 Q492.8621,504.1419 492.2229,504.2913 Q491.5838,504.4407 490.8782,504.4407 Q488.3714,504.4407 487.0515,502.7889 Q485.7317,501.137 485.7317,498.0159 Q485.7317,494.8865 487.0515,493.2347 Q488.3714,491.5828 490.8782,491.5828 Q491.5838,491.5828 492.2312,491.7322 Q492.8787,491.8816 493.4431,492.1805 L493.4431,494.9031 Q492.8123,494.3221 492.2188,494.0523 Q491.6253,493.7825 490.9944,493.7825 Q489.6497,493.7825 488.9649,494.8492 Q488.2801,495.9158 488.2801,498.0159 Q488.2801,500.1077 488.9649,501.1744 Q489.6497,502.241 490.9944,502.241 Q491.6253,502.241 492.2188,501.9712 Q492.8123,501.7015 493.4431,501.1204 Z " fill="#000000"/><text fill="#000000" font-family="sans-serif" font-size="13" lengthAdjust="spacing" textLength="85.9219" x="504.97" y="502.6131">AnnualReport</text></g><!--class User--><g class="entity" data-qualified-name="User" data-source-line="59" id="ent0013"><rect fill="#FAFAFA" height="32" rx="2.5" ry="2.5" style="stroke:#888888;stroke-width:0.5;" width="60.1963" x="763.83" y="481.7"/><ellipse cx="778.83" cy="497.7" fill="#ADD1B2" rx="11" ry="11" style="stroke:#181818;stroke-width:1;"/><path d="M781.3031,503.8431 Q780.7221,504.1419 780.0829,504.2913 Q779.4438,504.4407 778.7382,504.4407 Q776.2314,504.4407 774.9115,502.7889 Q773.5917,501.137 773.5917,498.0159 Q773.5917,494.8865 774.9115,493.2347 Q776.2314,491.5828 778.7382,491.5828 Q779.4438,491.5828 780.0912,491.7322 Q780.7387,491.8816 781.3031,492.1805 L781.3031,494.9031 Q780.6723,494.3221 780.0788,494.0523 Q779.4853,493.7825 778.8544,493.7825 Q777.5097,493.7825 776.8249,494.8492 Q776.1401,495.9158 776.1401,498.0159 Q776.1401,500.1077 776.8249,501.1744 Q777.5097,502.241 778.8544,502.241 Q779.4853,502.241 780.0788,501.9712 Q780.6723,501.7015 781.3031,501.1204 Z " fill="#000000"/><text fill="#000000" font-family="sans-serif" font-size="13" lengthAdjust="spacing" textLength="28.1963" x="792.83" y="502.6131">User</text></g><!--link PermanentDocument to PermanentDocument--><g class="link" data-entity-1="ent0005" data-entity-2="ent0005" data-link-type="dependency" data-source-line="54" id="lnk6"><path codeLine="54" d="M679.71,128.72 C700.29,133.41 714.51,144.71 714.51,162.63 C714.51,180.54 706.14,190.5168 685.56,195.2068" fill="none" id="PermanentDocument-to-PermanentDocument" style="stroke:#555555;stroke-width:1;"/><polygon fill="#555555" points="679.71,196.54,689.3738,198.4403,684.585,195.429,687.5962,190.6402,679.71,196.54" style="stroke:#555555;stroke-width:1;"/><text fill="#000000" font-family="sans-serif" font-size="13" lengthAdjust="spacing" textLength="123.7158" x="720.51" y="167.6984">superseded_by_doc</text><text fill="#000000" font-family="sans-serif" font-size="13" lengthAdjust="spacing" textLength="24.667" x="687.4633" y="195.6443">0..1</text></g><!--link PermanentDocument to Client--><g class="link" data-entity-1="ent0005" data-entity-2="ent0007" data-link-type="dependency" data-source-line="56" id="lnk8"><path codeLine="56" d="M436,271.64 C400.3,308.1 363.71,350.88 336.93,395.26 C319.14,424.74 304.0558,455.5769 294.5858,475.7869" fill="none" id="PermanentDocument-to-Client" style="stroke:#555555;stroke-width:1;stroke-dasharray:7,7;"/><polygon fill="#555555" points="292.04,481.22,299.4808,474.7676,294.1615,476.6924,292.2367,471.3731,292.04,481.22" style="stroke:#555555;stroke-width:1;"/><text fill="#000000" font-family="sans-serif" font-size="13" lengthAdjust="spacing" textLength="52.7871" x="367.21" y="361.8284">client_id</text></g><!--link PermanentDocument to Business--><g class="link" data-entity-1="ent0005" data-entity-2="ent0009" data-link-type="dependency" data-source-line="57" id="lnk10"><path codeLine="57" d="M452.44,318.59 C447.22,328.46 442.33,338.4 437.93,348.26 C417.26,394.57 406.2772,447.9903 401.4472,475.5103" fill="none" id="PermanentDocument-to-Business" style="stroke:#555555;stroke-width:1;stroke-dasharray:7,7;"/><polygon fill="#555555" points="400.41,481.42,405.9056,473.247,401.2743,476.4953,398.026,471.864,400.41,481.42" style="stroke:#555555;stroke-width:1;"/><text fill="#000000" font-family="sans-serif" font-size="13" lengthAdjust="spacing" textLength="73.6392" x="438.93" y="361.8284">business_id</text></g><!--link PermanentDocument to AnnualReport--><g class="link" data-entity-1="ent0005" data-entity-2="ent0011" data-link-type="dependency" data-source-line="58" id="lnk12"><path codeLine="58" d="M522,318.64 C520.62,334.32 520.12,350.06 520.93,365.26 C523.17,407.42 528.6089,450.9351 531.9489,475.4151" fill="none" id="PermanentDocument-to-AnnualReport" style="stroke:#555555;stroke-width:1;stroke-dasharray:7,7;"/><polygon fill="#555555" points="532.76,481.36,535.5066,471.9019,532.0841,476.4059,527.58,472.9834,532.76,481.36" style="stroke:#555555;stroke-width:1;"/><text fill="#000000" font-family="sans-serif" font-size="13" lengthAdjust="spacing" textLength="106.1709" x="521.93" y="361.8284">annual_report_id</text></g><!--link PermanentDocument to User--><g class="link" data-entity-1="ent0005" data-entity-2="ent0013" data-link-type="dependency" data-source-line="59" id="lnk14"><path codeLine="59" d="M637.88,318.65 C647.76,334.76 658.19,350.59 668.93,365.26 C702.59,411.25 746.7136,453.8694 772.2736,477.2594" fill="none" id="PermanentDocument-to-User" style="stroke:#555555;stroke-width:1;stroke-dasharray:7,7;"/><polygon fill="#555555" points="776.7,481.31,772.7608,472.2832,773.0114,477.9345,767.3601,478.185,776.7,481.31" style="stroke:#555555;stroke-width:1;"/><text fill="#000000" font-family="sans-serif" font-size="13" lengthAdjust="spacing" textLength="80.2534" x="669.93" y="361.8284">uploaded_by</text></g><!--link PermanentDocument to User--><g class="link" data-entity-1="ent0005" data-entity-2="ent0013" data-link-type="dependency" data-source-line="60" id="lnk15"><path codeLine="60" d="M679.97,257.8 C707.97,284.43 735.25,315.24 754.93,348.26 C780.98,391.98 789.2711,447.12 792.1011,475.33" fill="none" id="PermanentDocument-to-User-1" style="stroke:#555555;stroke-width:1;stroke-dasharray:7,7;"/><polygon fill="#555555" points="792.7,481.3,795.7817,471.9457,792.2009,476.325,787.8216,472.7442,792.7,481.3" style="stroke:#555555;stroke-width:1;"/><text fill="#000000" font-family="sans-serif" font-size="13" lengthAdjust="spacing" textLength="80.4756" x="763.73" y="361.8284">approved_by</text></g><!--link PermanentDocument to User--><g class="link" data-entity-1="ent0005" data-entity-2="ent0013" data-link-type="dependency" data-source-line="61" id="lnk16"><path codeLine="61" d="M679.97,206.41 C743.72,235.71 815.97,281.53 852.93,348.26 C878.46,394.35 837.6037,449.3302 812.7737,476.9202" fill="none" id="PermanentDocument-to-User-2" style="stroke:#555555;stroke-width:1;stroke-dasharray:7,7;"/><polygon fill="#555555" points="808.76,481.38,817.7538,477.366,812.1047,477.6635,811.8073,472.0144,808.76,481.38" style="stroke:#555555;stroke-width:1;"/><text fill="#000000" font-family="sans-serif" font-size="13" lengthAdjust="spacing" textLength="72.1792" x="859.84" y="361.8284">rejected_by</text></g><?plantuml-src XLJRRjim37ttLn3TGriC3LeC0mQZo91sAp0KmufsUnOKYt6qoA8XoUsyox-FbECWIPlDVg5u3iLZNdmC7wZHrfVGOcYqHv-KeQfhs8W0lm4QCbX2HKshgrGSmqTJ8pYiqPiIpiwcyEN-CmHqEbdoSMdRarC0c4ocS7DxHjxrSE9fXt1QBAr1mAPDFJJOp3748gwiRtNG3LHEnpXBATXvb_1JHVx1_aGutwVSa4yPkNYp1Sr2eAThSXJWrTlyR87N4dT5mM1OKzxbvnb5LwiwKEVDcdOpaxSeq7SDLsoepqD5BSAl0bYFvJCRyovQZp4MV_QvIQSkPdBBbRE-PYjWXVOH3PkwRGCDPi3lM2Ksz-_usg_JMQCuTIztqHC6HGkbKwBWKNpeQrsZ12XT1ymMkvF-eHOKcZ5lAqxh7ybMA2qNzTglrA14Epu_sRHSaXErgiAGxC9MEY4Ztjfj8gKb1j6R6mDtuoYDok7oyeNncaxprxos1afM8goxs-bKN36NjjmjjG1Zi4hz3a5gamEv3FprQeKzep45SLAmjVNQgOLrw7M30_HUC76fo6Eavdt2E2Z9I6CR7DECR2bYZpfiqMnKRS0eNrd2dCYjdGOTSXUtd76OWN9lA0Hwv1NWxHYk5OUdGSoOk6iTQOE66yrUmrr8B4-GSN9saHmqJj8-n8rwtY9PvQFpoUJYw8N-iP2EEnXH9CpxF2_7cmLtrgzYNlFzVm4Ov948Q4xB5rBAJ-8whmud67P8MNE0UBLUBIdesZnCdddVQNUFBGMvM-UZ2lbyEEfRHEdifjRp_j_4JUd_HzmqWeb_0G00?></g></svg>