<?plantuml 1.2026.2?><svg xmlns="http://www.w3.org/2000/svg" xmlns:xlink="http://www.w3.org/1999/xlink" contentStyleType="text/css" data-diagram-type="CLASS" height="318px" preserveAspectRatio="none" style="width:1219px;height:318px;background:#FFFFFF;" version="1.1" viewBox="0 0 1219 318" width="1219px" zoomAndPan="magnify"><defs/><g><!--class ReminderStatus--><g class="entity" data-qualified-name="ReminderStatus" data-source-line="10" id="ent0002"><rect fill="#FAFAFA" height="105.9531" rx="2.5" ry="2.5" style="stroke:#888888;stroke-width:0.5;" width="130.7695" x="69.96" y="51.94"/><ellipse cx="84.96" cy="67.94" fill="#EB937F" rx="11" ry="11" style="stroke:#181818;stroke-width:1;"/><path d="M88.5743,74.44 L80.8545,74.44 L80.8545,62.0469 L88.5743,62.0469 L88.5743,64.2051 L83.3033,64.2051 L83.3033,66.878 L88.0762,66.878 L88.0762,69.0362 L83.3033,69.0362 L83.3033,72.2818 L88.5743,72.2818 Z " fill="#000000"/><text fill="#000000" font-family="sans-serif" font-size="13" lengthAdjust="spacing" textLength="98.7695" x="98.96" y="72.8531">ReminderStatus</text><line style="stroke:#888888;stroke-width:0.5;" x1="70.96" x2="199.7295" y1="83.94" y2="83.94"/><text fill="#000000" font-family="sans-serif" font-size="14" lengthAdjust="spacing" textLength="55.5762" x="75.96" y="101.4752">pending</text><text fill="#000000" font-family="sans-serif" font-size="14" lengthAdjust="spacing" textLength="73.8486" x="75.96" y="117.9634">processing</text><text fill="#000000" font-family="sans-serif" font-size="14" lengthAdjust="spacing" textLength="28.8613" x="75.96" y="134.4517">sent</text><text fill="#000000" font-family="sans-serif" font-size="14" lengthAdjust="spacing" textLength="59.2197" x="75.96" y="150.94">canceled</text></g><!--class ReminderType--><g class="entity" data-qualified-name="ReminderType" data-source-line="17" id="ent0003"><rect fill="#FAFAFA" height="171.9063" rx="2.5" ry="2.5" style="stroke:#888888;stroke-width:0.5;" width="190.0283" x="235.33" y="18.97"/><ellipse cx="280.7909" cy="34.97" fill="#EB937F" rx="11" ry="11" style="stroke:#181818;stroke-width:1;"/><path d="M284.4052,41.47 L276.6855,41.47 L276.6855,29.0769 L284.4052,29.0769 L284.4052,31.2351 L279.1342,31.2351 L279.1342,33.908 L283.9071,33.908 L283.9071,36.0662 L279.1342,36.0662 L279.1342,39.3118 L284.4052,39.3118 Z " fill="#000000"/><text fill="#000000" font-family="sans-serif" font-size="13" lengthAdjust="spacing" textLength="90.6064" x="301.2909" y="39.8831">ReminderType</text><line style="stroke:#888888;stroke-width:0.5;" x1="236.33" x2="424.3583" y1="50.97" y2="50.97"/><text fill="#000000" font-family="sans-serif" font-size="14" lengthAdjust="spacing" textLength="178.0283" x="241.33" y="68.5052">tax_deadline_approaching</text><text fill="#000000" font-family="sans-serif" font-size="14" lengthAdjust="spacing" textLength="61.9199" x="241.33" y="84.9934">vat_filing</text><text fill="#000000" font-family="sans-serif" font-size="14" lengthAdjust="spacing" textLength="153.1318" x="241.33" y="101.4817">advance_payment_due</text><text fill="#000000" font-family="sans-serif" font-size="14" lengthAdjust="spacing" textLength="159.2158" x="241.33" y="117.97">annual_report_deadline</text><text fill="#000000" font-family="sans-serif" font-size="14" lengthAdjust="spacing" textLength="75.5918" x="241.33" y="134.4583">binder_idle</text><text fill="#000000" font-family="sans-serif" font-size="14" lengthAdjust="spacing" textLength="99.627" x="241.33" y="150.9466">unpaid_charge</text><text fill="#000000" font-family="sans-serif" font-size="14" lengthAdjust="spacing" textLength="127.9209" x="241.33" y="167.4348">document_missing</text><text fill="#000000" font-family="sans-serif" font-size="14" lengthAdjust="spacing" textLength="49.9023" x="241.33" y="183.9231">custom</text></g><!--class Reminder--><g class="entity" data-qualified-name="Reminder" data-source-line="28" id="ent0004"><rect fill="#FAFAFA" height="195.8379" rx="2.5" ry="2.5" style="stroke:#888888;stroke-width:0.5;" width="231.8301" x="460.43" y="7"/><ellipse cx="538.3177" cy="26.7217" fill="#ADD1B2" rx="11" ry="11" style="stroke:#181818;stroke-width:1;"/><path d="M540.7908,32.8647 Q540.2098,33.1636 539.5706,33.313 Q538.9315,33.4624 538.2259,33.4624 Q535.7191,33.4624 534.3992,31.8105 Q533.0794,30.1587 533.0794,27.0376 Q533.0794,23.9082 534.3992,22.2563 Q535.7191,20.6045 538.2259,20.6045 Q538.9315,20.6045 539.5789,20.7539 Q540.2264,20.9033 540.7908,21.2021 L540.7908,23.9248 Q540.16,23.3438 539.5665,23.074 Q538.973,22.8042 538.3421,22.8042 Q536.9974,22.8042 536.3126,23.8708 Q535.6278,24.9375 535.6278,27.0376 Q535.6278,29.1294 536.3126,30.196 Q536.9974,31.2627 538.3421,31.2627 Q538.973,31.2627 539.5665,30.9929 Q540.16,30.7231 540.7908,30.1421 Z " fill="#000000"/><text fill="#000000" font-family="sans-serif" font-size="12" font-style="italic" lengthAdjust="spacing" textLength="71.5547" x="556.8177" y="23.6016">&#171;reminders&#187;</text><text fill="#000000" font-family="sans-serif" font-size="13" lengthAdjust="spacing" textLength="60.1694" x="562.5103" y="38.7012">Reminder</text><line style="stroke:#888888;stroke-width:0.5;" x1="461.43" x2="691.2601" y1="46.4434" y2="46.4434"/><text fill="#000000" font-family="sans-serif" font-size="14" lengthAdjust="spacing" textLength="91.2256" x="466.43" y="63.9785">+id : int &#171;PK&#187;</text><text fill="#000000" font-family="sans-serif" font-size="14" lengthAdjust="spacing" textLength="219.8301" x="466.43" y="80.4668">+reminder_type : ReminderType</text><text fill="#000000" font-family="sans-serif" font-size="14" lengthAdjust="spacing" textLength="171.9512" x="466.43" y="96.9551">+status : ReminderStatus</text><text fill="#000000" font-family="sans-serif" font-size="14" lengthAdjust="spacing" textLength="131.0381" x="466.43" y="113.4434">+target_date : date</text><text fill="#000000" font-family="sans-serif" font-size="14" lengthAdjust="spacing" textLength="124.2705" x="466.43" y="129.9316">+days_before : int</text><text fill="#000000" font-family="sans-serif" font-size="14" lengthAdjust="spacing" textLength="110.7217" x="466.43" y="146.4199">+send_on : date</text><text fill="#000000" font-family="sans-serif" font-size="14" lengthAdjust="spacing" textLength="110.6807" x="466.43" y="162.9082">+message : text</text><text fill="#000000" font-family="sans-serif" font-size="14" lengthAdjust="spacing" textLength="138.8857" x="466.43" y="179.3965">+sent_at : datetime?</text><text fill="#000000" font-family="sans-serif" font-size="14" lengthAdjust="spacing" textLength="169.2441" x="466.43" y="195.8848">+canceled_at : datetime?</text></g><!--class Client--><g class="entity" data-qualified-name="Client" data-source-line="41" id="ent0005"><rect fill="#FAFAFA" height="32" rx="2.5" ry="2.5" style="stroke:#888888;stroke-width:0.5;" width="68.6831" x="7" y="279.84"/><ellipse cx="22" cy="295.84" fill="#ADD1B2" rx="11" ry="11" style="stroke:#181818;stroke-width:1;"/><path d="M24.4731,301.9831 Q23.8921,302.2819 23.2529,302.4313 Q22.6138,302.5807 21.9082,302.5807 Q19.4014,302.5807 18.0815,300.9289 Q16.7617,299.277 16.7617,296.1559 Q16.7617,293.0265 18.0815,291.3747 Q19.4014,289.7228 21.9082,289.7228 Q22.6138,289.7228 23.2612,289.8722 Q23.9087,290.0216 24.4731,290.3205 L24.4731,293.0431 Q23.8423,292.4621 23.2488,292.1923 Q22.6553,291.9225 22.0244,291.9225 Q20.6797,291.9225 19.9949,292.9892 Q19.3101,294.0558 19.3101,296.1559 Q19.3101,298.2477 19.9949,299.3144 Q20.6797,300.381 22.0244,300.381 Q22.6553,300.381 23.2488,300.1112 Q23.8423,299.8415 24.4731,299.2604 Z " fill="#000000"/><text fill="#000000" font-family="sans-serif" font-size="13" lengthAdjust="spacing" textLength="36.6831" x="36" y="300.7531">Client</text></g><!--class Business--><g class="entity" data-qualified-name="Business" data-source-line="42" id="ent0007"><rect fill="#FAFAFA" height="32" rx="2.5" ry="2.5" style="stroke:#888888;stroke-width:0.5;" width="86.4946" x="111.09" y="279.84"/><ellipse cx="126.09" cy="295.84" fill="#ADD1B2" rx="11" ry="11" style="stroke:#181818;stroke-width:1;"/><path d="M128.5631,301.9831 Q127.9821,302.2819 127.3429,302.4313 Q126.7038,302.5807 125.9982,302.5807 Q123.4914,302.5807 122.1715,300.9289 Q120.8517,299.277 120.8517,296.1559 Q120.8517,293.0265 122.1715,291.3747 Q123.4914,289.7228 125.9982,289.7228 Q126.7038,289.7228 127.3512,289.8722 Q127.9987,290.0216 128.5631,290.3205 L128.5631,293.0431 Q127.9323,292.4621 127.3388,292.1923 Q126.7453,291.9225 126.1144,291.9225 Q124.7697,291.9225 124.0849,292.9892 Q123.4001,294.0558 123.4001,296.1559 Q123.4001,298.2477 124.0849,299.3144 Q124.7697,300.381 126.1144,300.381 Q126.7453,300.381 127.3388,300.1112 Q127.9323,299.8415 128.5631,299.2604 Z " fill="#000000"/><text fill="#000000" font-family="sans-serif" font-size="13" lengthAdjust="spacing" textLength="54.4946" x="140.09" y="300.7531">Business</text></g><!--class Binder--><g class="entity" data-qualified-name="Binder" data-source-line="43" id="ent0009"><rect fill="#FAFAFA" height="32" rx="2.5" ry="2.5" style="stroke:#888888;stroke-width:0.5;" width="72.0474" x="232.32" y="279.84"/><ellipse cx="247.32" cy="295.84" fill="#ADD1B2" rx="11" ry="11" style="stroke:#181818;stroke-width:1;"/><path d="M249.7931,301.9831 Q249.2121,302.2819 248.5729,302.4313 Q247.9338,302.5807 247.2282,302.5807 Q244.7214,302.5807 243.4015,300.9289 Q242.0817,299.277 242.0817,296.1559 Q242.0817,293.0265 243.4015,291.3747 Q244.7214,289.7228 247.2282,289.7228 Q247.9338,289.7228 248.5812,289.8722 Q249.2287,290.0216 249.7931,290.3205 L249.7931,293.0431 Q249.1623,292.4621 248.5688,292.1923 Q247.9753,291.9225 247.3444,291.9225 Q245.9997,291.9225 245.3149,292.9892 Q244.6301,294.0558 244.6301,296.1559 Q244.6301,298.2477 245.3149,299.3144 Q245.9997,300.381 247.3444,300.381 Q247.9753,300.381 248.5688,300.1112 Q249.1623,299.8415 249.7931,299.2604 Z " fill="#000000"/><text fill="#000000" font-family="sans-serif" font-size="13" lengthAdjust="spacing" textLength="40.0474" x="261.32" y="300.7531">Binder</text></g><!--class Charge--><g class="entity" data-qualified-name="Charge" data-source-line="44" id="ent0011"><rect fill="#FAFAFA" height="32" rx="2.5" ry="2.5" style="stroke:#888888;stroke-width:0.5;" width="76.9097" x="338.89" y="279.84"/><ellipse cx="353.89" cy="295.84" fill="#ADD1B2" rx="11" ry="11" style="stroke:#181818;stroke-width:1;"/><path d="M356.3631,301.9831 Q355.7821,302.2819 355.1429,302.4313 Q354.5038,302.5807 353.7982,302.5807 Q351.2914,302.5807 349.9715,300.9289 Q348.6517,299.277 348.6517,296.1559 Q348.6517,293.0265 349.9715,291.3747 Q351.2914,289.7228 353.7982,289.7228 Q354.5038,289.7228 355.1512,289.8722 Q355.7987,290.0216 356.3631,290.3205 L356.3631,293.0431 Q355.7323,292.4621 355.1388,292.1923 Q354.5453,291.9225 353.9144,291.9225 Q352.5697,291.9225 351.8849,292.9892 Q351.2001,294.0558 351.2001,296.1559 Q351.2001,298.2477 351.8849,299.3144 Q352.5697,300.381 353.9144,300.381 Q354.5453,300.381 355.1388,300.1112 Q355.7323,299.8415 356.3631,299.2604 Z " fill="#000000"/><text fill="#000000" font-family="sans-serif" font-size="13" lengthAdjust="spacing" textLength="44.9097" x="367.89" y="300.7531">Charge</text></g><!--class TaxDeadline--><g class="entity" data-qualified-name="TaxDeadline" data-source-line="45" id="ent0013"><rect fill="#FAFAFA" height="32" rx="2.5" ry="2.5" style="stroke:#888888;stroke-width:0.5;" width="110.5396" x="451.07" y="279.84"/><ellipse cx="466.07" cy="295.84" fill="#ADD1B2" rx="11" ry="11" style="stroke:#181818;stroke-width:1;"/><path d="M468.5431,301.9831 Q467.9621,302.2819 467.3229,302.4313 Q466.6838,302.5807 465.9782,302.5807 Q463.4714,302.5807 462.1515,300.9289 Q460.8317,299.277 460.8317,296.1559 Q460.8317,293.0265 462.1515,291.3747 Q463.4714,289.7228 465.9782,289.7228 Q466.6838,289.7228 467.3312,289.8722 Q467.9787,290.0216 468.5431,290.3205 L468.5431,293.0431 Q467.9123,292.4621 467.3188,292.1923 Q466.7253,291.9225 466.0944,291.9225 Q464.7497,291.9225 464.0649,292.9892 Q463.3801,294.0558 463.3801,296.1559 Q463.3801,298.2477 464.0649,299.3144 Q464.7497,300.381 466.0944,300.381 Q466.7253,300.381 467.3188,300.1112 Q467.9123,299.8415 468.5431,299.2604 Z " fill="#000000"/><text fill="#000000" font-family="sans-serif" font-size="13" lengthAdjust="spacing" textLength="78.5396" x="480.07" y="300.7531">TaxDeadline</text></g><!--class AnnualReport--><g class="entity" data-qualified-name="AnnualReport" data-source-line="46" id="ent0015"><rect fill="#FAFAFA" height="32" rx="2.5" ry="2.5" style="stroke:#888888;stroke-width:0.5;" width="117.9219" x="596.38" y="279.84"/><ellipse cx="611.38" cy="295.84" fill="#ADD1B2" rx="11" ry="11" style="stroke:#181818;stroke-width:1;"/><path d="M613.8531,301.9831 Q613.2721,302.2819 612.6329,302.4313 Q611.9938,302.5807 611.2882,302.5807 Q608.7814,302.5807 607.4615,300.9289 Q606.1417,299.277 606.1417,296.1559 Q606.1417,293.0265 607.4615,291.3747 Q608.7814,289.7228 611.2882,289.7228 Q611.9938,289.7228 612.6412,289.8722 Q613.2887,290.0216 613.8531,290.3205 L613.8531,293.0431 Q613.2223,292.4621 612.6288,292.1923 Q612.0353,291.9225 611.4044,291.9225 Q610.0597,291.9225 609.3749,292.9892 Q608.6901,294.0558 608.6901,296.1559 Q608.6901,298.2477 609.3749,299.3144 Q610.0597,300.381 611.4044,300.381 Q612.0353,300.381 612.6288,300.1112 Q613.2223,299.8415 613.8531,299.2604 Z " fill="#000000"/><text fill="#000000" font-family="sans-serif" font-size="13" lengthAdjust="spacing" textLength="85.9219" x="625.38" y="300.7531">AnnualReport</text></g><!--class AdvancePayment--><g class="entity" data-qualified-name="AdvancePayment" data-source-line="47" id="ent0017"><rect fill="#FAFAFA" height="32" rx="2.5" ry="2.5" style="stroke:#888888;stroke-width:0.5;" width="138.4946" x="749.09" y="279.84"/><ellipse cx="764.09" cy="295.84" fill="#ADD1B2" rx="11" ry="11" style="stroke:#181818;stroke-width:1;"/><path d="M766.5631,301.9831 Q765.9821,302.2819 765.3429,302.4313 Q764.7038,302.5807 763.9982,302.5807 Q761.4914,302.5807 760.1715,300.9289 Q758.8517,299.277 758.8517,296.1559 Q758.8517,293.0265 760.1715,291.3747 Q761.4914,289.7228 763.9982,289.7228 Q764.7038,289.7228 765.3512,289.8722 Q765.9987,290.0216 766.5631,290.3205 L766.5631,293.0431 Q765.9323,292.4621 765.3388,292.1923 Q764.7453,291.9225 764.1144,291.9225 Q762.7697,291.9225 762.0849,292.9892 Q761.4001,294.0558 761.4001,296.1559 Q761.4001,298.2477 762.0849,299.3144 Q762.7697,300.381 764.1144,300.381 Q764.7453,300.381 765.3388,300.1112 Q765.9323,299.8415 766.5631,299.2604 Z " fill="#000000"/><text fill="#000000" font-family="sans-serif" font-size="13" lengthAdjust="spacing" textLength="106.4946" x="778.09" y="300.7531">AdvancePayment</text></g><!--class User--><g class="entity" data-qualified-name="User" data-source-line="48" id="ent0019"><rect fill="#FAFAFA" height="32" rx="2.5" ry="2.5" style="stroke:#888888;stroke-width:0.5;" width="60.1963" x="1054.24" y="279.84"/><ellipse cx="1069.24" cy="295.84" fill="#ADD1B2" rx="11" ry="11" style="stroke:#181818;stroke-width:1;"/><path d="M1071.7131,301.9831 Q1071.1321,302.2819 1070.4929,302.4313 Q1069.8538,302.5807 1069.1482,302.5807 Q1066.6414,302.5807 1065.3215,300.9289 Q1064.0017,299.277 1064.0017,296.1559 Q1064.0017,293.0265 1065.3215,291.3747 Q1066.6414,289.7228 1069.1482,289.7228 Q1069.8538,289.7228 1070.5012,289.8722 Q1071.1487,290.0216 1071.7131,290.3205 L1071.7131,293.0431 Q1071.0823,292.4621 1070.4888,292.1923 Q1069.8953,291.9225 1069.2644,291.9225 Q1067.9197,291.9225 1067.2349,292.9892 Q1066.5501,294.0558 1066.5501,296.1559 Q1066.5501,298.2477 1067.2349,299.3144 Q1067.9197,300.381 1069.2644,300.381 Q1069.8953,300.381 1070.4888,300.1112 Q1071.0823,299.8415 1071.7131,299.2604 Z " fill="#000000"/><text fill="#000000" font-family="sans-serif" font-size="13" lengthAdjust="spacing" textLength="28.1963" x="1083.24" y="300.7531">User</text></g><!--link Reminder to Client--><g class="link" data-entity-1="ent0004" data-entity-2="ent0005" data-link-type="dependency" data-source-line="41" id="lnk6"><path codeLine="41" d="M460.05,195.57 C454.53,198.25 448.95,200.7 443.34,202.84 C319.42,250.22 272.4,191.48 146.34,232.84 C114.36,243.33 86.455,261.1845 66.225,275.8745" fill="none" id="Reminder-to-Client" style="stroke:#555555;stroke-width:1;stroke-dasharray:7,7;"/><polygon fill="#555555" points="61.37,279.4,71.0028,277.3485,65.4158,276.4621,66.3022,270.8751,61.37,279.4" style="stroke:#555555;stroke-width:1;"/><text fill="#000000" font-family="sans-serif" font-size="13" lengthAdjust="spacing" textLength="52.7871" x="147.34" y="246.4084">client_id</text></g><!--link Reminder to Business--><g class="link" data-entity-1="ent0004" data-entity-2="ent0007" data-link-type="dependency" data-source-line="42" id="lnk8"><path codeLine="42" d="M460.31,195.06 C454.7,197.9 449.03,200.52 443.34,202.84 C358.09,237.64 323.49,197.78 238.34,232.84 C211.69,243.81 190.1601,261.0126 174.3201,275.5526" fill="none" id="Reminder-to-Business" style="stroke:#555555;stroke-width:1;stroke-dasharray:7,7;"/><polygon fill="#555555" points="169.9,279.61,179.2351,276.4707,173.5835,276.2289,173.8253,270.5772,169.9,279.61" style="stroke:#555555;stroke-width:1;"/><text fill="#000000" font-family="sans-serif" font-size="13" lengthAdjust="spacing" textLength="73.6392" x="239.34" y="246.4084">business_id</text></g><!--link Reminder to Binder--><g class="link" data-entity-1="ent0004" data-entity-2="ent0009" data-link-type="dependency" data-source-line="43" id="lnk10"><path codeLine="43" d="M460.2,193.75 C454.6,196.97 448.96,200.02 443.34,202.84 C403,223.07 386.25,211.77 346.34,232.84 C322.63,245.36 303.4314,261.3615 288.5014,275.2615" fill="none" id="Reminder-to-Binder" style="stroke:#555555;stroke-width:1;stroke-dasharray:7,7;"/><polygon fill="#555555" points="284.11,279.35,293.4228,276.1449,287.7695,275.943,287.9715,270.2897,284.11,279.35" style="stroke:#555555;stroke-width:1;"/><text fill="#000000" font-family="sans-serif" font-size="13" lengthAdjust="spacing" textLength="59.1919" x="347.34" y="246.4084">binder_id</text></g><!--link Reminder to Charge--><g class="link" data-entity-1="ent0004" data-entity-2="ent0011" data-link-type="dependency" data-source-line="44" id="lnk12"><path codeLine="44" d="M461.28,203.07 C450.63,212.92 440.16,222.94 430.34,232.84 C415.38,247.92 403.5232,261.9468 393.1432,274.8368" fill="none" id="Reminder-to-Charge" style="stroke:#555555;stroke-width:1;stroke-dasharray:7,7;"/><polygon fill="#555555" points="389.38,279.51,398.1402,275.009,392.516,275.6157,391.9093,269.9915,389.38,279.51" style="stroke:#555555;stroke-width:1;"/><text fill="#000000" font-family="sans-serif" font-size="13" lengthAdjust="spacing" textLength="61.0137" x="431.34" y="246.4084">charge_id</text></g><!--link Reminder to TaxDeadline--><g class="link" data-entity-1="ent0004" data-entity-2="ent0013" data-link-type="dependency" data-source-line="45" id="lnk14"><path codeLine="45" d="M513.89,203.17 C509.64,212.92 506,222.89 503.34,232.84 C499.2,248.35 499.89,260.8939 502.04,273.6139" fill="none" id="Reminder-to-TaxDeadline" style="stroke:#555555;stroke-width:1;stroke-dasharray:7,7;"/><polygon fill="#555555" points="503.04,279.53,505.4841,269.9892,502.2067,274.5999,497.596,271.3225,503.04,279.53" style="stroke:#555555;stroke-width:1;"/><text fill="#000000" font-family="sans-serif" font-size="13" lengthAdjust="spacing" textLength="98.5664" x="504.34" y="246.4084">tax_deadline_id</text></g><!--link Reminder to AnnualReport--><g class="link" data-entity-1="ent0004" data-entity-2="ent0015" data-link-type="dependency" data-source-line="46" id="lnk16"><path codeLine="46" d="M617,203.15 C629.47,232.98 639.4864,256.914 646.6664,274.094" fill="none" id="Reminder-to-AnnualReport" style="stroke:#555555;stroke-width:1;stroke-dasharray:7,7;"/><polygon fill="#555555" points="648.98,279.63,649.2002,269.7836,647.052,275.0167,641.8189,272.8685,648.98,279.63" style="stroke:#555555;stroke-width:1;"/><text fill="#000000" font-family="sans-serif" font-size="13" lengthAdjust="spacing" textLength="106.1709" x="637.25" y="246.4084">annual_report_id</text></g><!--link Reminder to AdvancePayment--><g class="link" data-entity-1="ent0004" data-entity-2="ent0017" data-link-type="dependency" data-source-line="47" id="lnk18"><path codeLine="47" d="M692.51,186.44 C712.8,201.41 733.45,217.26 752.34,232.84 C770.54,247.84 785.8062,262.3286 798.8562,275.2486" fill="none" id="Reminder-to-AdvancePayment" style="stroke:#555555;stroke-width:1;stroke-dasharray:7,7;"/><polygon fill="#555555" points="803.12,279.47,799.5385,270.2954,799.5668,275.9522,793.91,275.9805,803.12,279.47" style="stroke:#555555;stroke-width:1;"/><text fill="#000000" font-family="sans-serif" font-size="13" lengthAdjust="spacing" textLength="130.6411" x="772.13" y="246.4084">advance_payment_id</text></g><!--link Reminder to User--><g class="link" data-entity-1="ent0004" data-entity-2="ent0019" data-link-type="dependency" data-source-line="48" id="lnk20"><path codeLine="48" d="M692.57,149.14 C810.16,192.88 978.6163,255.5186 1048.2863,281.4286" fill="none" id="Reminder-to-User" style="stroke:#555555;stroke-width:1;stroke-dasharray:7,7;"/><polygon fill="#555555" points="1053.91,283.52,1046.8687,276.6337,1049.2236,281.7771,1044.0802,284.132,1053.91,283.52" style="stroke:#555555;stroke-width:1;"/><text fill="#000000" font-family="sans-serif" font-size="13" lengthAdjust="spacing" textLength="76.4639" x="962.58" y="246.4084">canceled_by</text></g><!--link Reminder to User--><g class="link" data-entity-1="ent0004" data-entity-2="ent0019" data-link-type="dependency" data-source-line="49" id="lnk21"><path codeLine="49" d="M692.62,113.76 C794.32,125.75 941.58,156.1 1045.34,232.84 C1061.39,244.71 1070.0359,259.834 1076.1759,274.014" fill="none" id="Reminder-to-User-1" style="stroke:#555555;stroke-width:1;stroke-dasharray:7,7;"/><polygon fill="#555555" points="1078.56,279.52,1078.6545,269.6716,1076.5732,274.9317,1071.3132,272.8504,1078.56,279.52" style="stroke:#555555;stroke-width:1;"/><text fill="#000000" font-family="sans-serif" font-size="13" lengthAdjust="spacing" textLength="68.1611" x="1061.68" y="246.4084">created_by</text></g><!--link Reminder to User--><g class="link" data-entity-1="ent0004" data-entity-2="ent0019" data-link-type="dependency" data-source-line="50" id="lnk22"><path codeLine="50" d="M692.48,115.4 C840.44,130.17 1083.62,164.38 1138.34,232.84 C1151.35,249.12 1136.9961,263.7385 1117.9261,276.0885" fill="none" id="Reminder-to-User-2" style="stroke:#555555;stroke-width:1;stroke-dasharray:7,7;"/><polygon fill="#555555" points="1112.89,279.35,1122.6185,277.8152,1117.0868,276.6321,1118.2699,271.1004,1112.89,279.35" style="stroke:#555555;stroke-width:1;"/><text fill="#000000" font-family="sans-serif" font-size="13" lengthAdjust="spacing" textLength="68.1865" x="1143.56" y="246.4084">deleted_by</text></g><?plantuml-src TL9TQzim57tthxYmXpICb8qn6APufEa2euoLj7iMYdJhYEZ3I78Nx-E_xqfslCJPv0TBEkT-7PqPt3d3bIt1er5MeWy0lm2CarY2SARX8XOp-2Hh18qrMbd2Ob71ryqN2j4yAcV3JZLNSm2ulgvWVRzmLdTmPTqPOLxib4H0qyGE39ejbIh2Njc6Usv0Q1x2CaQljct4pyBPH_K3uSsKidOsPkJjknDewRtxldBQUNZrFgyJS9NYRfsduGRAXxmkA5piQ-zQAmVQUfc-ea3R6jWC-Zn67ji0Fmk0XjHGjauxxmI6q1y2saW_mQr0ZRBuFSdmr3MOuoC_C8bSQcMHyOQISB7hSxpmo9wLxWzSlgHShE6TeTnCjfXkhMsvPXuRv-EOXu1jhiAKrEdKqeXACh7ZlavdwKIRinXrR5Yq8JgJ-imIZut2pSteYghABRzM4afGDXBsS5zLwUh8OJ4DLfxDcV3GArPE94nGJ4rHypocmFHBjv9tWMtnsNdiY-Ki93PpzeHcI75U9qh4mv4J6Oy39og37zFryIMc40qy6_rAukr3TktKsY2HTF4evsKnIfEiljAA2b9AaJUa-3b-svB0r2GnjiFsajDlox-lDgcHtotLo9iB_8aVxeQdJqASEcfANMR3RB9VY7lkdmjoxxc7tdA9FZ7XDE1Ro6ECMc-xV-CUIV__mf9Y1_WF?></g></svg>