<?plantuml 1.2026.2?><svg xmlns="http://www.w3.org/2000/svg" xmlns:xlink="http://www.w3.org/1999/xlink" contentStyleType="text/css" data-diagram-type="CLASS" height="789px" preserveAspectRatio="none" style="width:1062px;height:789px;background:#FFFFFF;" version="1.1" viewBox="0 0 1062 789" width="1062px" zoomAndPan="magnify"><defs/><g><!--class SignatureRequestStatus--><g class="entity" data-qualified-name="SignatureRequestStatus" data-source-line="10" id="ent0002"><rect fill="#FAFAFA" height="138.9297" rx="2.5" ry="2.5" style="stroke:#888888;stroke-width:0.5;" width="180.6494" x="7" y="35.46"/><ellipse cx="22" cy="51.46" fill="#EB937F" rx="11" ry="11" style="stroke:#181818;stroke-width:1;"/><path d="M25.6143,57.96 L17.8945,57.96 L17.8945,45.5669 L25.6143,45.5669 L25.6143,47.7251 L20.3433,47.7251 L20.3433,50.398 L25.1162,50.398 L25.1162,52.5562 L20.3433,52.5562 L20.3433,55.8018 L25.6143,55.8018 Z " fill="#000000"/><text fill="#000000" font-family="sans-serif" font-size="13" lengthAdjust="spacing" textLength="148.6494" x="36" y="56.3731">SignatureRequestStatus</text><line style="stroke:#888888;stroke-width:0.5;" x1="8" x2="186.6494" y1="67.46" y2="67.46"/><text fill="#000000" font-family="sans-serif" font-size="14" lengthAdjust="spacing" textLength="32.6553" x="13" y="84.9952">draft</text><text fill="#000000" font-family="sans-serif" font-size="14" lengthAdjust="spacing" textLength="126.3623" x="13" y="101.4834">pending_signature</text><text fill="#000000" font-family="sans-serif" font-size="14" lengthAdjust="spacing" textLength="45.2129" x="13" y="117.9717">signed</text><text fill="#000000" font-family="sans-serif" font-size="14" lengthAdjust="spacing" textLength="57.1758" x="13" y="134.46">declined</text><text fill="#000000" font-family="sans-serif" font-size="14" lengthAdjust="spacing" textLength="51.584" x="13" y="150.9483">expired</text><text fill="#000000" font-family="sans-serif" font-size="14" lengthAdjust="spacing" textLength="59.2197" x="13" y="167.4366">canceled</text></g><!--class SignatureRequestType--><g class="entity" data-qualified-name="SignatureRequestType" data-source-line="19" id="ent0003"><rect fill="#FAFAFA" height="122.4414" rx="2.5" ry="2.5" style="stroke:#888888;stroke-width:0.5;" width="175.8574" x="222.4" y="43.7"/><ellipse cx="238.917" cy="59.7" fill="#EB937F" rx="11" ry="11" style="stroke:#181818;stroke-width:1;"/><path d="M242.5313,66.2 L234.8115,66.2 L234.8115,53.8069 L242.5313,53.8069 L242.5313,55.9651 L237.2603,55.9651 L237.2603,58.638 L242.0332,58.638 L242.0332,60.7962 L237.2603,60.7962 L237.2603,64.0418 L242.5313,64.0418 Z " fill="#000000"/><text fill="#000000" font-family="sans-serif" font-size="13" lengthAdjust="spacing" textLength="140.4863" x="253.2541" y="64.6131">SignatureRequestType</text><line style="stroke:#888888;stroke-width:0.5;" x1="223.4" x2="397.2574" y1="75.7" y2="75.7"/><text fill="#000000" font-family="sans-serif" font-size="14" lengthAdjust="spacing" textLength="163.8574" x="228.4" y="93.2352">engagement_agreement</text><text fill="#000000" font-family="sans-serif" font-size="14" lengthAdjust="spacing" textLength="160.1865" x="228.4" y="109.7234">annual_report_approval</text><text fill="#000000" font-family="sans-serif" font-size="14" lengthAdjust="spacing" textLength="125.8086" x="228.4" y="126.2117">power_of_attorney</text><text fill="#000000" font-family="sans-serif" font-size="14" lengthAdjust="spacing" textLength="134.791" x="228.4" y="142.7">vat_return_approval</text><text fill="#000000" font-family="sans-serif" font-size="14" lengthAdjust="spacing" textLength="49.9023" x="228.4" y="159.1883">custom</text></g><!--class SignatureAuditEvent--><g class="entity" data-qualified-name="SignatureAuditEvent" data-source-line="27" id="ent0004"><rect fill="#FAFAFA" height="195.8379" rx="2.5" ry="2.5" style="stroke:#888888;stroke-width:0.5;" width="175.8164" x="433.42" y="7"/><ellipse cx="449.0273" cy="26.7217" fill="#ADD1B2" rx="11" ry="11" style="stroke:#181818;stroke-width:1;"/><path d="M451.5005,32.8647 Q450.9194,33.1636 450.2803,33.313 Q449.6411,33.4624 448.9355,33.4624 Q446.4287,33.4624 445.1089,31.8105 Q443.789,30.1587 443.789,27.0376 Q443.789,23.9082 445.1089,22.2563 Q446.4287,20.6045 448.9355,20.6045 Q449.6411,20.6045 450.2886,20.7539 Q450.936,20.9033 451.5005,21.2021 L451.5005,23.9248 Q450.8696,23.3438 450.2761,23.074 Q449.6826,22.8042 449.0517,22.8042 Q447.707,22.8042 447.0222,23.8708 Q446.3374,24.9375 446.3374,27.0376 Q446.3374,29.1294 447.0222,30.196 Q447.707,31.2627 449.0517,31.2627 Q449.6826,31.2627 450.2761,30.9929 Q450.8696,30.7231 451.5005,30.1421 Z " fill="#000000"/><text fill="#000000" font-family="sans-serif" font-size="12" font-style="italic" lengthAdjust="spacing" textLength="146.4668" x="461.1623" y="23.6016">&#171;signature_audit_events&#187;</text><text fill="#000000" font-family="sans-serif" font-size="13" lengthAdjust="spacing" textLength="127.3911" x="470.7001" y="38.7012">SignatureAuditEvent</text><line style="stroke:#888888;stroke-width:0.5;" x1="434.42" x2="608.2364" y1="46.4434" y2="46.4434"/><text fill="#000000" font-family="sans-serif" font-size="14" lengthAdjust="spacing" textLength="91.2256" x="439.42" y="63.9785">+id : int &#171;PK&#187;</text><text fill="#000000" font-family="sans-serif" font-size="14" lengthAdjust="spacing" textLength="115.4521" x="439.42" y="80.4668">+event_type : str</text><text fill="#000000" font-family="sans-serif" font-size="14" lengthAdjust="spacing" textLength="113.1484" x="439.42" y="96.9551">+actor_type : str</text><text fill="#000000" font-family="sans-serif" font-size="14" lengthAdjust="spacing" textLength="102.6211" x="439.42" y="113.4434">+actor_id : int?</text><text fill="#000000" font-family="sans-serif" font-size="14" lengthAdjust="spacing" textLength="127.1826" x="439.42" y="129.9316">+actor_name : str?</text><text fill="#000000" font-family="sans-serif" font-size="14" lengthAdjust="spacing" textLength="121.4404" x="439.42" y="146.4199">+ip_address : str?</text><text fill="#000000" font-family="sans-serif" font-size="14" lengthAdjust="spacing" textLength="122.9648" x="439.42" y="162.9082">+user_agent : str?</text><text fill="#000000" font-family="sans-serif" font-size="14" lengthAdjust="spacing" textLength="94.6436" x="439.42" y="179.3965">+notes : text?</text><text fill="#000000" font-family="sans-serif" font-size="14" lengthAdjust="spacing" textLength="163.8164" x="439.42" y="195.8848">+occurred_at : datetime</text></g><!--class SignatureRequest--><g class="entity" data-qualified-name="SignatureRequest" data-source-line="39" id="ent0005"><rect fill="#FAFAFA" height="393.6973" rx="2.5" ry="2.5" style="stroke:#888888;stroke-width:0.5;" width="275.0742" x="382.79" y="279.84"/><ellipse cx="456.4511" cy="299.5617" fill="#ADD1B2" rx="11" ry="11" style="stroke:#181818;stroke-width:1;"/><path d="M458.9243,305.7047 Q458.3432,306.0036 457.7041,306.153 Q457.0649,306.3024 456.3593,306.3024 Q453.8525,306.3024 452.5327,304.6505 Q451.2129,302.9987 451.2129,299.8776 Q451.2129,296.7482 452.5327,295.0963 Q453.8525,293.4445 456.3593,293.4445 Q457.0649,293.4445 457.7124,293.5939 Q458.3598,293.7433 458.9243,294.0421 L458.9243,296.7648 Q458.2934,296.1838 457.6999,295.914 Q457.1064,295.6442 456.4755,295.6442 Q455.1308,295.6442 454.446,296.7108 Q453.7612,297.7775 453.7612,299.8776 Q453.7612,301.9694 454.446,303.036 Q455.1308,304.1027 456.4755,304.1027 Q457.1064,304.1027 457.6999,303.8329 Q458.2934,303.5631 458.9243,302.9821 Z " fill="#000000"/><text fill="#000000" font-family="sans-serif" font-size="12" font-style="italic" lengthAdjust="spacing" textLength="123.252" x="474.9511" y="296.4416">&#171;signature_requests&#187;</text><text fill="#000000" font-family="sans-serif" font-size="13" lengthAdjust="spacing" textLength="110.0493" x="481.5525" y="311.5412">SignatureRequest</text><line style="stroke:#888888;stroke-width:0.5;" x1="383.79" x2="656.8642" y1="319.2834" y2="319.2834"/><text fill="#000000" font-family="sans-serif" font-size="14" lengthAdjust="spacing" textLength="91.2256" x="388.79" y="336.8185">+id : int &#171;PK&#187;</text><text fill="#000000" font-family="sans-serif" font-size="14" lengthAdjust="spacing" textLength="263.0742" x="388.79" y="353.3068">+request_type : SignatureRequestType</text><text fill="#000000" font-family="sans-serif" font-size="14" lengthAdjust="spacing" textLength="68.8857" x="388.79" y="369.7951">+title : str</text><text fill="#000000" font-family="sans-serif" font-size="14" lengthAdjust="spacing" textLength="133.2598" x="388.79" y="386.2834">+description : text?</text><text fill="#000000" font-family="sans-serif" font-size="14" lengthAdjust="spacing" textLength="139.0908" x="388.79" y="402.7716">+content_hash : str?</text><text fill="#000000" font-family="sans-serif" font-size="14" lengthAdjust="spacing" textLength="129.6846" x="388.79" y="419.2599">+storage_key : str?</text><text fill="#000000" font-family="sans-serif" font-size="14" lengthAdjust="spacing" textLength="128.9395" x="388.79" y="435.7482">+signer_name : str</text><text fill="#000000" font-family="sans-serif" font-size="14" lengthAdjust="spacing" textLength="134.251" x="388.79" y="452.2365">+signer_email : str?</text><text fill="#000000" font-family="sans-serif" font-size="14" lengthAdjust="spacing" textLength="140.1436" x="388.79" y="468.7248">+signer_phone : str?</text><text fill="#000000" font-family="sans-serif" font-size="14" lengthAdjust="spacing" textLength="225.668" x="388.79" y="485.213">+status : SignatureRequestStatus</text><text fill="#000000" font-family="sans-serif" font-size="14" lengthAdjust="spacing" textLength="143.999" x="388.79" y="501.7013">+signing_token : str?</text><text fill="#000000" font-family="sans-serif" font-size="14" lengthAdjust="spacing" textLength="138.8857" x="388.79" y="518.1896">+sent_at : datetime?</text><text fill="#000000" font-family="sans-serif" font-size="14" lengthAdjust="spacing" textLength="159.9336" x="388.79" y="534.6779">+expires_at : datetime?</text><text fill="#000000" font-family="sans-serif" font-size="14" lengthAdjust="spacing" textLength="122.6709" x="388.79" y="551.1662">+expiry_days : int</text><text fill="#000000" font-family="sans-serif" font-size="14" lengthAdjust="spacing" textLength="155.2373" x="388.79" y="567.6545">+signed_at : datetime?</text><text fill="#000000" font-family="sans-serif" font-size="14" lengthAdjust="spacing" textLength="167.2002" x="388.79" y="584.1427">+declined_at : datetime?</text><text fill="#000000" font-family="sans-serif" font-size="14" lengthAdjust="spacing" textLength="169.2441" x="388.79" y="600.631">+canceled_at : datetime?</text><text fill="#000000" font-family="sans-serif" font-size="14" lengthAdjust="spacing" textLength="170.5703" x="388.79" y="617.1193">+signer_ip_address : str?</text><text fill="#000000" font-family="sans-serif" font-size="14" lengthAdjust="spacing" textLength="172.0947" x="388.79" y="633.6076">+signer_user_agent : str?</text><text fill="#000000" font-family="sans-serif" font-size="14" lengthAdjust="spacing" textLength="158.2314" x="388.79" y="650.0959">+decline_reason : text?</text><text fill="#000000" font-family="sans-serif" font-size="14" lengthAdjust="spacing" textLength="199.001" x="388.79" y="666.5841">+signed_document_key : str?</text></g><!--class Client--><g class="entity" data-qualified-name="Client" data-source-line="64" id="ent0007"><rect fill="#FAFAFA" height="32" rx="2.5" ry="2.5" style="stroke:#888888;stroke-width:0.5;" width="68.6831" x="86.98" y="750.54"/><ellipse cx="101.98" cy="766.54" fill="#ADD1B2" rx="11" ry="11" style="stroke:#181818;stroke-width:1;"/><path d="M104.4531,772.6831 Q103.8721,772.9819 103.2329,773.1313 Q102.5938,773.2807 101.8882,773.2807 Q99.3814,773.2807 98.0615,771.6289 Q96.7417,769.977 96.7417,766.8559 Q96.7417,763.7265 98.0615,762.0747 Q99.3814,760.4228 101.8882,760.4228 Q102.5938,760.4228 103.2412,760.5722 Q103.8887,760.7216 104.4531,761.0205 L104.4531,763.7431 Q103.8223,763.1621 103.2288,762.8923 Q102.6353,762.6225 102.0044,762.6225 Q100.6597,762.6225 99.9749,763.6892 Q99.2901,764.7558 99.2901,766.8559 Q99.2901,768.9477 99.9749,770.0144 Q100.6597,771.081 102.0044,771.081 Q102.6353,771.081 103.2288,770.8112 Q103.8223,770.5415 104.4531,769.9604 Z " fill="#000000"/><text fill="#000000" font-family="sans-serif" font-size="13" lengthAdjust="spacing" textLength="36.6831" x="115.98" y="771.4531">Client</text></g><!--class AnnualReport--><g class="entity" data-qualified-name="AnnualReport" data-source-line="65" id="ent0009"><rect fill="#FAFAFA" height="32" rx="2.5" ry="2.5" style="stroke:#888888;stroke-width:0.5;" width="117.9219" x="211.36" y="750.54"/><ellipse cx="226.36" cy="766.54" fill="#ADD1B2" rx="11" ry="11" style="stroke:#181818;stroke-width:1;"/><path d="M228.8331,772.6831 Q228.2521,772.9819 227.6129,773.1313 Q226.9738,773.2807 226.2682,773.2807 Q223.7614,773.2807 222.4415,771.6289 Q221.1217,769.977 221.1217,766.8559 Q221.1217,763.7265 222.4415,762.0747 Q223.7614,760.4228 226.2682,760.4228 Q226.9738,760.4228 227.6212,760.5722 Q228.2687,760.7216 228.8331,761.0205 L228.8331,763.7431 Q228.2023,763.1621 227.6088,762.8923 Q227.0153,762.6225 226.3844,762.6225 Q225.0397,762.6225 224.3549,763.6892 Q223.6701,764.7558 223.6701,766.8559 Q223.6701,768.9477 224.3549,770.0144 Q225.0397,771.081 226.3844,771.081 Q227.0153,771.081 227.6088,770.8112 Q228.2023,770.5415 228.8331,769.9604 Z " fill="#000000"/><text fill="#000000" font-family="sans-serif" font-size="13" lengthAdjust="spacing" textLength="85.9219" x="240.36" y="771.4531">AnnualReport</text></g><!--class Business--><g class="entity" data-qualified-name="Business" data-source-line="69" id="ent0013"><rect fill="#FAFAFA" height="32" rx="2.5" ry="2.5" style="stroke:#888888;stroke-width:0.5;" width="86.4946" x="477.08" y="750.54"/><ellipse cx="492.08" cy="766.54" fill="#ADD1B2" rx="11" ry="11" style="stroke:#181818;stroke-width:1;"/><path d="M494.5531,772.6831 Q493.9721,772.9819 493.3329,773.1313 Q492.6938,773.2807 491.9882,773.2807 Q489.4814,773.2807 488.1615,771.6289 Q486.8417,769.977 486.8417,766.8559 Q486.8417,763.7265 488.1615,762.0747 Q489.4814,760.4228 491.9882,760.4228 Q492.6938,760.4228 493.3412,760.5722 Q493.9887,760.7216 494.5531,761.0205 L494.5531,763.7431 Q493.9223,763.1621 493.3288,762.8923 Q492.7353,762.6225 492.1044,762.6225 Q490.7597,762.6225 490.0749,763.6892 Q489.3901,764.7558 489.3901,766.8559 Q489.3901,768.9477 490.0749,770.0144 Q490.7597,771.081 492.1044,771.081 Q492.7353,771.081 493.3288,770.8112 Q493.9223,770.5415 494.5531,769.9604 Z " fill="#000000"/><text fill="#000000" font-family="sans-serif" font-size="13" lengthAdjust="spacing" textLength="54.4946" x="506.08" y="771.4531">Business</text></g><!--class User--><g class="entity" data-qualified-name="User" data-source-line="70" id="ent0015"><rect fill="#FAFAFA" height="32" rx="2.5" ry="2.5" style="stroke:#888888;stroke-width:0.5;" width="60.1963" x="715.23" y="750.54"/><ellipse cx="730.23" cy="766.54" fill="#ADD1B2" rx="11" ry="11" style="stroke:#181818;stroke-width:1;"/><path d="M732.7031,772.6831 Q732.1221,772.9819 731.4829,773.1313 Q730.8438,773.2807 730.1382,773.2807 Q727.6314,773.2807 726.3115,771.6289 Q724.9917,769.977 724.9917,766.8559 Q724.9917,763.7265 726.3115,762.0747 Q727.6314,760.4228 730.1382,760.4228 Q730.8438,760.4228 731.4912,760.5722 Q732.1387,760.7216 732.7031,761.0205 L732.7031,763.7431 Q732.0723,763.1621 731.4788,762.8923 Q730.8853,762.6225 730.2544,762.6225 Q728.9097,762.6225 728.2249,763.6892 Q727.5401,764.7558 727.5401,766.8559 Q727.5401,768.9477 728.2249,770.0144 Q728.9097,771.081 730.2544,771.081 Q730.8853,771.081 731.4788,770.8112 Q732.0723,770.5415 732.7031,769.9604 Z " fill="#000000"/><text fill="#000000" font-family="sans-serif" font-size="13" lengthAdjust="spacing" textLength="28.1963" x="744.23" y="771.4531">User</text></g><!--class PermanentDocument--><g class="entity" data-qualified-name="PermanentDocument" data-source-line="72" id="ent0018"><rect fill="#FAFAFA" height="32" rx="2.5" ry="2.5" style="stroke:#888888;stroke-width:0.5;" width="164.063" x="891.29" y="750.54"/><ellipse cx="906.29" cy="766.54" fill="#ADD1B2" rx="11" ry="11" style="stroke:#181818;stroke-width:1;"/><path d="M908.7631,772.6831 Q908.1821,772.9819 907.5429,773.1313 Q906.9038,773.2807 906.1982,773.2807 Q903.6914,773.2807 902.3715,771.6289 Q901.0517,769.977 901.0517,766.8559 Q901.0517,763.7265 902.3715,762.0747 Q903.6914,760.4228 906.1982,760.4228 Q906.9038,760.4228 907.5512,760.5722 Q908.1987,760.7216 908.7631,761.0205 L908.7631,763.7431 Q908.1323,763.1621 907.5388,762.8923 Q906.9453,762.6225 906.3144,762.6225 Q904.9697,762.6225 904.2849,763.6892 Q903.6001,764.7558 903.6001,766.8559 Q903.6001,768.9477 904.2849,770.0144 Q904.9697,771.081 906.3144,771.081 Q906.9453,771.081 907.5388,770.8112 Q908.1323,770.5415 908.7631,769.9604 Z " fill="#000000"/><text fill="#000000" font-family="sans-serif" font-size="13" lengthAdjust="spacing" textLength="132.063" x="920.29" y="771.4531">PermanentDocument</text></g><!--link SignatureAuditEvent to SignatureRequest--><g class="link" data-entity-1="ent0004" data-entity-2="ent0005" data-link-type="dependency" data-source-line="63" id="lnk6"><path codeLine="63" d="M451.9,203.08 C447.25,212.81 443.25,222.81 440.32,232.84 C435.88,248.08 434.0551,257.7926 434.5151,273.5626" fill="none" id="SignatureAuditEvent-to-SignatureRequest" style="stroke:#555555;stroke-width:1;"/><polygon fill="#555555" points="434.69,279.56,438.4259,270.4472,434.5442,274.5621,430.4293,270.6805,434.69,279.56" style="stroke:#555555;stroke-width:1;"/><text fill="#000000" font-family="sans-serif" font-size="13" lengthAdjust="spacing" textLength="113.2739" x="441.32" y="246.4084">signature_request</text><text fill="#000000" font-family="sans-serif" font-size="13" lengthAdjust="spacing" textLength="24.667" x="406.8891" y="269.1411">0..1</text></g><!--link SignatureRequest to SignatureAuditEvent--><g class="link" data-entity-1="ent0005" data-entity-2="ent0004" data-link-type="dependency" data-source-line="66" id="lnk11"><path codeLine="66" d="M562.16,279.6 C562.38,263.79 561.55,248.05 559.32,232.84 C557.91,223.17 557.2928,219.0485 554.9528,209.1685" fill="none" id="SignatureRequest-to-SignatureAuditEvent" style="stroke:#555555;stroke-width:1;"/><polygon fill="#555555" points="553.57,203.33,551.7519,213.0096,554.7223,208.1954,559.5365,211.1659,553.57,203.33" style="stroke:#555555;stroke-width:1;"/><text fill="#000000" font-family="sans-serif" font-size="13" lengthAdjust="spacing" textLength="79.3203" x="561.89" y="246.4084">audit_events</text><text fill="#000000" font-family="sans-serif" font-size="13" lengthAdjust="spacing" textLength="22.7119" x="533.0886" y="223.3561">0..*</text></g><!--link SignatureRequest to Client--><g class="link" data-entity-1="ent0005" data-entity-2="ent0007" data-link-type="dependency" data-source-line="64" id="lnk8"><path codeLine="64" d="M382.29,506.03 C276.63,535.75 137.91,594 70.32,703.54 C59.79,720.62 72.3149,734.6732 89.6049,746.7032" fill="none" id="SignatureRequest-to-Client" style="stroke:#555555;stroke-width:1;stroke-dasharray:7,7;"/><polygon fill="#555555" points="94.53,750.13,89.4268,741.7064,90.4257,747.2743,84.8578,748.2732,94.53,750.13" style="stroke:#555555;stroke-width:1;"/><text fill="#000000" font-family="sans-serif" font-size="13" lengthAdjust="spacing" textLength="34.3472" x="71.32" y="717.1084">client</text><text fill="#000000" font-family="sans-serif" font-size="13" lengthAdjust="spacing" textLength="24.667" x="57.7908" y="739.8296">0..1</text></g><!--link SignatureRequest to Client--><g class="link" data-entity-1="ent0005" data-entity-2="ent0007" data-link-type="dependency" data-source-line="68" id="lnk12"><path codeLine="68" d="M382.33,555.95 C316.61,596.16 238.73,648.27 175.32,703.54 C158.97,717.8 146.6797,732.2408 136.3997,745.4808" fill="none" id="SignatureRequest-to-Client-1" style="stroke:#555555;stroke-width:1;stroke-dasharray:7,7;"/><polygon fill="#555555" points="132.72,750.22,141.399,745.5643,135.7864,746.2707,135.0801,740.6581,132.72,750.22" style="stroke:#555555;stroke-width:1;"/><text fill="#000000" font-family="sans-serif" font-size="13" lengthAdjust="spacing" textLength="52.7871" x="176.32" y="717.1084">client_id</text></g><!--link SignatureRequest to AnnualReport--><g class="link" data-entity-1="ent0005" data-entity-2="ent0009" data-link-type="dependency" data-source-line="65" id="lnk10"><path codeLine="65" d="M382.49,552.03 C327.61,589.55 270.43,640.58 240.32,703.54 C232.69,719.51 239.9883,733.1891 250.8183,745.7291" fill="none" id="SignatureRequest-to-AnnualReport" style="stroke:#555555;stroke-width:1;stroke-dasharray:7,7;"/><polygon fill="#555555" points="254.74,750.27,251.8847,740.8441,251.4719,746.4859,245.8301,746.0731,254.74,750.27" style="stroke:#555555;stroke-width:1;"/><text fill="#000000" font-family="sans-serif" font-size="13" lengthAdjust="spacing" textLength="87.731" x="241.32" y="717.1084">annual_report</text><text fill="#000000" font-family="sans-serif" font-size="13" lengthAdjust="spacing" textLength="24.667" x="221.3737" y="739.7208">0..1</text></g><!--link SignatureRequest to AnnualReport--><g class="link" data-entity-1="ent0005" data-entity-2="ent0009" data-link-type="dependency" data-source-line="71" id="lnk17"><path codeLine="71" d="M382.4,668.35 C366.57,686.65 350.08,704.38 333.32,720.54 C321.81,731.65 312.3886,738.8313 300.2486,746.8913" fill="none" id="SignatureRequest-to-AnnualReport-1" style="stroke:#555555;stroke-width:1;stroke-dasharray:7,7;"/><polygon fill="#555555" points="295.25,750.21,304.9604,748.5644,299.4155,747.4444,300.5355,741.8995,295.25,750.21" style="stroke:#555555;stroke-width:1;"/><text fill="#000000" font-family="sans-serif" font-size="13" lengthAdjust="spacing" textLength="106.1709" x="346.04" y="717.1084">annual_report_id</text></g><!--link SignatureRequest to Business--><g class="link" data-entity-1="ent0005" data-entity-2="ent0013" data-link-type="dependency" data-source-line="69" id="lnk14"><path codeLine="69" d="M517.56,673.86 C517.47,683.9 517.39,693.83 517.32,703.54 C517.27,711.1 517.07,712.99 517.32,720.54 C517.65,730.4 517.9251,735.4773 518.5851,744.1573" fill="none" id="SignatureRequest-to-Business" style="stroke:#555555;stroke-width:1;stroke-dasharray:7,7;"/><polygon fill="#555555" points="519.04,750.14,522.3461,740.8626,518.6609,745.1544,514.3692,741.4692,519.04,750.14" style="stroke:#555555;stroke-width:1;"/><text fill="#000000" font-family="sans-serif" font-size="13" lengthAdjust="spacing" textLength="73.6392" x="518.32" y="717.1084">business_id</text></g><!--link SignatureRequest to User--><g class="link" data-entity-1="ent0005" data-entity-2="ent0015" data-link-type="dependency" data-source-line="70" id="lnk16"><path codeLine="70" d="M593.82,673.76 C605.06,690.83 617.84,706.8 632.32,720.54 C655.31,742.33 684.314,752.6466 709.234,758.5966" fill="none" id="SignatureRequest-to-User" style="stroke:#555555;stroke-width:1;stroke-dasharray:7,7;"/><polygon fill="#555555" points="715.07,759.99,707.245,754.0092,710.2067,758.8288,705.3871,761.7905,715.07,759.99" style="stroke:#555555;stroke-width:1;"/><text fill="#000000" font-family="sans-serif" font-size="13" lengthAdjust="spacing" textLength="68.1611" x="633.32" y="717.1084">created_by</text></g><!--link SignatureRequest to User--><g class="link" data-entity-1="ent0005" data-entity-2="ent0015" data-link-type="dependency" data-source-line="73" id="lnk20"><path codeLine="73" d="M658.2,640.12 C674.82,661.15 691.24,682.64 706.32,703.54 C717.41,718.9 725.7456,732.2315 733.3256,744.9915" fill="none" id="SignatureRequest-to-User-1" style="stroke:#555555;stroke-width:1;stroke-dasharray:7,7;"/><polygon fill="#555555" points="736.39,750.15,735.2324,740.3694,733.8364,745.8513,728.3545,744.4552,736.39,750.15" style="stroke:#555555;stroke-width:1;"/><text fill="#000000" font-family="sans-serif" font-size="13" lengthAdjust="spacing" textLength="76.4639" x="718.7" y="717.1084">canceled_by</text></g><!--link SignatureRequest to User--><g class="link" data-entity-1="ent0005" data-entity-2="ent0015" data-link-type="dependency" data-source-line="74" id="lnk21"><path codeLine="74" d="M658.12,550.71 C714.03,588.26 772.58,639.68 803.32,703.54 C812.27,722.13 799.183,735.758 780.863,747.168" fill="none" id="SignatureRequest-to-User-2" style="stroke:#555555;stroke-width:1;stroke-dasharray:7,7;"/><polygon fill="#555555" points="775.77,750.34,785.5241,748.9773,780.0142,747.6967,781.2948,742.1867,775.77,750.34" style="stroke:#555555;stroke-width:1;"/><text fill="#000000" font-family="sans-serif" font-size="13" lengthAdjust="spacing" textLength="68.1865" x="806.68" y="717.1084">deleted_by</text></g><!--link SignatureRequest to PermanentDocument--><g class="link" data-entity-1="ent0005" data-entity-2="ent0018" data-link-type="dependency" data-source-line="72" id="lnk19"><path codeLine="72" d="M658.32,561.45 C726.51,603.38 809.75,655.35 883.32,703.54 C906.97,719.03 928.6714,734.0396 946.7814,746.7696" fill="none" id="SignatureRequest-to-PermanentDocument" style="stroke:#555555;stroke-width:1;stroke-dasharray:7,7;"/><polygon fill="#555555" points="951.69,750.22,946.6273,741.772,947.5995,747.3447,942.0268,748.3168,951.69,750.22" style="stroke:#555555;stroke-width:1;"/><text fill="#000000" font-family="sans-serif" font-size="13" lengthAdjust="spacing" textLength="81.6436" x="909.29" y="717.1084">document_id</text></g><?plantuml-src XLLTJnin47pFhrZH1w0L4QYgL4KeLVYIAbGLGVjySkpbOkNEljfxmBNbltVj-CY5E3Gyu8p7zkpkx6OVBcmjj9c0rwKHr3ei7FvgqPC7-0jGMuKJaBPkXAJHFbog4g724esQmD7H5BxVVWE7bI1jZL_evk0G0CRZALnT7rbJTN1Wx0RXSBJG2W7hXZgeiPwZyoE_rAOHJjGWA-7zZCZfUKluLLfpftyZ7B-cN5b3SUVaus1hvfnzFBULTV3kK_mCDi_3kJFh5Bf4-Hm_MnGXbwMphL69TZKBVwCHchQ6kpvHjwiytH5_y_1d1A2Sk2V-tt1sj2cBbvmo5jQe0WbbfLTBV6gqYoifZCIAbyyxNldHDHZVG5EA4ciqL8ZIOLmnB8nfHSMrQwpZdQPnza5KGOjzH5VO-q8GMMUmO-n143FvTZDaojQJhOE2cE2rX5chD5q-y4DmUhhsYGXmWG7tqsaKzq4hc82En9lhwJH0aL1GqCyk8nSmzf9rMQo_uCiQCg9Ej0ZgfX1AEMI5Qx3r72JdXLzUWyOI1XBXq-e-AsNhEE6S2uQL82HTOoRYbFIDSFksU2FKHEa3ozKmq4XJDGXSePTEDw4_XcBP-HGojn1-CGYAQ-Guq6A9tH0DxXgcQW0YDtYrpMqMrk36nT77anq6xqy6NvDTeXaUZMuSvZJ2AtlxNJjTeKJdLqbyqQKoxBvZCbjztsIsKfXPkwIzh6lIQrnluJShaWGgAzlOVuCIi8LoxH86vDxnU7ooj-sjpCWTRP7284qNd5Tw9LJ6nPlSMPm6jt4Oy8cDuR1zi5VvVY_Rytn-qEdy6z1FTaxJqiVv_lf780uvmPrsECdhV1KCjtsUTzPwhaMitJmjTt9_SZN3ZLmuuZBDkppjhTpilFi6NIqCAxr8nGzkwttmFq6zHtSfIZp5f2Jy7m00?></g></svg>