<?plantuml 1.2026.2?><svg xmlns="http://www.w3.org/2000/svg" xmlns:xlink="http://www.w3.org/1999/xlink" contentStyleType="text/css" data-diagram-type="CLASS" height="384px" preserveAspectRatio="none" style="width:748px;height:384px;background:#FFFFFF;" version="1.1" viewBox="0 0 748 384" width="748px" zoomAndPan="magnify"><defs/><g><!--class DeadlineType--><g class="entity" data-qualified-name="DeadlineType" data-source-line="10" id="ent0002"><rect fill="#FAFAFA" height="122.4414" rx="2.5" ry="2.5" style="stroke:#888888;stroke-width:0.5;" width="139.4492" x="7" y="39.45"/><ellipse cx="31.8301" cy="55.45" fill="#EB937F" rx="11" ry="11" style="stroke:#181818;stroke-width:1;"/><path d="M35.4444,61.95 L27.7247,61.95 L27.7247,49.5569 L35.4444,49.5569 L35.4444,51.7151 L30.1734,51.7151 L30.1734,54.388 L34.9463,54.388 L34.9463,56.5462 L30.1734,56.5462 L30.1734,59.7918 L35.4444,59.7918 Z " fill="#000000"/><text fill="#000000" font-family="sans-serif" font-size="13" lengthAdjust="spacing" textLength="85.6045" x="48.0146" y="60.3631">DeadlineType</text><line style="stroke:#888888;stroke-width:0.5;" x1="8" x2="145.4492" y1="71.45" y2="71.45"/><text fill="#000000" font-family="sans-serif" font-size="14" lengthAdjust="spacing" textLength="20.2139" x="13" y="88.9852">vat</text><text fill="#000000" font-family="sans-serif" font-size="14" lengthAdjust="spacing" textLength="120.832" x="13" y="105.4734">advance_payment</text><text fill="#000000" font-family="sans-serif" font-size="14" lengthAdjust="spacing" textLength="127.4492" x="13" y="121.9617">national_insurance</text><text fill="#000000" font-family="sans-serif" font-size="14" lengthAdjust="spacing" textLength="94.4795" x="13" y="138.45">annual_report</text><text fill="#000000" font-family="sans-serif" font-size="14" lengthAdjust="spacing" textLength="36.0527" x="13" y="154.9383">other</text></g><!--class TaxDeadlineStatus--><g class="entity" data-qualified-name="TaxDeadlineStatus" data-source-line="18" id="ent0003"><rect fill="#FAFAFA" height="72.9766" rx="2.5" ry="2.5" style="stroke:#888888;stroke-width:0.5;" width="149.1396" x="181.15" y="64.18"/><ellipse cx="196.15" cy="80.18" fill="#EB937F" rx="11" ry="11" style="stroke:#181818;stroke-width:1;"/><path d="M199.7643,86.68 L192.0445,86.68 L192.0445,74.2869 L199.7643,74.2869 L199.7643,76.4451 L194.4933,76.4451 L194.4933,79.118 L199.2662,79.118 L199.2662,81.2762 L194.4933,81.2762 L194.4933,84.5218 L199.7643,84.5218 Z " fill="#000000"/><text fill="#000000" font-family="sans-serif" font-size="13" lengthAdjust="spacing" textLength="117.1396" x="210.15" y="85.0931">TaxDeadlineStatus</text><line style="stroke:#888888;stroke-width:0.5;" x1="182.15" x2="329.2896" y1="96.18" y2="96.18"/><text fill="#000000" font-family="sans-serif" font-size="14" lengthAdjust="spacing" textLength="55.5762" x="187.15" y="113.7152">pending</text><text fill="#000000" font-family="sans-serif" font-size="14" lengthAdjust="spacing" textLength="71.3467" x="187.15" y="130.2034">completed</text></g><!--class UrgencyLevel--><g class="entity" data-qualified-name="UrgencyLevel" data-source-line="23" id="ent0004"><rect fill="#FAFAFA" height="105.9531" rx="2.5" ry="2.5" style="stroke:#888888;stroke-width:0.5;" width="115.0972" x="19.18" y="271.35"/><ellipse cx="34.18" cy="287.35" fill="#EB937F" rx="11" ry="11" style="stroke:#181818;stroke-width:1;"/><path d="M37.7943,293.85 L30.0745,293.85 L30.0745,281.4569 L37.7943,281.4569 L37.7943,283.6151 L32.5233,283.6151 L32.5233,286.288 L37.2962,286.288 L37.2962,288.4462 L32.5233,288.4462 L32.5233,291.6918 L37.7943,291.6918 Z " fill="#000000"/><text fill="#000000" font-family="sans-serif" font-size="13" lengthAdjust="spacing" textLength="83.0972" x="48.18" y="292.2631">UrgencyLevel</text><line style="stroke:#888888;stroke-width:0.5;" x1="20.18" x2="133.2772" y1="303.35" y2="303.35"/><text fill="#000000" font-family="sans-serif" font-size="14" lengthAdjust="spacing" textLength="54.6738" x="25.18" y="320.8852">overdue</text><text fill="#000000" font-family="sans-serif" font-size="14" lengthAdjust="spacing" textLength="22.3398" x="25.18" y="337.3734">red</text><text fill="#000000" font-family="sans-serif" font-size="14" lengthAdjust="spacing" textLength="42.5947" x="25.18" y="353.8617">yellow</text><text fill="#000000" font-family="sans-serif" font-size="14" lengthAdjust="spacing" textLength="38.7461" x="25.18" y="370.35">green</text></g><!--class TaxDeadline--><g class="entity" data-qualified-name="TaxDeadline" data-source-line="30" id="ent0005"><rect fill="#FAFAFA" height="187.3496" rx="2.5" ry="2.5" style="stroke:#888888;stroke-width:0.5;" width="252.7617" x="365.34" y="7"/><ellipse cx="443.1437" cy="26.7217" fill="#ADD1B2" rx="11" ry="11" style="stroke:#181818;stroke-width:1;"/><path d="M445.6169,32.8647 Q445.0358,33.1636 444.3966,33.313 Q443.7575,33.4624 443.0519,33.4624 Q440.5451,33.4624 439.2253,31.8105 Q437.9054,30.1587 437.9054,27.0376 Q437.9054,23.9082 439.2253,22.2563 Q440.5451,20.6045 443.0519,20.6045 Q443.7575,20.6045 444.4049,20.7539 Q445.0524,20.9033 445.6169,21.2021 L445.6169,23.9248 Q444.986,23.3438 444.3925,23.074 Q443.799,22.8042 443.1681,22.8042 Q441.8234,22.8042 441.1386,23.8708 Q440.4538,24.9375 440.4538,27.0376 Q440.4538,29.1294 441.1386,30.196 Q441.8234,31.2627 443.1681,31.2627 Q443.799,31.2627 444.3925,30.9929 Q444.986,30.7231 445.6169,30.1421 Z " fill="#000000"/><text fill="#000000" font-family="sans-serif" font-size="12" font-style="italic" lengthAdjust="spacing" textLength="92.6543" x="461.6437" y="23.6016">&#171;tax_deadlines&#187;</text><text fill="#000000" font-family="sans-serif" font-size="13" lengthAdjust="spacing" textLength="78.5396" x="468.7011" y="38.7012">TaxDeadline</text><line style="stroke:#888888;stroke-width:0.5;" x1="366.34" x2="617.1017" y1="46.4434" y2="46.4434"/><text fill="#000000" font-family="sans-serif" font-size="14" lengthAdjust="spacing" textLength="91.2256" x="371.34" y="63.9785">+id : int &#171;PK&#187;</text><text fill="#000000" font-family="sans-serif" font-size="14" lengthAdjust="spacing" textLength="210.5059" x="371.34" y="80.4668">+deadline_type : DeadlineType</text><text fill="#000000" font-family="sans-serif" font-size="14" lengthAdjust="spacing" textLength="115.876" x="371.34" y="96.9551">+due_date : date</text><text fill="#000000" font-family="sans-serif" font-size="14" lengthAdjust="spacing" textLength="191.7344" x="371.34" y="113.4434">+status : TaxDeadlineStatus</text><text fill="#000000" font-family="sans-serif" font-size="14" lengthAdjust="spacing" textLength="181.3711" x="371.34" y="129.9316">+completed_at : datetime?</text><text fill="#000000" font-family="sans-serif" font-size="14" lengthAdjust="spacing" textLength="133.2598" x="371.34" y="146.4199">+description : text?</text><line style="stroke:#888888;stroke-width:0.5;" x1="366.34" x2="617.1017" y1="153.373" y2="153.373"/><text fill="#000000" font-family="sans-serif" font-size="14" lengthAdjust="spacing" textLength="110.1816" x="371.34" y="170.9082">+period : str(7)?</text><text fill="#000000" font-family="sans-serif" font-size="14" lengthAdjust="spacing" textLength="240.7617" x="371.34" y="187.3965">+payment_amount : decimal(10,2)?</text></g><!--class Client--><g class="entity" data-qualified-name="Client" data-source-line="42" id="ent0006"><rect fill="#FAFAFA" height="32" rx="2.5" ry="2.5" style="stroke:#888888;stroke-width:0.5;" width="68.6831" x="298.38" y="308.32"/><ellipse cx="313.38" cy="324.32" fill="#ADD1B2" rx="11" ry="11" style="stroke:#181818;stroke-width:1;"/><path d="M315.8531,330.4631 Q315.2721,330.7619 314.6329,330.9113 Q313.9938,331.0607 313.2882,331.0607 Q310.7814,331.0607 309.4615,329.4089 Q308.1417,327.757 308.1417,324.6359 Q308.1417,321.5065 309.4615,319.8547 Q310.7814,318.2028 313.2882,318.2028 Q313.9938,318.2028 314.6412,318.3522 Q315.2887,318.5016 315.8531,318.8005 L315.8531,321.5231 Q315.2223,320.9421 314.6288,320.6723 Q314.0353,320.4025 313.4044,320.4025 Q312.0597,320.4025 311.3749,321.4692 Q310.6901,322.5358 310.6901,324.6359 Q310.6901,326.7277 311.3749,327.7944 Q312.0597,328.861 313.4044,328.861 Q314.0353,328.861 314.6288,328.5912 Q315.2223,328.3215 315.8531,327.7404 Z " fill="#000000"/><text fill="#000000" font-family="sans-serif" font-size="13" lengthAdjust="spacing" textLength="36.6831" x="327.38" y="329.2331">Client</text></g><!--class User--><g class="entity" data-qualified-name="User" data-source-line="43" id="ent0008"><rect fill="#FAFAFA" height="32" rx="2.5" ry="2.5" style="stroke:#888888;stroke-width:0.5;" width="60.1963" x="451.63" y="308.32"/><ellipse cx="466.63" cy="324.32" fill="#ADD1B2" rx="11" ry="11" style="stroke:#181818;stroke-width:1;"/><path d="M469.1031,330.4631 Q468.5221,330.7619 467.8829,330.9113 Q467.2438,331.0607 466.5382,331.0607 Q464.0314,331.0607 462.7115,329.4089 Q461.3917,327.757 461.3917,324.6359 Q461.3917,321.5065 462.7115,319.8547 Q464.0314,318.2028 466.5382,318.2028 Q467.2438,318.2028 467.8912,318.3522 Q468.5387,318.5016 469.1031,318.8005 L469.1031,321.5231 Q468.4723,320.9421 467.8788,320.6723 Q467.2853,320.4025 466.6544,320.4025 Q465.3097,320.4025 464.6249,321.4692 Q463.9401,322.5358 463.9401,324.6359 Q463.9401,326.7277 464.6249,327.7944 Q465.3097,328.861 466.6544,328.861 Q467.2853,328.861 467.8788,328.5912 Q468.4723,328.3215 469.1031,327.7404 Z " fill="#000000"/><text fill="#000000" font-family="sans-serif" font-size="13" lengthAdjust="spacing" textLength="28.1963" x="480.63" y="329.2331">User</text></g><!--class AdvancePayment--><g class="entity" data-qualified-name="AdvancePayment" data-source-line="44" id="ent0010"><rect fill="#FAFAFA" height="32" rx="2.5" ry="2.5" style="stroke:#888888;stroke-width:0.5;" width="138.4946" x="596.48" y="308.32"/><ellipse cx="611.48" cy="324.32" fill="#ADD1B2" rx="11" ry="11" style="stroke:#181818;stroke-width:1;"/><path d="M613.9531,330.4631 Q613.3721,330.7619 612.7329,330.9113 Q612.0938,331.0607 611.3882,331.0607 Q608.8814,331.0607 607.5615,329.4089 Q606.2417,327.757 606.2417,324.6359 Q606.2417,321.5065 607.5615,319.8547 Q608.8814,318.2028 611.3882,318.2028 Q612.0938,318.2028 612.7412,318.3522 Q613.3887,318.5016 613.9531,318.8005 L613.9531,321.5231 Q613.3223,320.9421 612.7288,320.6723 Q612.1353,320.4025 611.5044,320.4025 Q610.1597,320.4025 609.4749,321.4692 Q608.7901,322.5358 608.7901,324.6359 Q608.7901,326.7277 609.4749,327.7944 Q610.1597,328.861 611.5044,328.861 Q612.1353,328.861 612.7288,328.5912 Q613.3223,328.3215 613.9531,327.7404 Z " fill="#000000"/><text fill="#000000" font-family="sans-serif" font-size="13" lengthAdjust="spacing" textLength="106.4946" x="625.48" y="329.2331">AdvancePayment</text></g><!--link TaxDeadline to Client--><g class="link" data-entity-1="ent0005" data-entity-2="ent0006" data-link-type="dependency" data-source-line="42" id="lnk7"><path codeLine="42" d="M381.29,194.54 C373.31,204.06 365.96,214.04 359.72,224.35 C343.59,251.01 337.6639,281.5188 335.0439,301.9288" fill="none" id="TaxDeadline-to-Client" style="stroke:#555555;stroke-width:1;stroke-dasharray:7,7;"/><polygon fill="#555555" points="334.28,307.88,339.3934,299.4625,334.9166,302.9207,331.4585,298.444,334.28,307.88" style="stroke:#555555;stroke-width:1;"/><text fill="#000000" font-family="sans-serif" font-size="13" lengthAdjust="spacing" textLength="52.7871" x="360.72" y="237.9184">client_id</text></g><!--link TaxDeadline to User--><g class="link" data-entity-1="ent0005" data-entity-2="ent0008" data-link-type="dependency" data-source-line="43" id="lnk9"><path codeLine="43" d="M433.98,194.77 C429.84,204.49 426.29,214.45 423.72,224.35 C415.3,256.93 438.862,285.5594 458.852,304.0194" fill="none" id="TaxDeadline-to-User" style="stroke:#555555;stroke-width:1;stroke-dasharray:7,7;"/><polygon fill="#555555" points="463.26,308.09,459.3618,299.0455,459.5867,304.6978,453.9343,304.9228,463.26,308.09" style="stroke:#555555;stroke-width:1;"/><text fill="#000000" font-family="sans-serif" font-size="13" lengthAdjust="spacing" textLength="87.7246" x="424.72" y="237.9184">completed_by</text></g><!--link TaxDeadline to User--><g class="link" data-entity-1="ent0005" data-entity-2="ent0008" data-link-type="dependency" data-source-line="45" id="lnk12"><path codeLine="45" d="M518.27,194.58 C519.9,210.22 519.81,226.26 516.72,241.35 C511.73,265.76 502.0268,286.6083 493.3868,302.6383" fill="none" id="TaxDeadline-to-User-1" style="stroke:#555555;stroke-width:1;stroke-dasharray:7,7;"/><polygon fill="#555555" points="490.54,307.92,498.3312,301.8953,492.9123,303.5186,491.289,298.0997,490.54,307.92" style="stroke:#555555;stroke-width:1;"/><text fill="#000000" font-family="sans-serif" font-size="13" lengthAdjust="spacing" textLength="68.1865" x="519.84" y="237.9184">deleted_by</text></g><!--link TaxDeadline to AdvancePayment--><g class="link" data-entity-1="ent0005" data-entity-2="ent0010" data-link-type="dependency" data-source-line="44" id="lnk11"><path codeLine="44" d="M572.96,194.65 C581.12,204.56 589.18,214.59 596.72,224.35 C618.9,253.01 639.3046,283.1226 652.3546,302.8926" fill="none" id="TaxDeadline-to-AdvancePayment" style="stroke:#555555;stroke-width:1;stroke-dasharray:7,7;"/><polygon fill="#555555" points="655.66,307.9,654.0402,298.1852,652.9055,303.7271,647.3636,302.5924,655.66,307.9" style="stroke:#555555;stroke-width:1;"/><text fill="#000000" font-family="sans-serif" font-size="13" lengthAdjust="spacing" textLength="130.6411" x="609.61" y="237.9184">advance_payment_id</text></g><?plantuml-src VLBRQjj047tNLmpqmJQjGz9IMaHGS9qQIbeQckHPZBM3lNWlOdRbHBtyUtVMYklOq1LebpbdpZ1dPWJNtg9s9KHygXMXCjeHm6y0wnMLq7ZROXEB4NnMAm93AtAgXEcqWky_lW6JmQYz2slTZYS0S7PMmU9cwftfOUpy2yAaM6j5GBQDFLYoI-9GX8rsBJ9QQ0o6C8kHzRABzANnxax_93W_fYoyYncvU7S0pPZzuzmRp_3gVJu7u5poFdbMn0FbOpud56msA_QTKmDjCPElACXr5gu7U-xxbk1N0R35cFwejkWQgbliBJc9kDmocbgxqB60GdEkIo6crhEGV5mJ5ty6xNjyUfQ_YnYxa0kqoMpjLkabSp0KIUqp7ZYDekc_qfPC9lijiUga52SQG4_6-CVqM36Haxnits4fkBmyd7keggpqMYieGRkOyDkRgfBGCwUEqdtvmWp1MsBj9Ir47d-ONEMSZcg5KUXoIIZicYjF6nPqtsMDSKYAsb8M6-ojqQRvP9GQRT6CByxVl1tgKMXOjs9-mYCznIjfUxJVo5Hj4_9U7Y-lg1bCnatAuj0WsUUvqPGhDlbHQtL2UGZ4KFwRKhtiJpYptPxSxlf8xAF5-O-kehtgNm00?></g></svg>