<?plantuml 1.2026.2?><svg xmlns="http://www.w3.org/2000/svg" xmlns:xlink="http://www.w3.org/1999/xlink" contentStyleType="text/css" data-diagram-type="CLASS" height="466px" preserveAspectRatio="none" style="width:506px;height:466px;background:#FFFFFF;" version="1.1" viewBox="0 0 506 466" width="506px" zoomAndPan="magnify"><defs/><g><!--class UserRole--><g class="entity" data-qualified-name="UserRole" data-source-line="10" id="ent0002"><rect fill="#FAFAFA" height="72.9766" rx="2.5" ry="2.5" style="stroke:#888888;stroke-width:0.5;" width="87.4023" x="15.52" y="56.46"/><ellipse cx="30.52" cy="72.46" fill="#EB937F" rx="11" ry="11" style="stroke:#181818;stroke-width:1;"/><path d="M34.1343,78.96 L26.4145,78.96 L26.4145,66.5669 L34.1343,66.5669 L34.1343,68.7251 L28.8633,68.7251 L28.8633,71.398 L33.6362,71.398 L33.6362,73.5562 L28.8633,73.5562 L28.8633,76.8018 L34.1343,76.8018 Z " fill="#000000"/><text fill="#000000" font-family="sans-serif" font-size="13" lengthAdjust="spacing" textLength="55.4023" x="44.52" y="77.3731">UserRole</text><line style="stroke:#888888;stroke-width:0.5;" x1="16.52" x2="101.9223" y1="88.46" y2="88.46"/><text fill="#000000" font-family="sans-serif" font-size="14" lengthAdjust="spacing" textLength="49.3008" x="21.52" y="105.9952">advisor</text><text fill="#000000" font-family="sans-serif" font-size="14" lengthAdjust="spacing" textLength="61.6465" x="21.52" y="122.4834">secretary</text></g><!--class User--><g class="entity" data-qualified-name="User" data-source-line="15" id="ent0003"><rect fill="#FAFAFA" height="203.8379" rx="2.5" ry="2.5" style="stroke:#888888;stroke-width:0.5;" width="187.2871" x="289.58" y="255.9"/><ellipse cx="359.0478" cy="275.6217" fill="#ADD1B2" rx="11" ry="11" style="stroke:#181818;stroke-width:1;"/><path d="M361.5209,281.7647 Q360.9399,282.0636 360.3007,282.213 Q359.6615,282.3624 358.956,282.3624 Q356.4491,282.3624 355.1293,280.7105 Q353.8095,279.0587 353.8095,275.9376 Q353.8095,272.8082 355.1293,271.1563 Q356.4491,269.5045 358.956,269.5045 Q359.6615,269.5045 360.309,269.6539 Q360.9565,269.8033 361.5209,270.1021 L361.5209,272.8248 Q360.8901,272.2438 360.2966,271.974 Q359.703,271.7042 359.0722,271.7042 Q357.7275,271.7042 357.0426,272.7708 Q356.3578,273.8375 356.3578,275.9376 Q356.3578,278.0294 357.0426,279.096 Q357.7275,280.1627 359.0722,280.1627 Q359.703,280.1627 360.2966,279.8929 Q360.8901,279.6231 361.5209,279.0421 Z " fill="#000000"/><text fill="#000000" font-family="sans-serif" font-size="12" font-style="italic" lengthAdjust="spacing" textLength="43.8516" x="377.5478" y="272.5016">&#171;users&#187;</text><text fill="#000000" font-family="sans-serif" font-size="13" lengthAdjust="spacing" textLength="28.1963" x="385.3754" y="287.6012">User</text><line style="stroke:#888888;stroke-width:0.5;" x1="290.58" x2="475.8671" y1="295.3434" y2="295.3434"/><text fill="#000000" font-family="sans-serif" font-size="14" lengthAdjust="spacing" textLength="91.2256" x="295.58" y="312.8785">+id : int &#171;PK&#187;</text><text fill="#000000" font-family="sans-serif" font-size="14" lengthAdjust="spacing" textLength="108.7393" x="295.58" y="329.3668">+full_name : str</text><text fill="#000000" font-family="sans-serif" font-size="14" lengthAdjust="spacing" textLength="79.2148" x="295.58" y="345.8551">+email : str</text><text fill="#000000" font-family="sans-serif" font-size="14" lengthAdjust="spacing" textLength="91.0137" x="295.58" y="362.3434">+phone : str?</text><text fill="#000000" font-family="sans-serif" font-size="14" lengthAdjust="spacing" textLength="110.2568" x="295.58" y="378.8316">+role : UserRole</text><text fill="#000000" font-family="sans-serif" font-size="14" lengthAdjust="spacing" textLength="111.8906" x="295.58" y="395.3199">+is_active : bool</text><text fill="#000000" font-family="sans-serif" font-size="14" lengthAdjust="spacing" textLength="137.1426" x="295.58" y="411.8082">+token_version : int</text><text fill="#000000" font-family="sans-serif" font-size="14" lengthAdjust="spacing" textLength="175.2871" x="295.58" y="428.2965">+last_login_at : datetime?</text><line style="stroke:#888888;stroke-width:0.5;" x1="290.58" x2="475.8671" y1="435.2496" y2="435.2496"/><text fill="#000000" font-family="sans-serif" font-size="14" lengthAdjust="spacing" textLength="173.3184" x="295.58" y="452.7848">+password_hash : str(60)</text></g><!--class AuditAction--><g class="entity" data-qualified-name="AuditAction" data-source-line="27" id="ent0004"><rect fill="#FAFAFA" height="171.9063" rx="2.5" ry="2.5" style="stroke:#888888;stroke-width:0.5;" width="125.9756" x="138.23" y="7"/><ellipse cx="162.1557" cy="23" fill="#EB937F" rx="11" ry="11" style="stroke:#181818;stroke-width:1;"/><path d="M165.77,29.5 L158.0503,29.5 L158.0503,17.1069 L165.77,17.1069 L165.77,19.2651 L160.499,19.2651 L160.499,21.938 L165.2719,21.938 L165.2719,24.0962 L160.499,24.0962 L160.499,27.3418 L165.77,27.3418 Z " fill="#000000"/><text fill="#000000" font-family="sans-serif" font-size="13" lengthAdjust="spacing" textLength="74.1406" x="178.1392" y="27.9131">AuditAction</text><line style="stroke:#888888;stroke-width:0.5;" x1="139.23" x2="263.2056" y1="39" y2="39"/><text fill="#000000" font-family="sans-serif" font-size="14" lengthAdjust="spacing" textLength="93.3516" x="144.23" y="56.5352">login_success</text><text fill="#000000" font-family="sans-serif" font-size="14" lengthAdjust="spacing" textLength="84.3008" x="144.23" y="73.0234">login_failure</text><text fill="#000000" font-family="sans-serif" font-size="14" lengthAdjust="spacing" textLength="43.9004" x="144.23" y="89.5117">logout</text><text fill="#000000" font-family="sans-serif" font-size="14" lengthAdjust="spacing" textLength="86.6318" x="144.23" y="106">user_created</text><text fill="#000000" font-family="sans-serif" font-size="14" lengthAdjust="spacing" textLength="92.2441" x="144.23" y="122.4883">user_updated</text><text fill="#000000" font-family="sans-serif" font-size="14" lengthAdjust="spacing" textLength="97.3643" x="144.23" y="138.9766">user_activated</text><text fill="#000000" font-family="sans-serif" font-size="14" lengthAdjust="spacing" textLength="113.9756" x="144.23" y="155.4648">user_deactivated</text><text fill="#000000" font-family="sans-serif" font-size="14" lengthAdjust="spacing" textLength="105.4443" x="144.23" y="171.9531">password_reset</text></g><!--class AuditStatus--><g class="entity" data-qualified-name="AuditStatus" data-source-line="38" id="ent0005"><rect fill="#FAFAFA" height="72.9766" rx="2.5" ry="2.5" style="stroke:#888888;stroke-width:0.5;" width="104.4395" x="7" y="321.33"/><ellipse cx="22" cy="337.33" fill="#EB937F" rx="11" ry="11" style="stroke:#181818;stroke-width:1;"/><path d="M25.6143,343.83 L17.8945,343.83 L17.8945,331.4369 L25.6143,331.4369 L25.6143,333.5951 L20.3433,333.5951 L20.3433,336.268 L25.1162,336.268 L25.1162,338.4262 L20.3433,338.4262 L20.3433,341.6718 L25.6143,341.6718 Z " fill="#000000"/><text fill="#000000" font-family="sans-serif" font-size="13" lengthAdjust="spacing" textLength="72.4395" x="36" y="342.2431">AuditStatus</text><line style="stroke:#888888;stroke-width:0.5;" x1="8" x2="110.4395" y1="353.33" y2="353.33"/><text fill="#000000" font-family="sans-serif" font-size="14" lengthAdjust="spacing" textLength="52.2402" x="13" y="370.8652">success</text><text fill="#000000" font-family="sans-serif" font-size="14" lengthAdjust="spacing" textLength="43.1895" x="13" y="387.3534">failure</text></g><!--class UserAuditLog--><g class="entity" data-qualified-name="UserAuditLog" data-source-line="43" id="ent0006"><rect fill="#FAFAFA" height="146.373" rx="2.5" ry="2.5" style="stroke:#888888;stroke-width:0.5;" width="168.2148" x="299.11" y="19.76"/><ellipse cx="330.5157" cy="39.4817" fill="#ADD1B2" rx="11" ry="11" style="stroke:#181818;stroke-width:1;"/><path d="M332.9888,45.6247 Q332.4078,45.9236 331.7686,46.073 Q331.1294,46.2224 330.4239,46.2224 Q327.917,46.2224 326.5972,44.5705 Q325.2774,42.9187 325.2774,39.7976 Q325.2774,36.6682 326.5972,35.0163 Q327.917,33.3645 330.4239,33.3645 Q331.1294,33.3645 331.7769,33.5139 Q332.4244,33.6633 332.9888,33.9621 L332.9888,36.6848 Q332.3579,36.1037 331.7644,35.834 Q331.1709,35.5642 330.5401,35.5642 Q329.1954,35.5642 328.5105,36.6308 Q327.8257,37.6975 327.8257,39.7976 Q327.8257,41.8894 328.5105,42.956 Q329.1954,44.0227 330.5401,44.0227 Q331.1709,44.0227 331.7644,43.7529 Q332.3579,43.4831 332.9888,42.9021 Z " fill="#000000"/><text fill="#000000" font-family="sans-serif" font-size="12" font-style="italic" lengthAdjust="spacing" textLength="103.7578" x="346.1614" y="36.3616">&#171;user_audit_logs&#187;</text><text fill="#000000" font-family="sans-serif" font-size="13" lengthAdjust="spacing" textLength="85.0586" x="355.511" y="51.4612">UserAuditLog</text><line style="stroke:#888888;stroke-width:0.5;" x1="300.11" x2="466.3248" y1="59.2034" y2="59.2034"/><text fill="#000000" font-family="sans-serif" font-size="14" lengthAdjust="spacing" textLength="91.2256" x="305.11" y="76.7385">+id : int &#171;PK&#187;</text><text fill="#000000" font-family="sans-serif" font-size="14" lengthAdjust="spacing" textLength="145.7354" x="305.11" y="93.2268">+action : AuditAction</text><text fill="#000000" font-family="sans-serif" font-size="14" lengthAdjust="spacing" textLength="85.1211" x="305.11" y="109.7151">+email : str?</text><text fill="#000000" font-family="sans-serif" font-size="14" lengthAdjust="spacing" textLength="143.5957" x="305.11" y="126.2034">+status : AuditStatus</text><text fill="#000000" font-family="sans-serif" font-size="14" lengthAdjust="spacing" textLength="94.1104" x="305.11" y="142.6916">+reason : str?</text><text fill="#000000" font-family="sans-serif" font-size="14" lengthAdjust="spacing" textLength="156.2148" x="305.11" y="159.1799">+metadata_json : text?</text></g><!--link UserAuditLog to User--><g class="link" data-entity-1="ent0006" data-entity-2="ent0003" data-link-type="dependency" data-source-line="53" id="lnk7"><path codeLine="53" d="M334.1,166.61 C327.13,180.15 321.04,194.56 317.22,208.9 C313.09,224.39 312.5545,234.5045 316.5745,249.9045" fill="none" id="UserAuditLog-to-User" style="stroke:#555555;stroke-width:1;stroke-dasharray:7,7;"/><polygon fill="#555555" points="318.09,255.71,319.6871,245.9915,316.8271,250.8721,311.9465,248.0121,318.09,255.71" style="stroke:#555555;stroke-width:1;"/><text fill="#000000" font-family="sans-serif" font-size="13" lengthAdjust="spacing" textLength="84.2017" x="318.22" y="222.4684">actor_user_id</text></g><!--link UserAuditLog to User--><g class="link" data-entity-1="ent0006" data-entity-2="ent0003" data-link-type="dependency" data-source-line="54" id="lnk8"><path codeLine="54" d="M400.74,166.57 C403.43,180.54 405.8,195.11 407.22,208.9 C408.78,224.04 408.9774,234.0198 407.4174,249.6098" fill="none" id="UserAuditLog-to-User-1" style="stroke:#555555;stroke-width:1;stroke-dasharray:7,7;"/><polygon fill="#555555" points="406.82,255.58,411.6962,247.023,407.3178,250.6048,403.736,246.2265,406.82,255.58" style="stroke:#555555;stroke-width:1;"/><text fill="#000000" font-family="sans-serif" font-size="13" lengthAdjust="spacing" textLength="89.7686" x="409.17" y="222.4684">target_user_id</text></g><?plantuml-src VLFlRzCm4FsUl-8aFgpLr6a8WL0qPIg3IcWWq2O-HsvyIqqTNsIVEygF_trdf-tI8aY-vDuzE-_Tiy_WFNNAk19YG1y0VWDqfB64XhfUDLoSmGVT8bXiqUaIPhCAljnz1ezMiI4NLgQVJ07WugA2nUsCdDt2nD4HOLgiZ4R0hkSjTDWjvLT5M1lNAwywQAmAOSxipJ8oVcp8tPkV29Udb0KvpfsNhqQjkVVqU4EMFBnudPzHyoQjUqTUezzHtkRdBufgrgsdwFIEjfYdjoZGnGw-oMpko2ByAW2KtfX0Nhu2DXvP-MtnfoYomio4gwiypAhA_7EZeGJZMF2ljrMLe8TeRUrKXz89dFOwHud1FfVzYjokUvrhsVrHVDGh5LO3FdbpEKqjdvIL1v7vbw6MxCmcuKiYcp2cDRfw8y8abK5HWaKsrvPQush50cl5oAR3wsGgkvz7RNZUf32peO4SOjDW28VwGUH7ZqDDCUsTfb3BY6H7lIzZhyTbLZa6D8wXWskF0VbOqJqhZY4hUjQoLt4KIAP_edONJArIdJp_Bo8r62x7zazooi64GKOv5fLJGHNo-ZsnawCYtbNzVS0PVt0UyjdXtbZZrY7VdjCh1Xh5ZqSzBOiZI-dQvKDNWYWc6N1oQFG_MN9UM-G3xGa0?></g></svg>