<?plantuml 1.2026.2?><svg xmlns="http://www.w3.org/2000/svg" xmlns:xlink="http://www.w3.org/1999/xlink" contentStyleType="text/css" data-diagram-type="CLASS" height="1045px" preserveAspectRatio="none" style="width:889px;height:1045px;background:#FFFFFF;" version="1.1" viewBox="0 0 889 1045" width="889px" zoomAndPan="magnify"><defs/><g><!--class VatAuditLog--><g class="entity" data-qualified-name="VatAuditLog" data-source-line="10" id="ent0002"><rect fill="#FAFAFA" height="146.373" rx="2.5" ry="2.5" style="stroke:#888888;stroke-width:0.5;" width="187.6152" x="504.34" y="7"/><ellipse cx="548.0011" cy="26.7217" fill="#ADD1B2" rx="11" ry="11" style="stroke:#181818;stroke-width:1;"/><path d="M550.4743,32.8647 Q549.8932,33.1636 549.2541,33.313 Q548.6149,33.4624 547.9093,33.4624 Q545.4025,33.4624 544.0827,31.8105 Q542.7629,30.1587 542.7629,27.0376 Q542.7629,23.9082 544.0827,22.2563 Q545.4025,20.6045 547.9093,20.6045 Q548.6149,20.6045 549.2624,20.7539 Q549.9098,20.9033 550.4743,21.2021 L550.4743,23.9248 Q549.8434,23.3438 549.2499,23.074 Q548.6564,22.8042 548.0255,22.8042 Q546.6808,22.8042 545.996,23.8708 Q545.3112,24.9375 545.3112,27.0376 Q545.3112,29.1294 545.996,30.196 Q546.6808,31.2627 548.0255,31.2627 Q548.6564,31.2627 549.2499,30.9929 Q549.8434,30.7231 550.4743,30.1421 Z " fill="#000000"/><text fill="#000000" font-family="sans-serif" font-size="12" font-style="italic" lengthAdjust="spacing" textLength="95.9238" x="566.3703" y="23.6016">&#171;vat_audit_logs&#187;</text><text fill="#000000" font-family="sans-serif" font-size="13" lengthAdjust="spacing" textLength="77.4033" x="575.6305" y="38.7012">VatAuditLog</text><line style="stroke:#888888;stroke-width:0.5;" x1="505.34" x2="690.9552" y1="46.4434" y2="46.4434"/><text fill="#000000" font-family="sans-serif" font-size="14" lengthAdjust="spacing" textLength="91.2256" x="510.34" y="63.9785">+id : int &#171;PK&#187;</text><text fill="#000000" font-family="sans-serif" font-size="14" lengthAdjust="spacing" textLength="83.9932" x="510.34" y="80.4668">+action : str</text><text fill="#000000" font-family="sans-serif" font-size="14" lengthAdjust="spacing" textLength="121.1533" x="510.34" y="96.9551">+old_value : text?</text><text fill="#000000" font-family="sans-serif" font-size="14" lengthAdjust="spacing" textLength="126.9707" x="510.34" y="113.4434">+new_value : text?</text><text fill="#000000" font-family="sans-serif" font-size="14" lengthAdjust="spacing" textLength="87.5068" x="510.34" y="129.9316">+note : text?</text><text fill="#000000" font-family="sans-serif" font-size="14" lengthAdjust="spacing" textLength="175.6152" x="510.34" y="146.4199">+performed_at : datetime</text></g><!--class VatInvoice--><g class="entity" data-qualified-name="VatInvoice" data-source-line="19" id="ent0003"><rect fill="#FAFAFA" height="286.2793" rx="2.5" ry="2.5" style="stroke:#888888;stroke-width:0.5;" width="319.9521" x="208.17" y="230.38"/><ellipse cx="324.4879" cy="250.1017" fill="#ADD1B2" rx="11" ry="11" style="stroke:#181818;stroke-width:1;"/><path d="M326.961,256.2447 Q326.38,256.5436 325.7408,256.693 Q325.1016,256.8424 324.3961,256.8424 Q321.8892,256.8424 320.5694,255.1905 Q319.2496,253.5387 319.2496,250.4176 Q319.2496,247.2882 320.5694,245.6363 Q321.8892,243.9845 324.3961,243.9845 Q325.1016,243.9845 325.7491,244.1339 Q326.3966,244.2833 326.961,244.5821 L326.961,247.3048 Q326.3302,246.7238 325.7367,246.454 Q325.1431,246.1842 324.5123,246.1842 Q323.1676,246.1842 322.4827,247.2508 Q321.7979,248.3175 321.7979,250.4176 Q321.7979,252.5094 322.4827,253.576 Q323.1676,254.6427 324.5123,254.6427 Q325.1431,254.6427 325.7367,254.3729 Q326.3302,254.1031 326.961,253.5221 Z " fill="#000000"/><text fill="#000000" font-family="sans-serif" font-size="12" font-style="italic" lengthAdjust="spacing" textLength="82.8164" x="342.9879" y="246.9816">&#171;vat_invoices&#187;</text><text fill="#000000" font-family="sans-serif" font-size="13" lengthAdjust="spacing" textLength="64.7271" x="352.0325" y="262.0812">VatInvoice</text><line style="stroke:#888888;stroke-width:0.5;" x1="209.17" x2="527.1221" y1="269.8234" y2="269.8234"/><text fill="#000000" font-family="sans-serif" font-size="14" lengthAdjust="spacing" textLength="91.2256" x="214.17" y="287.3585">+id : int &#171;PK&#187;</text><text fill="#000000" font-family="sans-serif" font-size="14" lengthAdjust="spacing" textLength="188.542" x="214.17" y="303.8468">+invoice_type : InvoiceType</text><text fill="#000000" font-family="sans-serif" font-size="14" lengthAdjust="spacing" textLength="237.0703" x="214.17" y="320.3351">+document_type : DocumentType?</text><text fill="#000000" font-family="sans-serif" font-size="14" lengthAdjust="spacing" textLength="149.9053" x="214.17" y="336.8234">+invoice_number : str</text><text fill="#000000" font-family="sans-serif" font-size="14" lengthAdjust="spacing" textLength="138.1748" x="214.17" y="353.3116">+invoice_date : date</text><text fill="#000000" font-family="sans-serif" font-size="14" lengthAdjust="spacing" textLength="173.5439" x="214.17" y="369.7999">+counterparty_name : str</text><text fill="#000000" font-family="sans-serif" font-size="14" lengthAdjust="spacing" textLength="155.0186" x="214.17" y="386.2882">+counterparty_id : str?</text><text fill="#000000" font-family="sans-serif" font-size="14" lengthAdjust="spacing" textLength="307.9521" x="214.17" y="402.7765">+counterparty_id_type : CounterpartyIdType?</text><text fill="#000000" font-family="sans-serif" font-size="14" lengthAdjust="spacing" textLength="269.4932" x="214.17" y="419.2648">+expense_category : ExpenseCategory?</text><text fill="#000000" font-family="sans-serif" font-size="14" lengthAdjust="spacing" textLength="171.5957" x="214.17" y="435.753">+rate_type : VatRateType</text><text fill="#000000" font-family="sans-serif" font-size="14" lengthAdjust="spacing" textLength="151.1768" x="214.17" y="452.2413">+is_exceptional : bool</text><line style="stroke:#888888;stroke-width:0.5;" x1="209.17" x2="527.1221" y1="459.1945" y2="459.1945"/><text fill="#000000" font-family="sans-serif" font-size="14" lengthAdjust="spacing" textLength="197.9277" x="214.17" y="476.7296">+net_amount : decimal(12,2)</text><text fill="#000000" font-family="sans-serif" font-size="14" lengthAdjust="spacing" textLength="196.417" x="214.17" y="493.2179">+vat_amount : decimal(12,2)</text><text fill="#000000" font-family="sans-serif" font-size="14" lengthAdjust="spacing" textLength="209.6855" x="214.17" y="509.7062">+deduction_rate : decimal(5,4)</text></g><!--class VatWorkItem--><g class="entity" data-qualified-name="VatWorkItem" data-source-line="36" id="ent0004"><rect fill="#FAFAFA" height="335.7441" rx="2.5" ry="2.5" style="stroke:#888888;stroke-width:0.5;" width="307.8525" x="304.22" y="593.66"/><ellipse cx="404.6941" cy="613.3817" fill="#ADD1B2" rx="11" ry="11" style="stroke:#181818;stroke-width:1;"/><path d="M407.1673,619.5247 Q406.5862,619.8236 405.9471,619.973 Q405.3079,620.1224 404.6023,620.1224 Q402.0955,620.1224 400.7757,618.4705 Q399.4558,616.8187 399.4558,613.6976 Q399.4558,610.5682 400.7757,608.9163 Q402.0955,607.2645 404.6023,607.2645 Q405.3079,607.2645 405.9554,607.4139 Q406.6028,607.5633 407.1673,607.8621 L407.1673,610.5848 Q406.5364,610.0038 405.9429,609.734 Q405.3494,609.4642 404.7185,609.4642 Q403.3738,609.4642 402.689,610.5308 Q402.0042,611.5975 402.0042,613.6976 Q402.0042,615.7894 402.689,616.856 Q403.3738,617.9227 404.7185,617.9227 Q405.3494,617.9227 405.9429,617.6529 Q406.5364,617.3831 407.1673,616.8021 Z " fill="#000000"/><text fill="#000000" font-family="sans-serif" font-size="12" font-style="italic" lengthAdjust="spacing" textLength="102.4043" x="423.1941" y="610.2616">&#171;vat_work_items&#187;</text><text fill="#000000" font-family="sans-serif" font-size="13" lengthAdjust="spacing" textLength="80.5518" x="434.1204" y="625.3612">VatWorkItem</text><line style="stroke:#888888;stroke-width:0.5;" x1="305.22" x2="611.0725" y1="633.1034" y2="633.1034"/><text fill="#000000" font-family="sans-serif" font-size="14" lengthAdjust="spacing" textLength="91.2256" x="310.22" y="650.6385">+id : int &#171;PK&#187;</text><text fill="#000000" font-family="sans-serif" font-size="14" lengthAdjust="spacing" textLength="159.2773" x="310.22" y="667.1268">+period_type : VatType</text><text fill="#000000" font-family="sans-serif" font-size="14" lengthAdjust="spacing" textLength="193.9014" x="310.22" y="683.6151">+status : VatWorkItemStatus</text><text fill="#000000" font-family="sans-serif" font-size="14" lengthAdjust="spacing" textLength="219.6113" x="310.22" y="700.1034">+pending_materials_note : text?</text><text fill="#000000" font-family="sans-serif" font-size="14" lengthAdjust="spacing" textLength="145.9199" x="310.22" y="716.5916">+is_overridden : bool</text><text fill="#000000" font-family="sans-serif" font-size="14" lengthAdjust="spacing" textLength="199.9785" x="310.22" y="733.0799">+override_justification : text?</text><text fill="#000000" font-family="sans-serif" font-size="14" lengthAdjust="spacing" textLength="295.8525" x="310.22" y="749.5682">+submission_method : SubmissionMethod?</text><text fill="#000000" font-family="sans-serif" font-size="14" lengthAdjust="spacing" textLength="139.877" x="310.22" y="766.0565">+filed_at : datetime?</text><text fill="#000000" font-family="sans-serif" font-size="14" lengthAdjust="spacing" textLength="153.5557" x="310.22" y="782.5448">+is_amendment : bool</text><line style="stroke:#888888;stroke-width:0.5;" x1="305.22" x2="611.0725" y1="789.4979" y2="789.4979"/><text fill="#000000" font-family="sans-serif" font-size="14" lengthAdjust="spacing" textLength="104.2754" x="310.22" y="807.033">+period : str(7)</text><text fill="#000000" font-family="sans-serif" font-size="14" lengthAdjust="spacing" textLength="227.5137" x="310.22" y="823.5213">+total_output_vat : decimal(12,2)</text><text fill="#000000" font-family="sans-serif" font-size="14" lengthAdjust="spacing" textLength="217.7246" x="310.22" y="840.0096">+total_input_vat : decimal(12,2)</text><text fill="#000000" font-family="sans-serif" font-size="14" lengthAdjust="spacing" textLength="166.127" x="310.22" y="856.4979">+net_vat : decimal(12,2)</text><text fill="#000000" font-family="sans-serif" font-size="14" lengthAdjust="spacing" textLength="229.0244" x="310.22" y="872.9862">+total_output_net : decimal(12,2)</text><text fill="#000000" font-family="sans-serif" font-size="14" lengthAdjust="spacing" textLength="219.2354" x="310.22" y="889.4745">+total_input_net : decimal(12,2)</text><text fill="#000000" font-family="sans-serif" font-size="14" lengthAdjust="spacing" textLength="238.9844" x="310.22" y="905.9627">+final_vat_amount : decimal(12,2)?</text><text fill="#000000" font-family="sans-serif" font-size="14" lengthAdjust="spacing" textLength="232.1143" x="310.22" y="922.451">+submission_reference : str(100)?</text></g><!--class User--><g class="entity" data-qualified-name="User" data-source-line="61" id="ent0009"><rect fill="#FAFAFA" height="32" rx="2.5" ry="2.5" style="stroke:#888888;stroke-width:0.5;" width="60.1963" x="373.05" y="1006.4"/><ellipse cx="388.05" cy="1022.4" fill="#ADD1B2" rx="11" ry="11" style="stroke:#181818;stroke-width:1;"/><path d="M390.5231,1028.5431 Q389.9421,1028.8419 389.3029,1028.9913 Q388.6638,1029.1407 387.9582,1029.1407 Q385.4514,1029.1407 384.1315,1027.4889 Q382.8117,1025.837 382.8117,1022.7159 Q382.8117,1019.5865 384.1315,1017.9347 Q385.4514,1016.2828 387.9582,1016.2828 Q388.6638,1016.2828 389.3112,1016.4322 Q389.9587,1016.5816 390.5231,1016.8805 L390.5231,1019.6031 Q389.8923,1019.0221 389.2988,1018.7523 Q388.7053,1018.4825 388.0744,1018.4825 Q386.7297,1018.4825 386.0449,1019.5492 Q385.3601,1020.6158 385.3601,1022.7159 Q385.3601,1024.8077 386.0449,1025.8744 Q386.7297,1026.941 388.0744,1026.941 Q388.7053,1026.941 389.2988,1026.6712 Q389.8923,1026.4015 390.5231,1025.8204 Z " fill="#000000"/><text fill="#000000" font-family="sans-serif" font-size="13" lengthAdjust="spacing" textLength="28.1963" x="402.05" y="1027.3131">User</text></g><!--class Business--><g class="entity" data-qualified-name="Business" data-source-line="64" id="ent0013"><rect fill="#FAFAFA" height="32" rx="2.5" ry="2.5" style="stroke:#888888;stroke-width:0.5;" width="86.4946" x="182.9" y="745.53"/><ellipse cx="197.9" cy="761.53" fill="#ADD1B2" rx="11" ry="11" style="stroke:#181818;stroke-width:1;"/><path d="M200.3731,767.6731 Q199.7921,767.9719 199.1529,768.1213 Q198.5138,768.2707 197.8082,768.2707 Q195.3014,768.2707 193.9815,766.6189 Q192.6617,764.967 192.6617,761.8459 Q192.6617,758.7165 193.9815,757.0647 Q195.3014,755.4128 197.8082,755.4128 Q198.5138,755.4128 199.1612,755.5622 Q199.8087,755.7116 200.3731,756.0105 L200.3731,758.7331 Q199.7423,758.1521 199.1488,757.8823 Q198.5553,757.6125 197.9244,757.6125 Q196.5797,757.6125 195.8949,758.6792 Q195.2101,759.7458 195.2101,761.8459 Q195.2101,763.9377 195.8949,765.0044 Q196.5797,766.071 197.9244,766.071 Q198.5553,766.071 199.1488,765.8012 Q199.7423,765.5315 200.3731,764.9504 Z " fill="#000000"/><text fill="#000000" font-family="sans-serif" font-size="13" lengthAdjust="spacing" textLength="54.4946" x="211.9" y="766.4431">Business</text></g><!--class Client--><g class="entity" data-qualified-name="Client" data-source-line="65" id="ent0015"><rect fill="#FAFAFA" height="32" rx="2.5" ry="2.5" style="stroke:#888888;stroke-width:0.5;" width="68.6831" x="631.81" y="1006.4"/><ellipse cx="646.81" cy="1022.4" fill="#ADD1B2" rx="11" ry="11" style="stroke:#181818;stroke-width:1;"/><path d="M649.2831,1028.5431 Q648.7021,1028.8419 648.0629,1028.9913 Q647.4238,1029.1407 646.7182,1029.1407 Q644.2114,1029.1407 642.8915,1027.4889 Q641.5717,1025.837 641.5717,1022.7159 Q641.5717,1019.5865 642.8915,1017.9347 Q644.2114,1016.2828 646.7182,1016.2828 Q647.4238,1016.2828 648.0712,1016.4322 Q648.7187,1016.5816 649.2831,1016.8805 L649.2831,1019.6031 Q648.6523,1019.0221 648.0588,1018.7523 Q647.4653,1018.4825 646.8344,1018.4825 Q645.4897,1018.4825 644.8049,1019.5492 Q644.1201,1020.6158 644.1201,1022.7159 Q644.1201,1024.8077 644.8049,1025.8744 Q645.4897,1026.941 646.8344,1026.941 Q647.4653,1026.941 648.0588,1026.6712 Q648.6523,1026.4015 649.2831,1025.8204 Z " fill="#000000"/><text fill="#000000" font-family="sans-serif" font-size="13" lengthAdjust="spacing" textLength="36.6831" x="660.81" y="1027.3131">Client</text></g><!--link VatInvoice to VatWorkItem--><g class="link" data-entity-1="ent0003" data-entity-2="ent0004" data-link-type="dependency" data-source-line="56" id="lnk5"><path codeLine="56" d="M436.43,516.85 C439.77,526.81 442.73,536.8 445.15,546.66 C448.83,561.65 450.8408,571.4548 453.0008,587.3248" fill="none" id="VatInvoice-to-VatWorkItem" style="stroke:#555555;stroke-width:1;"/><polygon fill="#555555" points="453.81,593.27,456.5597,583.8128,453.1357,588.3157,448.6328,584.8917,453.81,593.27" style="stroke:#555555;stroke-width:1;"/><text fill="#000000" font-family="sans-serif" font-size="13" lengthAdjust="spacing" textLength="65.4189" x="449.89" y="560.2284">work_item</text><text fill="#000000" font-family="sans-serif" font-size="13" lengthAdjust="spacing" textLength="24.667" x="429.0849" y="582.8812">0..1</text></g><!--link VatWorkItem to VatInvoice--><g class="link" data-entity-1="ent0004" data-entity-2="ent0003" data-link-type="dependency" data-source-line="57" id="lnk6"><path codeLine="57" d="M392.78,593.35 C389.94,583.38 387.36,573.43 385.15,563.66 C381.75,548.62 379.8365,538.7142 377.6565,522.8442" fill="none" id="VatWorkItem-to-VatInvoice" style="stroke:#555555;stroke-width:1;"/><polygon fill="#555555" points="376.84,516.9,374.102,526.3606,377.5204,521.8535,382.0276,525.2719,376.84,516.9" style="stroke:#555555;stroke-width:1;"/><text fill="#000000" font-family="sans-serif" font-size="13" lengthAdjust="spacing" textLength="50.8257" x="386.15" y="560.2284">invoices</text><text fill="#000000" font-family="sans-serif" font-size="13" lengthAdjust="spacing" textLength="22.7119" x="354.7394" y="537.2561">0..*</text></g><!--link VatWorkItem to VatWorkItem--><g class="link" data-entity-1="ent0004" data-entity-2="ent0004" data-link-type="dependency" data-source-line="58" id="lnk7"><path codeLine="58" d="M612.33,727.2 C633.19,732.95 647.07,744.4 647.07,761.53 C647.07,778.66 638.9736,788.503 618.1136,794.263" fill="none" id="VatWorkItem-to-VatWorkItem" style="stroke:#555555;stroke-width:1;"/><polygon fill="#555555" points="612.33,795.86,622.07,797.3202,617.1496,794.5292,619.9407,789.6088,612.33,795.86" style="stroke:#555555;stroke-width:1;"/><text fill="#000000" font-family="sans-serif" font-size="13" lengthAdjust="spacing" textLength="82.4307" x="653.07" y="766.5984">original_item</text><text fill="#000000" font-family="sans-serif" font-size="13" lengthAdjust="spacing" textLength="24.667" x="619.8753" y="794.651">0..1</text></g><!--link VatAuditLog to VatWorkItem--><g class="link" data-entity-1="ent0002" data-entity-2="ent0004" data-link-type="dependency" data-source-line="60" id="lnk8"><path codeLine="60" d="M594.24,153.71 C588.43,240.85 574.81,391.02 545.15,516.66 C539.21,541.81 533.413,562.2666 525.103,587.7066" fill="none" id="VatAuditLog-to-VatWorkItem" style="stroke:#555555;stroke-width:1;stroke-dasharray:7,7;"/><polygon fill="#555555" points="523.24,593.41,529.8368,586.0969,524.7925,588.6571,522.2323,583.6128,523.24,593.41" style="stroke:#555555;stroke-width:1;"/><text fill="#000000" font-family="sans-serif" font-size="13" lengthAdjust="spacing" textLength="83.8589" x="588.93" y="378.5884">work_item_id</text></g><!--link VatAuditLog to User--><g class="link" data-entity-1="ent0002" data-entity-2="ent0009" data-link-type="dependency" data-source-line="61" id="lnk10"><path codeLine="61" d="M644.98,153.58 C658.49,177.26 672.02,204.21 681.15,230.38 C783.87,524.79 869.05,645.02 741.15,929.4 C728.23,958.11 716.62,962.96 688.15,976.4 C602.31,1016.92 493.39,1022.1145 439.47,1022.0745" fill="none" id="VatAuditLog-to-User" style="stroke:#555555;stroke-width:1;stroke-dasharray:7,7;"/><polygon fill="#555555" points="433.47,1022.07,442.467,1026.0767,438.47,1022.0737,442.473,1018.0767,433.47,1022.07" style="stroke:#555555;stroke-width:1;"/><text fill="#000000" font-family="sans-serif" font-size="13" lengthAdjust="spacing" textLength="87.8643" x="793.94" y="560.2284">performed_by</text></g><!--link VatAuditLog to VatInvoice--><g class="link" data-entity-1="ent0002" data-entity-2="ent0003" data-link-type="dependency" data-source-line="62" id="lnk11"><path codeLine="62" d="M532.98,153.67 C524.49,163.54 516.02,173.63 508.15,183.38 C496.08,198.31 487.3621,209.3719 475.2321,225.2519" fill="none" id="VatAuditLog-to-VatInvoice" style="stroke:#555555;stroke-width:1;stroke-dasharray:7,7;"/><polygon fill="#555555" points="471.59,230.02,480.2319,225.2959,474.6251,226.0466,473.8745,220.4397,471.59,230.02" style="stroke:#555555;stroke-width:1;"/><text fill="#000000" font-family="sans-serif" font-size="13" lengthAdjust="spacing" textLength="62.6387" x="509.15" y="196.9484">invoice_id</text></g><!--link VatInvoice to User--><g class="link" data-entity-1="ent0003" data-entity-2="ent0009" data-link-type="dependency" data-source-line="63" id="lnk12"><path codeLine="63" d="M207.86,465.1 C162.99,499.15 119.79,542.28 95.15,593.66 C30.62,728.2 6,809.74 95.15,929.4 C128.86,974.66 295.6218,1004.9043 366.6418,1015.9943" fill="none" id="VatInvoice-to-User" style="stroke:#555555;stroke-width:1;stroke-dasharray:7,7;"/><polygon fill="#555555" points="372.57,1016.92,364.2949,1011.5793,367.6299,1016.1486,363.0606,1019.4836,372.57,1016.92" style="stroke:#555555;stroke-width:1;"/><text fill="#000000" font-family="sans-serif" font-size="13" lengthAdjust="spacing" textLength="68.1611" x="96.15" y="766.5984">created_by</text></g><!--link VatInvoice to Business--><g class="link" data-entity-1="ent0003" data-entity-2="ent0013" data-link-type="dependency" data-source-line="64" id="lnk14"><path codeLine="64" d="M261.22,516.92 C256.29,526.71 251.86,536.67 248.15,546.66 C221.96,617.16 223.0735,703.1873 224.8535,739.1673" fill="none" id="VatInvoice-to-Business" style="stroke:#555555;stroke-width:1;stroke-dasharray:7,7;"/><polygon fill="#555555" points="225.15,745.16,228.7004,735.9733,224.9029,740.1661,220.7102,736.3686,225.15,745.16" style="stroke:#555555;stroke-width:1;"/><text fill="#000000" font-family="sans-serif" font-size="13" lengthAdjust="spacing" textLength="124.7378" x="249.15" y="560.2284">business_activity_id</text></g><!--link VatWorkItem to Client--><g class="link" data-entity-1="ent0004" data-entity-2="ent0015" data-link-type="dependency" data-source-line="65" id="lnk16"><path codeLine="65" d="M592.52,929.77 C617.91,961.36 636.8908,984.9936 650.1708,1001.5136" fill="none" id="VatWorkItem-to-Client" style="stroke:#555555;stroke-width:1;stroke-dasharray:7,7;"/><polygon fill="#555555" points="653.93,1006.19,651.4088,996.6693,650.7973,1002.293,645.1736,1001.6816,653.93,1006.19" style="stroke:#555555;stroke-width:1;"/><text fill="#000000" font-family="sans-serif" font-size="13" lengthAdjust="spacing" textLength="52.7871" x="627.36" y="972.9684">client_id</text></g><!--link VatWorkItem to User--><g class="link" data-entity-1="ent0004" data-entity-2="ent0009" data-link-type="dependency" data-source-line="66" id="lnk17"><path codeLine="66" d="M354.8,929.75 C351.06,939.58 347.79,949.5 345.15,959.4 C343.2,966.7 341.82,969.61 345.15,976.4 C351.2,988.76 357.4819,995.3655 368.4919,1002.7255" fill="none" id="VatWorkItem-to-User" style="stroke:#555555;stroke-width:1;stroke-dasharray:7,7;"/><polygon fill="#555555" points="373.48,1006.06,368.2208,997.7329,369.3232,1003.2813,363.7748,1004.3837,373.48,1006.06" style="stroke:#555555;stroke-width:1;"/><text fill="#000000" font-family="sans-serif" font-size="13" lengthAdjust="spacing" textLength="68.1611" x="346.15" y="972.9684">created_by</text></g><!--link VatWorkItem to User--><g class="link" data-entity-1="ent0004" data-entity-2="ent0009" data-link-type="dependency" data-source-line="67" id="lnk18"><path codeLine="67" d="M430.34,929.78 C426.9,945.61 423.16,961.36 419.15,976.4 C416.45,986.49 414.6616,991.9414 411.3816,1000.5714" fill="none" id="VatWorkItem-to-User-1" style="stroke:#555555;stroke-width:1;stroke-dasharray:7,7;"/><polygon fill="#555555" points="409.25,1006.18,416.1865,999.1882,411.0264,1001.5062,408.7084,996.346,409.25,1006.18" style="stroke:#555555;stroke-width:1;"/><text fill="#000000" font-family="sans-serif" font-size="13" lengthAdjust="spacing" textLength="75.1372" x="423.09" y="972.9684">assigned_to</text></g><!--link VatWorkItem to User--><g class="link" data-entity-1="ent0004" data-entity-2="ent0009" data-link-type="dependency" data-source-line="68" id="lnk19"><path codeLine="68" d="M522.32,929.7 C521.15,946.17 516.56,962.07 507.15,976.4 C490.95,1001.06 463.8958,1011.0555 439.4158,1016.1155" fill="none" id="VatWorkItem-to-User-2" style="stroke:#555555;stroke-width:1;stroke-dasharray:7,7;"/><polygon fill="#555555" points="433.54,1017.33,443.1634,1019.4254,438.4365,1016.3179,441.544,1011.591,433.54,1017.33" style="stroke:#555555;stroke-width:1;"/><text fill="#000000" font-family="sans-serif" font-size="13" lengthAdjust="spacing" textLength="49.1943" x="516.15" y="972.9684">filed_by</text></g><!--link VatWorkItem to User--><g class="link" data-entity-1="ent0004" data-entity-2="ent0009" data-link-type="dependency" data-source-line="69" id="lnk20"><path codeLine="69" d="M303.74,912.92 C283.28,934.45 268.22,951.87 265.15,959.4 C246.83,1004.26 320.6066,1016.2138 366.5966,1019.6438" fill="none" id="VatWorkItem-to-User-3" style="stroke:#555555;stroke-width:1;stroke-dasharray:7,7;"/><polygon fill="#555555" points="372.58,1020.09,363.9024,1015.4317,367.5938,1019.7181,363.3074,1023.4095,372.58,1020.09" style="stroke:#555555;stroke-width:1;"/><text fill="#000000" font-family="sans-serif" font-size="13" lengthAdjust="spacing" textLength="68.1865" x="266.15" y="972.9684">deleted_by</text></g><?plantuml-src XLLjRzem4FwUNs5r7mfRYs1RjGbL84fRgUggJUrUFaOcFb8FlqJsXPQz_FVPZWC1GXU-SCyzldjovxiSaqijALT3igIO6YYqGKl87qAaPZ0acPO5pJ0v9bSi1o8W1yM6vFHqH3xVtn43WYBNoZxoejCbXFHw8t9zUwgLM96Eqbk4RlB86H2G1Qw813a3OnExuAgWXagI2Mhj1D7mMObmasdrm7y1wUzIhhN2u1cyQxWcnkYdgHRQa5TduMauf_xSXJOCJAHy3CyUXMQBtEXIiKYxdlXVaeJ4v3l5ISauVj8vEJ_t1QFUJ8NExMX4VYU4lE6C30bNw0XVRaSZ3xdwkGeusABnjXOiNL9HWeCGdd7iGGLFBQ36BRi0CzT60aifEfnH1EGIahyDXJTggNa6KI2lh9VaHKgAgy8dY-U_EijxcSvA2GfhzsMqlN_SFAvAtz3DMzQu5ncrUZXprKKmhkYuIXMLi3cnvGf2dMFSugcrJ1lm3LihKk0Q8xtFvuMCIoewWxSdRxlU6zfsq0lF1IWBQURavjgi7EUgWgOH2IcCCseLhkRtpbmN35WP6fwQ-EOnnzd9-v22snIUCoWyXmf7c6ajjbhuGvl53OACFNnoPigT_L8NtTNWEjQiyw6xWHeoQuaMAPQsmkfS3m6hZYd6LPvA9zzmAcowUmrH8nMfBh4eqLtQra9M73TTXoc-Jo-UZXaSxtyP3b3ct5KuFTpnSUo7Ne8nd35GTJlyc5OWf3zBYtpECnh7U5q7MyuajzRtMW8-Xl8_hB6x08qh7M9tPdS369Y30PN5UUWC-lsrF3SbYlcXQroMngJxPNpKx_K6HrkNPqZM5oTfuZNzzL5pNVZxLAsALl9UR6ru7geRuX-lbxxWQc73wj_zFlZI2sg0TOT9SvFwJyO1tMxMzwZVRDWocrKuMxM5stkl6Al66w4o0wufTQ0cuQAqN87repABVrE_pPSyxA6jIdd-LF2gIrduqqPfpTd6SBk0vyfHK1-YLDVgS0W60cAIVm00?></g></svg>